<svg width="24" height="24" viewBox="0 0 24 24" fill="none" xmlns="http://www.w3.org/2000/svg">
<g clip-path="url(#clip0_23056_11828)">
<path d="M16.0536 6.92331C16.4654 6.47115 17.231 6.24219 18.0446 6.24219C19.2619 6.24219 19.1995 6.78027 19.1995 7.44171C19.1995 8.10459 19.2619 8.64219 18.0446 8.64219C17.4638 8.64219 16.7126 8.52027 16.319 8.32059" stroke="#FCFCFD" stroke-width="0.96192" stroke-miterlimit="10" stroke-linecap="round" stroke-linejoin="round"/>
<path d="M16.2 8.48047C17.0002 10.8003 18.5909 13.6889 20.16 15.3603" stroke="#FCFCFD" stroke-width="0.96" stroke-miterlimit="10" stroke-linecap="round" stroke-linejoin="round"/>
<path d="M12.48 5.28031C13.44 4.32031 14.88 4.32031 14.88 4.32031C14.88 4.32031 15.2107 4.94287 15.3322 5.44399" stroke="#FCFCFD" stroke-width="0.96" stroke-miterlimit="10" stroke-linecap="round" stroke-linejoin="round"/>
<path d="M6.95566 12.1156C5.37262 9.19577 3.51742 9.60185 1.91998 9.60185C0.91486 9.60185 0.47998 9.12185 0.47998 9.12185C0.47998 9.12185 0.8035 7.68185 3.83998 7.68185C5.93758 7.68185 6.2155 7.72889 6.71998 8.64185C7.0531 9.24521 8.63998 9.60185 10.08 9.60185C10.9142 9.60185 10.08 7.20185 13.92 7.20185C14.9544 7.20185 15.3936 5.93081 15.3393 5.42969C15.3393 5.42969 16.0377 8.36921 16.5422 9.53657C16.5422 9.53657 13.6723 10.7975 14.2401 14.8823C14.2637 15.4103 13.0905 15.8207 11.8118 15.8366C10.6699 15.8495 8.66782 15.538 8.1883 14.8823" stroke="#FCFCFD" stroke-width="0.96" stroke-miterlimit="10" stroke-linecap="round" stroke-linejoin="round"/>
<path d="M4.32001 14.8789H8.02801" stroke="#FCFCFD" stroke-width="0.96" stroke-miterlimit="10" stroke-linecap="round" stroke-linejoin="round"/>
<path d="M4.32 11.5225C6.1728 11.5225 7.68 13.0302 7.68 14.8825C7.68 16.7348 6.1728 18.2425 4.32 18.2425C2.4672 18.2425 0.96 16.7348 0.96 14.8825C0.96 13.0302 2.4672 11.5225 4.32 11.5225ZM4.32 10.5625C1.93344 10.5625 0 12.4959 0 14.8825C0 17.2691 1.93344 19.2025 4.32 19.2025C6.70656 19.2025 8.64 17.2691 8.64 14.8825C8.64 12.4959 6.70656 10.5625 4.32 10.5625Z" fill="#FCFCFD"/>
<path d="M4.32004 13.4405C5.11396 13.4405 5.76004 14.0865 5.76004 14.8805C5.76004 15.6744 5.11396 16.3205 4.32004 16.3205C3.52612 16.3205 2.88004 15.6744 2.88004 14.8805C2.88004 14.0865 3.52612 13.4405 4.32004 13.4405ZM4.32004 12.4805C2.99476 12.4805 1.92004 13.5547 1.92004 14.8805C1.92004 16.2057 2.99476 17.2805 4.32004 17.2805C5.64532 17.2805 6.72004 16.2057 6.72004 14.8805C6.72004 13.5547 5.64532 12.4805 4.32004 12.4805Z" fill="#FCFCFD"/>
<path d="M19.68 11.5225C21.5323 11.5225 23.04 13.0302 23.04 14.8825C23.04 16.7348 21.5323 18.2425 19.68 18.2425C17.8277 18.2425 16.32 16.7348 16.32 14.8825C16.32 13.0302 17.8277 11.5225 19.68 11.5225ZM19.68 10.5625C17.2934 10.5625 15.36 12.4959 15.36 14.8825C15.36 17.2691 17.2934 19.2025 19.68 19.2025C22.0665 19.2025 24 17.2691 24 14.8825C24 12.4959 22.0665 10.5625 19.68 10.5625Z" fill="#FCFCFD"/>
<path d="M19.68 13.4405C20.4739 13.4405 21.12 14.0865 21.12 14.8805C21.12 15.6744 20.4739 16.3205 19.68 16.3205C18.886 16.3205 18.24 15.6744 18.24 14.8805C18.24 14.0865 18.886 13.4405 19.68 13.4405ZM19.68 12.4805C18.3547 12.4805 17.28 13.5547 17.28 14.8805C17.28 16.2057 18.3547 17.2805 19.68 17.2805C21.0052 17.2805 22.08 16.2057 22.08 14.8805C22.08 13.5547 21.0052 12.4805 19.68 12.4805Z" fill="#FCFCFD"/>
</g>
<defs>
<clipPath id="clip0_23056_11828">
<rect width="24" height="24" fill="white"/>
</clipPath>
</defs>
</svg>
