<svg width="24" height="24" viewBox="0 0 24 24" fill="none" xmlns="http://www.w3.org/2000/svg">
<g clip-path="url(#clip0_23056_11763)">
<path d="M22.5 0.75H13.5V17.25H22.5V0.75Z" fill="#DDE1E6"/>
<path d="M13.5 16.5259C15.253 15.1316 16.6692 13.36 17.643 11.3428C18.6169 9.32568 19.1235 7.11492 19.125 4.875C19.1247 3.47924 18.9272 2.09053 18.5385 0.75H13.5V16.5259Z" fill="white"/>
<path d="M13.5 9H4.5V21.75H13.5V9Z" fill="#DDE1E6"/>
<path d="M4.5 19.8611C7.78109 19.7486 10.9379 18.5787 13.5 16.5259V9H4.5V19.8611Z" fill="white"/>
<path d="M22.5 17.25H13.5V21.75H22.5V17.25Z" fill="#878D96"/>
<path d="M16.5 21.75V20.25C16.5 19.8522 16.658 19.4706 16.9393 19.1893C17.2206 18.908 17.6022 18.75 18 18.75C18.3978 18.75 18.7794 18.908 19.0607 19.1893C19.342 19.4706 19.5 19.8522 19.5 20.25V21.75H16.5Z" fill="#A2A9B0"/>
<path d="M7.5 21.75V20.25C7.5 19.8522 7.65804 19.4706 7.93934 19.1893C8.22064 18.908 8.60218 18.75 9 18.75C9.39782 18.75 9.77936 18.908 10.0607 19.1893C10.342 19.4706 10.5 19.8522 10.5 20.25V21.75H7.5Z" fill="#878D96"/>
<path d="M23.25 21.75H0.75V23.25H23.25V21.75Z" fill="#878D96"/>
<path d="M23.25 21.75H0.75V23.25H23.25V21.75Z" stroke="#121619" stroke-width="0.75" stroke-linejoin="round"/>
<path d="M22.5 21.75V0.75H13.5V21.75" stroke="#121619" stroke-width="0.75" stroke-linejoin="round"/>
<path d="M17.25 2.25H15V4.5H17.25V2.25Z" stroke="#121619" stroke-width="0.75" stroke-linejoin="round"/>
<path d="M21 2.25H18.75V4.5H21V2.25Z" stroke="#121619" stroke-width="0.75" stroke-linejoin="round"/>
<path d="M17.25 6H15V8.25H17.25V6Z" stroke="#121619" stroke-width="0.75" stroke-linejoin="round"/>
<path d="M21 6H18.75V8.25H21V6Z" stroke="#121619" stroke-width="0.75" stroke-linejoin="round"/>
<path d="M17.25 9.75H15V12H17.25V9.75Z" stroke="#121619" stroke-width="0.75" stroke-linejoin="round"/>
<path d="M21 9.75H18.75V12H21V9.75Z" stroke="#121619" stroke-width="0.75" stroke-linejoin="round"/>
<path d="M8.25 11.25H6V13.5H8.25V11.25Z" stroke="#121619" stroke-width="0.75" stroke-linejoin="round"/>
<path d="M12 11.25H9.75V13.5H12V11.25Z" stroke="#121619" stroke-width="0.75" stroke-linejoin="round"/>
<path d="M8.25 15H6V17.25H8.25V15Z" stroke="#121619" stroke-width="0.75" stroke-linejoin="round"/>
<path d="M12 15H9.75V17.25H12V15Z" stroke="#121619" stroke-width="0.75" stroke-linejoin="round"/>
<path d="M17.25 13.5H15V15.75H17.25V13.5Z" stroke="#121619" stroke-width="0.75" stroke-linejoin="round"/>
<path d="M21 13.5H18.75V15.75H21V13.5Z" stroke="#121619" stroke-width="0.75" stroke-linejoin="round"/>
<path d="M13.5 17.25H22.5" stroke="#121619" stroke-width="0.75" stroke-linejoin="round"/>
<path d="M16.5 21.75V20.25C16.5 19.8522 16.658 19.4706 16.9393 19.1893C17.2206 18.908 17.6022 18.75 18 18.75V18.75C18.3978 18.75 18.7794 18.908 19.0607 19.1893C19.342 19.4706 19.5 19.8522 19.5 20.25V21.75" stroke="#121619" stroke-width="0.75" stroke-linejoin="round"/>
<path d="M7.5 21.75V20.25C7.5 19.8522 7.65804 19.4706 7.93934 19.1893C8.22064 18.908 8.60218 18.75 9 18.75C9.39782 18.75 9.77936 18.908 10.0607 19.1893C10.342 19.4706 10.5 19.8522 10.5 20.25V21.75" stroke="#121619" stroke-width="0.75" stroke-linejoin="round"/>
<path d="M4.5 9.64453V21.751" stroke="#121619" stroke-width="0.75" stroke-linejoin="round"/>
<path d="M13.5 7.5H9" stroke="#121619" stroke-width="0.75" stroke-linejoin="round"/>
<path d="M5.25 9.75C7.73528 9.75 9.75 7.73528 9.75 5.25C9.75 2.76472 7.73528 0.75 5.25 0.75C2.76472 0.75 0.75 2.76472 0.75 5.25C0.75 7.73528 2.76472 9.75 5.25 9.75Z" stroke="#121619" stroke-width="0.75" stroke-linejoin="round"/>
<path d="M13.5 9H7.73813" stroke="#121619" stroke-width="0.75" stroke-linejoin="round"/>
<g clip-path="url(#clip1_23056_11763)">
<path d="M2.49621 7.49609H8.00379C8.05647 7.49609 8.10702 7.51695 8.14437 7.5541C8.18172 7.59126 8.20285 7.64169 8.20312 7.69437V7.71125C8.20312 7.73729 8.198 7.76307 8.18803 7.78713C8.17807 7.81119 8.16346 7.83304 8.14505 7.85146C8.12664 7.86987 8.10478 7.88447 8.08072 7.89444C8.05667 7.9044 8.03088 7.90953 8.00484 7.90953H2.49621C2.44371 7.90953 2.39332 7.88882 2.356 7.85189C2.31868 7.81497 2.29743 7.76481 2.29688 7.7123V7.69543C2.29688 7.64256 2.31788 7.59186 2.35526 7.55448C2.39264 7.51709 2.44334 7.49609 2.49621 7.49609Z" fill="#878D96"/>
<path fill-rule="evenodd" clip-rule="evenodd" d="M4.38307 6.10938H3.71439C3.68825 6.10932 3.66236 6.11452 3.63826 6.12467C3.61416 6.13481 3.59235 6.1497 3.57412 6.16844C3.53796 6.20461 3.51718 6.25336 3.51611 6.30449V7.49734H4.38307V6.10938Z" fill="#878D96"/>
<path fill-rule="evenodd" clip-rule="evenodd" d="M5.25001 5.6875H4.58134C4.55519 5.68744 4.5293 5.69264 4.5052 5.70279C4.48111 5.71294 4.4593 5.72782 4.44106 5.74656C4.4049 5.78274 4.38412 5.83148 4.38306 5.88262V7.49734H5.25001V5.6875Z" fill="#DDE1E6"/>
<path fill-rule="evenodd" clip-rule="evenodd" d="M6.11695 5.26563H5.44934C5.39719 5.26561 5.34712 5.28603 5.30985 5.32251C5.27259 5.35898 5.2511 5.40861 5.25 5.46074V7.49734H6.11695V5.26563Z" fill="#878D96"/>
<path fill-rule="evenodd" clip-rule="evenodd" d="M6.9839 4.84375H6.31628C6.26414 4.84374 6.21406 4.86416 6.1768 4.90063C6.13953 4.93711 6.11805 4.98673 6.11694 5.03887V7.49734H6.9839V4.84375Z" fill="#DDE1E6"/>
<path fill-rule="evenodd" clip-rule="evenodd" d="M3.51608 6.53125H2.84741C2.79542 6.53177 2.74566 6.55236 2.70851 6.58873C2.67136 6.62509 2.6497 6.67441 2.64807 6.72637V7.49313H3.51608V6.53125Z" fill="#DDE1E6"/>
<path fill-rule="evenodd" clip-rule="evenodd" d="M7.85193 4.6173C7.85138 4.56461 7.8302 4.51422 7.79293 4.47696C7.75567 4.4397 7.70529 4.41852 7.65259 4.41797H7.18325C7.13039 4.41797 7.07968 4.43897 7.0423 4.47635C7.00492 4.51374 6.98392 4.56444 6.98392 4.6173V7.49766H7.85193V4.6173Z" fill="#878D96"/>
<path d="M7.42858 2.96317C7.39911 2.91602 7.35146 2.88183 7.29589 2.86797L6.32996 2.62047C6.30199 2.6133 6.27282 2.61147 6.24412 2.61509C6.21542 2.6187 6.18774 2.62769 6.16266 2.64154C6.13759 2.65539 6.11562 2.67383 6.09799 2.6958C6.08037 2.71777 6.06744 2.74285 6.05995 2.76961C6.05246 2.79636 6.05054 2.82426 6.05432 2.85172C6.0581 2.87918 6.0675 2.90566 6.08198 2.92964C6.09646 2.95363 6.11573 2.97465 6.1387 2.99151C6.16167 3.00837 6.18788 3.02074 6.21585 3.0279L6.65371 3.14087L2.62279 5.36717C2.59665 5.38159 2.57374 5.40079 2.55536 5.42368C2.53698 5.44657 2.5235 5.4727 2.51567 5.50057C2.50785 5.52845 2.50584 5.55752 2.50976 5.58614C2.51369 5.61476 2.52346 5.64235 2.53853 5.66736C2.55361 5.69236 2.57368 5.71428 2.5976 5.73186C2.62153 5.74944 2.64884 5.76234 2.67798 5.76983C2.70712 5.77731 2.73752 5.77923 2.76743 5.77548C2.79734 5.77173 2.82619 5.76237 2.85233 5.74796L6.88457 3.52419L6.76649 3.94305C6.75677 3.97052 6.75304 3.99961 6.75555 4.02851C6.75805 4.05741 6.76673 4.08552 6.78104 4.11109C6.79536 4.13665 6.815 4.15914 6.83877 4.17715C6.86253 4.19516 6.8899 4.20831 6.91919 4.2158C6.94849 4.22328 6.97907 4.22493 7.00906 4.22065C7.03904 4.21638 7.06779 4.20626 7.09353 4.19092C7.11926 4.17559 7.14143 4.15537 7.15866 4.13151C7.1759 4.10765 7.18783 4.08066 7.19373 4.05221L7.45909 3.12944C7.46587 3.10118 7.46667 3.07191 7.46143 3.04335C7.45618 3.01479 7.44501 2.98753 7.42858 2.96317Z" fill="#121619"/>
<path fill-rule="evenodd" clip-rule="evenodd" d="M8.2031 7.69438C8.2031 7.66825 8.19794 7.64238 8.18791 7.61825C8.17788 7.59413 8.16318 7.57222 8.14465 7.5538C8.12613 7.53537 8.10415 7.52079 8.07997 7.51089C8.05579 7.50098 8.02989 7.49596 8.00377 7.4961H7.41736V7.91059H8.00377C8.02989 7.91073 8.05579 7.9057 8.07997 7.8958C8.10415 7.8859 8.12613 7.87132 8.14465 7.85289C8.16318 7.83446 8.17788 7.81256 8.18791 7.78843C8.19794 7.76431 8.2031 7.73844 8.2031 7.71231V7.69438Z" fill="#343A3F"/>
<path d="M4.38306 6.10938H3.94958V7.49629H4.38306V6.10938Z" fill="#121619"/>
<path d="M6.11695 5.26562H5.68347V7.49629H6.11695V5.26562Z" fill="#121619"/>
<path fill-rule="evenodd" clip-rule="evenodd" d="M7.85189 4.6173C7.85134 4.56461 7.83016 4.51422 7.7929 4.47696C7.75563 4.4397 7.70525 4.41852 7.65255 4.41797H7.41736V7.49766H7.85189V4.6173Z" fill="#121619"/>
<path d="M5.25 5.6875H4.81653V7.49629H5.25V5.6875Z" fill="#A2A9B0"/>
<path d="M6.98389 4.84375H6.55042V7.49629H6.98389V4.84375Z" fill="#A2A9B0"/>
<path d="M3.51612 6.53125H3.08264V7.49629H3.51612V6.53125Z" fill="#A2A9B0"/>
</g>
</g>
<defs>
<clipPath id="clip0_23056_11763">
<rect width="24" height="24" fill="white"/>
</clipPath>
<clipPath id="clip1_23056_11763">
<rect width="6.75" height="6.75" fill="white" transform="translate(1.875 1.875)"/>
</clipPath>
</defs>
</svg>
