<svg width="24" height="24" viewBox="0 0 24 24" fill="none" xmlns="http://www.w3.org/2000/svg">
<path d="M19.6575 11.099H19.0047C18.7938 7.88855 15.6764 5.33203 11.8739 5.33203C11.1108 5.33203 10.3603 5.43423 9.64308 5.63565C9.35645 5.71628 9.189 6.01397 9.26962 6.3006C9.35025 6.58723 9.64713 6.75441 9.93484 6.67379C10.3878 6.54652 10.8568 6.46616 11.3346 6.43138V11.099H5.82544C5.93842 9.73562 6.71149 8.46855 7.98881 7.58196C8.23337 7.41208 8.29405 7.0761 8.12417 6.83126C7.95402 6.58669 7.61831 6.52602 7.37374 6.6959C5.79928 7.78905 4.85417 9.37861 4.742 11.0992H4.08999C2.24669 11.0992 0.747192 12.599 0.747192 14.442V14.987C0.747192 16.8303 2.24696 18.3298 4.08999 18.3298H4.83125C5.12894 18.3298 5.37054 18.0882 5.37054 17.7905C5.37054 16.8254 6.15575 16.0402 7.12082 16.0402C8.08588 16.0402 8.87082 16.8254 8.87082 17.7905C8.87082 18.7556 8.08588 19.5405 7.12082 19.5405C6.82313 19.5405 6.58152 19.7821 6.58152 20.0798C6.58152 20.3775 6.82313 20.6191 7.12082 20.6191C8.49628 20.6191 9.64389 19.6319 9.89655 18.3292L14.4509 18.3249C14.4706 18.3249 14.4894 18.3212 14.5083 18.3193C14.5253 18.3174 14.5428 18.3174 14.5593 18.3139C14.5795 18.3098 14.5984 18.3023 14.6175 18.2958C14.6318 18.291 14.6466 18.2883 14.6604 18.2823C14.6795 18.2742 14.6973 18.2629 14.7154 18.2524C14.7275 18.2457 14.7405 18.2403 14.7521 18.2324C14.7674 18.2219 14.7807 18.209 14.7949 18.1971C14.8071 18.1869 14.8206 18.178 14.8319 18.1666C14.8448 18.1537 14.8551 18.1386 14.8667 18.1243C14.8769 18.1119 14.8885 18.1003 14.8977 18.0868C14.9074 18.072 14.9147 18.0556 14.923 18.0399C14.9311 18.0251 14.9406 18.0111 14.9473 17.9951C14.9532 17.9811 14.9562 17.9658 14.961 17.9512C14.9672 17.9323 14.9748 17.9137 14.9788 17.894C14.9821 17.8776 14.9821 17.8603 14.984 17.8436C14.9861 17.8242 14.9896 17.8056 14.9896 17.7856C14.9896 16.8206 15.7748 16.0354 16.7402 16.0354C17.7052 16.0354 18.4904 16.8206 18.4904 17.7856C18.4904 18.7507 17.7052 19.5359 16.7402 19.5359C16.4425 19.5359 16.2009 19.7775 16.2009 20.0752C16.2009 20.3729 16.4425 20.6145 16.7402 20.6145C18.114 20.6145 19.2608 19.63 19.5154 18.3298H19.6572C21.5005 18.3298 23 16.83 23 14.987V14.442C23.0005 12.5987 21.5008 11.099 19.6575 11.099ZM12.4132 6.43165C15.3679 6.64898 17.719 8.6325 17.9223 11.099H12.4132V6.43165ZM21.922 14.987C21.922 16.2354 20.9062 17.2512 19.6577 17.2512H19.5173C19.2665 15.9464 18.1178 14.9568 16.7404 14.9568C15.3647 14.9568 14.2168 15.9442 13.9642 17.2469L9.89682 17.2507C9.64389 15.9483 8.49628 14.9616 7.12109 14.9616C5.74562 14.9616 4.59774 15.9488 4.34508 17.2512H4.09026C2.84153 17.2512 1.82605 16.2354 1.82605 14.987V14.442C1.82605 13.1936 2.8418 12.1778 4.09026 12.1778H19.6575C20.9062 12.1778 21.9217 13.1936 21.9217 14.442V14.987H21.922Z" fill="#FCFCFD"/>
</svg>
