<svg width="36" height="36" viewBox="0 0 36 36" fill="none" xmlns="http://www.w3.org/2000/svg">
<path d="M31 18C31 10.8203 25.1797 5 18 5C10.8203 5 5 10.8203 5 18C5 24.4886 9.75389 29.8668 15.9688 30.8421V21.7578H12.668V18H15.9688V15.1359C15.9688 11.8778 17.9096 10.0781 20.8791 10.0781C22.3014 10.0781 23.7891 10.332 23.7891 10.332V13.5313H22.1499C20.535 13.5313 20.0313 14.5334 20.0313 15.5615V18H23.6367L23.0604 21.7578H20.0313V30.8421C26.2461 29.8668 31 24.4886 31 18Z" fill="#1877F2"/>
<path d="M23.0604 21.7578L23.6367 18H20.0313V15.5615C20.0313 14.5334 20.535 13.5313 22.1499 13.5313H23.7891V10.332C23.7891 10.332 22.3014 10.0781 20.8791 10.0781C17.9096 10.0781 15.9688 11.8778 15.9688 15.1359V18H12.668V21.7578H15.9688V30.8421C16.6307 30.9459 17.3089 31 18 31C18.6911 31 19.3693 30.9459 20.0313 30.8421V21.7578H23.0604Z" fill="white"/>
</svg>
