<svg width="36" height="36" viewBox="0 0 36 36" fill="none" xmlns="http://www.w3.org/2000/svg">
<path fill-rule="evenodd" clip-rule="evenodd" d="M30 18.5232C30 17.6549 29.922 16.82 29.7773 16.0185H18.2449V20.7551H24.8348C24.551 22.2857 23.6883 23.5825 22.3914 24.4508V27.5232H26.3488C28.6642 25.3914 30 22.2523 30 18.5232Z" fill="#4285F4"/>
<path fill-rule="evenodd" clip-rule="evenodd" d="M18.245 30.4898C21.5511 30.4898 24.3229 29.3933 26.3489 27.5232L22.3915 24.4508C21.2951 25.1855 19.8925 25.6196 18.245 25.6196C15.0557 25.6196 12.3563 23.4657 11.3934 20.5714H7.30249V23.744C9.31733 27.7458 13.4583 30.4898 18.245 30.4898Z" fill="#34A853"/>
<path fill-rule="evenodd" clip-rule="evenodd" d="M11.3933 20.5714C11.1484 19.8367 11.0093 19.0519 11.0093 18.2449C11.0093 17.4378 11.1484 16.653 11.3933 15.9183V12.7458H7.30241C6.4731 14.3989 6 16.269 6 18.2449C6 20.2208 6.4731 22.0909 7.30241 23.7439L11.3933 20.5714Z" fill="#FBBC05"/>
<path fill-rule="evenodd" clip-rule="evenodd" d="M18.245 10.8701C20.0427 10.8701 21.6568 11.4879 22.9258 12.7013L26.4379 9.18924C24.3173 7.21336 21.5455 6 18.245 6C13.4583 6 9.31733 8.74397 7.30249 12.7458L11.3934 15.9184C12.3563 13.0241 15.0557 10.8701 18.245 10.8701Z" fill="#EA4335"/>
</svg>
