<?xml version="1.0" encoding="utf-8"?>
<!-- Generator: Adobe Illustrator 25.1.0, SVG Export Plug-In . SVG Version: 6.00 Build 0)  -->
<svg version="1.1" id="Layer_1" xmlns="http://www.w3.org/2000/svg" xmlns:xlink="http://www.w3.org/1999/xlink" x="0px" y="0px"
	 viewBox="0 0 595.28 841.89" style="enable-background:new 0 0 595.28 841.89;" xml:space="preserve">
<style type="text/css">
	.st0{fill-rule:evenodd;clip-rule:evenodd;fill:url(#SVGID_1_);}
	.st1{fill-rule:evenodd;clip-rule:evenodd;fill:url(#SVGID_2_);}
	.st2{fill-rule:evenodd;clip-rule:evenodd;fill:url(#SVGID_3_);}
	.st3{fill-rule:evenodd;clip-rule:evenodd;fill:url(#SVGID_4_);}
	.st4{fill-rule:evenodd;clip-rule:evenodd;fill:url(#SVGID_5_);}
	.st5{fill-rule:evenodd;clip-rule:evenodd;fill:url(#SVGID_6_);}
	.st6{fill-rule:evenodd;clip-rule:evenodd;fill:url(#SVGID_7_);}
</style>
<linearGradient id="SVGID_1_" gradientUnits="userSpaceOnUse" x1="131.4482" y1="404.4839" x2="131.4487" y2="570.2671">
	<stop  offset="0" style="stop-color:#E32A12"/>
	<stop  offset="1" style="stop-color:#EC9322"/>
</linearGradient>
<path class="st0" d="M163.75,542.42V393.38c0-15.26,8.33-28.58,20.7-35.65c0,0-105.67,25.43-106,190.27
	c2.63,20.92,20.61,37.24,42.21,37.24h0.27C144.48,585.24,163.75,565.97,163.75,542.42z"/>
<linearGradient id="SVGID_2_" gradientUnits="userSpaceOnUse" x1="239.5305" y1="309.6449" x2="97.0297" y2="425.3056">
	<stop  offset="0" style="stop-color:#BC1250"/>
	<stop  offset="1" style="stop-color:#EE7070"/>
</linearGradient>
<path class="st1" d="M78.45,548c0.33-164.84,106-190.27,106-190.27c5.99-3.43,12.94-5.39,20.34-5.39c22.45,0,40.69,18.03,41.03,40.4
	c0.01-1.78,0.06-3.54,0.14-5.27c0.01-0.12,0.01-0.23,0.02-0.35c2.86-55.1,42.66-88.67,42.66-88.67c0,0,0,0,0,0
	c-22.34-19.75-51.69-31.74-83.85-31.74c-69.96,0-126.67,56.71-126.67,126.67v149.31C78.12,544.49,78.23,546.26,78.45,548z"/>
<linearGradient id="SVGID_3_" gradientUnits="userSpaceOnUse" x1="288.6351" y1="288.2944" x2="288.6351" y2="526.4888">
	<stop  offset="0" style="stop-color:#F0820E"/>
	<stop  offset="0.52" style="stop-color:#E53012"/>
	<stop  offset="1" style="stop-color:#F18416"/>
</linearGradient>
<path class="st2" d="M245.82,393.38v90.96c0,23.55,19.27,42.82,42.82,42.82c23.55,0,42.82-19.27,42.82-42.82v-90.96
	c0-58.81-42.82-94.93-42.82-94.93s-0.01,0-0.02,0.01c-0.17,0.14-0.38,0.33-0.64,0.56c-2.28,2.04-10.2,9.51-18.57,21.58
	c-10.66,15.38-21.96,38.1-23.44,66.52c-0.01,0.12-0.01,0.24-0.02,0.37c-0.08,1.73-0.13,3.48-0.14,5.26
	C245.82,392.95,245.82,393.17,245.82,393.38z"/>
<linearGradient id="SVGID_4_" gradientUnits="userSpaceOnUse" x1="445.8165" y1="402.2826" x2="445.8171" y2="581.4606">
	<stop  offset="0" style="stop-color:#E32A12"/>
	<stop  offset="1" style="stop-color:#ECB12D"/>
</linearGradient>
<path class="st3" d="M413.52,393.38v149.31c0,23.4,19.15,42.54,42.54,42.54h0.27c21.66,0,39.7-16.3,42.45-37.24
	c-0.34-164.82-105.96-190.26-105.96-190.26C405.2,364.81,413.52,378.12,413.52,393.38z"/>
<linearGradient id="SVGID_5_" gradientUnits="userSpaceOnUse" x1="351.2369" y1="309.0186" x2="489.0261" y2="433.568">
	<stop  offset="0" style="stop-color:#BC1250"/>
	<stop  offset="1" style="stop-color:#EE7070"/>
</linearGradient>
<path class="st4" d="M392.84,357.74c0,0,105.61,25.44,105.96,190.26c0.24-1.83,0.36-3.69,0.36-5.58V393.38
	c0-69.96-56.71-126.67-126.67-126.67c-32.16,0-61.51,11.99-83.85,31.74c0,0,0,0,0,0c0,0,42.82,36.12,42.82,94.93
	c0-22.66,18.37-41.03,41.03-41.03C379.89,352.35,386.84,354.31,392.84,357.74z"/>
<linearGradient id="SVGID_6_" gradientUnits="userSpaceOnUse" x1="319.5109" y1="251.6074" x2="434.6859" y2="251.6074" gradientTransform="matrix(-1 -5.367611e-04 5.367611e-04 -1 749.4525 452.8652)">
	<stop  offset="0" style="stop-color:#F28C00"/>
	<stop  offset="1" style="stop-color:#E52D12"/>
</linearGradient>
<circle class="st5" cx="372.49" cy="201.06" r="57.59"/>
<linearGradient id="SVGID_7_" gradientUnits="userSpaceOnUse" x1="147.1986" y1="201.0555" x2="262.3737" y2="201.0555">
	<stop  offset="0" style="stop-color:#F28C00"/>
	<stop  offset="1" style="stop-color:#E52D12"/>
</linearGradient>
<circle class="st6" cx="204.79" cy="201.06" r="57.59"/>
</svg>
