<svg width="24" height="24" viewBox="0 0 24 24" fill="none" xmlns="http://www.w3.org/2000/svg">
<path d="M15.9039 15.5379C15.279 14.8608 14.5207 14.3205 13.6767 13.951C12.8327 13.5814 11.9214 13.3906 11 13.3906C10.0787 13.3906 9.1673 13.5814 8.32331 13.951C7.47933 14.3205 6.72101 14.8608 6.09612 15.5379C5.99965 15.6446 5.94568 15.783 5.94446 15.9268V18.2601C5.9465 18.4135 6.00886 18.5599 6.11804 18.6676C6.22721 18.7753 6.37442 18.8357 6.52779 18.8357H15.4722C15.6269 18.8357 15.7753 18.7742 15.8847 18.6648C15.9941 18.5554 16.0556 18.407 16.0556 18.2523V15.919C16.0525 15.7779 15.9986 15.6426 15.9039 15.5379Z" fill="#FF4D6D"/>
<path d="M11 12.6085C12.5034 12.6085 13.7222 11.3897 13.7222 9.88628C13.7222 8.38284 12.5034 7.16406 11 7.16406C9.49655 7.16406 8.27777 8.38284 8.27777 9.88628C8.27777 11.3897 9.49655 12.6085 11 12.6085Z" fill="#FF4D6D"/>
<path d="M18 9C16.3467 9 15 10.3467 15 12C15 13.6533 16.3467 15 18 15C19.6533 15 21 13.6533 21 12C21 10.3467 19.6533 9 18 9ZM18 9.6C18.556 9.6 19.0652 9.78977 19.4713 10.1051L16.1045 13.4719C15.789 13.0657 15.6 12.5561 15.6 12C15.6 10.671 16.671 9.6 18 9.6ZM19.8961 10.5287C20.2112 10.9348 20.4 11.4442 20.4 12C20.4 13.329 19.329 14.4 18 14.4C17.4442 14.4 16.9348 14.2112 16.5287 13.8961L19.8961 10.5287Z" fill="#FF4D6D" stroke="#FF4D6D" stroke-width="0.2"/>
</svg>
