<svg width="24" height="24" viewBox="0 0 24 24" fill="none" xmlns="http://www.w3.org/2000/svg">
<path fill-rule="evenodd" clip-rule="evenodd" d="M5.52691 2.25004L5.46154 2.25002C5.07852 2.24981 4.7763 2.24965 4.47845 2.31618C3.39448 2.5583 2.48427 3.56164 2.34855 4.664C2.31132 4.96641 2.33679 5.22627 2.36848 5.54951L2.37306 5.59629C2.6306 8.23595 3.29005 10.6116 4.32976 12.6809C4.63405 13.2865 4.97073 13.8654 5.33911 14.4167C5.56925 14.7611 6.035 14.8537 6.3794 14.6236C6.7238 14.3934 6.81642 13.9277 6.58628 13.5833C6.36001 13.2447 6.14646 12.8938 5.94594 12.5308L7.55817 11.1829L7.58678 11.159C8.02987 10.7886 8.40593 10.4742 8.68934 10.1822C8.99105 9.87142 9.23371 9.54124 9.37061 9.12073C9.50752 8.70021 9.50576 8.29046 9.44488 7.86156C9.3877 7.4587 9.26881 6.98319 9.12872 6.42292V6.42291L9.11967 6.38671L8.70605 4.73224L8.69147 4.67383V4.67382C8.61105 4.35157 8.54851 4.10092 8.44975 3.87957C8.07763 3.04551 7.3157 2.45061 6.41628 2.29189C6.17758 2.24976 5.91925 2.24988 5.58711 2.25002L5.52691 2.25004ZM6.59606 10.0321L5.2681 11.1423C4.54795 9.46193 4.07179 7.56017 3.86597 5.45063C3.82826 5.06416 3.8224 4.96843 3.83731 4.84729C3.89552 4.37452 4.34055 3.88395 4.80545 3.7801C4.92154 3.75417 5.04848 3.75004 5.52691 3.75004C5.94754 3.75004 6.06362 3.75283 6.1556 3.76906C6.56443 3.84121 6.91076 4.11162 7.07991 4.49074C7.11796 4.57604 7.14882 4.68797 7.25084 5.09604L7.66446 6.75052C7.81601 7.35673 7.91488 7.7561 7.95977 8.07235C8.00219 8.37122 7.98534 8.53031 7.9443 8.65637C7.90326 8.78242 7.82322 8.92094 7.61297 9.13755C7.39051 9.36675 7.07547 9.63137 6.59606 10.0321ZM17.6132 14.8802L17.5771 14.8712H17.577C17.0168 14.7311 16.5412 14.6122 16.1384 14.555C15.7095 14.4942 15.2997 14.4924 14.8792 14.6293C14.4587 14.7662 14.1285 15.0089 13.8177 15.3106C13.5257 15.594 13.2113 15.97 12.8409 16.4131L12.817 16.4418L11.4691 18.054C10.5138 17.5263 9.6419 16.9081 8.85634 16.2042L19.5302 5.53042C19.823 5.23752 19.823 4.76265 19.5302 4.46976C19.2373 4.17686 18.7624 4.17686 18.4695 4.46976L3.46951 19.4697C3.17662 19.7626 3.17662 20.2375 3.46951 20.5304C3.7624 20.8233 4.23728 20.8233 4.53017 20.5304L7.79425 17.2663C8.83804 18.2118 10.0165 19.0157 11.319 19.6702C13.3883 20.7099 15.764 21.3693 18.4036 21.6269L18.4504 21.6314H18.4505C18.7737 21.6631 19.0335 21.6886 19.3359 21.6514C20.4383 21.5156 21.4416 20.6054 21.6838 19.5215C21.7503 19.2236 21.7501 18.9214 21.7499 18.5384V18.473V18.4128C21.7501 18.0807 21.7502 17.8223 21.7081 17.5836C21.5493 16.6842 20.9544 15.9223 20.1204 15.5502C19.899 15.4514 19.6484 15.3889 19.3261 15.3085L19.2677 15.2939L17.6132 14.8802ZM18.5493 20.1339C16.4398 19.9281 14.538 19.452 12.8576 18.7318L13.9678 17.4039C14.3686 16.9245 14.6332 16.6094 14.8624 16.3869C15.079 16.1767 15.2175 16.0967 15.3436 16.0556C15.4696 16.0146 15.6287 15.9977 15.9276 16.0402C16.2438 16.085 16.6432 16.1839 17.2494 16.3355L18.9039 16.7491C19.312 16.8511 19.4239 16.882 19.5092 16.92C19.8883 17.0892 20.1587 17.4355 20.2309 17.8443C20.2471 17.9363 20.2499 18.0524 20.2499 18.473C20.2499 18.9514 20.2458 19.0784 20.2198 19.1945C20.116 19.6594 19.6254 20.1044 19.1526 20.1626C19.0315 20.1775 18.9358 20.1717 18.5493 20.1339Z" fill="#343A3F"/>
</svg>
