<svg width="24" height="24" viewBox="0 0 24 24" fill="none" xmlns="http://www.w3.org/2000/svg">
<path fill-rule="evenodd" clip-rule="evenodd" d="M12 1.25004L11.8735 1.25002C10.6715 1.24974 9.89579 1.24956 9.17012 1.48871C8.9464 1.56244 8.72847 1.65271 8.51813 1.75877C7.83591 2.10279 7.28749 2.65147 6.43775 3.5016L6.34835 3.59103L5.73508 4.2043C5.70579 4.23359 5.66607 4.25004 5.62465 4.25004C3.2086 4.25004 1.25 6.20864 1.25 8.6247V13V13.0564C1.24998 14.8942 1.24997 16.3498 1.40313 17.489C1.56076 18.6614 1.89288 19.6104 2.64124 20.3587C3.3896 21.1071 4.33855 21.4393 5.51098 21.597C6.65019 21.75 8.10583 21.75 9.94359 21.75H10H14H14.0564H14.0565C15.8942 21.75 17.3498 21.75 18.489 21.597C19.6614 21.4393 20.6104 21.1071 21.3588 20.3587C22.1071 19.6104 22.4392 18.6614 22.5969 17.489C22.75 16.3498 22.75 14.8942 22.75 13.0564V13V8.6247C22.75 6.20864 20.7914 4.25004 18.3753 4.25004C18.3339 4.25004 18.2942 4.23359 18.2649 4.2043L17.6516 3.59103L17.5622 3.5016C16.7125 2.65147 16.1641 2.10279 15.4819 1.75877C15.2715 1.65271 15.0536 1.56244 14.8299 1.48871C14.1042 1.24956 13.3285 1.24974 12.1265 1.25002L12 1.25004ZM9.63962 2.91334C10.1085 2.75881 10.6276 2.75004 12 2.75004C13.3724 2.75004 13.8915 2.75881 14.3604 2.91334C14.5135 2.96379 14.6626 3.02555 14.8065 3.09812C15.2473 3.32042 15.6206 3.68127 16.591 4.65169L17.2043 5.26496C17.5148 5.57555 17.9361 5.75004 18.3753 5.75004C19.963 5.75004 21.25 7.03707 21.25 8.6247V13C21.25 14.9068 21.2484 16.2615 21.1102 17.2892C20.975 18.2952 20.7213 18.8749 20.2981 19.2981C19.8749 19.7213 19.2952 19.975 18.2892 20.1103C17.2615 20.2485 15.9068 20.25 14 20.25H10C8.09318 20.25 6.73851 20.2485 5.71085 20.1103C4.70476 19.975 4.12511 19.7213 3.7019 19.2981C3.27869 18.8749 3.02502 18.2952 2.88976 17.2892C2.75159 16.2615 2.75 14.9068 2.75 13V8.6247C2.75 7.03707 4.03703 5.75004 5.62465 5.75004C6.0639 5.75004 6.48515 5.57555 6.79574 5.26496L7.40901 4.65169C8.37943 3.68127 8.75267 3.32042 9.19352 3.09812C9.33743 3.02555 9.48654 2.96379 9.63962 2.91334ZM8.75 12C8.75 10.2051 10.2051 8.75004 12 8.75004C13.7949 8.75004 15.25 10.2051 15.25 12C15.25 13.7949 13.7949 15.25 12 15.25C10.2051 15.25 8.75 13.7949 8.75 12ZM12 7.25004C9.37665 7.25004 7.25 9.37669 7.25 12C7.25 14.6233 9.37665 16.75 12 16.75C14.6234 16.75 16.75 14.6233 16.75 12C16.75 9.37669 14.6234 7.25004 12 7.25004Z" fill="#343A3F"/>
</svg>
