<svg width="24" height="24" viewBox="0 0 24 24" fill="none" xmlns="http://www.w3.org/2000/svg">
<path fill-rule="evenodd" clip-rule="evenodd" d="M1.46967 1.46967C1.76256 1.17678 2.23744 1.17678 2.53033 1.46967L6.04088 4.98022L16.7287 15.6681L21.5303 20.4697C21.8232 20.7626 21.8232 21.2375 21.5303 21.5304C21.2374 21.8233 20.7626 21.8233 20.4697 21.5304L16.198 17.2587L13.1962 20.2569C12.5379 20.9144 11.4621 20.9144 10.8038 20.2569L3.79733 13.259C1.73422 11.1984 1.73422 7.89848 3.79733 5.83788C3.96319 5.67222 4.13752 5.51946 4.31896 5.37962L1.46967 2.53033C1.17678 2.23744 1.17678 1.76256 1.46967 1.46967ZM5.39196 6.45262C5.20379 6.58316 5.02476 6.73198 4.85735 6.89919C3.38089 8.37385 3.38088 10.723 4.85734 12.1976L11.8638 19.1956C11.9365 19.2682 12.0635 19.2682 12.1362 19.1956L15.1374 16.1981L5.39196 6.45262ZM19.1427 6.89919C17.6085 5.36694 15.0766 5.36694 13.5425 6.89919L12.53 7.91041C12.2372 8.20288 11.7628 8.20288 11.47 7.91041L10.4575 6.89919C10.2049 6.64687 9.92591 6.43651 9.62911 6.26764C9.36202 6.11568 9.07995 5.99701 8.78917 5.91184C8.39166 5.79541 8.16381 5.37877 8.28024 4.98126C8.39668 4.58375 8.81331 4.35589 9.21083 4.47232C9.61119 4.5896 10.0009 4.75339 10.3709 4.96389C10.7823 5.19798 11.1687 5.48946 11.5175 5.83788L12 6.31974L12.4825 5.83788C14.6022 3.72071 18.0829 3.72071 20.2027 5.83788C22.2658 7.89848 22.2658 11.1984 20.2027 13.259L18.9294 14.5307C18.6363 14.8234 18.1614 14.8231 17.8687 14.53C17.576 14.237 17.5763 13.7621 17.8694 13.4694L19.1427 12.1977C20.6191 10.723 20.6191 8.37385 19.1427 6.89919Z" fill="#343A3F"/>
</svg>
