<svg width="16" height="16" viewBox="0 0 16 16" fill="none" xmlns="http://www.w3.org/2000/svg">
<path d="M9.21336 14.6693H6.78669C6.63465 14.6693 6.48716 14.6173 6.36869 14.522C6.25023 14.4267 6.1679 14.2938 6.13536 14.1453L5.86403 12.8893C5.50206 12.7307 5.15885 12.5323 4.84069 12.2979L3.61602 12.6879C3.47107 12.7342 3.31466 12.7294 3.17277 12.6745C3.03089 12.6195 2.91206 12.5177 2.83602 12.3859L1.62002 10.2853C1.54479 10.1534 1.51655 9.99982 1.53992 9.84977C1.56329 9.69972 1.6369 9.56205 1.74869 9.45927L2.69869 8.5926C2.65549 8.20001 2.65549 7.80386 2.69869 7.41127L1.74869 6.5466C1.63674 6.44379 1.56303 6.30599 1.53966 6.15579C1.51628 6.0056 1.54462 5.85192 1.62002 5.71994L2.83336 3.61794C2.90939 3.48615 3.02822 3.38433 3.17011 3.3294C3.31199 3.27446 3.4684 3.26971 3.61336 3.31594L4.83803 3.70594C5.00069 3.58594 5.17003 3.47394 5.34469 3.3726C5.51336 3.27794 5.68669 3.19194 5.86403 3.11527L6.13603 1.8606C6.16841 1.71207 6.25058 1.57906 6.36892 1.48364C6.48727 1.38821 6.63467 1.3361 6.78669 1.33594H9.21336C9.36538 1.3361 9.51279 1.38821 9.63113 1.48364C9.74947 1.57906 9.83165 1.71207 9.86403 1.8606L10.1387 3.11594C10.3254 3.1986 10.508 3.29127 10.6847 3.3946C10.8494 3.48994 11.0087 3.5946 11.162 3.70727L12.3874 3.31727C12.5322 3.27121 12.6885 3.27605 12.8302 3.33098C12.972 3.38591 13.0907 3.48762 13.1667 3.61927L14.38 5.72127C14.5347 5.9926 14.4814 6.33594 14.2514 6.54727L13.3014 7.41394C13.3446 7.80653 13.3446 8.20268 13.3014 8.59527L14.2514 9.46194C14.4814 9.67394 14.5347 10.0166 14.38 10.2879L13.1667 12.3899C13.0907 12.5217 12.9718 12.6235 12.8299 12.6785C12.6881 12.7334 12.5317 12.7382 12.3867 12.6919L11.162 12.3019C10.8441 12.5362 10.5011 12.7343 10.1394 12.8926L9.86403 14.1453C9.83151 14.2937 9.74928 14.4265 9.63095 14.5218C9.51262 14.6171 9.36529 14.6691 9.21336 14.6693ZM7.99736 5.33594C7.29012 5.33594 6.61184 5.61689 6.11174 6.11699C5.61164 6.61708 5.33069 7.29536 5.33069 8.0026C5.33069 8.70985 5.61164 9.38813 6.11174 9.88822C6.61184 10.3883 7.29012 10.6693 7.99736 10.6693C8.7046 10.6693 9.38288 10.3883 9.88298 9.88822C10.3831 9.38813 10.664 8.70985 10.664 8.0026C10.664 7.29536 10.3831 6.61708 9.88298 6.11699C9.38288 5.61689 8.7046 5.33594 7.99736 5.33594Z" fill="#FF4D6D"/>
</svg>
