<svg width="14" height="14" viewBox="0 0 14 14" fill="none" xmlns="http://www.w3.org/2000/svg">
<path d="M11.9039 9.5379C11.279 8.86084 10.5207 8.32052 9.67671 7.95097C8.83273 7.58141 7.92136 7.39062 7.00001 7.39062C6.07866 7.39062 5.1673 7.58141 4.32331 7.95097C3.47933 8.32052 2.72101 8.86084 2.09612 9.5379C1.99965 9.64458 1.94568 9.78295 1.94446 9.92678V12.2601C1.9465 12.4135 2.00886 12.5599 2.11804 12.6676C2.22721 12.7753 2.37442 12.8357 2.52779 12.8357H11.4722C11.6269 12.8357 11.7753 12.7742 11.8847 12.6648C11.9941 12.5554 12.0556 12.407 12.0556 12.2523V9.91901C12.0525 9.77787 11.9986 9.64257 11.9039 9.5379Z" fill="#FF4D6D"/>
<path d="M6.99999 6.60851C8.50343 6.60851 9.72221 5.38973 9.72221 3.88628C9.72221 2.38284 8.50343 1.16406 6.99999 1.16406C5.49655 1.16406 4.27777 2.38284 4.27777 3.88628C4.27777 5.38973 5.49655 6.60851 6.99999 6.60851Z" fill="#FF4D6D"/>
</svg>
