<svg width="16" height="16" viewBox="0 0 16 16" fill="none" xmlns="http://www.w3.org/2000/svg">
<path d="M13.6045 10.8993C12.8903 10.1256 12.0236 9.50805 11.0591 9.0857C10.0945 8.66335 9.05298 8.44531 8.00001 8.44531C6.94704 8.44531 5.90548 8.66335 4.94092 9.0857C3.97637 9.50805 3.10972 10.1256 2.39556 10.8993C2.2853 11.0213 2.22363 11.1794 2.22223 11.3438V14.0104C2.22457 14.1857 2.29583 14.353 2.42061 14.4761C2.54538 14.5992 2.71361 14.6682 2.8889 14.6682H13.1111C13.2879 14.6682 13.4575 14.598 13.5825 14.473C13.7075 14.3479 13.7778 14.1784 13.7778 14.0016V11.3349C13.7742 11.1736 13.7127 11.019 13.6045 10.8993Z" fill="#FF4D6D"/>
<path d="M8.00003 7.55816C9.71825 7.55816 11.1111 6.16527 11.1111 4.44705C11.1111 2.72883 9.71825 1.33594 8.00003 1.33594C6.28181 1.33594 4.88892 2.72883 4.88892 4.44705C4.88892 6.16527 6.28181 7.55816 8.00003 7.55816Z" fill="#FF4D6D"/>
</svg>
