<svg width="24" height="24" viewBox="0 0 24 24" fill="none" xmlns="http://www.w3.org/2000/svg">
<path fill-rule="evenodd" clip-rule="evenodd" d="M5.19683 2.00005L5.13146 2.00002C4.74844 1.99982 4.44622 1.99965 4.14837 2.06618C3.0644 2.30831 2.15419 3.31164 2.01847 4.41401C1.98124 4.71642 2.00671 4.97628 2.0384 5.29952L2.04298 5.3463C2.30052 7.98596 2.95997 10.3616 3.99968 12.4309C5.5443 15.505 7.91484 17.8756 10.989 19.4202C13.0582 20.4599 15.4339 21.1194 18.0736 21.3769L18.1204 21.3815C18.4436 21.4132 18.7035 21.4386 19.0059 21.4014C20.1082 21.2657 21.1116 20.3555 21.3537 19.2715C21.4202 18.9737 21.42 18.6714 21.4198 18.2884V18.2231V18.1629C21.42 17.8307 21.4201 17.5724 21.378 17.3337C21.2193 16.4343 20.6244 15.6723 19.7903 15.3002C19.5689 15.2015 19.3183 15.1389 18.996 15.0585L18.9376 15.0439L17.2831 14.6303L17.247 14.6213C16.6868 14.4813 16.2112 14.3623 15.8083 14.3051C15.3794 14.2442 14.9697 14.2424 14.5491 14.3794C14.1286 14.5163 13.7984 14.7589 13.4876 15.0606C13.1956 15.344 12.8812 15.7201 12.5108 16.1632L12.4869 16.1918L11.139 17.804C8.77965 16.5007 6.91917 14.6402 5.61586 12.2808L7.22809 10.933L7.2567 10.9091C7.69979 10.5386 8.07585 10.2243 8.35926 9.9323C8.66097 9.62142 8.90363 9.29125 9.04053 8.87073C9.17744 8.45021 9.17568 8.04046 9.1148 7.61157C9.05762 7.2087 8.93873 6.73319 8.79864 6.17292L8.78959 6.13672L8.37597 4.48225L8.36139 4.42384C8.28098 4.10158 8.21843 3.85093 8.11967 3.62958C7.74755 2.79551 6.98561 2.20061 6.0862 2.04189C5.8475 1.99977 5.58917 1.99988 5.25703 2.00003L5.19683 2.00005ZM18.2192 19.884C16.1097 19.6782 14.2079 19.202 12.5275 18.4819L13.6377 17.1539C14.0385 16.6745 14.3031 16.3595 14.5323 16.137C14.7489 15.9268 14.8874 15.8467 15.0135 15.8057C15.1395 15.7646 15.2986 15.7478 15.5975 15.7902C15.9138 15.8351 16.3131 15.934 16.9193 16.0855L18.5738 16.4991C18.9819 16.6011 19.0938 16.632 19.1791 16.6701C19.5582 16.8392 19.8287 17.1855 19.9008 17.5944C19.917 17.6863 19.9198 17.8024 19.9198 18.2231C19.9198 18.7015 19.9157 18.8284 19.8898 18.9445C19.7859 19.4094 19.2953 19.8544 18.8226 19.9127C18.7014 19.9276 18.6057 19.9217 18.2192 19.884ZM6.26598 9.7822L4.93802 10.8924C4.21787 9.21194 3.74171 7.31018 3.53589 5.20064C3.49818 4.81417 3.49232 4.71843 3.50723 4.5973C3.56544 4.12452 4.01047 3.63395 4.47537 3.53011C4.59146 3.50418 4.7184 3.50005 5.19683 3.50005C5.61746 3.50005 5.73354 3.50283 5.82552 3.51907C6.23434 3.59121 6.58068 3.86162 6.74983 4.24074C6.78788 4.32604 6.81874 4.43797 6.92076 4.84605L7.33438 6.50052C7.48593 7.10674 7.5848 7.50611 7.62969 7.82235C7.67211 8.12122 7.65526 8.28032 7.61422 8.40637C7.57318 8.53242 7.49313 8.67094 7.28289 8.88755C7.06043 9.11676 6.74539 9.38137 6.26598 9.7822Z" fill="#343A3F"/>
<path fill-rule="evenodd" clip-rule="evenodd" d="M16.5 3.40625C14.7914 3.40625 13.4062 4.79137 13.4062 6.5C13.4062 6.8171 13.4733 7.14208 13.5697 7.44372L13.5719 7.45066C13.6857 7.80654 13.7739 8.08239 13.832 8.29456C13.8885 8.50089 13.927 8.68149 13.9193 8.83344C13.914 8.93698 13.9082 8.9786 13.8848 9.07959C13.8522 9.22025 13.7875 9.35379 13.7031 9.49779C13.6851 9.52839 13.6658 9.56034 13.645 9.59375H16.5C18.2087 9.59375 19.5938 8.20861 19.5938 6.5C19.5938 4.79137 18.2087 3.40625 16.5 3.40625ZM12.8931 9.71581C12.862 9.76108 12.8438 9.8159 12.8438 9.875C12.8438 10.0303 12.9697 10.1562 13.125 10.1562H16.5C18.5193 10.1562 20.1562 8.5193 20.1562 6.5C20.1562 4.48071 18.5193 2.84375 16.5 2.84375C14.4807 2.84375 12.8438 4.48071 12.8438 6.5C12.8438 6.8927 12.926 7.27752 13.0339 7.61506C13.1504 7.97926 13.2349 8.24379 13.2895 8.44314C13.3461 8.64969 13.3602 8.75221 13.3575 8.8049C13.3554 8.8472 13.3539 8.86471 13.3518 8.87937C13.3498 8.89404 13.3464 8.91132 13.3368 8.95257C13.3232 9.01152 13.2915 9.08765 13.2178 9.21331C13.1442 9.33886 13.0404 9.49494 12.8931 9.71581Z" fill="#343A3F"/>
</svg>
