<svg width="27" height="25" viewBox="0 0 27 25" fill="none" xmlns="http://www.w3.org/2000/svg">
<g id="Group 3224">
<path id="Vector" d="M25.2125 3.62687C25.1626 3.6723 25.1386 3.6723 24.9876 3.64367L24.9228 3.63247C24.92 3.64304 24.9165 3.65344 24.9124 3.66359C25.0381 3.69346 25.1204 3.75258 25.1204 3.81419C25.1204 3.8758 24.6667 4.21247 23.6984 4.85533C22.2822 5.78881 21.6185 6.24061 21.1978 6.54181C20.958 6.71482 20.7441 6.85733 20.7182 6.85733C20.7093 6.85647 20.7009 6.85347 20.6936 6.84862L19.9333 6.65508C19.8782 6.65134 19.8205 6.58724 19.7324 6.441C19.3623 5.81246 17.5105 2.26275 17.4366 2.03249C17.4327 2.01343 17.4328 1.9938 17.4369 1.97478C17.441 1.95575 17.4491 1.93771 17.4606 1.92172C17.4936 1.87816 17.5092 1.87193 17.631 1.89247C17.6304 1.8819 17.6304 1.8713 17.631 1.86073C17.5667 1.85127 17.5059 1.82645 17.4541 1.78854C17.4068 1.73751 17.4068 1.72631 17.4599 1.62923C17.4923 1.57198 17.7743 1.27886 18.0822 0.983263C18.3333 0.749162 18.5713 0.502374 18.7951 0.243949C18.8489 0.166054 18.9083 0.0918212 18.9727 0.0217815C19.0375 -0.0236477 19.1205 0.0217814 19.186 0.130065C19.2029 0.15854 19.2178 0.188061 19.2307 0.218434C19.2519 0.212847 19.2736 0.208893 19.2955 0.20661C19.2728 0.123841 19.2799 0.0970817 19.3065 0.0622319C19.3164 0.0461821 19.3297 0.0323319 19.3456 0.0216021C19.3614 0.0108722 19.3795 0.00350835 19.3986 0C19.5003 0 21.1764 0.373391 21.6023 0.485409L22.3444 0.640988C22.5959 0.68704 24.2552 1.07661 24.3174 1.10773C24.3932 1.14258 24.3867 1.23219 24.294 1.3747C24.3006 1.38199 24.3067 1.38968 24.3122 1.39773C24.3232 1.40641 24.3336 1.41576 24.3433 1.42573C24.3539 1.43143 24.3641 1.43788 24.3738 1.44502C24.5565 1.29816 24.5779 1.35977 24.6285 1.53153C24.6551 1.6199 24.8035 2.08601 24.9603 2.57266C25.1172 3.05932 25.2507 3.48001 25.2565 3.51112C25.2599 3.53241 25.2576 3.55417 25.2499 3.57439C25.2422 3.59461 25.2293 3.61265 25.2125 3.62687Z" fill="#FD0051"/>
<path id="Vector_2" d="M8.84237 5.16256C6.79729 5.32001 5.19162 5.91207 3.72402 7.04934C3.10804 7.52494 2.25576 8.41562 1.73669 9.1313C0.198734 11.2321 -0.344231 13.9322 0.214001 16.6784C0.584386 18.4865 1.48512 20.0922 2.86909 21.4064C4.40107 22.8573 6.18794 23.6836 8.37242 23.9549C8.94857 24.0232 10.1646 24.0232 10.6784 23.9549C12.2561 23.7376 13.7516 23.1344 15.4807 22.0128C16.0934 21.6146 16.2633 21.4715 16.3543 21.2782C16.4784 21.0076 16.4359 20.9451 16.0224 20.7669C15.9105 20.7218 15.8011 20.6712 15.6945 20.6153C15.7781 20.6334 15.8596 20.6602 15.9374 20.6953C16.613 20.9357 17.3161 21.0943 18.031 21.1676C18.6187 21.2093 19.2088 21.2093 19.7966 21.1676C21.6487 21.0029 23.3824 20.2038 24.6932 18.9107C25.9916 17.6381 26.7317 16.1215 26.9567 14.2718C27.0144 13.6079 27.0144 12.9403 26.9567 12.2764C26.7921 10.8619 26.2197 9.5227 25.3066 8.41562C24.8545 7.86521 24.0202 7.1144 23.4135 6.70842L23.2402 6.59261L23.0338 6.65767C22.7789 6.73769 22.4935 6.90165 22.1842 7.14237C21.8204 7.42474 21.6293 7.61212 21.6293 7.68629C21.6293 7.73378 21.7175 7.80795 22.0142 7.99858C23.8589 9.18855 24.8632 10.6277 25.0736 12.3674C25.3709 14.8177 24.3574 17.0421 22.3581 18.3206C20.2738 19.6589 17.7435 19.7389 15.717 18.5346C14.9714 18.087 14.3297 17.4913 13.8333 16.7858C12.7938 15.2692 12.4699 12.9231 13.0593 11.1775C13.2624 10.5737 13.6779 9.83071 14.0636 9.37853C14.2879 9.11373 14.3006 9.08445 14.2183 8.99792C14.0729 8.84308 12.9226 8.17425 12.8044 8.17425C12.6863 8.17425 12.0311 9.15017 11.6335 9.9309C11.2311 10.6984 10.9771 11.5322 10.8841 12.3902C10.8357 12.8424 10.8662 14.0883 10.9326 14.5073C11.1629 15.9556 11.6627 17.0941 12.5588 18.2243C13.0354 18.8248 13.7994 19.5255 14.4034 19.9106C14.669 20.0805 14.7221 20.128 14.6371 20.128C14.4737 20.2027 14.3155 20.2881 14.1638 20.3836C12.9106 21.1214 11.7457 21.627 10.9113 21.7929C10.4198 21.8704 9.92227 21.9053 9.42449 21.897C8.79325 21.8586 8.65983 21.8462 8.38104 21.8046C6.8703 21.5756 5.52683 20.9093 4.37917 19.83C3.71141 19.1995 3.30187 18.6556 2.91887 17.8911C2.57177 17.1801 2.34255 16.4193 2.23983 15.6374C2.17943 15.2002 2.18806 13.9244 2.2551 13.4963C2.35726 12.7765 2.57972 12.0781 2.91356 11.4293C3.2834 10.6835 3.77535 10.0022 4.36987 9.41236C5.48302 8.28225 6.77538 7.61602 8.34387 7.36944C8.89016 7.28291 10.0611 7.25949 10.6253 7.32455C12.0021 7.46649 13.3065 7.99973 14.3782 8.85869C15.9987 10.1404 16.8897 11.8205 17.0512 13.899C17.1362 14.9992 16.8567 16.3759 16.2142 18.0382C16.0503 18.4695 16.035 18.5587 16.1352 18.5971C17.0851 18.9601 17.3546 19.046 17.7004 19.0876C17.8995 19.1117 17.9553 19.1084 18.0097 19.0727C18.0887 19.0219 18.3947 18.422 18.6224 17.8684C18.8914 17.2076 19.0838 16.5193 19.1959 15.8163C19.2417 15.5366 19.2503 15.2959 19.2503 14.508C19.247 13.6576 19.2384 13.4911 19.1806 13.1104C18.856 11.0584 18.0183 9.41106 16.5534 7.94198C14.894 6.27641 12.8854 5.37271 10.3976 5.17362C9.8797 5.14426 9.36063 5.14057 8.84237 5.16256ZM15.0154 20.2952C15.0154 20.301 14.9882 20.2952 14.955 20.2776C14.9218 20.26 14.8946 20.2392 14.8946 20.2301C14.8946 20.221 14.9218 20.2301 14.955 20.2477C14.9882 20.2652 15.0161 20.2867 15.0161 20.2952H15.0154Z" fill="#FD0051"/>
<path id="Vector_3" d="M17.9568 5.18064C16.9809 5.31448 15.8424 5.68163 15.0359 6.1225C14.825 6.23702 14.7769 6.29928 14.8217 6.39733C14.858 6.4689 15.2948 6.87828 15.7976 7.31343C16.3636 7.80082 16.2884 7.76789 16.5474 7.63406C17.174 7.31343 17.9027 7.15311 18.758 7.15311C18.9991 7.15311 19.0769 7.14309 19.1131 7.10086C19.1375 7.07792 19.1544 7.04704 19.1612 7.01283C19.1579 6.88186 18.3844 5.16776 18.3178 5.14844C18.1969 5.15 18.0763 5.16076 17.9568 5.18064Z" fill="#FD0051"/>
</g>
</svg>
