<svg width="24" height="24" viewBox="0 0 24 24" fill="none" xmlns="http://www.w3.org/2000/svg">
<path d="M10.3338 5.79533C10.3338 5.79536 10.3338 5.79539 10.3338 5.79542L10.2753 5.76189M10.3338 5.79533C10.3339 5.79515 10.334 5.79497 10.3341 5.79479L10.2756 5.76135M10.3338 5.79533C10.6278 5.2826 11.2072 4.96201 11.9396 4.97705C11.9403 4.97707 11.9411 4.97708 11.9418 4.9771C11.9497 4.97727 11.9577 4.97748 11.9656 4.97773L11.9734 4.97797H11.9813H11.9813H11.9813H11.9813H11.9813H11.9813H11.9813H11.9813H11.9813H11.9813H11.9813H11.9814H11.9814H11.9814H11.9814H11.9814H11.9814H11.9814H11.9814H11.9814H11.9814H11.9815H11.9815H11.9815H11.9815H11.9815H11.9815H11.9815H11.9815H11.9815H11.9815H11.9816H11.9816H11.9816H11.9816H11.9816H11.9816H11.9816H11.9816H11.9816H11.9817H11.9817H11.9817H11.9817H11.9817H11.9817H11.9817H11.9818H11.9818H11.9818H11.9818H11.9818H11.9818H11.9818H11.9819H11.9819H11.9819H11.9819H11.9819H11.9819H11.9819H11.982H11.982H11.982H11.982H11.982H11.9821H11.9821H11.9821H11.9821H11.9821H11.9821H11.9822H11.9822H11.9822H11.9822H11.9822H11.9823H11.9823H11.9823H11.9823H11.9823H11.9824H11.9824H11.9824H11.9824H11.9824H11.9825H11.9825H11.9825H11.9825H11.9825H11.9826H11.9826H11.9826H11.9826H11.9827H11.9827H11.9827H11.9827H11.9827H11.9828H11.9828H11.9828H11.9828H11.9829H11.9829H11.9829H11.9829H11.983H11.983H11.983H11.983H11.9831H11.9831H11.9831H11.9831H11.9832H11.9832H11.9832H11.9832H11.9833H11.9833H11.9833H11.9833H11.9834H11.9834H11.9834H11.9835H11.9835H11.9835H11.9835H11.9836H11.9836H11.9836H11.9837H11.9837H11.9837H11.9837H11.9838H11.9838H11.9838H11.9839H11.9839H11.9839H11.9839H11.984H11.984H11.984H11.9841H11.9841H11.9841H11.9842H11.9842H11.9842H11.9843H11.9843H11.9843H11.9844H11.9844H11.9844H11.9844H11.9845H11.9845H11.9845H11.9846H11.9846H11.9846H11.9847H11.9847H11.9847H11.9848H11.9848H11.9848H11.9849H11.9849H11.9849H11.985H11.985H11.9851H11.9851H11.9851H11.9852H11.9852H11.9852H11.9853H11.9853H11.9853H11.9854H11.9854H11.9854H11.9855H11.9855H11.9856H11.9856H11.9856H11.9857H11.9857H11.9857H11.9858H11.9858H11.9858H11.9859H11.9859H11.986H11.986H11.986H11.9861H11.9861H11.9862H11.9862H11.9862H11.9863H11.9863H11.9863H11.9864H11.9864H11.9865H11.9865H11.9865H11.9866H11.9866H11.9867H11.9867H11.9867H11.9868H11.9868H11.9869H11.9869H11.9869H11.987H11.987H11.9871H11.9871H11.9872H11.9872H11.9872H11.9873H11.9873H11.9874H11.9874H11.9874H11.9875H11.9875H11.9876H11.9876H11.9877H11.9877H11.9877H11.9878H11.9878H11.9879H11.9879H11.988H11.988H11.988H11.9881H11.9881H11.9882H11.9882H11.9883H11.9883H11.9883H11.9884H11.9884H11.9885H11.9885H11.9886H11.9886H11.9887H11.9887H11.9887H11.9888H11.9888H11.9889H11.9889H11.989H11.989H11.9891H11.9891H11.9892H11.9892H11.9892H11.9893H11.9893H11.9894H11.9894H11.9895H11.9895H11.9896H11.9896H11.9897H11.9897H11.9898H11.9898H11.9899H11.9899H11.9899H11.99H11.99H11.9901H11.9901H11.9902H11.9902H11.9903H11.9903H11.9904H11.9904H11.9905H11.9905H11.9906H11.9906H11.9907H11.9907H11.9908H11.9908H11.9909H11.9909H11.991H11.991H11.9911H11.9911H11.9912H11.9912H11.9913H11.9913H11.9913H11.9914H11.9914H11.9915H11.9915H11.9916H11.9916H11.9917H11.9917H11.9918H11.9918H11.9919H11.9919H11.992H11.992H11.9921H11.9921H11.9922H11.9922H11.9923H11.9923H11.9924H11.9925H11.9925H11.9926H11.9926H11.9927H11.9927H11.9928H11.9928H11.9929H11.9929H11.993H11.993H11.9931H11.9931H11.9932H11.9932H11.9933H11.9933H11.9934H11.9934H11.9935H11.9935H11.9936H11.9936H11.9937H11.9937H11.9938H11.9938H11.9939H11.9939H11.994H11.9941H11.9941H11.9942H11.9942H11.9943H11.9943H11.9944H11.9944H11.9945H11.9945H11.9946H11.9946H11.9947H11.9947H11.9948H11.9948H11.9949H11.9949H11.995H11.9951H11.9951H11.9952H11.9952H11.9953H11.9953H11.9954H11.9954H11.9955H11.9955H11.9956H11.9956H11.9957H11.9957H11.9958H11.9959H11.9959H11.996H11.996H11.9961H11.9961H11.9962H11.9962H11.9963H11.9963H11.9964H11.9964H11.9965H11.9966H11.9966H11.9967H11.9967H11.9968H11.9968H11.9969H11.9969H11.997H11.997H11.9971H11.9972H11.9972H11.9973H11.9973H11.9974H11.9974H11.9975H11.9975H11.9976H11.9976H11.9977H11.9978H11.9978H11.9979H11.9979H11.998H11.998H11.9981H11.9981H11.9982H11.9982H11.9983H11.9984H11.9984H11.9985H11.9985H11.9986H11.9986H11.9987H11.9987H11.9988H11.9988H11.9989H11.999H11.999H11.9991H11.9991H11.9992H11.9992H11.9993H11.9993H11.9994H11.9995H11.9995H11.9996H11.9996H11.9997H11.9997H11.9998H11.9998H11.9999H11.9999H12H12.0078L12.0156 4.97773C12.0236 4.97748 12.0315 4.97727 12.0395 4.9771C12.0402 4.97708 12.0409 4.97707 12.0416 4.97705C12.774 4.96201 13.3534 5.2826 13.6474 5.79534L10.3338 5.79533ZM10.2753 5.76189C10.2754 5.76171 10.2755 5.76153 10.2756 5.76135M10.2753 5.76189L9.90001 5.54673L10.2756 5.76135M10.2753 5.76189C10.2747 5.76283 10.2742 5.76378 10.2737 5.76473C9.96336 6.29466 9.86442 6.89263 10.0369 7.46222L11.9906 4.90699M10.2756 5.76135C10.6134 5.17616 11.2662 4.8945 11.943 4.90617L11.9679 4.9066L11.9813 4.90683L11.9906 4.90699M11.9906 4.90699L12 4.90683L12.0134 4.9066L12.0383 4.90617C12.707 4.89464 13.365 5.16142 13.7057 5.76132L14.0812 5.54673L13.706 5.76186C13.7074 5.76423 13.7087 5.7666 13.71 5.76898C14.0167 6.30414 14.1175 6.892 13.9439 7.46366C13.9438 7.46393 13.9437 7.4642 13.9436 7.46448L11.9906 4.90699ZM13.9399 7.47651C13.94 7.47643 13.94 7.47635 13.94 7.47627L13.8716 7.45524L13.9399 7.47651ZM13.6501 5.79999L13.275 6.01547L13.6527 5.80465L13.6501 5.79999Z" fill="#343A3F" stroke="#343A3F"/>
</svg>
