<svg width="24" height="24" viewBox="0 0 24 24" fill="none" xmlns="http://www.w3.org/2000/svg">
<path d="M12 24C5.38667 24 0 18.6133 0 12C0 5.38667 5.38667 0 12 0C18.6133 0 24 5.38667 24 12C24 18.6133 18.6133 24 12 24ZM12 0.666667C5.76 0.666667 0.666667 5.76 0.666667 12C0.666667 18.24 5.76 23.3333 12 23.3333C18.24 23.3333 23.3333 18.24 23.3333 12C23.3333 5.76 18.24 0.666667 12 0.666667Z" fill="#343A3F"/>
<path d="M12.0009 17.0409C9.2276 17.0409 6.96094 14.7743 6.96094 12.0009C6.96094 9.2276 9.2276 6.96094 12.0009 6.96094C14.7743 6.96094 17.0409 9.2276 17.0409 12.0009C17.0409 14.7743 14.7743 17.0409 12.0009 17.0409ZM12.0009 7.6276C9.60094 7.6276 7.6276 9.60094 7.6276 12.0009C7.6276 14.4009 9.60094 16.3743 12.0009 16.3743C14.4009 16.3743 16.3743 14.4009 16.3743 12.0009C16.3743 9.60094 14.4009 7.6276 12.0009 7.6276Z" fill="#343A3F"/>
<path d="M15.4133 11.9993H14.7467C14.7467 10.4793 13.52 9.2526 12 9.2526V8.58594C13.8933 8.58594 15.4133 10.1059 15.4133 11.9993Z" fill="#343A3F"/>
</svg>
