<svg width="25" height="25" viewBox="0 0 25 25" fill="none" xmlns="http://www.w3.org/2000/svg">
<path d="M5.3 15.4209H6.686C7.21643 15.4209 7.72514 15.2102 8.10021 14.8352C8.47529 14.4601 8.686 13.9514 8.686 13.4209V11.3659C8.686 10.8355 8.47529 10.3268 8.10021 9.95172C7.72514 9.57665 7.21643 9.36594 6.686 9.36594H5.3C4.76957 9.36594 4.26086 9.57665 3.88579 9.95172C3.51071 10.3268 3.3 10.8355 3.3 11.3659V13.4209C3.3 13.9514 3.51071 14.4601 3.88579 14.8352C4.26086 15.2102 4.76957 15.4209 5.3 15.4209ZM4.3 11.3659C4.3 11.1007 4.40536 10.8464 4.59289 10.6588C4.78043 10.4713 5.03478 10.3659 5.3 10.3659H6.686C6.95122 10.3659 7.20557 10.4713 7.39311 10.6588C7.58064 10.8464 7.686 11.1007 7.686 11.3659V13.4209C7.686 13.6862 7.58064 13.9405 7.39311 14.128C7.20557 14.3156 6.95122 14.4209 6.686 14.4209H5.3C5.03478 14.4209 4.78043 14.3156 4.59289 14.128C4.40536 13.9405 4.3 13.6862 4.3 13.4209V11.3659ZM9.31 17.8899C9.20391 17.9695 9.07056 18.0037 8.93929 17.9849C8.80801 17.9662 8.68956 17.896 8.61 17.7899C8.43595 17.5565 8.20958 17.3671 7.94907 17.2371C7.68856 17.107 7.40118 17.0398 7.11 17.0409H4.876C4.37852 17.0417 3.90167 17.2398 3.54999 17.5916C3.19832 17.9435 3.00053 18.4205 3 18.9179V19.8419C3.95987 20.1766 4.97596 20.3203 5.991 20.2649C6.62653 20.2793 7.26213 20.2398 7.891 20.1469C8.02175 20.1247 8.156 20.1552 8.26421 20.2319C8.37242 20.3086 8.44572 20.4252 8.468 20.5559C8.49028 20.6867 8.4597 20.8209 8.383 20.9291C8.3063 21.0374 8.18975 21.1107 8.059 21.1329C7.37535 21.2357 6.68417 21.2799 5.993 21.2649C4.72249 21.3437 3.45133 21.1213 2.283 20.6159C2.19829 20.5751 2.1268 20.5113 2.07674 20.4317C2.02668 20.3521 2.00009 20.26 2 20.1659V18.9179C2.00079 18.1554 2.30406 17.4244 2.84324 16.8852C3.38242 16.346 4.11348 16.0427 4.876 16.0419H7.106C7.55249 16.0398 7.99323 16.1426 8.39273 16.342C8.79222 16.5414 9.1393 16.8318 9.406 17.1899C9.48567 17.2959 9.52 17.4292 9.50143 17.5604C9.48287 17.6917 9.41293 17.8102 9.307 17.8899H9.31ZM23 18.9179V20.1659C23.0001 20.2598 22.9738 20.3517 22.9241 20.4313C22.8744 20.5109 22.8033 20.5748 22.719 20.6159C21.5507 21.1213 20.2795 21.3437 19.009 21.2649C18.3178 21.2799 17.6266 21.2357 16.943 21.1329C16.8783 21.1219 16.8163 21.0983 16.7607 21.0633C16.7051 21.0283 16.6569 20.9828 16.619 20.9292C16.581 20.8756 16.5539 20.815 16.5394 20.751C16.5248 20.687 16.523 20.6207 16.534 20.5559C16.5579 20.426 16.6316 20.3106 16.7394 20.2342C16.8472 20.1578 16.9805 20.1265 17.111 20.1469C17.7399 20.2398 18.3755 20.2793 19.011 20.2649C20.0254 20.3201 21.0408 20.1764 22 19.8419V18.9179C21.9992 18.4206 21.8013 17.9439 21.4497 17.5923C21.098 17.2406 20.6213 17.0427 20.124 17.0419H17.894C17.6028 17.0408 17.3154 17.108 17.0549 17.2381C16.7944 17.3681 16.568 17.5575 16.394 17.7909C16.3546 17.8435 16.3052 17.8877 16.2487 17.9212C16.1922 17.9546 16.1297 17.9766 16.0647 17.9859C15.9997 17.9952 15.9335 17.9916 15.8699 17.9753C15.8063 17.959 15.7465 17.9303 15.694 17.8909C15.6415 17.8515 15.5972 17.8022 15.5638 17.7457C15.5303 17.6892 15.5083 17.6266 15.499 17.5616C15.4897 17.4966 15.4933 17.4305 15.5096 17.3668C15.5259 17.3032 15.5546 17.2435 15.594 17.1909C15.8607 16.8328 16.2078 16.5424 16.6073 16.343C17.0068 16.1436 17.4475 16.0408 17.894 16.0429H20.124C20.8863 16.0437 21.6173 16.3469 22.1564 16.8858C22.6956 17.4248 22.9989 18.1556 23 18.9179ZM12.012 12.3329C11.5611 12.3329 11.1287 12.512 10.8099 12.8309C10.4911 13.1497 10.312 13.5821 10.312 14.0329V15.5219C10.312 15.9728 10.4911 16.4052 10.8099 16.724C11.1287 17.0428 11.5611 17.2219 12.012 17.2219H12.988C13.4389 17.2219 13.8713 17.0428 14.1901 16.724C14.5089 16.4052 14.688 15.9728 14.688 15.5219V14.0329C14.688 13.5821 14.5089 13.1497 14.1901 12.8309C13.8713 12.512 13.4389 12.3329 12.988 12.3329H12.012ZM13.688 14.0329V15.5219C13.688 15.7076 13.6143 15.8856 13.483 16.0169C13.3517 16.1482 13.1737 16.2219 12.988 16.2219H12.012C11.8263 16.2219 11.6483 16.1482 11.517 16.0169C11.3857 15.8856 11.312 15.7076 11.312 15.5219V14.0329C11.312 13.8473 11.3857 13.6692 11.517 13.538C11.6483 13.4067 11.8263 13.3329 12.012 13.3329H12.988C13.1737 13.3329 13.3517 13.4067 13.483 13.538C13.6143 13.6692 13.688 13.8473 13.688 14.0329ZM13.357 17.7949H11.643C11.0256 17.7952 10.4335 18.0405 9.99679 18.477C9.56011 18.9135 9.31453 19.5055 9.314 20.1229V21.0829C9.31399 21.1769 9.34044 21.2689 9.39032 21.3485C9.44019 21.4281 9.51147 21.492 9.596 21.5329C10.509 21.929 11.5027 22.1037 12.496 22.0429C13.4893 22.1037 14.483 21.929 15.396 21.5329C15.4805 21.492 15.5518 21.4281 15.6017 21.3485C15.6516 21.2689 15.678 21.1769 15.678 21.0829V20.1229C15.6775 19.5069 15.433 18.9161 14.998 18.4798C14.5631 18.0436 13.973 17.7973 13.357 17.7949ZM14.686 20.7549C13.9816 20.9861 13.2402 21.0838 12.5 21.0429C11.7598 21.0838 11.0184 20.9861 10.314 20.7549V20.1229C10.3145 19.7707 10.4548 19.4331 10.7039 19.1841C10.9531 18.9352 11.2908 18.7952 11.643 18.7949H13.357C13.7092 18.7952 14.0469 18.9352 14.2961 19.1841C14.5452 19.4331 14.6855 19.7707 14.686 20.1229V20.7549ZM16.314 13.4209C16.314 13.9514 16.5247 14.4601 16.8998 14.8352C17.2749 15.2102 17.7836 15.4209 18.314 15.4209H19.7C20.2304 15.4209 20.7391 15.2102 21.1142 14.8352C21.4893 14.4601 21.7 13.9514 21.7 13.4209V11.3659C21.7 10.8355 21.4893 10.3268 21.1142 9.95172C20.7391 9.57665 20.2304 9.36594 19.7 9.36594H18.314C17.7836 9.36594 17.2749 9.57665 16.8998 9.95172C16.5247 10.3268 16.314 10.8355 16.314 11.3659V13.4209ZM17.314 11.3659C17.314 11.1007 17.4194 10.8464 17.6069 10.6588C17.7944 10.4713 18.0488 10.3659 18.314 10.3659H19.7C19.9652 10.3659 20.2196 10.4713 20.4071 10.6588C20.5946 10.8464 20.7 11.1007 20.7 11.3659V13.4209C20.7 13.6862 20.5946 13.9405 20.4071 14.128C20.2196 14.3156 19.9652 14.4209 19.7 14.4209H18.314C18.0488 14.4209 17.7944 14.3156 17.6069 14.128C17.4194 13.9405 17.314 13.6862 17.314 13.4209V11.3659ZM11.47 9.57794C11.7811 9.76482 12.1371 9.86356 12.5 9.86356C12.8629 9.86356 13.2189 9.76482 13.53 9.57794C16.109 8.03394 16.494 6.36294 16.494 5.50494C16.5158 5.18986 16.4748 4.8736 16.3733 4.57452C16.2718 4.27545 16.1118 3.99954 15.9028 3.76282C15.6937 3.52611 15.4396 3.33332 15.1554 3.19565C14.8711 3.05799 14.5624 2.97821 14.247 2.96094C13.61 2.96126 12.9927 3.1821 12.5 3.58594C12.0073 3.1821 11.39 2.96126 10.753 2.96094C10.4379 2.97822 10.1294 3.05791 9.84536 3.19538C9.56132 3.33286 9.30741 3.52538 9.09838 3.76177C8.88934 3.99815 8.72933 4.27371 8.62764 4.57243C8.52595 4.87116 8.4846 5.1871 8.506 5.50194C8.506 6.36294 8.891 8.03394 11.47 9.57794ZM10.753 3.96094C11.0095 3.96173 11.2627 4.01799 11.4954 4.12588C11.7281 4.23376 11.9347 4.3907 12.101 4.58594C12.1496 4.645 12.2107 4.69256 12.2798 4.72522C12.349 4.75787 12.4245 4.77481 12.501 4.77481C12.5775 4.77481 12.653 4.75787 12.7222 4.72522C12.7913 4.69256 12.8524 4.645 12.901 4.58594C13.0683 4.39261 13.2749 4.23715 13.507 4.1299C13.7391 4.02265 13.9913 3.96608 14.247 3.96394C14.4299 3.98303 14.6072 4.03797 14.7688 4.1256C14.9305 4.21322 15.0733 4.33184 15.1891 4.47465C15.3049 4.61747 15.3914 4.7817 15.4437 4.95796C15.496 5.13423 15.5131 5.31907 15.494 5.50194C15.494 6.60194 14.594 7.77394 13.017 8.71794C12.8602 8.80978 12.6817 8.85819 12.5 8.85819C12.3183 8.85819 12.1398 8.80978 11.983 8.71794C10.409 7.77694 9.506 6.60194 9.506 5.50194C9.48646 5.31884 9.50324 5.13368 9.55537 4.95707C9.6075 4.78046 9.69396 4.61587 9.80979 4.47272C9.92563 4.32958 10.0686 4.21069 10.2304 4.12287C10.3923 4.03505 10.5698 3.98002 10.753 3.96094Z" fill="#343A3F"/>
</svg>
