<svg width="24" height="24" viewBox="0 0 24 24" fill="none" xmlns="http://www.w3.org/2000/svg">
<path fill-rule="evenodd" clip-rule="evenodd" d="M4.91356 2.18025e-06C4.93932 2.18025e-06 4.96515 2.18025e-06 4.99108 2.18025e-06H19.0089H19.0865C20.2309 -4.70505e-05 21.1947 -9.62844e-05 21.9099 0.100261C22.6184 0.199707 23.4597 0.445836 23.8404 1.27151C24.2211 2.09718 23.8512 2.87306 23.4567 3.45494C23.0586 4.04216 22.4183 4.74372 21.6579 5.5768L21.6063 5.63323L17.3173 10.3327C16.4945 11.2341 16.1868 11.5797 15.9735 11.9622C15.7976 12.2775 15.666 12.6144 15.5824 12.9638C15.4809 13.3878 15.4752 13.8453 15.4752 15.0513V20.6154C15.4752 22.4847 13.9193 24 12 24C10.0807 24 8.5248 22.4847 8.5248 20.6154V15.0513C8.5248 13.8453 8.51908 13.3878 8.41761 12.9638C8.33399 12.6144 8.20247 12.2775 8.0266 11.9622C7.81321 11.5797 7.50546 11.2341 6.68276 10.3327L2.39367 5.63323C2.37645 5.61437 2.35929 5.59556 2.34218 5.57681C1.58177 4.74373 0.941406 4.04216 0.543325 3.45494C0.14887 2.87306 -0.221119 2.09718 0.159574 1.27151C0.540279 0.445836 1.38151 0.199707 2.09012 0.100261C2.80523 -9.62844e-05 3.76906 -4.70505e-05 4.91356 2.18025e-06ZM1.85993 2.0657C1.85906 2.06537 1.86231 2.06142 1.87233 2.05481C1.86583 2.06272 1.86082 2.06602 1.85993 2.0657ZM1.90739 2.03593C1.96859 2.00765 2.09972 1.96414 2.36046 1.92755C2.92365 1.84851 3.74836 1.84616 4.99108 1.84616H19.0089C20.2516 1.84616 21.0763 1.84851 21.6396 1.92755C21.9003 1.96414 22.0314 2.00765 22.0926 2.03593C22.0737 2.09928 22.0199 2.22365 21.8747 2.43775C21.5613 2.90021 21.0152 3.50211 20.1896 4.40672L15.9004 9.10616C15.8749 9.13412 15.8498 9.16174 15.8249 9.18902C15.1032 9.97945 14.638 10.489 14.3078 11.0809C14.0507 11.5417 13.8585 12.0341 13.7363 12.5449C13.5794 13.2009 13.5795 13.8827 13.5796 14.9404C13.5796 14.977 13.5796 15.0139 13.5796 15.0513V20.6154C13.5796 21.4651 12.8725 22.1538 12 22.1538C11.1277 22.1538 10.4204 21.4651 10.4204 20.6154V15.0513C10.4204 15.0139 10.4204 14.977 10.4204 14.9404C10.4206 13.8827 10.4207 13.2009 10.2637 12.5449C10.1415 12.0341 9.94924 11.5417 9.6922 11.0809C9.36206 10.489 8.89683 9.97945 8.17517 9.18902C8.15026 9.16175 8.12505 9.13412 8.09953 9.10616L3.81044 4.40672C2.98482 3.50211 2.43873 2.90021 2.12521 2.43775C1.98006 2.22363 1.92634 2.09928 1.90739 2.03593ZM22.1401 2.0657C22.1392 2.06602 22.1342 2.06272 22.1277 2.05482C22.1377 2.06142 22.141 2.06537 22.1401 2.0657ZM22.1015 1.99787C22.0997 1.98789 22.1004 1.98205 22.1013 1.98163C22.1021 1.9812 22.103 1.98619 22.1015 1.99787ZM1.89858 1.99787C1.89699 1.98619 1.89787 1.9812 1.8987 1.98163C1.89955 1.98205 1.90035 1.98789 1.89858 1.99787Z" fill="#343A3F"/>
</svg>
