<svg width="26" height="26" viewBox="0 0 26 26" fill="none" xmlns="http://www.w3.org/2000/svg">
<path d="M10.9601 18.9346L3.72852 18.7422" stroke="#343A3F" stroke-width="1.5" stroke-linecap="round" stroke-linejoin="round"/>
<path d="M21.9568 19.2236C21.9145 20.8136 20.5912 22.0683 19.0012 22.026C17.4112 21.9837 16.1565 20.6604 16.1988 19.0704C16.2411 17.4792 17.5643 16.2257 19.1544 16.268C20.7444 16.3103 21.9991 17.6323 21.9568 19.2236Z" stroke="#343A3F" stroke-width="1.5" stroke-linecap="round" stroke-linejoin="round"/>
<path d="M15.0352 7.3125L22.2679 7.5049" stroke="#343A3F" stroke-width="1.5" stroke-linecap="round" stroke-linejoin="round"/>
<path d="M4.03865 7.01961C3.99632 8.61081 5.25102 9.93288 6.84105 9.97517C8.43107 10.0175 9.75428 8.76398 9.79661 7.17278C9.83891 5.58275 8.58424 4.25951 6.99422 4.21721C5.40419 4.17491 4.08095 5.42958 4.03865 7.01961Z" stroke="#343A3F" stroke-width="1.5" stroke-linecap="round" stroke-linejoin="round"/>
</svg>
