<svg width="16" height="16" viewBox="0 0 16 16" fill="none" xmlns="http://www.w3.org/2000/svg">
<path d="M12.8333 4.03V3.83333C12.8333 3.3471 12.6402 2.88079 12.2964 2.53697C11.9525 2.19315 11.4862 2 11 2H3.5C3.29411 2.00003 3.09043 2.04246 2.90164 2.12462C2.71285 2.20679 2.543 2.32694 2.40267 2.47759C2.26233 2.62825 2.15451 2.80618 2.08592 3.00032C2.01734 3.19445 1.98945 3.40062 2.004 3.606C2.00145 3.62612 2.00011 3.64638 2 3.66667V11.8333C2 12.408 2.22827 12.9591 2.6346 13.3654C3.04093 13.7717 3.59203 14 4.16667 14H12.5C12.9862 14 13.4525 13.8068 13.7964 13.463C14.1402 13.1192 14.3333 12.6529 14.3333 12.1667V5.83333C14.3335 5.40483 14.1835 4.98982 13.9095 4.66039C13.6355 4.33095 13.2547 4.10791 12.8333 4.03ZM3.5 3H11C11.46 3 11.8333 3.37333 11.8333 3.83333V4H3.5C3.36739 4 3.24021 3.94732 3.14645 3.85355C3.05268 3.75979 3 3.63261 3 3.5C3 3.36739 3.05268 3.24021 3.14645 3.14645C3.24021 3.05268 3.36739 3 3.5 3ZM10.8333 8.66667H12.1667C12.2993 8.66667 12.4265 8.71935 12.5202 8.81311C12.614 8.90688 12.6667 9.03406 12.6667 9.16667C12.6667 9.29927 12.614 9.42645 12.5202 9.52022C12.4265 9.61399 12.2993 9.66667 12.1667 9.66667H10.8333C10.7007 9.66667 10.5735 9.61399 10.4798 9.52022C10.386 9.42645 10.3333 9.29927 10.3333 9.16667C10.3333 9.03406 10.386 8.90688 10.4798 8.81311C10.5735 8.71935 10.7007 8.66667 10.8333 8.66667Z" fill="#FF4D6D"/>
</svg>
