<svg width="26" height="24" viewBox="0 0 26 24" fill="none" xmlns="http://www.w3.org/2000/svg">
<g clip-path="url(#clip0_23217_12010)">
<path d="M12.4999 7.85686C12.4707 7.85685 12.4416 7.85327 12.4133 7.84618C11.1486 7.52895 10.1023 6.98797 9.3036 6.2382C8.61717 5.59424 8.12887 4.80033 7.89183 3.94284C7.721 3.32593 7.68517 2.69313 7.78838 2.11585C7.8916 1.53857 8.12317 1.05643 8.45891 0.720693C9.30502 -0.125417 10.5706 -0.136568 11.4485 0.227406C11.8502 0.393496 12.1914 0.640732 12.4356 0.941592C12.4576 0.968641 12.4787 0.996086 12.4989 1.02393C12.5193 0.996086 12.5405 0.968641 12.5625 0.941592C12.8064 0.640732 13.1479 0.393733 13.5496 0.227406C14.4275 -0.136568 15.694 -0.125417 16.5392 0.720693C16.8749 1.05643 17.1067 1.5388 17.2097 2.11585C17.3127 2.69289 17.2771 3.32593 17.1063 3.94284C16.869 4.80033 16.3809 5.59401 15.6945 6.2382C14.8958 6.98797 13.8495 7.52895 12.5846 7.84618C12.5569 7.85313 12.5284 7.85671 12.4999 7.85686ZM10.3023 0.705033C9.74065 0.705033 9.25828 0.926881 8.96216 1.223C8.46318 1.72316 8.30421 2.7636 8.57778 3.75326C8.78018 4.48453 9.19944 5.16455 9.79072 5.71929C10.4821 6.36822 11.3932 6.84371 12.4999 7.13366C13.6067 6.84371 14.5179 6.36822 15.2093 5.71929C15.8003 5.16455 16.2198 4.48548 16.422 3.75326C16.6958 2.7636 16.5378 1.72316 16.0378 1.223C15.5956 0.78096 14.7392 0.504539 13.8229 0.884172C13.2174 1.13497 12.8558 1.58721 12.8558 2.09426C12.8558 2.18865 12.8183 2.27917 12.7515 2.34592C12.6848 2.41267 12.5943 2.45016 12.4999 2.45016C12.4055 2.45016 12.315 2.41267 12.2482 2.34592C12.1815 2.27917 12.144 2.18865 12.144 2.09426C12.144 1.58721 11.7826 1.13497 11.1771 0.884172C10.9001 0.767385 10.6028 0.706504 10.3023 0.705033Z" fill="#343A3F"/>
<rect x="5.52197" y="13.25" width="2.20878" height="1.10439" fill="#343A3F"/>
<path d="M6.50766 16.4035C5.64959 16.4035 4.8108 16.1491 4.09734 15.6723C3.38388 15.1956 2.82781 14.518 2.49944 13.7253C2.17107 12.9325 2.08515 12.0602 2.25255 11.2186C2.41995 10.3771 2.83315 9.60402 3.4399 8.99727C4.04665 8.39053 4.81969 7.97733 5.66127 7.80993C6.50285 7.64253 7.37517 7.72844 8.16792 8.05681C8.96068 8.38518 9.63825 8.94125 10.115 9.65471C10.5917 10.3682 10.8461 11.207 10.8461 12.065C10.8461 13.2157 10.389 14.3192 9.57543 15.1328C8.76181 15.9464 7.6583 16.4035 6.50766 16.4035ZM6.50766 8.81118C5.86411 8.81118 5.23501 9.00202 4.69992 9.35956C4.16483 9.71709 3.74777 10.2253 3.50149 10.8198C3.25522 11.4144 3.19078 12.0686 3.31633 12.6998C3.44188 13.331 3.75178 13.9108 4.20684 14.3659C4.6619 14.8209 5.24168 15.1308 5.87287 15.2564C6.50405 15.3819 7.1583 15.3175 7.75286 15.0712C8.34742 14.8249 8.85561 14.4079 9.21314 13.8728C9.57068 13.3377 9.76152 12.7086 9.76152 12.065C9.76152 11.2021 9.4187 10.3744 8.80849 9.76421C8.19827 9.154 7.37064 8.81118 6.50766 8.81118Z" fill="#343A3F"/>
<path d="M10.3039 23.9919H2.71154C1.9924 23.9919 1.30271 23.7062 0.794193 23.1977C0.28568 22.6892 0 21.9995 0 21.2803V19.1111C1.64144e-05 19.017 0.024525 18.9245 0.0711162 18.8427C0.117707 18.7609 0.184777 18.6927 0.265731 18.6447L2.97728 17.0178C3.09962 16.9625 3.23812 16.9545 3.36598 16.9955C3.49384 17.0364 3.60197 17.1233 3.66945 17.2394C3.73693 17.3555 3.75896 17.4924 3.73127 17.6238C3.70359 17.7552 3.62816 17.8716 3.51959 17.9506L1.08462 19.4202V21.2803C1.08462 21.7118 1.25603 22.1256 1.56113 22.4307C1.86624 22.7359 2.28006 22.9073 2.71154 22.9073H10.3039C10.7354 22.9073 11.1492 22.7359 11.4543 22.4307C11.7594 22.1256 11.9308 21.7118 11.9308 21.2803V19.4202L9.48498 17.9506C9.41584 17.9193 9.35402 17.8739 9.30352 17.8172C9.25303 17.7606 9.21498 17.694 9.19184 17.6217C9.1687 17.5495 9.16099 17.4731 9.1692 17.3977C9.17741 17.3223 9.20136 17.2494 9.2395 17.1838C9.27764 17.1182 9.32912 17.0613 9.39061 17.0169C9.45211 16.9724 9.52225 16.9414 9.5965 16.9257C9.67075 16.9101 9.74746 16.9102 9.82167 16.926C9.89587 16.9419 9.96592 16.9732 10.0273 17.0178L12.7388 18.6447C12.8218 18.6913 12.8911 18.759 12.9396 18.8409C12.9881 18.9227 13.0143 19.0159 13.0154 19.1111V21.2803C13.0154 21.9995 12.7297 22.6892 12.2212 23.1977C11.7127 23.7062 11.023 23.9919 10.3039 23.9919Z" fill="#343A3F"/>
<rect x="22.1101" y="12.5312" width="0.773073" height="3.31317" transform="rotate(-28 22.1101 12.5312)" fill="#343A3F"/>
<rect x="14.3435" y="12.1562" width="0.773073" height="3.29864" transform="rotate(28 14.3435 12.1562)" fill="#343A3F"/>
<path d="M18.6559 16.4035C17.7978 16.4035 16.959 16.1491 16.2455 15.6723C15.5321 15.1956 14.976 14.518 14.6476 13.7253C14.3193 12.9325 14.2333 12.0602 14.4007 11.2186C14.5681 10.3771 14.9813 9.60402 15.5881 8.99727C16.1948 8.39053 16.9679 7.97733 17.8095 7.80993C18.651 7.64253 19.5234 7.72844 20.3161 8.05681C21.1089 8.38518 21.7864 8.94125 22.2632 9.65471C22.7399 10.3682 22.9943 11.207 22.9943 12.065C22.9943 13.2157 22.5372 14.3192 21.7236 15.1328C20.91 15.9464 19.8065 16.4035 18.6559 16.4035ZM18.6559 8.81118C18.0123 8.81118 17.3832 9.00202 16.8481 9.35956C16.313 9.71709 15.896 10.2253 15.6497 10.8198C15.4034 11.4144 15.339 12.0686 15.4645 12.6998C15.5901 13.331 15.9 13.9108 16.355 14.3659C16.8101 14.8209 17.3899 15.1308 18.0211 15.2564C18.6522 15.3819 19.3065 15.3175 19.9011 15.0712C20.4956 14.8249 21.0038 14.4079 21.3613 13.8728C21.7189 13.3377 21.9097 12.7086 21.9097 12.065C21.9097 11.2021 21.5669 10.3744 20.9567 9.76421C20.3465 9.154 19.5188 8.81118 18.6559 8.81118Z" fill="#343A3F"/>
<path d="M22.4521 23.9919H14.8597C14.1406 23.9919 13.4509 23.7062 12.9424 23.1977C12.4339 22.6892 12.1482 21.9995 12.1482 21.2803V19.1111C12.1482 19.017 12.1727 18.9245 12.2193 18.8427C12.2659 18.7609 12.333 18.6927 12.4139 18.6447L15.1255 17.0178C15.2478 16.9625 15.3863 16.9545 15.5142 16.9955C15.642 17.0364 15.7502 17.1233 15.8176 17.2394C15.8851 17.3555 15.9072 17.4924 15.8795 17.6238C15.8518 17.7552 15.7764 17.8716 15.6678 17.9506L13.2328 19.4202V21.2803C13.2328 21.7118 13.4042 22.1256 13.7093 22.4307C14.0144 22.7359 14.4283 22.9073 14.8597 22.9073H22.4521C22.8836 22.9073 23.2974 22.7359 23.6025 22.4307C23.9076 22.1256 24.079 21.7118 24.079 21.2803V19.4202L21.6332 17.9506C21.564 17.9193 21.5022 17.8739 21.4517 17.8172C21.4012 17.7606 21.3632 17.694 21.34 17.6217C21.3169 17.5495 21.3092 17.4731 21.3174 17.3977C21.3256 17.3223 21.3496 17.2494 21.3877 17.1838C21.4258 17.1182 21.4773 17.0613 21.5388 17.0169C21.6003 16.9724 21.6704 16.9414 21.7447 16.9257C21.8189 16.9101 21.8957 16.9102 21.9699 16.926C22.0441 16.9419 22.1141 16.9732 22.1755 17.0178L24.887 18.6447C24.97 18.6913 25.0392 18.759 25.0878 18.8409C25.1363 18.9227 25.1625 19.0159 25.1636 19.1111V21.2803C25.1636 21.9995 24.8779 22.6892 24.3694 23.1977C23.8609 23.7062 23.1712 23.9919 22.4521 23.9919Z" fill="#343A3F"/>
</g>
<defs>
<clipPath id="clip0_23217_12010">
<rect width="25.1637" height="23.9938" fill="white"/>
</clipPath>
</defs>
</svg>
