<svg width="24" height="24" viewBox="0 0 24 24" fill="none" xmlns="http://www.w3.org/2000/svg">
<g clip-path="url(#clip0)">
<path fill-rule="evenodd" clip-rule="evenodd" d="M12.2084 2H12.25H12.2916C13.6608 1.99999 14.7457 1.99998 15.6121 2.08812C16.4997 2.17841 17.2407 2.36739 17.889 2.80052C18.4076 3.14707 18.8529 3.59239 19.1995 4.11104C19.6326 4.75926 19.8216 5.5003 19.9119 6.38794C20 7.2543 20 8.3392 20 9.7084V9.75V15.75V15.7916C20 17.1608 20 18.2457 19.9119 19.1121C19.8216 19.9997 19.6326 20.7407 19.1995 21.389C18.8529 21.9076 18.4076 22.3529 17.889 22.6995C17.2407 23.1326 16.4997 23.3216 15.6121 23.4119C14.7457 23.5 13.6608 23.5 12.2916 23.5H12.25H12.2084C10.8392 23.5 9.75431 23.5 8.88794 23.4119C8.0003 23.3216 7.25926 23.1326 6.61104 22.6995C6.09239 22.3529 5.64707 21.9076 5.30052 21.389C4.86739 20.7407 4.67841 19.9997 4.58812 19.1121C4.49998 18.2457 4.49999 17.1608 4.5 15.7916V15.75V9.75V9.70841C4.49999 8.3392 4.49998 7.2543 4.58812 6.38794C4.67841 5.5003 4.86739 4.75926 5.30052 4.11104C5.64707 3.59239 6.09239 3.14707 6.61104 2.80052C7.25926 2.36739 8.0003 2.17841 8.88794 2.08812C9.7543 1.99998 10.8392 1.99999 12.2084 2ZM9.03975 3.58041C8.27071 3.65865 7.80507 3.80673 7.4444 4.04772C7.08953 4.28484 6.78484 4.58953 6.54772 4.9444C6.30673 5.30507 6.15865 5.77071 6.08041 6.53975C6.00091 7.32133 6 8.32993 6 9.75V15.75C6 17.1701 6.00091 18.1787 6.08041 18.9602C6.15865 19.7293 6.30673 20.1949 6.54772 20.5556C6.78484 20.9105 7.08953 21.2152 7.4444 21.4523C7.80507 21.6933 8.27071 21.8414 9.03975 21.9196C9.82133 21.9991 10.8299 22 12.25 22C13.6701 22 14.6787 21.9991 15.4602 21.9196C16.2293 21.8414 16.6949 21.6933 17.0556 21.4523C17.4105 21.2152 17.7152 20.9105 17.9523 20.5556C18.1933 20.1949 18.3414 19.7293 18.4196 18.9602C18.4991 18.1787 18.5 17.1701 18.5 15.75V9.75C18.5 8.32993 18.4991 7.32133 18.4196 6.53975C18.3414 5.77071 18.1933 5.30507 17.9523 4.9444C17.7152 4.58953 17.4105 4.28484 17.0556 4.04772C16.6949 3.80673 16.2293 3.65865 15.4602 3.58041C14.6787 3.50091 13.6701 3.5 12.25 3.5C10.8299 3.5 9.82133 3.50091 9.03975 3.58041Z" fill="#343A3F"/>
<rect x="9" y="7" width="2.66667" height="2.66667" rx="0.888889" fill="#343A3F"/>
<rect x="12.666" y="7" width="2.66667" height="2.66667" rx="0.888889" fill="#343A3F"/>
<rect x="9" y="11.668" width="2.66667" height="2.66667" rx="0.888889" fill="#343A3F"/>
<rect x="9" y="16.332" width="2.66667" height="2.66667" rx="0.888889" fill="#343A3F"/>
<rect x="12.666" y="11.668" width="2.66667" height="2.66667" rx="0.888889" fill="#343A3F"/>
<rect x="12.666" y="16.332" width="2.66667" height="2.66667" rx="0.888889" fill="#343A3F"/>
</g>
<defs>
<clipPath id="clip0">
<rect width="24" height="24" fill="white"/>
</clipPath>
</defs>
</svg>
