<svg width="24" height="24" viewBox="0 0 24 24" fill="none" xmlns="http://www.w3.org/2000/svg">
<path d="M13.414 10.9885C13.289 10.8635 13.1194 10.7933 12.9427 10.7933C12.7659 10.7933 12.5963 10.8635 12.4713 10.9885L12 11.4592C11.877 11.5865 11.7299 11.6881 11.5672 11.758C11.4045 11.8279 11.2296 11.8647 11.0525 11.8662C10.8755 11.8677 10.6999 11.834 10.5361 11.767C10.3722 11.6999 10.2233 11.6009 10.0981 11.4757C9.97294 11.3505 9.87394 11.2017 9.8069 11.0378C9.73986 10.8739 9.70612 10.6984 9.70766 10.5213C9.7092 10.3443 9.74598 10.1693 9.81586 10.0067C9.88574 9.84399 9.98731 9.69686 10.1147 9.57386L13.868 5.8192C14.7566 5.61708 15.6863 5.70026 16.525 6.05691C17.3636 6.41356 18.0684 7.02553 18.5392 7.80579C19.0101 8.58605 19.2229 9.49489 19.1475 10.4031C19.0722 11.3113 18.7124 12.1726 18.1193 12.8645L16.714 14.2879L13.414 10.9879V10.9885ZM6.10733 6.98053C6.79717 6.29078 7.69947 5.85385 8.66837 5.74037C9.63726 5.6269 10.6161 5.84351 11.4467 6.3552L9.17133 8.6312C8.67853 9.12302 8.39761 9.78806 8.38862 10.4842C8.37962 11.1804 8.64325 11.8525 9.12318 12.3569C9.60311 12.8613 10.2613 13.158 10.957 13.1836C11.6528 13.2092 12.331 12.9616 12.8467 12.4939L12.9427 12.4025L15.7713 15.2305L12.9427 18.0592C12.6926 18.3092 12.3535 18.4496 12 18.4496C11.6464 18.4496 11.3074 18.3092 11.0573 18.0592L6.10666 13.1085C5.29408 12.2959 4.83759 11.1937 4.83759 10.0445C4.83759 8.89532 5.29408 7.79318 6.10666 6.98053H6.10733Z" fill="#FF4D6D"/>
</svg>
