<svg width="16" height="16" viewBox="0 0 16 16" fill="none" xmlns="http://www.w3.org/2000/svg">
<g clip-path="url(#clip0_22968_11003)">
<path d="M12.6667 1.9974H9.88C9.6 1.22406 8.86667 0.664062 8 0.664062C7.13333 0.664062 6.4 1.22406 6.12 1.9974H3.33333C2.6 1.9974 2 2.5974 2 3.33073V12.6641C2 13.3974 2.6 13.9974 3.33333 13.9974H12.6667C13.4 13.9974 14 13.3974 14 12.6641V3.33073C14 2.5974 13.4 1.9974 12.6667 1.9974ZM8 1.9974C8.36667 1.9974 8.66667 2.2974 8.66667 2.66406C8.66667 3.03073 8.36667 3.33073 8 3.33073C7.63333 3.33073 7.33333 3.03073 7.33333 2.66406C7.33333 2.2974 7.63333 1.9974 8 1.9974ZM8 4.66406C9.10667 4.66406 10 5.5574 10 6.66406C10 7.77073 9.10667 8.66406 8 8.66406C6.89333 8.66406 6 7.77073 6 6.66406C6 5.5574 6.89333 4.66406 8 4.66406ZM12 12.6641H4V11.7307C4 10.3974 6.66667 9.66406 8 9.66406C9.33333 9.66406 12 10.3974 12 11.7307V12.6641Z" fill="#FF4D6D"/>
</g>
<defs>
<clipPath id="clip0_22968_11003">
<rect width="16" height="16" fill="white"/>
</clipPath>
</defs>
</svg>
