<svg width="16" height="16" viewBox="0 0 16 16" fill="none" xmlns="http://www.w3.org/2000/svg">
<path d="M8.5028 12.815C8.05646 12.3314 7.5148 11.9455 6.91196 11.6815C6.30911 11.4175 5.65813 11.2812 5.00003 11.2812C4.34192 11.2812 3.69094 11.4175 3.0881 11.6815C2.48525 11.9455 1.9436 12.3314 1.49725 12.815C1.42834 12.8912 1.38979 12.9901 1.38892 13.0928V14.7595C1.39038 14.869 1.43492 14.9736 1.5129 15.0505C1.59088 15.1274 1.69603 15.1706 1.80558 15.1706H8.19447C8.30498 15.1706 8.41096 15.1267 8.4891 15.0485C8.56724 14.9704 8.61114 14.8644 8.61114 14.7539V13.0872C8.60892 12.9864 8.57046 12.8898 8.5028 12.815Z" fill="#FF4D6D"/>
<path d="M4.99999 10.7248C6.07387 10.7248 6.94443 9.85427 6.94443 8.78038C6.94443 7.70649 6.07387 6.83594 4.99999 6.83594C3.9261 6.83594 3.05554 7.70649 3.05554 8.78038C3.05554 9.85427 3.9261 10.7248 4.99999 10.7248Z" fill="#FF4D6D"/>
<path d="M14.5028 12.815C14.0565 12.3314 13.5148 11.9455 12.912 11.6815C12.3091 11.4175 11.6581 11.2812 11 11.2812C10.3419 11.2812 9.69094 11.4175 9.0881 11.6815C8.48525 11.9455 7.9436 12.3314 7.49725 12.815C7.42834 12.8912 7.38979 12.9901 7.38892 13.0928V14.7595C7.39038 14.869 7.43492 14.9736 7.5129 15.0505C7.59088 15.1274 7.69603 15.1706 7.80558 15.1706H14.1945C14.305 15.1706 14.411 15.1267 14.4891 15.0485C14.5672 14.9704 14.6111 14.8644 14.6111 14.7539V13.0872C14.6089 12.9864 14.5705 12.8898 14.5028 12.815Z" fill="#FF4D6D"/>
<path d="M11 10.7248C12.0739 10.7248 12.9444 9.85427 12.9444 8.78038C12.9444 7.70649 12.0739 6.83594 11 6.83594C9.9261 6.83594 9.05554 7.70649 9.05554 8.78038C9.05554 9.85427 9.9261 10.7248 11 10.7248Z" fill="#FF4D6D"/>
<g clip-path="url(#clip0_22969_11026)">
<path d="M8 5.3375L7.6375 5.0075C6.35 3.84 5.5 3.07 5.5 2.125C5.5 1.355 6.105 0.75 6.875 0.75C7.31 0.75 7.7275 0.9525 8 1.2725C8.2725 0.9525 8.69 0.75 9.125 0.75C9.895 0.75 10.5 1.355 10.5 2.125C10.5 3.07 9.65 3.84 8.3625 5.01L8 5.3375Z" fill="#FF4D6D"/>
</g>
<defs>
<clipPath id="clip0_22969_11026">
<rect width="6" height="6" fill="white" transform="translate(5)"/>
</clipPath>
</defs>
</svg>
