<svg width="14" height="14" viewBox="0 0 14 14" fill="none" xmlns="http://www.w3.org/2000/svg">
<g clip-path="url(#clip0_22968_11008)">
<path d="M12.8333 1.75H1.16667C0.525 1.75 0 2.275 0 2.91667V11.0833C0 11.725 0.525 12.25 1.16667 12.25H12.8333C13.475 12.25 13.9942 11.725 13.9942 11.0833L14 2.91667C14 2.275 13.475 1.75 12.8333 1.75ZM4.66667 3.5C5.635 3.5 6.41667 4.28167 6.41667 5.25C6.41667 6.21833 5.635 7 4.66667 7C3.69833 7 2.91667 6.21833 2.91667 5.25C2.91667 4.28167 3.69833 3.5 4.66667 3.5ZM8.16667 10.5H1.16667V9.91667C1.16667 8.75 3.5 8.10833 4.66667 8.10833C5.83333 8.10833 8.16667 8.75 8.16667 9.91667V10.5ZM10.4125 8.16667H11.3692L12.25 9.33333L11.0892 10.4942C10.325 9.9225 9.75917 9.10583 9.49667 8.16667C9.39167 7.79333 9.33333 7.4025 9.33333 7C9.33333 6.5975 9.39167 6.20667 9.49667 5.83333C9.75917 4.88833 10.325 4.0775 11.0892 3.50583L12.25 4.66667L11.3692 5.83333H10.4125C10.2842 6.20083 10.2083 6.59167 10.2083 7C10.2083 7.40833 10.2842 7.79917 10.4125 8.16667Z" fill="#FF4D6D"/>
</g>
<defs>
<clipPath id="clip0_22968_11008">
<rect width="14" height="14" fill="white"/>
</clipPath>
</defs>
</svg>
