<svg width="19" height="16" viewBox="0 0 19 16" fill="none" xmlns="http://www.w3.org/2000/svg">
<path d="M8.5028 12.815C8.05646 12.3314 7.5148 11.9455 6.91196 11.6815C6.30911 11.4175 5.65813 11.2812 5.00003 11.2812C4.34192 11.2812 3.69094 11.4175 3.0881 11.6815C2.48525 11.9455 1.9436 12.3314 1.49725 12.815C1.42834 12.8912 1.38979 12.9901 1.38892 13.0928V14.7595C1.39038 14.869 1.43492 14.9736 1.5129 15.0505C1.59088 15.1274 1.69603 15.1706 1.80558 15.1706H8.19447C8.30498 15.1706 8.41096 15.1267 8.4891 15.0485C8.56724 14.9704 8.61114 14.8644 8.61114 14.7539V13.0872C8.60892 12.9864 8.57046 12.8898 8.5028 12.815Z" fill="#FF4D6D"/>
<path d="M4.99999 10.7248C6.07387 10.7248 6.94443 9.85427 6.94443 8.78038C6.94443 7.70649 6.07387 6.83594 4.99999 6.83594C3.9261 6.83594 3.05554 7.70649 3.05554 8.78038C3.05554 9.85427 3.9261 10.7248 4.99999 10.7248Z" fill="#FF4D6D"/>
<path d="M17.5028 12.815C17.0565 12.3314 16.5148 11.9455 15.912 11.6815C15.3091 11.4175 14.6581 11.2812 14 11.2812C13.3419 11.2812 12.6909 11.4175 12.0881 11.6815C11.4853 11.9455 10.9436 12.3314 10.4972 12.815C10.4283 12.8912 10.3898 12.9901 10.3889 13.0928V14.7595C10.3904 14.869 10.4349 14.9736 10.5129 15.0505C10.5909 15.1274 10.696 15.1706 10.8056 15.1706H17.1945C17.305 15.1706 17.411 15.1267 17.4891 15.0485C17.5672 14.9704 17.6111 14.8644 17.6111 14.7539V13.0872C17.6089 12.9864 17.5705 12.8898 17.5028 12.815Z" fill="#FF4D6D"/>
<path d="M14 10.7248C15.0739 10.7248 15.9444 9.85427 15.9444 8.78038C15.9444 7.70649 15.0739 6.83594 14 6.83594C12.9261 6.83594 12.0555 7.70649 12.0555 8.78038C12.0555 9.85427 12.9261 10.7248 14 10.7248Z" fill="#FF4D6D"/>
<g clip-path="url(#clip0_22969_11046)">
<path d="M11 0.25H7C6.45 0.25 6 0.7 6 1.25V3.75C6 4.3 6.45 4.75 7 4.75V5.5C7 5.725 7.275 5.825 7.425 5.675L8.35 4.75H11C11.55 4.75 12 4.3 12 3.75V1.25C12 0.7 11.55 0.25 11 0.25ZM9.5 3.25H8C7.85 3.25 7.75 3.15 7.75 3C7.75 2.85 7.85 2.75 8 2.75H9.5C9.65 2.75 9.75 2.85 9.75 3C9.75 3.15 9.65 3.25 9.5 3.25ZM10 2.25H8C7.85 2.25 7.75 2.15 7.75 2C7.75 1.85 7.85 1.75 8 1.75H10C10.15 1.75 10.25 1.85 10.25 2C10.25 2.15 10.15 2.25 10 2.25Z" fill="#FF4D6D"/>
</g>
<defs>
<clipPath id="clip0_22969_11046">
<rect width="6" height="6" fill="white" transform="translate(6)"/>
</clipPath>
</defs>
</svg>
