<svg width="12" height="16" viewBox="0 0 12 16" fill="none" xmlns="http://www.w3.org/2000/svg">
<path fill-rule="evenodd" clip-rule="evenodd" d="M4.57063 9.41231C5.08307 8.61975 4.98547 7.5503 4.28486 6.86448C3.48478 6.08129 2.20128 6.09499 1.41809 6.89507C0.6349 7.69515 0.648595 8.97865 1.44868 9.76184C2.14978 10.4481 3.2221 10.5225 4.00368 9.99206L6.34973 12.2886C6.50975 12.4452 6.76644 12.4425 6.92308 12.2825C7.07972 12.1224 7.07698 11.8657 6.91697 11.7091L4.57063 9.41231Z" fill="#FF4D6D"/>
<path fill-rule="evenodd" clip-rule="evenodd" d="M7.82917 4.37448C8.54168 4.99357 9.61435 5.04758 10.3921 4.45045C11.2801 3.76861 11.4472 2.49597 10.7654 1.60793C10.0836 0.719897 8.81093 0.552741 7.92289 1.23458C7.14478 1.83202 6.92013 2.88304 7.33511 3.73148L4.40837 5.97865C4.23076 6.11502 4.19733 6.36954 4.3337 6.54715C4.47007 6.72476 4.7246 6.75819 4.9022 6.62182L7.82917 4.37448Z" fill="#FF4D6D"/>
<circle cx="9.18079" cy="13.3788" r="2.02723" fill="#FF4D6D"/>
</svg>
