<svg width="61" height="61" viewBox="0 0 61 61" fill="none" xmlns="http://www.w3.org/2000/svg">
<path d="M40.2849 6.85197H40.2813C36.8618 6.82736 33.5407 7.95883 30.8031 10.0509L30.499 10.2833L30.1952 10.0504C30.0334 9.92632 29.8351 9.80964 29.6111 9.67899L29.6108 9.67879L29.5919 9.66776C29.5559 9.64676 29.519 9.62517 29.4826 9.6037L29.4766 9.60015L29.4767 9.60011C29.3605 9.52929 29.2179 9.42565 29.085 9.32915L29.0722 9.31981C29.0721 9.31977 29.0721 9.31973 29.072 9.3197C28.8434 9.15376 28.6167 8.99036 28.4231 8.88506L27.474 8.46046L27.4553 8.45207L27.4373 8.44216C26.9679 8.184 26.47 7.9921 25.924 7.81671L25.8154 7.7818L25.7326 7.70318C25.7305 7.70115 25.7254 7.69679 25.7172 7.69072H25.6983H25.6156L25.5373 7.66409C24.085 7.17015 22.5862 6.89942 21.0369 6.85197H20.7649C20.0761 6.85197 19.3911 6.8987 18.7021 6.99923L18.6662 7.00447H18.6299H18.3576C17.6393 7.10001 16.9232 7.26875 16.2283 7.50836L16.2209 7.51094L16.2209 7.51088C7.07367 10.5044 3.73857 20.4582 6.54802 29.2708C8.14973 33.7947 10.7282 37.8981 14.078 41.2716C19.0053 46.0239 24.3922 50.2199 30.1781 53.8093L40.2849 6.85197ZM40.2849 6.85197C41.8422 6.85197 43.3888 7.07165 44.8533 7.5631L44.8578 7.56455C53.9004 10.5044 57.2391 20.4562 54.4756 29.2732C52.899 33.7967 50.3232 37.9244 46.9517 41.2968C42.0706 46.0233 36.7146 50.2191 30.949 53.834L30.579 54.0575L30.1785 53.8095L40.2849 6.85197ZM46.9982 25.1497L47.0286 25.1526L47.0591 25.1518C48.3581 25.1169 49.4578 24.0801 49.5524 22.7533L49.5536 22.7356V22.7178V22.4206C49.632 18.6538 47.3489 15.2373 43.8681 13.9162L43.8608 13.9134L43.8533 13.9108C42.5431 13.4602 41.1228 14.1702 40.6528 15.4863L40.6527 15.4863L40.6493 15.4964C40.2089 16.8175 40.8982 18.2667 42.2226 18.7394C43.6483 19.2749 44.6141 20.6866 44.6141 22.2603V22.3194C44.5613 23.0205 44.7749 23.7032 45.211 24.2327C45.6628 24.7813 46.326 25.0855 46.9982 25.1497Z" fill="url(#paint0_linear_22937_10901)" stroke="white"/>
<defs>
<linearGradient id="paint0_linear_22937_10901" x1="5.08276" y1="6.35156" x2="63.7372" y2="16.2996" gradientUnits="userSpaceOnUse">
<stop stop-color="#C9184A"/>
<stop offset="1" stop-color="#EB5B84"/>
</linearGradient>
</defs>
</svg>
