<svg width="18" height="18" viewBox="0 0 18 18" fill="none" xmlns="http://www.w3.org/2000/svg">
<path d="M14.5 7C14.5 5.4087 13.8679 3.88258 12.7426 2.75736C11.6174 1.63214 10.0913 1 8.5 1C6.9087 1 5.38258 1.63214 4.25736 2.75736C3.13214 3.88258 2.5 5.4087 2.5 7" stroke="#FF4D6D" stroke-width="1.5" stroke-linecap="round" stroke-linejoin="round"/>
<path d="M1 10.3273V8.92034C1.00005 8.58585 1.1119 8.26097 1.31778 7.99734C1.52365 7.73371 1.81174 7.54645 2.13625 7.46534L3.44125 7.13834C3.50756 7.12182 3.57676 7.12063 3.64361 7.13484C3.71045 7.14906 3.77318 7.17831 3.82703 7.22038C3.88088 7.26245 3.92445 7.31624 3.95442 7.37765C3.98439 7.43907 3.99997 7.5065 4 7.57484V11.6721C4.00012 11.7406 3.9846 11.8082 3.95464 11.8698C3.92468 11.9313 3.88105 11.9853 3.8271 12.0274C3.77314 12.0696 3.71026 12.0989 3.64327 12.1131C3.57627 12.1273 3.50692 12.126 3.4405 12.1093L2.1355 11.7831C1.81113 11.7018 1.52321 11.5145 1.31748 11.2509C1.11175 10.9873 1.00001 10.6625 1 10.3281V10.3273Z" stroke="#FF4D6D" stroke-width="1.5"/>
<path d="M16 10.3273V8.92034C16 8.58585 15.8881 8.26097 15.6822 7.99734C15.4763 7.73371 15.1883 7.54645 14.8638 7.46534L13.5588 7.13834C13.4924 7.12182 13.4232 7.12063 13.3564 7.13484C13.2895 7.14906 13.2268 7.17831 13.173 7.22038C13.1191 7.26245 13.0756 7.31624 13.0456 7.37765C13.0156 7.43907 13 7.5065 13 7.57484V11.6721C12.9999 11.7405 13.0154 11.808 13.0453 11.8695C13.0753 11.931 13.1188 11.9849 13.1727 12.0271C13.2265 12.0692 13.2893 12.0985 13.3562 12.1128C13.4231 12.1271 13.4924 12.1259 13.5588 12.1093L14.8638 11.7831C15.1883 11.702 15.4763 11.5147 15.6822 11.2511C15.8881 10.9875 16 10.6626 16 10.3281V10.3273Z" stroke="#FF4D6D" stroke-width="1.5"/>
<path d="M14.5 12.25V12.625C14.5 13.0228 14.342 13.4044 14.0607 13.6857C13.7794 13.967 13.3978 14.125 13 14.125H10.375" stroke="#FF4D6D" stroke-width="1.5"/>
<path d="M9.625 15.25H7.375C7.07663 15.25 6.79048 15.1315 6.5795 14.9205C6.36853 14.7095 6.25 14.4234 6.25 14.125C6.25 13.8266 6.36853 13.5405 6.5795 13.3295C6.79048 13.1185 7.07663 13 7.375 13H9.625C9.92337 13 10.2095 13.1185 10.4205 13.3295C10.6315 13.5405 10.75 13.8266 10.75 14.125C10.75 14.4234 10.6315 14.7095 10.4205 14.9205C10.2095 15.1315 9.92337 15.25 9.625 15.25Z" stroke="#FF4D6D" stroke-width="1.5"/>
</svg>
