<svg width="24" height="24" viewBox="0 0 24 24" fill="none" xmlns="http://www.w3.org/2000/svg">
<path d="M7.49945 7.75C8.32327 7.75032 9.11824 8.15451 9.73306 8.88563C9.95188 8.70398 10.1817 8.53328 10.4225 8.37353C9.97727 7.77533 9.43474 7.32177 8.83693 7.04796C8.23912 6.77415 7.60207 6.68743 6.9751 6.79452C6.34813 6.90161 5.74805 7.19964 5.22131 7.66552C4.69456 8.13141 4.2553 8.75267 3.9375 9.4812C4.27977 9.35832 4.6308 9.28393 4.98478 9.25928C5.30016 8.78509 5.68734 8.4054 6.12079 8.14525C6.55424 7.8851 7.02412 7.75039 7.49945 7.75Z" fill="#343A3F"/>
<path d="M8.62517 5.5C8.62517 5.63261 8.66468 5.75979 8.73501 5.85355C8.80533 5.94732 8.90072 6 9.00017 6C9.09963 6 9.19501 5.94732 9.26534 5.85355C9.33566 5.75979 9.37517 5.63261 9.37517 5.5C9.37043 5.29335 9.4176 5.09052 9.50919 4.9237C9.66649 4.59859 9.75015 4.21991 9.75017 3.83302C9.75019 3.44613 9.66655 3.06744 9.50929 2.7423C9.42195 2.5728 9.37519 2.37198 9.37517 2.16633C9.37515 1.96068 9.42188 1.75985 9.50919 1.59032C9.67065 1.26791 9.7547 0.887627 9.75017 0.5C9.75017 0.367392 9.71066 0.240215 9.64034 0.146447C9.57001 0.0526785 9.47463 0 9.37517 0C9.27572 0 9.18033 0.0526785 9.11001 0.146447C9.03968 0.240215 9.00017 0.367392 9.00017 0.5C9.00489 0.706449 8.95771 0.909077 8.86615 1.07568C8.70884 1.40072 8.62517 1.77936 8.62517 2.1662C8.62517 2.55304 8.70884 2.93168 8.86615 3.25672C8.95345 3.42636 9.00017 3.62728 9.00017 3.83301C9.00017 4.03875 8.95345 4.23966 8.86615 4.4093C8.7047 4.73186 8.62066 5.11226 8.62517 5.5Z" fill="#343A3F"/>
<path d="M6.93767 5.5C6.93767 5.63261 6.97718 5.75979 7.04751 5.85355C7.11783 5.94732 7.21322 6 7.31267 6C7.41213 6 7.50751 5.94732 7.57784 5.85355C7.64816 5.75979 7.68767 5.63261 7.68767 5.5C7.68293 5.29335 7.7301 5.09052 7.82169 4.9237C7.97899 4.59859 8.06265 4.21991 8.06267 3.83302C8.06269 3.44613 7.97905 3.06744 7.82179 2.7423C7.73445 2.5728 7.68769 2.37198 7.68767 2.16633C7.68765 1.96068 7.73438 1.75985 7.82169 1.59032C7.98315 1.26791 8.0672 0.887627 8.06267 0.5C8.06267 0.367392 8.02316 0.240215 7.95284 0.146447C7.88251 0.0526785 7.78713 0 7.68767 0C7.58822 0 7.49283 0.0526785 7.42251 0.146447C7.35218 0.240215 7.31267 0.367392 7.31267 0.5C7.31739 0.706449 7.27021 0.909077 7.17865 1.07568C7.02134 1.40072 6.93767 1.77936 6.93767 2.1662C6.93767 2.55304 7.02134 2.93168 7.17865 3.25672C7.26595 3.42636 7.31267 3.62728 7.31267 3.83301C7.31267 4.03875 7.26595 4.23966 7.17865 4.4093C7.0172 4.73186 6.93316 5.11226 6.93767 5.5Z" fill="#343A3F"/>
<path d="M5.25017 5.5C5.25017 5.63261 5.28968 5.75979 5.36001 5.85355C5.43033 5.94732 5.52572 6 5.62517 6C5.72463 6 5.82001 5.94732 5.89034 5.85355C5.96066 5.75979 6.00017 5.63261 6.00017 5.5C5.99543 5.29335 6.0426 5.09052 6.13419 4.9237C6.29149 4.59859 6.37515 4.21991 6.37517 3.83302C6.37519 3.44613 6.29155 3.06744 6.13429 2.7423C6.04695 2.5728 6.00019 2.37198 6.00017 2.16633C6.00015 1.96068 6.04688 1.75985 6.13419 1.59032C6.29565 1.26791 6.3797 0.887627 6.37517 0.5C6.37517 0.367392 6.33566 0.240215 6.26534 0.146447C6.19501 0.0526785 6.09963 0 6.00017 0C5.90072 0 5.80533 0.0526785 5.73501 0.146447C5.66468 0.240215 5.62517 0.367392 5.62517 0.5C5.62989 0.706449 5.58271 0.909077 5.49115 1.07568C5.33384 1.40072 5.25017 1.77936 5.25017 2.1662C5.25017 2.55304 5.33384 2.93168 5.49115 3.25672C5.57845 3.42636 5.62517 3.62728 5.62517 3.83301C5.62517 4.03875 5.57845 4.23966 5.49115 4.4093C5.3297 4.73186 5.24566 5.11226 5.25017 5.5Z" fill="#343A3F"/>
<path d="M23.9982 16.5497C24.0033 16.4802 23.9976 16.41 23.9812 16.3437C23.9648 16.2773 23.9382 16.2163 23.903 16.1645C23.8678 16.1127 23.8249 16.0713 23.7771 16.043C23.7292 16.0147 23.6774 16 23.625 16H0.375016C0.322633 16 0.270829 16.0146 0.222943 16.0429C0.175057 16.0712 0.132152 16.1126 0.0969942 16.1644C0.0618363 16.2162 0.0352055 16.2772 0.0188185 16.3435C0.00243146 16.4099 -0.00334814 16.48 0.00185226 16.5495C0.00578975 16.6017 0.419152 21.5339 3.9269 21.9663C4.3604 22.991 5.21943 24 6.74744 24H17.2524C18.7806 24 19.6395 22.991 20.0731 21.9663C23.5807 21.5339 23.9943 16.6018 23.9982 16.5497ZM17.2524 23H6.74744C5.8007 23 5.21952 22.5342 4.86292 22H19.1449C18.7895 22.5342 18.2071 23 17.2524 23ZM19.5734 21H4.42659C3.13708 21 2.29616 20.3278 1.74849 19.5H3.37501C3.47447 19.5 3.56985 19.4473 3.64018 19.3536C3.7105 19.2598 3.75001 19.1326 3.75001 19C3.75001 18.8674 3.7105 18.7402 3.64018 18.6464C3.56985 18.5527 3.47447 18.5 3.37501 18.5H1.23598C1.05094 18.0253 0.911743 17.5213 0.821695 17H23.1782C22.9675 18.2157 22.1982 21 19.5734 21Z" fill="#343A3F"/>
<path d="M10.9574 7.93287C11.0529 7.96748 11.1546 7.95142 11.2414 7.88804C11.3281 7.82467 11.393 7.71892 11.4225 7.59304C11.597 6.79639 12.0591 5.84512 13.2695 5.83767C13.2909 5.83754 15.6224 5.29029 15.6224 5.29029L16.1437 6.29494C16.0999 6.43129 16.0411 6.61379 15.9717 6.82764C16.2177 6.79139 16.5026 6.76209 16.8133 6.75049C16.8366 6.67799 16.8578 6.61207 16.8735 6.56264L18.013 5.47682C18.013 5.47682 18.245 5.67359 18.2701 5.68777C18.768 5.96877 19.3955 5.54079 19.5895 4.89297C19.6545 4.69545 19.6878 4.48198 19.6873 4.26628C19.6867 4.05058 19.6523 3.83743 19.5863 3.64052C19.455 3.29501 19.2473 3.01159 18.9913 2.82862C19.0119 2.49548 18.9502 2.16252 18.8156 1.88052C18.6649 1.5837 18.4354 1.37405 18.1734 1.29379C17.9114 1.21354 17.6364 1.26865 17.4036 1.44802C17.2585 1.55607 17.1325 1.70444 17.0342 1.88308C16.9358 2.06172 16.8674 2.26646 16.8336 2.48342C16.8102 2.67115 16.8181 2.86348 16.8569 3.04664L15.64 4.27064L13.2332 4.83802C11.9638 4.86109 11.0425 5.76112 10.7025 7.31277C10.6887 7.3758 10.6844 7.44184 10.6897 7.50712C10.695 7.57239 10.71 7.63563 10.7336 7.69321C10.7573 7.75079 10.7893 7.8016 10.8277 7.84272C10.8661 7.88384 10.9101 7.91447 10.9574 7.93287ZM17.5474 3.60462C17.6248 3.5233 17.6757 3.40533 17.6896 3.27523C17.7035 3.14513 17.6792 3.0129 17.6219 2.90602C17.583 2.82945 17.5659 2.73681 17.5739 2.64492C17.6265 2.28212 18.0258 2.10267 18.1912 2.43434C18.2525 2.61992 18.2617 2.8287 18.2172 3.02259C18.1979 3.14312 18.2127 3.26888 18.2587 3.37574C18.3048 3.48259 18.3788 3.56302 18.4666 3.60157C18.6482 3.68461 18.8033 3.84738 18.9066 4.06324C18.9301 4.13254 18.9418 4.20799 18.9406 4.28406C18.9394 4.36013 18.9254 4.43488 18.8997 4.5028C18.874 4.57072 18.8372 4.63008 18.792 4.67652C18.7467 4.72296 18.6943 4.7553 18.6385 4.77114C18.5076 4.79017 18.4298 4.64187 18.3593 4.51699C18.3005 4.41267 18.2134 4.34317 18.1166 4.32337C18.0199 4.30356 17.9212 4.33502 17.8416 4.41102L16.6615 5.53567L16.307 4.85232L17.5474 3.60462Z" fill="#343A3F"/>
<path d="M11.4387 11.8159C10.6242 12.4276 10.0215 13.4401 9.75965 14.6366C9.73806 14.7604 9.75301 14.8905 9.80141 15H10.4479C10.4666 14.9582 10.4807 14.913 10.4897 14.8659C10.7024 13.9385 11.1759 13.1567 11.811 12.6841C11.8973 12.6183 11.9605 12.5094 11.9867 12.3815C12.0128 12.2535 11.9998 12.117 11.9504 12.0018C11.9011 11.8867 11.8194 11.8025 11.7234 11.7676C11.6275 11.7327 11.5251 11.7501 11.4387 11.8159Z" fill="#343A3F"/>
<path d="M14.6422 8.01562C9.30538 8.33913 7.63611 12.7201 7.12891 15.0012H7.91618C8.40891 13.0447 9.81735 9.78638 13.7704 9.1195C14.0046 8.6797 14.3007 8.30478 14.6422 8.01562Z" fill="#343A3F"/>
<path d="M22.2458 14.9996C22.437 13.3811 22.1664 11.7258 21.4872 10.3604C21.461 10.308 21.4328 10.2599 21.4057 10.2095C21.3605 10.1935 21.3151 10.1773 21.2713 10.1562L20.7324 10.6757C20.7773 10.7528 20.8212 10.8314 20.8628 10.9147C21.4629 12.1154 21.687 13.5815 21.4872 14.9996H22.2458Z" fill="#343A3F"/>
<path d="M5.24975 11.25C5.97984 11.2497 6.69213 11.5505 7.289 12.1111C7.42111 11.8322 7.56527 11.5592 7.72148 11.2924C7.12808 10.7371 6.43917 10.3904 5.71856 10.2846C4.99796 10.1787 4.26897 10.317 3.59913 10.6867C2.92928 11.0564 2.34025 11.6456 1.8866 12.3995C1.43294 13.1535 1.12934 14.048 1.00391 15H1.76827C1.94059 13.9391 2.37986 12.9887 3.01314 12.3066C3.64643 11.6245 4.43564 11.2516 5.24975 11.25Z" fill="#343A3F"/>
<path d="M18.8654 7.7704L16.4878 8.33728C14.5032 8.37318 13.9106 10.482 13.8753 11.598C13.8714 11.7301 13.9069 11.8589 13.974 11.9562C14.0411 12.0534 14.1343 12.1114 14.2333 12.1172C14.3324 12.1231 14.4291 12.0765 14.5024 11.9875C14.5757 11.8985 14.6196 11.7745 14.6245 11.6425C14.6335 11.4076 14.7633 9.34803 16.5246 9.33693C16.5461 9.33681 18.848 8.79041 18.848 8.79041L19.3629 9.79383C19.1436 10.4849 18.5238 12.4199 18.2315 13.1618C18.003 13.7434 17.6251 14.2514 17.4795 14.2512C17.3805 14.2471 17.2842 14.2948 17.2112 14.3841C17.1381 14.4733 17.0941 14.5971 17.0886 14.729C17.0856 14.8244 17.1033 14.9189 17.1395 15.0012H18.0318C18.3915 14.6324 18.6864 14.1631 18.8957 13.6262C19.2253 12.7901 19.9157 10.6199 20.0928 10.06L21.2145 8.97888C21.2163 8.97706 21.4394 9.17141 21.4648 9.18628C21.9594 9.47571 22.5876 9.03443 22.7782 8.39038C22.8427 8.19216 22.8755 7.97824 22.8746 7.7622C22.8737 7.54616 22.839 7.33274 22.7729 7.13551C22.6434 6.79367 22.4389 6.51252 22.1866 6.32948C22.2073 5.99449 22.1453 5.65964 22.0101 5.37598C21.8608 5.08085 21.6329 4.87246 21.3727 4.7931C21.1124 4.71374 20.8393 4.76934 20.6086 4.94863C20.465 5.05734 20.3404 5.20567 20.2431 5.38371C20.1459 5.56176 20.0783 5.76541 20.0448 5.98108C20.0212 6.16973 20.0291 6.36301 20.0679 6.54713L18.8654 7.7704ZM20.7586 7.10218C20.7978 7.06222 20.8308 7.01231 20.8556 6.95532C20.8803 6.89833 20.8964 6.83538 20.9029 6.77008C20.9093 6.70478 20.9061 6.63843 20.8932 6.57482C20.8804 6.51121 20.8583 6.45161 20.8282 6.39943C20.7934 6.32444 20.778 6.23635 20.7842 6.14858C20.8287 5.80201 21.2238 5.60548 21.3859 5.93006C21.4503 6.11624 21.4599 6.32794 21.4126 6.52308C21.3943 6.64262 21.4092 6.76696 21.4545 6.87297C21.4998 6.97898 21.5724 7.05944 21.6589 7.09938C21.8397 7.18158 21.9936 7.34481 22.0943 7.56128C22.1234 7.66346 22.1299 7.77463 22.113 7.88157C22.0961 7.98851 22.0565 8.08673 21.9989 8.16456C21.8484 8.34963 21.6671 8.20741 21.5617 8.01833C21.5028 7.91296 21.4153 7.8427 21.3179 7.82275C21.2205 7.80281 21.1211 7.83478 21.0413 7.91176L19.88 9.0309L19.5312 8.35083L20.7586 7.10218Z" fill="#343A3F"/>
</svg>
