<svg width="24" height="24" viewBox="0 0 24 24" fill="none" xmlns="http://www.w3.org/2000/svg">
<path d="M13.5 0C12.1266 0 10.9091 0.681373 10.3477 1.56104C9.85895 1.33377 9.32918 1.11628 8.625 1.11628C6.35127 1.11628 4.5 2.49395 4.5 4.18604C4.5 4.60911 4.62203 4.93347 4.88672 5.1715C4.9901 5.26447 5.11838 5.33185 5.25 5.38952V6.69766H2.625C1.17725 6.69766 0 7.57377 0 8.65114V16.4651C0 17.5425 1.17725 18.4186 2.625 18.4186H5.25V20.7383C4.37634 20.9768 3.74831 21.6009 3.75 22.3255C3.75097 22.7452 3.96957 23.141 4.30078 23.4505C4.5872 23.7182 4.9828 23.9039 5.42578 23.9563H5.4375C5.48683 23.9803 5.54303 23.9952 5.60156 24C5.60935 24.0001 5.61718 24 5.625 24H6H21.75H22.125C22.1488 23.9987 22.1723 23.9958 22.1953 23.9912C23.2328 23.834 24 23.1337 24 22.3255C24 21.6015 23.3734 20.9768 22.5 20.7383V5.58138C22.4975 5.54513 22.4856 5.50958 22.4648 5.47673C22.4666 5.4746 22.4631 5.47015 22.4648 5.46801C22.7384 5.13073 22.875 4.69603 22.875 4.18604C22.875 2.49395 21.0237 1.11628 18.75 1.11628C17.9704 1.11628 17.2909 1.29048 16.6758 1.56976C16.1685 0.632351 14.92 0 13.5 0ZM13.5 0.558138C14.7566 0.558138 15.8683 1.16504 16.1367 2.01453C16.1508 2.06041 16.1803 2.10289 16.2224 2.13802C16.2645 2.17315 16.3178 2.19978 16.3775 2.21545C16.4371 2.23111 16.5011 2.2353 16.5635 2.22762C16.6259 2.21993 16.6847 2.20063 16.7344 2.17151C17.3105 1.83175 17.94 1.67442 18.75 1.67442C20.6184 1.67442 22.125 2.79558 22.125 4.18604C22.125 4.90613 21.9055 5.26251 21.4102 5.5029C20.9148 5.74328 20.0361 5.86045 18.75 5.86045C17.2568 5.86045 17.0615 5.89183 15.5859 5.15406C15.5291 5.12529 15.4628 5.1087 15.3941 5.10609C15.3255 5.10347 15.2572 5.11494 15.1968 5.13924C15.1363 5.16354 15.086 5.19973 15.0513 5.24387C15.0166 5.28801 14.9988 5.33839 15 5.38952V8.93021C15 9.55346 14.3375 10.0465 13.5 10.0465C12.6625 10.0465 12 9.55346 12 8.93021V5.30231C12 5.2283 11.9605 5.15733 11.8902 5.10499C11.8198 5.05266 11.7245 5.02325 11.625 5.02325C10.4842 5.02325 10.0415 5.07556 8.64844 5.02325C7.56845 4.98268 6.61266 5.07975 6.03516 5.01452C5.74641 4.9819 5.57618 4.91757 5.46094 4.81394C5.3457 4.7103 5.25 4.53359 5.25 4.18604C5.25 2.79558 6.75659 1.67442 8.625 1.67442C9.2403 1.67442 9.71168 1.90873 10.3008 2.18895C10.3499 2.21237 10.4056 2.22695 10.4636 2.23153C10.5216 2.2361 10.5803 2.23055 10.6349 2.21531C10.6895 2.20007 10.7386 2.17557 10.7782 2.14374C10.8179 2.11191 10.847 2.07364 10.8633 2.03197C11.193 1.25319 12.3503 0.558138 13.5 0.558138ZM6 5.57266C6.76203 5.64486 7.64781 5.54557 8.60156 5.58138C9.85116 5.62831 10.3933 5.59079 11.25 5.58138V8.09301H6V6.97673C6.00055 6.96801 6.00055 6.95928 6 6.95057V5.57266ZM15.75 5.84301C16.807 6.29832 17.4999 6.41859 18.75 6.41859C20.0538 6.41859 21.0316 6.32879 21.75 5.99999V8.09301H15.75V5.84301ZM2.625 7.2558H5.25V17.8604H2.625C1.57978 17.8604 0.75 17.2429 0.75 16.4651V8.65114C0.75 7.87333 1.57978 7.2558 2.625 7.2558ZM6 8.65114H11.25V8.93021C11.25 9.85301 12.26 10.6046 13.5 10.6046C14.74 10.6046 15.75 9.85301 15.75 8.93021V8.65114H21.75V20.9302C21.7512 20.9945 21.7821 21.0565 21.8377 21.1057C21.8932 21.155 21.9698 21.1885 22.0547 21.2005C22.7291 21.3027 23.25 21.781 23.25 22.3255C23.25 22.8701 22.7291 23.3396 22.0547 23.4418H21.75H6H5.68359H5.625C5.40811 23.4418 5.11761 23.3175 4.88672 23.1017C4.65582 22.8859 4.50062 22.5952 4.5 22.3255C4.49872 21.7815 5.02084 21.3027 5.69531 21.2005C5.78017 21.1885 5.85683 21.155 5.91235 21.1057C5.96786 21.0565 5.99882 20.9945 6 20.9302V18.1918C6.0022 18.1744 6.0022 18.1569 6 18.1395V8.65114Z" fill="#343A3F"/>
<path fill-rule="evenodd" clip-rule="evenodd" d="M9.64645 11.6464C9.84171 11.4512 10.1583 11.4512 10.3536 11.6464L14 15.2929L17.6465 11.6464C17.8417 11.4512 18.1583 11.4512 18.3535 11.6464C18.5488 11.8417 18.5488 12.1583 18.3535 12.3536L14.7071 16L18.3535 19.6465C18.5488 19.8417 18.5488 20.1583 18.3535 20.3535C18.1583 20.5488 17.8417 20.5488 17.6465 20.3535L14 16.7071L10.3536 20.3535C10.1583 20.5488 9.84171 20.5488 9.64645 20.3535C9.45118 20.1583 9.45118 19.8417 9.64645 19.6465L13.2929 16L9.64645 12.3536C9.45118 12.1583 9.45118 11.8417 9.64645 11.6464Z" fill="#343A3F"/>
</svg>
