<svg width="24" height="24" viewBox="0 0 24 24" fill="none" xmlns="http://www.w3.org/2000/svg">
<path d="M16.4131 5.75343C16.5185 5.63635 16.5185 5.46074 16.4072 5.34952C16.2901 5.23245 16.1086 5.23245 15.9915 5.34952C15.933 5.40806 15.4412 5.9583 15.9213 7.40416C16.2784 8.48123 15.9915 8.86172 15.9915 8.86172C15.8744 8.97879 15.8744 9.16026 15.9915 9.27733C16.0501 9.33587 16.1262 9.36514 16.1965 9.36514C16.2667 9.36514 16.3487 9.33587 16.4014 9.27733C16.4599 9.2188 16.9518 8.66855 16.4716 7.2227C16.1262 6.15733 16.3955 5.77684 16.4131 5.75343Z" fill="#343A3F"/>
<path d="M18.8545 5.75343C18.9599 5.63635 18.9599 5.46074 18.8487 5.34952C18.7315 5.23245 18.55 5.23245 18.4329 5.34952C18.3744 5.40806 17.8826 5.9583 18.3627 7.40416C18.7198 8.48123 18.4329 8.86172 18.4329 8.86172C18.3158 8.97879 18.3158 9.16026 18.4329 9.27733C18.4915 9.33587 18.5676 9.36514 18.6379 9.36514C18.7081 9.36514 18.7901 9.33587 18.8428 9.27733C18.9013 9.2188 19.3932 8.66855 18.9131 7.2227C18.5676 6.15733 18.8369 5.77684 18.8545 5.75343Z" fill="#343A3F"/>
<path d="M12.0029 0C8.70066 0 5.70871 1.34049 3.53647 3.50049C3.53062 3.50634 3.52476 3.5122 3.51891 3.51805C3.51305 3.5239 3.5072 3.52976 3.50134 3.53561C1.34081 5.70732 0 8.69854 0 12C0 18.6146 5.38668 24 12.0029 24C15.3052 24 18.2971 22.6595 20.4694 20.4995C20.4752 20.4937 20.4811 20.4937 20.4869 20.4878C20.4928 20.482 20.4928 20.4761 20.4987 20.4702C22.665 18.2985 24 15.3073 24 12.0059C24.0058 5.38537 18.6192 0 12.0029 0ZM12.0029 23.4146C5.70871 23.4146 0.585509 18.2927 0.585509 12C0.585509 8.9561 1.79166 6.19902 3.73554 4.15024L10.1234 10.5366H3.80581C3.64186 10.5366 3.51305 10.6654 3.51305 10.8293V13.4634C3.51305 13.6273 3.64186 13.7561 3.80581 13.7561H13.3437L19.8546 20.2654C17.8053 22.2088 15.0476 23.4146 12.0029 23.4146ZM12.7582 13.1707H4.09856V11.122H10.709L12.7582 13.1707ZM11.5404 11.122H16.1015V13.1707H13.5897L11.5404 11.122ZM20.2703 19.8498L14.1752 13.7561H16.3942H19.029C19.193 13.7561 19.3218 13.6273 19.3218 13.4634V10.8293C19.3218 10.6654 19.193 10.5366 19.029 10.5366H16.3942H10.9549L4.15126 3.73463C6.20054 1.79122 8.95828 0.585366 12.0029 0.585366C18.2971 0.585366 23.4203 5.70732 23.4203 12C23.4203 15.0439 22.2142 17.801 20.2703 19.8498ZM16.687 13.1707V11.122H18.7363V13.1707H16.687Z" fill="#343A3F"/>
</svg>
