<svg width="25" height="24" viewBox="0 0 25 24" fill="none" xmlns="http://www.w3.org/2000/svg">
<path fill-rule="evenodd" clip-rule="evenodd" d="M12.3009 2.25C8.49494 2.25 5.28457 5.08406 4.8125 8.86064L3.82358 16.772C3.62592 18.3533 4.85891 19.75 6.45252 19.75H7.81348L7.86583 19.8678C8.6448 21.6205 10.3829 22.75 12.3009 22.75C14.2189 22.75 15.957 21.6205 16.736 19.8678L16.7883 19.75H18.1493C19.7429 19.75 20.9759 18.3533 20.7783 16.772L19.7894 8.86064C19.3173 5.08406 16.1069 2.25 12.3009 2.25ZM16.318 18.25C16.3069 18.2498 16.2957 18.2498 16.2846 18.25H8.31718C8.30606 18.2498 8.29493 18.2498 8.28377 18.25H6.45252C5.76116 18.25 5.22625 17.6441 5.312 16.958L6.30092 9.04669C6.67916 6.02075 9.25143 3.75 12.3009 3.75C15.3504 3.75 17.9227 6.02075 18.3009 9.04669L19.2899 16.958C19.3756 17.6441 18.8407 18.25 18.1493 18.25H16.318ZM9.50609 19.75H15.0957C14.4815 20.6765 13.4369 21.25 12.3009 21.25C11.1649 21.25 10.1203 20.6765 9.50609 19.75Z" fill="#343A3F"/>
</svg>
