<svg width="24" height="24" viewBox="0 0 24 24" fill="none" xmlns="http://www.w3.org/2000/svg">
<path d="M4.93964 16.6686C2.3981 15.7886 1.96489 13.7886 2.68691 12.0019C3.09125 11.0153 10.2538 13.7353 9.93607 14.5086C9.21404 16.2686 7.48118 17.5486 4.93964 16.6686Z" fill="#343A3F"/>
<path d="M11.668 8.90473L11.6102 8.79806L5.45853 6.69141L5.343 6.71807C3.72566 7.1714 1.09748 10.4514 0.981957 13.4914C0.953076 14.9314 1.47294 16.8247 4.10112 17.8647L2.19496 22.558L0.231049 21.8647L0 22.4513L4.41881 23.998L4.64986 23.4113L2.83035 22.7713L4.7365 18.078C5.343 18.2647 5.94951 18.3447 6.49825 18.3447C8.31776 18.3447 9.81957 17.4114 10.8593 15.6514C12.3033 13.278 12.4766 10.0781 11.668 8.90473ZM10.2528 15.358C9.61741 16.4247 8.43328 17.7314 6.46937 17.7314C5.89174 17.7314 5.25636 17.6247 4.62098 17.3847C2.5993 16.6914 1.61734 15.3847 1.6751 13.518C1.76175 10.7714 4.15888 7.83807 5.42965 7.35807L11.1481 9.3314C11.6968 10.3181 11.5813 13.1714 10.2528 15.358Z" fill="#343A3F"/>
<path d="M9.57037 5.60385L6.56836 2.83203L6.07824 3.28457L9.08024 6.05639L9.57037 5.60385Z" fill="#343A3F"/>
<path d="M12.3318 0H11.6387V3.91998H12.3318V0Z" fill="#343A3F"/>
<path d="M18.039 3.22989L17.5488 2.77734L14.5264 5.56802L15.0165 6.02056L18.039 3.22989Z" fill="#343A3F"/>
<path d="M19.034 16.6686C21.5756 15.7886 22.0088 13.7886 21.2868 12.0019C20.8824 11.0153 13.7199 13.7353 14.0376 14.5086C14.7596 16.2686 16.4925 17.5486 19.034 16.6686Z" fill="#343A3F"/>
<path d="M23.74 21.8654L21.7761 22.532L19.8699 17.8654C22.4981 16.8254 23.0179 14.932 22.9602 13.5187C22.8735 10.4787 20.2165 7.19875 18.5991 6.74542L18.4836 6.71875L12.3608 8.79874L12.3031 8.87874C11.4944 10.0521 11.6966 13.2787 13.1117 15.652C14.1515 17.412 15.6821 18.3454 17.4728 18.3454C18.0215 18.3454 18.628 18.2387 19.2345 18.0787L21.1407 22.772L19.3212 23.412L19.5522 23.9987L23.9999 22.4787L23.74 21.8654ZM17.4728 17.732C15.5377 17.732 14.3536 16.452 13.6894 15.3587C12.3897 13.1721 12.2742 10.3187 12.8229 9.33207L18.5125 7.38541C19.7833 7.86541 22.1804 10.7987 22.267 13.5454C22.3248 15.412 21.3428 16.692 19.3212 17.412C18.6858 17.5987 18.0504 17.732 17.4728 17.732Z" fill="#343A3F"/>
</svg>
