<svg width="24" height="17" viewBox="0 0 24 17" fill="none" xmlns="http://www.w3.org/2000/svg">
<g clip-path="url(#clip0_26928_15504)">
<path d="M19.8809 16.1706C19.6973 16.385 19.7188 16.701 19.9375 16.881C20.1563 17.061 20.4785 17.0399 20.6621 16.8255C22.8828 14.2825 24.0274 11.4026 24 8.48822C23.9707 5.64276 22.8399 2.78199 20.5137 0.17205C20.3301 -0.034753 20.0078 -0.0558163 19.7891 0.124179C19.5781 0.304175 19.5567 0.620124 19.7402 0.834587C21.8984 3.25112 22.9531 5.88978 22.9727 8.49397C22.9942 11.1671 21.9395 13.8134 19.8809 16.1706ZM17.1973 13.7234C17.0078 13.9302 17.0293 14.2462 17.2402 14.4338C17.4512 14.6196 17.7734 14.5985 17.9649 14.3917C19.6719 12.4979 20.5508 10.4912 20.5156 8.4595C20.4805 6.48147 19.5879 4.49769 17.7676 2.6039C17.5703 2.40476 17.2481 2.38944 17.043 2.58284C16.8379 2.77624 16.8242 3.09219 17.0215 3.29325C18.6582 5.00129 19.4668 6.75146 19.4961 8.47482C19.5234 10.2518 18.7363 12.0307 17.2051 13.7311L17.1973 13.7234ZM14.8223 11.395C14.6465 11.6094 14.6738 11.9254 14.9004 12.0977C15.1192 12.27 15.4414 12.2432 15.6172 12.0211C16.5371 10.9124 17.0156 9.70607 17.0234 8.48057C17.0313 7.28953 16.5742 6.08892 15.6387 4.96682C15.4629 4.75236 15.1406 4.71789 14.9219 4.89023C14.7031 5.06257 14.668 5.37852 14.8438 5.59298C15.6231 6.52934 16.0039 7.51548 16.0039 8.47291C16.0039 9.45905 15.5957 10.4509 14.8301 11.3796L14.8223 11.395ZM3.3379 16.8235C3.52149 17.038 3.84376 17.0572 4.06251 16.8791C4.28126 16.6991 4.30079 16.3831 4.11915 16.1687C2.06056 13.8115 0.998056 11.1594 1.02735 8.49397C1.04884 5.88978 2.10353 3.25112 4.25978 0.832672C4.44337 0.625869 4.42188 0.309919 4.21095 0.122264C4.00001 -0.0577311 3.67774 -0.0366678 3.48634 0.170136C1.16017 2.78199 0.0293083 5.64085 1.14441e-05 8.48631C-0.0273342 11.4026 1.1172 14.2825 3.3379 16.8235ZM6.02931 14.386C6.21876 14.5928 6.54298 14.6138 6.75392 14.4281C6.96485 14.2423 6.98634 13.9245 6.79688 13.7177C5.25782 12.0154 4.47853 10.2384 4.50587 8.46142C4.53321 6.7304 5.34181 4.98023 6.97853 3.27985C7.17579 3.0807 7.16212 2.76284 6.95704 2.56944C6.75392 2.37604 6.4297 2.38944 6.23243 2.5905C4.41212 4.48428 3.51954 6.46232 3.48438 8.4461C3.44923 10.4777 4.32032 12.4826 6.03517 14.3783L6.02931 14.386ZM8.37696 12.023C8.55274 12.2375 8.87501 12.272 9.09376 12.0996C9.31251 11.9273 9.34767 11.6113 9.17189 11.3969C8.39845 10.4663 7.99806 9.47437 7.99806 8.49014C7.99806 7.52506 8.3711 6.54657 9.15821 5.61021C9.33399 5.39575 9.30665 5.0798 9.08009 4.90746C8.86134 4.73513 8.53907 4.76194 8.36329 4.98406C7.42774 6.10807 6.97267 7.30677 6.97853 8.4978C6.98634 9.7233 7.4629 10.9239 8.38478 12.0383L8.37696 12.023ZM12.0098 10.3552C12.1758 10.3552 12.3438 10.3418 12.5098 10.3131C12.7715 10.2403 13.0156 10.1178 13.2227 9.95117C13.2695 9.91287 13.3164 9.87266 13.3594 9.83053C13.7109 9.48586 13.9219 9.01672 13.9219 8.49397C13.9219 7.97122 13.7031 7.50208 13.3594 7.15741C13.0078 6.81274 12.5293 6.60593 11.9961 6.60593C11.4629 6.60593 10.9844 6.82039 10.6328 7.15741C10.2813 7.50208 10.0703 7.97122 10.0703 8.49397C10.0703 8.78311 10.1367 9.05693 10.2559 9.30203C10.5938 10.001 11.2227 10.3571 12.0098 10.3552Z" fill="#343A3F"/>
</g>
<defs>
<clipPath id="clip0_26928_15504">
<rect width="24" height="17" fill="white" transform="matrix(-1 0 0 1 24 0)"/>
</clipPath>
</defs>
</svg>
