<svg width="24" height="24" viewBox="0 0 24 24" fill="none" xmlns="http://www.w3.org/2000/svg">
<path d="M16.334 2.75H7.665C4.644 2.75 2.75 4.889 2.75 7.916V16.084C2.75 19.111 4.635 21.25 7.665 21.25H16.333C19.364 21.25 21.25 19.111 21.25 16.084V7.916C21.25 4.889 19.364 2.75 16.334 2.75Z" stroke="#343A3F" stroke-width="1.5" stroke-linecap="round" stroke-linejoin="round"/>
<path d="M10.6932 12.0004C10.6932 13.0224 9.86423 13.8524 8.84123 13.8524C7.81923 13.8524 6.99023 13.0224 6.99023 12.0004C6.99023 10.9784 7.81923 10.1484 8.84123 10.1484C9.86423 10.1484 10.6932 10.9784 10.6932 12.0004Z" stroke="#343A3F" stroke-width="1.5" stroke-linecap="round" stroke-linejoin="round"/>
<path d="M14.1807 13.852V12M10.6914 12.0005H17.0094V13.8525L10.6914 12.0005Z" stroke="#343A3F" stroke-width="1.5" stroke-linecap="round" stroke-linejoin="round"/>
</svg>
