<svg width="32" height="32" viewBox="0 0 32 32" fill="none" xmlns="http://www.w3.org/2000/svg">
<path d="M17 7.99985L24 14.9999M12 26.9999H6C5.73478 26.9999 5.48043 26.8945 5.29289 26.707C5.10536 26.5195 5 26.2651 5 25.9999V20.4141C5 20.2828 5.02587 20.1528 5.07612 20.0314C5.12638 19.9101 5.20004 19.7999 5.29289 19.707L20.2929 4.70696C20.4804 4.51942 20.7348 4.41406 21 4.41406C21.2652 4.41406 21.5196 4.51942 21.7071 4.70696L27.2929 10.2928C27.4804 10.4803 27.5858 10.7347 27.5858 10.9999C27.5858 11.2651 27.4804 11.5195 27.2929 11.707L12 26.9999Z" stroke="#878D96" stroke-width="2" stroke-linecap="round" stroke-linejoin="round"/>
</svg>
