<svg width="24" height="25" viewBox="0 0 24 25" fill="none" xmlns="http://www.w3.org/2000/svg">
<g clip-path="url(#clip0_23055_11628)">
<path d="M3.375 3.75C3.58211 3.75 3.75 3.58211 3.75 3.375C3.75 3.16789 3.58211 3 3.375 3C3.16789 3 3 3.16789 3 3.375C3 3.58211 3.16789 3.75 3.375 3.75Z" fill="#343A3F"/>
<path d="M4.875 3.75C5.08211 3.75 5.25 3.58211 5.25 3.375C5.25 3.16789 5.08211 3 4.875 3C4.66789 3 4.5 3.16789 4.5 3.375C4.5 3.58211 4.66789 3.75 4.875 3.75Z" fill="#343A3F"/>
<path d="M6.375 3.75C6.58211 3.75 6.75 3.58211 6.75 3.375C6.75 3.16789 6.58211 3 6.375 3C6.16789 3 6 3.16789 6 3.375C6 3.58211 6.16789 3.75 6.375 3.75Z" fill="#343A3F"/>
<path d="M7.875 3.75009H12.9698L12.1099 4.60997C11.9632 4.75659 11.9632 4.99359 12.1099 5.14022C12.183 5.21334 12.279 5.25009 12.375 5.25009C12.471 5.25009 12.567 5.21334 12.6401 5.14022L14.1401 3.64022C14.2868 3.49359 14.2868 3.25659 14.1401 3.10997L12.6401 1.60997C12.4935 1.46334 12.2565 1.46334 12.1099 1.60997C11.9632 1.75659 11.9632 1.99359 12.1099 2.14022L12.9698 3.00009H7.875C7.668 3.00009 7.5 3.16772 7.5 3.37509C7.5 3.58247 7.668 3.75009 7.875 3.75009Z" fill="#343A3F"/>
<path d="M22.25 23.375C22.25 23.1679 22.0821 23 21.875 23C21.6679 23 21.5 23.1679 21.5 23.375C21.5 23.5821 21.6679 23.75 21.875 23.75C22.0821 23.75 22.25 23.5821 22.25 23.375Z" fill="#343A3F"/>
<path d="M22.25 21.875C22.25 21.6679 22.0821 21.5 21.875 21.5C21.6679 21.5 21.5 21.6679 21.5 21.875C21.5 22.0821 21.6679 22.25 21.875 22.25C22.0821 22.25 22.25 22.0821 22.25 21.875Z" fill="#343A3F"/>
<path d="M22.25 20.375C22.25 20.1679 22.0821 20 21.875 20C21.6679 20 21.5 20.1679 21.5 20.375C21.5 20.5821 21.6679 20.75 21.875 20.75C22.0821 20.75 22.25 20.5821 22.25 20.375Z" fill="#343A3F"/>
<path d="M22.2501 18.875V13.7802L23.11 14.6401C23.2566 14.7868 23.4936 14.7868 23.6402 14.6401C23.7133 14.567 23.7501 14.471 23.7501 14.375C23.7501 14.279 23.7133 14.183 23.6402 14.1099L22.1402 12.6099C21.9936 12.4632 21.7566 12.4632 21.61 12.6099L20.11 14.1099C19.9633 14.2565 19.9633 14.4935 20.11 14.6401C20.2566 14.7868 20.4936 14.7868 20.6402 14.6401L21.5001 13.7802V18.875C21.5001 19.082 21.6677 19.25 21.8751 19.25C22.0825 19.25 22.2501 19.082 22.2501 18.875Z" fill="#343A3F"/>
<path d="M13.0073 13.0461C12.3471 13.0461 11.7017 12.8541 11.1527 12.4945C10.6038 12.1348 10.1759 11.6236 9.92329 11.0256C9.67064 10.4275 9.60453 9.76941 9.73333 9.1345C9.86213 8.49959 10.1801 7.91639 10.6469 7.45865C11.1137 7.00091 11.7085 6.68918 12.356 6.56289C13.0036 6.4366 13.6747 6.50142 14.2847 6.74915C14.8946 6.99688 15.416 7.41639 15.7828 7.95464C16.1496 8.49289 16.3453 9.12569 16.3453 9.77304C16.3453 10.6411 15.9936 11.4736 15.3676 12.0874C14.7416 12.7012 13.8926 13.0461 13.0073 13.0461ZM13.0073 7.31826C12.5121 7.31826 12.0281 7.46223 11.6164 7.73197C11.2047 8.0017 10.8838 8.38508 10.6943 8.83364C10.5048 9.28219 10.4552 9.77576 10.5518 10.2519C10.6484 10.7281 10.8869 11.1655 11.237 11.5088C11.5871 11.8521 12.0332 12.0859 12.5188 12.1807C13.0045 12.2754 13.5079 12.2268 13.9653 12.041C14.4228 11.8552 14.8138 11.5405 15.0889 11.1368C15.364 10.7332 15.5108 10.2585 15.5108 9.77304C15.5108 9.12199 15.247 8.49761 14.7775 8.03725C14.308 7.57689 13.6712 7.31826 13.0073 7.31826Z" fill="#343A3F"/>
<path d="M15.9279 18.7772H10.0863C9.53297 18.7772 9.00232 18.5616 8.61106 18.178C8.21981 17.7944 8 17.274 8 16.7315V15.095C8.00001 15.024 8.01887 14.9542 8.05472 14.8925C8.09057 14.8308 8.14217 14.7793 8.20446 14.7431L10.2907 13.5157C10.3849 13.474 10.4914 13.468 10.5898 13.4989C10.6882 13.5298 10.7714 13.5954 10.8233 13.6829C10.8752 13.7705 10.8922 13.8738 10.8709 13.9729C10.8496 14.072 10.7915 14.1599 10.708 14.2195L8.83452 15.3282V16.7315C8.83452 17.057 8.9664 17.3692 9.20115 17.5994C9.43591 17.8296 9.7543 17.9589 10.0863 17.9589H15.9279C16.2599 17.9589 16.5783 17.8296 16.8131 17.5994C17.0478 17.3692 17.1797 17.057 17.1797 16.7315V15.3282L15.2979 14.2195C15.2447 14.1959 15.1971 14.1616 15.1582 14.1189C15.1194 14.0762 15.0901 14.0259 15.0723 13.9714C15.0545 13.9169 15.0486 13.8593 15.0549 13.8024C15.0612 13.7455 15.0796 13.6905 15.109 13.641C15.1383 13.5915 15.1779 13.5486 15.2252 13.5151C15.2726 13.4815 15.3265 13.4581 15.3837 13.4463C15.4408 13.4345 15.4998 13.4346 15.5569 13.4465C15.614 13.4585 15.6679 13.4821 15.7151 13.5157L17.8014 14.7431C17.8652 14.7783 17.9185 14.8294 17.9559 14.8911C17.9932 14.9529 18.0133 15.0232 18.0142 15.095V16.7315C18.0142 17.274 17.7944 17.7944 17.4031 18.178C17.0119 18.5616 16.4812 18.7772 15.9279 18.7772Z" fill="#343A3F"/>
</g>
<defs>
<clipPath id="clip0_23055_11628">
<rect width="24" height="24" fill="white" transform="translate(0 0.5)"/>
</clipPath>
</defs>
</svg>
