<svg width="25" height="25" viewBox="0 0 25 25" fill="none" xmlns="http://www.w3.org/2000/svg">
<g clip-path="url(#clip0_26918_15341)">
<path d="M22.5186 7.50378L22.5093 7.50343H22.5074L22.775 6.68962L23.5022 4.4779L23.517 4.48282L23.5322 4.48683L23.5287 4.49601L23.5256 4.50532L22.528 7.4981C22.5273 7.49969 22.5261 7.50106 22.5246 7.50206C22.5229 7.50326 22.5208 7.50386 22.5186 7.50378ZM23.0228 15.6742L23.0221 15.6763C22.9747 15.8304 22.924 15.9831 22.8701 16.1344C22.9229 15.9835 22.9725 15.8312 23.0187 15.6777L23.02 15.6734L23.0228 15.6742ZM12.5003 23.5034C12.4996 23.5034 12.4989 23.5034 12.4982 23.5034C12.4977 23.5034 12.4972 23.5034 12.4967 23.5034L12.5003 23.5034Z" fill="#231F20" stroke="#343A3F"/>
<g filter="url(#filter0_d_26918_15341)">
<path d="M12 6.5V13.6L7.15995 18.13C7.0677 18.2251 7.01611 18.3525 7.01611 18.485C7.01611 18.6175 7.0677 18.7449 7.15995 18.84C7.24817 18.9355 7.37013 18.9929 7.49995 19C7.62596 19.003 7.74808 18.9563 7.83995 18.87L12.84 14.18C12.8906 14.1347 12.931 14.0792 12.9586 14.0172C12.9862 13.9551 13.0003 13.8879 13 13.82V6.5C13 6.36739 12.9473 6.24021 12.8535 6.14645C12.7597 6.05268 12.6326 6 12.5 6C12.3673 6 12.2402 6.05268 12.1464 6.14645C12.0526 6.24021 12 6.36739 12 6.5Z" fill="#231F20"/>
<path d="M12.1708 13.7825L12.25 13.7084V13.6V6.5C12.25 6.4337 12.2763 6.37011 12.3232 6.32322C12.3701 6.27634 12.4336 6.25 12.5 6.25C12.5663 6.25 12.6298 6.27634 12.6767 6.32322C12.7236 6.37011 12.75 6.4337 12.75 6.5L12.7499 13.82L12.75 13.8212C12.7501 13.8537 12.7433 13.8859 12.7301 13.9156C12.7169 13.9454 12.6975 13.972 12.6733 13.9937L12.6732 13.9936L12.6689 13.9977L7.66892 18.6877L7.66879 18.6878C7.6257 18.7283 7.56872 18.7505 7.5097 18.7501C7.44625 18.7457 7.38682 18.7172 7.3436 18.6704L7.34365 18.6703L7.33944 18.666C7.29241 18.6175 7.26611 18.5526 7.26611 18.485C7.26611 18.4191 7.29112 18.3558 7.33596 18.3077L12.1708 13.7825Z" stroke="#343A3F" stroke-width="0.5"/>
</g>
</g>
<defs>
<filter id="filter0_d_26918_15341" x="3.01611" y="6" width="13.9839" height="21" filterUnits="userSpaceOnUse" color-interpolation-filters="sRGB">
<feFlood flood-opacity="0" result="BackgroundImageFix"/>
<feColorMatrix in="SourceAlpha" type="matrix" values="0 0 0 0 0 0 0 0 0 0 0 0 0 0 0 0 0 0 127 0" result="hardAlpha"/>
<feOffset dy="4"/>
<feGaussianBlur stdDeviation="2"/>
<feComposite in2="hardAlpha" operator="out"/>
<feColorMatrix type="matrix" values="0 0 0 0 0 0 0 0 0 0 0 0 0 0 0 0 0 0 0.25 0"/>
<feBlend mode="normal" in2="BackgroundImageFix" result="effect1_dropShadow_26918_15341"/>
<feBlend mode="normal" in="SourceGraphic" in2="effect1_dropShadow_26918_15341" result="shape"/>
</filter>
<clipPath id="clip0_26918_15341">
<rect width="25" height="25" fill="white"/>
</clipPath>
</defs>
</svg>
