<svg width="23" height="23" viewBox="0 0 23 23" fill="none" xmlns="http://www.w3.org/2000/svg">
<g id="c8cf956a5340fdfc3d4d4166f4f78cb0 1" clip-path="url(#clip0_26921_15419)">
<g id="Group">
<path id="Vector" d="M22.5722 14.8861C22.6205 14.157 22.4227 13.6418 22.2318 13.3221C22.4756 13.007 22.7493 12.4826 22.77 11.7305C22.8114 9.61452 20.8311 8.90382 19.7409 8.82332H16.4128L16.3645 8.82102C16.2357 8.52432 16.4473 8.19312 16.4404 8.19312C16.4404 8.19312 16.4404 8.19312 16.4404 8.19542C16.4887 8.14022 17.5421 6.82002 18.2505 4.66262C19.0394 2.26602 17.02 0.573218 16.9303 0.499618L16.8153 0.428318C16.7394 0.396118 16.0333 0.117818 15.3663 0.520318C14.8557 0.826218 14.5498 1.41962 14.4486 2.28212C14.2232 4.29002 12.5695 5.97362 11.8013 6.58772C11.7001 6.67512 11.6104 6.74412 11.5506 6.79702C10.9917 7.29152 10.4351 8.59102 10.0119 9.47422C9.73358 10.0653 8.95618 11.0129 8.56288 11.3648C8.29148 11.3694 7.75328 11.3809 7.39218 11.3809C7.26338 10.9393 6.86088 10.4218 6.38478 10.4218H1.30178C0.70608 10.4218 0.22998 10.9094 0.22998 11.5097V21.5952C0.22998 22.1932 0.70608 22.6808 1.29948 22.6808H6.38248C6.89998 22.6808 7.33468 22.3013 7.42438 21.7999C7.60838 21.793 7.77858 21.6159 7.87288 21.632C8.00168 21.7792 8.30068 22.3519 9.02978 22.6532L9.11718 22.69H9.21148C9.26668 22.69 12.627 22.7015 15.6768 22.7015C17.2155 22.7015 18.5495 22.6969 19.0992 22.69C20.079 22.6785 20.5965 22.2346 20.8541 21.8666C21.344 21.1513 21.3578 20.3417 21.2681 19.8564C21.9075 19.2492 21.9834 18.1567 22.0041 17.7036C22.0179 17.2988 21.9213 17.009 21.7925 16.7169C22.1559 16.3765 22.5239 15.721 22.5722 14.8861ZM6.48368 21.5952C6.48368 21.6504 6.43538 21.6987 6.38248 21.6987H1.29948C1.23738 21.6987 1.19138 21.6504 1.19138 21.5952V11.5097C1.19138 11.4499 1.23968 11.4039 1.29948 11.4039H6.38248C6.43768 11.4039 6.48368 11.4499 6.48368 11.5097V21.5952ZM21.3187 12.8874L20.8426 13.2439L21.2773 13.6533C21.2911 13.6694 21.6591 14.0236 21.6108 14.8217C21.5556 15.7325 20.9507 16.1235 20.9438 16.1258L20.2515 16.4248L20.8104 16.9308C20.8587 16.986 21.0887 17.2666 21.0427 17.7381C21.0013 18.1406 20.8587 18.9571 20.4447 19.2837L19.8996 19.4953L20.2814 19.8288C20.3757 20.1278 20.3964 20.8339 20.0698 21.2962C19.8858 21.5653 19.5661 21.6987 19.09 21.7056C17.5651 21.7263 10.2626 21.7079 9.31038 21.7056C9.01138 21.5745 8.70548 21.4158 8.60198 21.333C8.51918 21.1789 8.28918 20.6108 7.42438 20.6384V12.363C7.93498 12.3584 8.75148 12.3423 8.75148 12.3423L8.91478 12.34L9.04358 12.2319C9.09878 12.1859 10.4052 10.8956 10.8744 9.90432C11.3298 8.95442 11.7921 7.88032 12.1739 7.54222C12.2291 7.49852 12.3027 7.43872 12.3993 7.36282C13.1813 6.73262 15.1271 4.80982 15.4077 2.39712C15.4698 1.86582 15.6193 1.51162 15.8493 1.36902C16.0471 1.24712 16.284 1.29082 16.3944 1.32072C16.6727 1.58292 17.8572 2.79272 17.3397 4.34522C16.6934 6.32322 15.7136 7.55602 15.6791 7.59512C15.433 7.94472 15.1478 8.72672 15.6032 9.43282C15.8148 9.75252 16.1759 9.83532 16.4473 9.80772L19.6995 9.80542C19.7869 9.81232 21.8431 9.99862 21.8086 11.7098C21.7902 12.5125 21.3325 12.8736 21.3187 12.8874Z" fill="#343A3F"/>
</g>
</g>
<defs>
<clipPath id="clip0_26921_15419">
<rect width="23" height="23" fill="white"/>
</clipPath>
</defs>
</svg>
