<svg width="24" height="24" viewBox="0 0 24 24" fill="none" xmlns="http://www.w3.org/2000/svg">
<path d="M17.4876 5.97695C16.9516 4.72514 15.996 3.69554 14.8041 3.05728V0.363281H12.3534H11.6482H9.19755V3.05728C8.0057 3.69554 7.0501 4.72514 6.51414 5.97695H3.23828V7.96921V8.67445V10.6668H6.5141C7.0501 11.9186 8.0057 12.9482 9.19752 13.5864V23.636H14.8041V13.5864C15.996 12.9482 16.9516 11.9186 17.4875 10.6668H20.7633V8.67445V7.96921V5.97695H17.4876ZM16.7118 5.97695H14.8041V3.87183C15.6187 4.38314 16.2781 5.11306 16.7118 5.97695ZM14.0989 1.06852C14.0989 1.1227 14.0989 6.30826 14.0989 6.16034L12.3534 7.5807V1.06852H14.0989ZM9.90275 1.06852H11.6482V7.59899L9.90275 6.24143C9.90275 3.89274 9.90275 2.67303 9.90275 1.06852ZM9.19752 3.87186V5.97699H7.28984C7.72355 5.11306 8.38297 4.38314 9.19752 3.87186ZM3.94352 6.68219C3.99959 6.68219 9.40003 6.68219 9.32094 6.68219L10.9718 7.96921H3.94352V6.68219ZM3.94352 9.96154V8.67445H11.0085L9.42672 9.96154C8.28014 9.96154 5.96323 9.96154 3.94352 9.96154ZM7.29337 10.6668H9.19752V12.7719C8.3865 12.2571 7.72355 11.5307 7.29337 10.6668ZM9.90275 10.4834L11.6482 9.06303V22.9308H9.90275C9.90275 18.3277 9.90275 15.1507 9.90275 10.4834ZM14.0989 22.9308H12.3534V9.0447L14.0989 10.4023C14.0989 13.0619 14.0989 18.4061 14.0989 22.9308ZM14.8041 12.7719V10.6668H16.7083C16.2781 11.5307 15.6152 12.2571 14.8041 12.7719ZM20.0581 9.96154C18.1928 9.96154 16.6425 9.96154 14.6807 9.96154L13.0299 8.67445H20.0581V9.96154ZM12.9932 7.96921L14.5749 6.68219C14.6482 6.68219 20.2526 6.68219 20.0581 6.68219V7.96921H12.9932Z" fill="#343A3F"/>
</svg>
