<svg width="16" height="16" viewBox="0 0 16 16" fill="none" xmlns="http://www.w3.org/2000/svg">
<g clip-path="url(#clip0_22968_11003)">
<path d="M12.6667 2.0013H9.88C9.6 1.22797 8.86667 0.667969 8 0.667969C7.13333 0.667969 6.4 1.22797 6.12 2.0013H3.33333C2.6 2.0013 2 2.6013 2 3.33464V12.668C2 13.4013 2.6 14.0013 3.33333 14.0013H12.6667C13.4 14.0013 14 13.4013 14 12.668V3.33464C14 2.6013 13.4 2.0013 12.6667 2.0013ZM8 2.0013C8.36667 2.0013 8.66667 2.3013 8.66667 2.66797C8.66667 3.03464 8.36667 3.33464 8 3.33464C7.63333 3.33464 7.33333 3.03464 7.33333 2.66797C7.33333 2.3013 7.63333 2.0013 8 2.0013ZM8 4.66797C9.10667 4.66797 10 5.5613 10 6.66797C10 7.77463 9.10667 8.66797 8 8.66797C6.89333 8.66797 6 7.77463 6 6.66797C6 5.5613 6.89333 4.66797 8 4.66797ZM12 12.668H4V11.7346C4 10.4013 6.66667 9.66797 8 9.66797C9.33333 9.66797 12 10.4013 12 11.7346V12.668Z" fill="#FF4D6D"/>
</g>
<defs>
<clipPath id="clip0_22968_11003">
<rect width="16" height="16" fill="white"/>
</clipPath>
</defs>
</svg>
