<svg width="24" height="24" viewBox="0 0 24 24" fill="none" xmlns="http://www.w3.org/2000/svg">
<g clip-path="url(#clip0_23217_12126)">
<path d="M3 6.75H5.16562C6.11941 6.75117 7.05918 6.9797 7.90699 7.41665C8.75481 7.8536 9.48624 8.48638 10.0406 9.2625L13.9594 14.7375C14.5138 15.5136 15.2452 16.1464 16.093 16.5833C16.9408 17.0203 17.8806 17.2488 18.8344 17.25H21.75" stroke="#343A3F" stroke-linecap="round" stroke-linejoin="round"/>
<path d="M19.5 4.5L21.75 6.75L19.5 9" stroke="#343A3F" stroke-linecap="round" stroke-linejoin="round"/>
<path d="M19.5 15L21.75 17.25L19.5 19.5" stroke="#343A3F" stroke-linecap="round" stroke-linejoin="round"/>
<path d="M13.8468 9.42188L13.9593 9.2625C14.5137 8.48638 15.2451 7.8536 16.0929 7.41665C16.9407 6.9797 17.8805 6.75117 18.8343 6.75H21.7499" stroke="#343A3F" stroke-linecap="round" stroke-linejoin="round"/>
<path d="M3 17.25H5.16562C6.11941 17.2488 7.05918 17.0203 7.90699 16.5833C8.75481 16.1464 9.48624 15.5136 10.0406 14.7375L10.1531 14.5781" stroke="#343A3F" stroke-linecap="round" stroke-linejoin="round"/>
</g>
<defs>
<clipPath id="clip0_23217_12126">
<rect width="24" height="24" fill="white"/>
</clipPath>
</defs>
</svg>
