<svg width="24" height="24" viewBox="0 0 24 24" fill="none" xmlns="http://www.w3.org/2000/svg">
<path d="M20.866 19.5234H7.35642H1.19392C0.524615 19.5234 0 20.5067 0 21.7613C0 23.0159 0.524615 23.9992 1.19392 23.9992H7.35593H20.8655C21.5348 23.9992 22.0594 23.0159 22.0594 21.7613C22.0594 20.5067 21.5353 19.5234 20.866 19.5234ZM7.35642 23.3294C6.976 23.3294 6.65464 22.6113 6.65464 21.7613C6.65464 20.9113 6.976 20.1933 7.35642 20.1933H20.0082C19.799 20.5945 19.6711 21.1444 19.6711 21.7613C19.6711 22.3782 19.799 22.9282 20.0082 23.3294H7.35642ZM0.492134 21.7613C0.492134 20.9113 0.813497 20.1933 1.19392 20.1933H6.49863C6.28997 20.5945 6.16201 21.1444 6.16201 21.7613C6.16201 22.3782 6.28997 22.9282 6.49863 23.3294H1.19392C0.81399 23.3294 0.492134 22.6113 0.492134 21.7613ZM20.866 23.3294C20.4856 23.3294 20.1637 22.6113 20.1637 21.7613C20.1637 20.9113 20.4851 20.1933 20.866 20.1933C21.2459 20.1933 21.5678 20.9113 21.5678 21.7613C21.5678 22.6113 21.2459 23.3294 20.866 23.3294Z" fill="#343A3F"/>
<path d="M19.8371 12.0242C22.0935 13.0952 21.7697 15.8395 21.6142 17.1584C21.5925 17.3426 21.5748 17.494 21.5689 17.6025C21.5684 17.6125 21.5714 17.6206 21.5714 17.63C21.5714 17.6541 21.5738 17.6775 21.5778 17.701C21.5812 17.7204 21.5852 17.7391 21.5906 17.7579C21.597 17.778 21.6048 17.7961 21.6142 17.8148C21.6235 17.8322 21.6324 17.849 21.6442 17.8637C21.6501 17.8718 21.6531 17.8811 21.659 17.8885C21.6673 17.8979 21.6767 17.9012 21.6856 17.9086C21.6954 17.9166 21.7043 17.924 21.7151 17.9307C21.7348 17.9428 21.7549 17.9495 21.7761 17.9542C21.783 17.9555 21.7884 17.9609 21.7953 17.9615C21.8017 17.9629 21.8076 17.9629 21.8145 17.9629H21.815C21.8494 17.9629 21.8824 17.9508 21.9119 17.9334C21.9208 17.928 21.9272 17.9193 21.9356 17.914C21.9572 17.8965 21.9769 17.8765 21.9936 17.8517C21.9971 17.8463 22.002 17.8443 22.0049 17.8389C22.1004 17.6789 24.3372 13.8896 23.9572 10.9933C23.8317 10.0355 23.4375 9.28325 22.786 8.75744C20.7229 7.09225 19.5487 5.34267 19.3912 3.69958C19.2893 2.64059 19.6097 1.58628 20.3445 0.565465C20.3489 0.559436 20.3504 0.551398 20.3543 0.54537C20.3652 0.527955 20.3735 0.50853 20.3814 0.489105C20.3893 0.47035 20.3962 0.452934 20.4011 0.432839C20.406 0.412074 20.4075 0.39131 20.4094 0.369875C20.4114 0.349111 20.4134 0.329016 20.4124 0.308251C20.4109 0.286817 20.407 0.266723 20.4026 0.245958C20.3981 0.224524 20.3937 0.203758 20.3863 0.182994C20.3839 0.175626 20.3839 0.167588 20.3804 0.16022C20.3745 0.146824 20.3656 0.139456 20.3588 0.127399C20.3519 0.116012 20.3484 0.102615 20.341 0.0918976C20.3366 0.086539 20.3307 0.0845295 20.3268 0.0791709C20.3135 0.0637649 20.2987 0.0523777 20.284 0.0409907C20.2712 0.0316131 20.2584 0.0222358 20.2451 0.0162073C20.2278 0.00883924 20.2111 0.00549007 20.1934 0.00348059C20.1801 0.00147111 20.1673 -0.000538442 20.154 0.000131384C20.1368 0.00147104 20.1206 0.00816924 20.1028 0.0141977C20.0881 0.0195563 20.0743 0.0255845 20.0605 0.0342923C20.0546 0.0383112 20.0487 0.0383116 20.0433 0.0430003C19.8622 0.189692 15.6116 3.68083 15.8858 7.36353C16.027 9.2799 17.3572 10.8473 19.8371 12.0242ZM19.158 1.69345C18.9237 2.37734 18.8346 3.07731 18.9025 3.78733C19.0836 5.6682 20.3061 7.53434 22.535 9.33416C23.065 9.76218 23.3716 10.3429 23.4725 11.1105C23.6999 12.84 22.813 15.0451 22.1895 16.3365C22.2884 14.7919 22.1383 12.406 19.9995 11.3905C17.7155 10.3074 16.496 8.93025 16.3744 7.29722C16.2145 5.1511 17.9439 2.95607 19.158 1.69345Z" fill="#343A3F"/>
</svg>
