<svg width="24" height="24" viewBox="0 0 24 24" fill="none" xmlns="http://www.w3.org/2000/svg">
<path d="M15.9856 8.86758C15.8685 8.98465 15.8685 9.16612 15.9856 9.28319C16.0441 9.34173 16.1202 9.371 16.1905 9.371C16.2607 9.371 16.3427 9.34173 16.3954 9.28319C16.4539 9.22465 16.9456 8.67441 16.4656 7.22856C16.1144 6.16905 16.3836 5.78856 16.4012 5.76514C16.5066 5.64807 16.5066 5.47246 16.3954 5.36124C16.2783 5.24417 16.0968 5.24417 15.9797 5.36124C15.9212 5.41978 15.4295 5.97002 15.9095 7.41588C16.2783 8.48709 15.9856 8.86758 15.9856 8.86758Z" fill="#343A3F"/>
<path d="M18.427 8.86758C18.3099 8.98465 18.3099 9.16612 18.427 9.28319C18.4855 9.34173 18.5616 9.371 18.6319 9.371C18.7021 9.371 18.7841 9.34173 18.8368 9.28319C18.8953 9.22465 19.387 8.67441 18.907 7.22856C18.5558 6.16905 18.8251 5.78856 18.8426 5.76514C18.948 5.64807 18.948 5.47246 18.8368 5.36124C18.7197 5.24417 18.5382 5.24417 18.4212 5.36124C18.3626 5.41978 17.8709 5.97002 18.3509 7.41588C18.7138 8.48709 18.427 8.86758 18.427 8.86758Z" fill="#343A3F"/>
<path d="M19.0239 10.5352H16.3898H3.8044C3.6405 10.5352 3.51172 10.6639 3.51172 10.8278V13.462C3.51172 13.6259 3.6405 13.7547 3.8044 13.7547H16.3898H19.0239C19.1878 13.7547 19.3166 13.6259 19.3166 13.462V10.8278C19.3166 10.6639 19.1878 10.5352 19.0239 10.5352ZM16.0971 13.1693H4.09708V11.1205H16.0971V13.1693ZM18.7312 13.1693H16.6825V11.1205H18.7312V13.1693Z" fill="#343A3F"/>
<path d="M12 0C5.38537 0 0 5.38537 0 12C0 18.6146 5.38537 24 12 24C18.6146 24 24 18.6146 24 12C24 5.38537 18.6146 0 12 0ZM12 23.4146C5.70732 23.4146 0.585366 18.2927 0.585366 12C0.585366 5.70732 5.70732 0.585366 12 0.585366C18.2927 0.585366 23.4146 5.70732 23.4146 12C23.4146 18.2927 18.2927 23.4146 12 23.4146Z" fill="#343A3F"/>
</svg>
