<svg width="37" height="28" viewBox="0 0 37 28" fill="none" xmlns="http://www.w3.org/2000/svg">
<g id="volume-line-icon 1" clip-path="url(#clip0_26928_15452)">
<g id="Group">
<path id="Vector" d="M23.5977 2.95672C23.0527 2.95672 22.6071 2.51025 22.6071 1.95748C22.6071 1.40775 23.0497 0.958243 23.5977 0.958243C27.2983 0.958243 30.6497 2.47077 33.0736 4.91876C35.5005 7.36675 37 10.7441 37 14.4768C37 18.2096 35.5005 21.59 33.0736 24.0349C30.6466 26.4829 27.2983 27.9954 23.5977 27.9954C23.0527 27.9954 22.6071 27.549 22.6071 26.9962C22.6071 26.4434 23.0497 25.997 23.5977 25.997C26.7533 25.997 29.6078 24.7062 31.6764 22.6226C33.745 20.5361 35.0217 17.6568 35.0217 14.4738C35.0217 11.2908 33.742 8.41154 31.6764 6.32499C29.6078 4.2445 26.7503 2.95672 23.5977 2.95672ZM3.15259 6.60745H10.4605L16.6813 0.293095C17.0667 -0.0956675 17.69 -0.0987047 18.0754 0.290058C18.2712 0.481402 18.3675 0.736527 18.3675 0.994689H18.3705V26.9598C18.3705 27.5095 17.9279 27.959 17.3799 27.959C17.1029 27.959 16.8529 27.8436 16.6723 27.6583L10.5116 22.4161H3.15259C2.2854 22.4161 1.4965 22.0577 0.927409 21.4837C0.355306 20.9096 0 20.1139 0 19.2392V9.7874C0 8.91268 0.355306 8.11694 0.924398 7.5429C1.4965 6.96584 2.2854 6.60745 3.15259 6.60745ZM10.8669 8.60289H3.15259C2.8304 8.60289 2.53833 8.73653 2.32454 8.95217C2.11076 9.16781 1.97827 9.46242 1.97827 9.7874V19.2392C1.97827 19.5642 2.11076 19.8588 2.32454 20.0744C2.53833 20.2901 2.8304 20.4237 3.15259 20.4237H10.8669V20.4298C11.0898 20.4298 11.3156 20.5057 11.4993 20.6636L16.3923 24.8216V3.40927L11.6197 8.25361C11.436 8.46925 11.1681 8.60289 10.8669 8.60289ZM23.0979 8.6606C22.6462 8.6606 22.2789 8.29006 22.2789 7.83448C22.2789 7.3789 22.6462 7.00836 23.0979 7.00836C25.1996 7.00836 27.1026 7.86789 28.4787 9.25589C29.8547 10.6439 30.7069 12.5634 30.7069 14.6834C30.7069 16.8033 29.8547 18.7229 28.4787 20.1109C27.1026 21.4989 25.1996 22.3584 23.0979 22.3584C22.6462 22.3584 22.2789 21.9879 22.2789 21.5323C22.2789 21.0767 22.6462 20.7062 23.0979 20.7062C24.748 20.7062 26.2415 20.0319 27.3224 18.9415C28.4034 17.8512 29.0719 16.3447 29.0719 14.6803C29.0719 13.0159 28.4034 11.5095 27.3224 10.4191C26.2384 9.33486 24.745 8.6606 23.0979 8.6606Z" fill="#FCFCFD"/>
</g>
</g>
<defs>
<clipPath id="clip0_26928_15452">
<rect width="37" height="28" fill="white"/>
</clipPath>
</defs>
</svg>
