<svg width="35" height="29" viewBox="0 0 35 29" fill="none" xmlns="http://www.w3.org/2000/svg">
<g id="silent-line-icon 1" clip-path="url(#clip0_26928_15446)">
<g id="Group">
<path id="Vector" d="M24.3986 10.7251C23.9998 10.3196 23.9998 9.6651 24.3986 9.26252C24.7974 8.85705 25.4411 8.85705 25.837 9.26252L29.5483 13.0363L33.2597 9.26252C33.6584 8.85705 34.3022 8.85705 34.6981 9.26252C35.0968 9.668 35.0968 10.3225 34.6981 10.7251L30.9896 14.4989L34.7009 18.2727C35.0997 18.6782 35.0997 19.3327 34.7009 19.7353C34.3022 20.1408 33.6585 20.1408 33.2625 19.7353L29.5512 15.9615L25.8398 19.7353C25.4411 20.1408 24.7974 20.1408 24.4014 19.7353C24.0027 19.3298 24.0027 18.6753 24.4014 18.2727L28.1128 14.4989L24.3986 10.7251ZM3.24422 6.85575H10.7638L17.1639 0.304468C17.5598 -0.101005 18.2007 -0.101005 18.5994 0.301571C18.7988 0.504308 18.8985 0.767865 18.8985 1.03432H18.9014V27.9664C18.9014 28.537 18.4456 29.0004 17.8845 29.0004C17.5997 29.0004 17.3405 28.8816 17.1554 28.6876L10.8179 23.2542H3.24422C2.3527 23.2542 1.54093 22.8835 0.954183 22.2869C0.364583 21.6903 0 20.8648 0 19.9583V10.1546C0 9.24804 0.364583 8.42261 0.951335 7.82599C1.53809 7.22647 2.34985 6.85575 3.24422 6.85575ZM11.1825 8.92656H3.24422C2.91382 8.92656 2.6119 9.06558 2.39258 9.28859C2.17326 9.5116 2.03654 9.8186 2.03654 10.1546V19.9583C2.03654 20.2943 2.17326 20.6013 2.39258 20.8243C2.6119 21.0473 2.91382 21.1863 3.24422 21.1863H11.1825V21.1921C11.4132 21.1921 11.6439 21.2703 11.8347 21.4325L16.8677 25.7479V3.53667L11.9543 8.56453C11.7692 8.78464 11.4901 8.92656 11.1825 8.92656Z" fill="#FCFCFD"/>
</g>
</g>
<defs>
<clipPath id="clip0_26928_15446">
<rect width="35" height="29" fill="white"/>
</clipPath>
</defs>
</svg>
