<svg width="42" height="60" viewBox="0 0 42 60" fill="none" xmlns="http://www.w3.org/2000/svg">
<g clip-path="url(#clip0)">
<path fill-rule="evenodd" clip-rule="evenodd" d="M2.85133 5.23828C2.09537 5.24007 1.37084 5.57881 0.836418 6.18031C0.301995 6.78182 0.001233 7.59706 0 8.44753V56.818C0.00148488 57.2375 0.0764299 57.6525 0.220552 58.0394C0.364674 58.4263 0.575148 58.7774 0.839945 59.0728C1.10474 59.3681 1.41867 59.6017 1.7638 59.7605C2.10892 59.9193 2.47847 60 2.85133 59.9981H31.7933C32.5493 60.0039 33.2765 59.6725 33.8157 59.0765C34.355 58.4805 34.6624 57.6684 34.6707 56.818V8.44753C34.6643 7.59378 34.3584 6.77744 33.8194 6.17633C33.2805 5.57522 32.5522 5.23805 31.7933 5.23828H2.85133ZM2.85133 6.10002H31.7933C32.3486 6.09921 32.8817 6.34564 33.276 6.78548C33.6703 7.22531 33.894 7.82283 33.898 8.44753V56.818C33.8959 57.1259 33.8397 57.4304 33.7327 57.7138C33.6256 57.9973 33.4698 58.2542 33.2742 58.4696C33.0786 58.6851 32.8471 58.8549 32.5929 58.9693C32.3388 59.0837 32.0671 59.1405 31.7933 59.1363H2.85133C2.57885 59.1405 2.30835 59.0835 2.05565 58.9688C1.80295 58.854 1.57312 58.6837 1.37959 58.4679C1.18605 58.252 1.0327 57.995 0.928495 57.7117C0.824287 57.4285 0.771313 57.1246 0.772667 56.818V8.44753C0.77126 8.13956 0.824007 7.83433 0.927873 7.54939C1.03174 7.26445 1.18467 7.00545 1.37787 6.78726C1.57107 6.56908 1.80071 6.39603 2.05359 6.27809C2.30647 6.16015 2.57759 6.09962 2.85133 6.10002Z" fill="black"/>
<path fill-rule="evenodd" clip-rule="evenodd" d="M10.1475 0.00185333C8.13084 0.00185333 7.32484 1.91434 7.32617 3.83434C7.33208 3.9473 7.37687 4.05323 7.45106 4.12965C7.52524 4.20606 7.62297 4.24695 7.72351 4.24363C7.82405 4.24031 7.91948 4.19306 7.98956 4.11188C8.05963 4.03071 8.09883 3.922 8.09884 3.80885C8.08484 2.09134 8.86751 0.795361 10.1988 0.862861H39.0962C39.3729 0.847026 39.6496 0.895247 39.9091 1.00454C40.1686 1.11383 40.4054 1.28185 40.6049 1.49824C40.8044 1.71462 40.9622 1.97478 41.0688 2.26257C41.1753 2.55035 41.2282 2.85966 41.2242 3.17136V51.5906C41.0602 53.1371 40.1895 53.6306 39.0962 53.8991H35.3682C35.3155 53.8948 35.2627 53.9028 35.2129 53.9225C35.1632 53.9422 35.1175 53.9733 35.0789 54.0137C35.0403 54.0541 35.0095 54.103 34.9884 54.1574C34.9673 54.2119 34.9565 54.2706 34.9565 54.3299C34.9565 54.3893 34.9673 54.4481 34.9884 54.5025C35.0095 54.5569 35.0403 54.6058 35.0789 54.6462C35.1175 54.6867 35.1632 54.7177 35.2129 54.7374C35.2627 54.7571 35.3155 54.7652 35.3682 54.7609H39.1195C39.8643 54.7425 40.5753 54.4073 41.1092 53.8228C41.6431 53.2383 41.9603 52.4479 41.9968 51.6108C41.9906 35.4468 41.9906 19.2826 41.9968 3.11808C42.0026 2.69675 41.9312 2.27861 41.7873 1.88958C41.6434 1.50055 41.43 1.14894 41.1602 0.85659C40.8905 0.564236 40.5702 0.337377 40.2192 0.190086C39.8683 0.0427941 39.4942 -0.0218033 39.1202 0.000342711C29.4633 0.00634271 19.8059 0.00634271 10.1482 0.000342711L10.1475 0.00185333Z" fill="black"/>
</g>
<defs>
<clipPath id="clip0">
<rect width="42" height="60" fill="white"/>
</clipPath>
</defs>
</svg>
