<svg width="22" height="25" viewBox="0 0 22 25" fill="none" xmlns="http://www.w3.org/2000/svg">
<path fill-rule="evenodd" clip-rule="evenodd" d="M1.92567 2.84375C1.54768 2.84445 1.18542 2.97655 0.918209 3.21114C0.650997 3.44573 0.500616 3.76368 0.5 4.09535V22.9598C0.500742 23.1234 0.538215 23.2853 0.610276 23.4362C0.682337 23.5871 0.787574 23.724 0.919973 23.8392C1.05237 23.9544 1.20934 24.0455 1.3819 24.1074C1.55446 24.1693 1.73924 24.2008 1.92567 24.2001H16.3967C16.7746 24.2023 17.1382 24.0731 17.4079 23.8407C17.6775 23.6082 17.8312 23.2915 17.8353 22.9598V4.09535C17.8322 3.76239 17.6792 3.44402 17.4097 3.20959C17.1402 2.97516 16.7761 2.84366 16.3967 2.84375H1.92567ZM1.92567 3.17983H16.3967C16.6743 3.17951 16.9408 3.27562 17.138 3.44716C17.3352 3.61869 17.447 3.85172 17.449 4.09535V22.9598C17.448 23.0799 17.4199 23.1987 17.3663 23.3092C17.3128 23.4198 17.2349 23.5199 17.1371 23.604C17.0393 23.688 16.9235 23.7542 16.7965 23.7988C16.6694 23.8435 16.5335 23.8656 16.3967 23.864H1.92567C1.78942 23.8656 1.65417 23.8434 1.52782 23.7986C1.40148 23.7539 1.28656 23.6875 1.18979 23.6033C1.09303 23.5191 1.01635 23.4189 0.964247 23.3084C0.912143 23.1979 0.885656 23.0794 0.886333 22.9598V4.09535C0.88563 3.97525 0.912004 3.85621 0.963937 3.74508C1.01587 3.63396 1.09234 3.53294 1.18893 3.44785C1.28553 3.36276 1.40036 3.29527 1.5268 3.24928C1.65323 3.20328 1.78879 3.17967 1.92567 3.17983Z" fill="black"/>
<path fill-rule="evenodd" clip-rule="evenodd" d="M5.574 0.799121C4.56566 0.799121 4.16266 1.54499 4.16333 2.29379C4.16628 2.33785 4.18868 2.37916 4.22577 2.40896C4.26286 2.43876 4.31173 2.45471 4.362 2.45341C4.41227 2.45212 4.45999 2.43369 4.49502 2.40203C4.53006 2.37038 4.54966 2.32798 4.54966 2.28385C4.54266 1.61402 4.934 1.10859 5.59966 1.13491H20.0483C20.1867 1.12874 20.325 1.14754 20.4548 1.19017C20.5846 1.23279 20.703 1.29832 20.8027 1.38271C20.9024 1.4671 20.9814 1.56856 21.0346 1.6808C21.0879 1.79303 21.1143 1.91367 21.1123 2.03523V20.9187C21.0303 21.5219 20.595 21.7143 20.0483 21.819H18.1843C18.158 21.8174 18.1316 21.8205 18.1067 21.8282C18.0818 21.8359 18.059 21.848 18.0397 21.8637C18.0204 21.8795 18.005 21.8986 17.9945 21.9198C17.9839 21.941 17.9785 21.9639 17.9785 21.9871C17.9785 22.0102 17.9839 22.0332 17.9945 22.0544C18.005 22.0756 18.0204 22.0947 18.0397 22.1104C18.059 22.1262 18.0818 22.1383 18.1067 22.146C18.1316 22.1537 18.158 22.1568 18.1843 22.1551H20.06C20.4324 22.148 20.7879 22.0173 21.0548 21.7893C21.3218 21.5613 21.4804 21.2531 21.4987 20.9266C21.4956 14.6227 21.4956 8.3186 21.4987 2.01445C21.5015 1.85013 21.4659 1.68706 21.3939 1.53533C21.3219 1.38361 21.2152 1.24649 21.0803 1.13247C20.9455 1.01845 20.7853 0.929976 20.6099 0.872532C20.4344 0.815088 20.2474 0.789895 20.0603 0.798532C15.2319 0.800872 10.4032 0.800872 5.57433 0.798532L5.574 0.799121Z" fill="black"/>
</svg>
