<svg width="16" height="16" viewBox="0 0 16 16" fill="none" xmlns="http://www.w3.org/2000/svg">
<g clip-path="url(#clip0_26959_16175)">
<path fill-rule="evenodd" clip-rule="evenodd" d="M5.89773 3.02072L7.9296 5.05253L10.1267 2.85535C10.7334 2.24863 10.7334 1.26488 10.1267 0.658165C9.52 0.051445 8.53632 0.051445 7.9296 0.658165L7.91475 0.672949C7.91002 0.668021 7.90509 0.663093 7.9001 0.658165C7.29344 0.051445 6.3097 0.051445 5.70298 0.658165C5.09632 1.26488 5.09632 2.24863 5.70298 2.85535C5.76435 2.91666 5.82951 2.97176 5.89773 3.02072Z" fill="#FF4D6D" stroke="#FF4D6D" stroke-width="0.5"/>
<path fill-rule="evenodd" clip-rule="evenodd" d="M10.8506 14.6828C9.97736 14.6828 9.17 14.3948 8.51854 13.9089C8.86004 13.5241 9.13409 13.0899 9.33505 12.6149C9.58165 12.0317 9.7067 11.4126 9.7067 10.7746C9.7067 10.1365 9.58165 9.51734 9.33505 8.93417C9.13409 8.4591 8.86004 8.02492 8.51854 7.64015C9.17 7.15427 9.97736 6.86627 10.8506 6.86627C13.0057 6.86627 14.759 8.61955 14.759 10.7746C14.759 12.9296 13.0057 14.6828 10.8506 14.6828ZM4.97908 14.6828C2.82401 14.6828 1.07073 12.9296 1.07073 10.7746C1.07073 8.61948 2.82401 6.86627 4.97908 6.86627C5.85236 6.86627 6.65972 7.15427 7.31118 7.64015C6.96968 8.02492 6.69569 8.4591 6.49467 8.93417C6.24814 9.51734 6.12302 10.1365 6.12302 10.7746C6.12302 11.4126 6.24808 12.0317 6.49467 12.6149C6.69569 13.0899 6.96968 13.5241 7.31118 13.9089C6.65972 14.3948 5.85236 14.6828 4.97908 14.6828ZM7.91489 13.3516C7.30977 12.6632 6.94241 11.761 6.94241 10.7746C6.94241 9.78812 7.30977 8.88585 7.91489 8.19747C8.51995 8.88585 8.88731 9.78812 8.88731 10.7746C8.88731 11.761 8.51995 12.6632 7.91489 13.3516ZM15.2067 8.93417C14.9685 8.37116 14.6277 7.86563 14.1936 7.43151C13.7596 6.99753 13.254 6.65667 12.691 6.41859C12.1079 6.17193 11.4887 6.04688 10.8506 6.04688C10.2126 6.04688 9.59348 6.17193 9.01038 6.41859C8.61524 6.58569 8.24846 6.80348 7.91489 7.06838C7.58126 6.80348 7.21448 6.58569 6.81934 6.41859C6.23624 6.17193 5.6171 6.04688 4.97908 6.04688C4.341 6.04688 3.7218 6.17193 3.1387 6.41859C2.57569 6.65667 2.07016 6.99753 1.63611 7.43151C1.20206 7.86563 0.861196 8.37116 0.623052 8.93417C0.37646 9.51734 0.251404 10.1365 0.251404 10.7746C0.251404 11.4126 0.37646 12.0317 0.623052 12.6149C0.861196 13.1779 1.20206 13.6834 1.63611 14.1175C2.07016 14.5515 2.57569 14.8924 3.1387 15.1306C3.7218 15.3771 4.341 15.5022 4.97908 15.5022C5.6171 15.5022 6.23624 15.3771 6.81934 15.1306C7.21448 14.9634 7.58126 14.7457 7.91489 14.4807C8.24846 14.7457 8.61524 14.9634 9.01038 15.1306C9.59348 15.3771 10.2126 15.5022 10.8506 15.5022C11.4888 15.5022 12.1079 15.3771 12.691 15.1306C13.254 14.8924 13.7596 14.5515 14.1936 14.1175C14.6277 13.6834 14.9685 13.1779 15.2066 12.6149C15.4533 12.0317 15.5784 11.4126 15.5784 10.7746C15.5784 10.1365 15.4533 9.51734 15.2067 8.93417Z" fill="#FF4D6D" stroke="#FF4D6D" stroke-width="0.5"/>
</g>
<defs>
<clipPath id="clip0_26959_16175">
<rect width="16" height="16" fill="white"/>
</clipPath>
</defs>
</svg>
