<svg width="58" height="58" viewBox="0 0 58 58" fill="none" xmlns="http://www.w3.org/2000/svg">
<circle cx="29" cy="29" r="29" fill="url(#paint0_linear_26928_15409)"/>
<g clip-path="url(#clip0_26928_15409)">
<g filter="url(#filter0_d_26928_15409)">
<path d="M24.0988 17.3722C23.7901 17.5325 23.3927 17.9835 22.888 18.7493C22.1877 19.8057 22.7159 19.6811 18.8757 19.6988L15.5816 19.7164L15.2611 19.8944C15.0769 19.9951 14.8398 20.197 14.7089 20.3572C14.2756 20.9093 14.2994 20.298 14.3171 29.8119L14.3348 38.3527L14.4594 38.6258C14.7325 39.2136 15.2251 39.5816 15.8897 39.6882C16.3526 39.7654 42.6455 39.7654 43.1087 39.6882C43.7733 39.5813 44.2659 39.2133 44.539 38.6258L44.6636 38.3527L44.6813 29.8119C44.699 20.2977 44.7228 20.909 44.2898 20.3572C44.1593 20.197 43.9218 19.9951 43.738 19.8944L43.4174 19.7164L40.1234 19.6988C36.2834 19.6808 36.8116 19.8057 36.111 18.7493C35.5946 17.9718 35.2089 17.5266 34.8884 17.3663C34.6748 17.2594 34.4671 17.2535 29.4873 17.2535C24.5499 17.2594 24.2948 17.2653 24.0988 17.3722ZM34.5273 18.6305C34.6221 18.7375 34.925 19.1529 35.1919 19.5506C35.6963 20.3042 36.0227 20.6486 36.3612 20.7909C36.5215 20.8563 37.1505 20.874 39.7799 20.874C42.878 20.874 43.0085 20.8799 43.1927 20.9927C43.2996 21.0581 43.4063 21.1828 43.4301 21.2717C43.4599 21.3607 43.4776 25.1771 43.4776 29.7471C43.4776 37.6586 43.4717 38.0685 43.3706 38.2225C43.3114 38.3174 43.1986 38.4126 43.1155 38.442C42.9137 38.5192 16.0866 38.5192 15.8848 38.442C15.8017 38.4122 15.6889 38.3174 15.6296 38.2225C15.5289 38.0681 15.5227 37.6586 15.5227 29.7471C15.5227 25.1771 15.5404 21.3607 15.5701 21.2717C15.594 21.1828 15.7006 21.0581 15.8076 20.9927C15.9917 20.8799 16.1222 20.874 19.2204 20.874C21.8498 20.874 22.4788 20.8563 22.6391 20.7909C22.9773 20.6486 23.3037 20.3042 23.8084 19.5506C24.0756 19.1529 24.3782 18.7375 24.473 18.6305L24.6572 18.4405H29.5H34.3431L34.5273 18.6305Z" fill="#FCFCFD" stroke="#FCFCFD" stroke-width="0.5"/>
<path d="M28.8174 23.3477C28.0281 23.4426 27.1496 23.7396 26.467 24.1432C25.9982 24.416 25.8795 24.5586 25.8795 24.8553C25.8795 25.1402 26.0637 25.3658 26.3306 25.4192C26.5026 25.4489 26.639 25.4074 27.2029 25.1284C28.1109 24.6773 28.384 24.606 29.292 24.5704C29.9449 24.5465 30.1467 24.5586 30.5977 24.6652C32.1232 25.0332 33.3753 26.0897 33.9749 27.5083C34.1233 27.8586 34.248 28.3214 34.3369 28.8555L34.3726 29.093L33.9098 28.6419C33.3576 28.1019 33.2036 27.995 32.9897 27.995C32.604 27.995 32.2894 28.3453 32.3725 28.6835C32.4022 28.7963 32.8415 29.283 33.7021 30.1495L34.9901 31.4375L36.1951 30.2387C36.8597 29.5741 37.4416 28.9628 37.489 28.8735C37.6195 28.6184 37.5898 28.3868 37.4 28.1791C37.2578 28.0306 37.1806 27.995 36.9788 27.995C36.7354 27.995 36.6939 28.0247 36.148 28.5588L35.5723 29.1286L35.5366 28.7427C35.394 27.2469 34.5276 25.6504 33.3167 24.6711C32.0758 23.6683 30.337 23.1577 28.8174 23.3477Z" fill="#FCFCFD" stroke="#FCFCFD" stroke-width="0.5"/>
<path d="M22.716 28.0451C21.5823 29.1847 21.4279 29.3626 21.4279 29.5288C21.4279 29.8019 21.5408 29.9978 21.7543 30.1044C21.8613 30.1519 21.98 30.1934 22.0216 30.1934C22.1877 30.1934 22.5024 29.9677 22.9475 29.5288L23.4283 29.0538L23.464 29.76C23.5173 30.7632 23.743 31.5286 24.2415 32.4071C25.0961 33.9029 26.5739 34.9829 28.2597 35.3332C28.9364 35.4817 30.076 35.4817 30.7406 35.3391C31.4409 35.1906 32.1827 34.8763 32.8 34.4726C33.5123 34.0039 33.7259 33.7723 33.7377 33.4577C33.7436 33.2441 33.7138 33.1846 33.5418 33.0302C33.2569 32.7751 33.0018 32.8166 32.4794 33.2202C30.5506 34.7101 27.7966 34.5377 26.0692 32.8166C25.1969 31.9499 24.6389 30.6206 24.633 29.4274V29.0417L25.1851 29.5818C25.4998 29.8905 25.8082 30.1457 25.9034 30.1692C26.2831 30.2641 26.7224 29.8251 26.6275 29.4451C26.5978 29.3322 26.1526 28.8396 25.3277 28.0088C24.6392 27.3203 24.0576 26.7505 24.0397 26.7505C24.0217 26.7512 23.4283 27.333 22.716 28.0451Z" fill="#FCFCFD" stroke="#FCFCFD" stroke-width="0.5"/>
</g>
</g>
<defs>
<filter id="filter0_d_26928_15409" x="10.0594" y="17.0039" width="38.8795" height="30.9922" filterUnits="userSpaceOnUse" color-interpolation-filters="sRGB">
<feFlood flood-opacity="0" result="BackgroundImageFix"/>
<feColorMatrix in="SourceAlpha" type="matrix" values="0 0 0 0 0 0 0 0 0 0 0 0 0 0 0 0 0 0 127 0" result="hardAlpha"/>
<feOffset dy="4"/>
<feGaussianBlur stdDeviation="2"/>
<feComposite in2="hardAlpha" operator="out"/>
<feColorMatrix type="matrix" values="0 0 0 0 0 0 0 0 0 0 0 0 0 0 0 0 0 0 0.25 0"/>
<feBlend mode="normal" in2="BackgroundImageFix" result="effect1_dropShadow_26928_15409"/>
<feBlend mode="normal" in="SourceGraphic" in2="effect1_dropShadow_26928_15409" result="shape"/>
</filter>
<linearGradient id="paint0_linear_26928_15409" x1="0" y1="0" x2="67.106" y2="10.8123" gradientUnits="userSpaceOnUse">
<stop stop-color="#C9184A"/>
<stop offset="1" stop-color="#EB5B84"/>
</linearGradient>
<clipPath id="clip0_26928_15409">
<rect width="31" height="31" fill="white" transform="translate(14 13)"/>
</clipPath>
</defs>
</svg>
