<svg width="24" height="24" viewBox="0 0 24 24" fill="none" xmlns="http://www.w3.org/2000/svg">
<path d="M12 0C9.62663 0 7.30655 0.703788 5.33316 2.02236C3.35977 3.34094 1.8217 5.21509 0.913451 7.4078C0.00519934 9.60051 -0.232441 12.0133 0.230582 14.3411C0.693605 16.6689 1.83649 18.807 3.51472 20.4853C5.19295 22.1635 7.33115 23.3064 9.65892 23.7694C11.9867 24.2324 14.3995 23.9948 16.5922 23.0866C18.7849 22.1783 20.6591 20.6402 21.9776 18.6668C23.2962 16.6935 24 14.3734 24 12C23.9961 8.8186 22.7306 5.76861 20.481 3.51902C18.2314 1.26943 15.1814 0.00389639 12 0ZM12 23.411C9.74311 23.411 7.5369 22.7418 5.66037 21.4879C3.78383 20.2341 2.32125 18.4519 1.45758 16.3668C0.593901 14.2817 0.367925 11.9873 0.808222 9.77381C1.24852 7.56029 2.33532 5.52704 3.93118 3.93117C5.52704 2.33531 7.56029 1.24851 9.77382 0.808217C11.9873 0.367919 14.2817 0.593896 16.3668 1.45757C18.4519 2.32125 20.2341 3.78383 21.4879 5.66036C22.7418 7.5369 23.411 9.74311 23.411 12C23.4079 15.0254 22.2047 17.9261 20.0654 20.0654C17.9261 22.2047 15.0254 23.4079 12 23.411ZM11.0312 6.37251V5.07386C11.0312 4.99576 11.0001 4.92086 10.9449 4.86564C10.8897 4.81041 10.8148 4.77939 10.7367 4.77939H6.8054C6.7273 4.77939 6.6524 4.81041 6.59718 4.86564C6.54195 4.92086 6.51092 4.99576 6.51092 5.07386V6.25178L5.26823 7.78012L5.23289 7.82429C5.20229 7.86969 5.18496 7.92272 5.18283 7.97742V17.866C5.18283 17.9441 5.21385 18.019 5.26908 18.0742C5.3243 18.1295 5.3992 18.1605 5.47731 18.1605H9.4027C9.43901 18.1602 9.47495 18.1532 9.50872 18.1399L11.7615 17.2771C11.8173 17.2555 11.8652 17.2175 11.8989 17.168C11.9326 17.1186 11.9504 17.0601 11.9499 17.0002V7.97742C11.9495 7.9237 11.9353 7.87099 11.9087 7.82429L11.0312 6.37251ZM11.1166 7.67411L10.0682 7.6535L10.6807 6.94969L11.1166 7.67411ZM7.09988 5.36834H10.4422V6.16049H7.09988V5.36834ZM9.10822 17.5715H5.76589V8.2719H9.10822V17.5715ZM9.27019 7.68294H6.05154L6.84957 6.74945H10.0888L9.27019 7.68294ZM11.361 16.8118L9.69718 17.4478V8.23362L11.361 8.26601V16.8118ZM19.8744 8.21006C19.8622 8.09117 19.8205 7.9772 19.7531 7.87848C19.6858 7.77975 19.5948 7.69939 19.4886 7.64466C19.3385 7.54021 19.1538 7.49799 18.9733 7.52687C18.9733 6.96442 18.826 6.30478 18.1752 6.02503L18.1075 5.99558L18.0574 5.98086C18.033 5.97825 18.0083 5.97825 17.9838 5.98086C17.2829 5.86601 16.8059 6.33129 16.5114 6.81129C16.3751 6.68948 16.1964 6.62604 16.0137 6.6346C15.8944 6.62191 15.7738 6.63954 15.6632 6.68587C15.5525 6.7322 15.4553 6.80573 15.3806 6.89963C14.9477 7.43264 15.198 8.6665 15.3571 9.28196C15.1256 9.28281 14.8973 9.33512 14.6886 9.43509C14.5815 9.48932 14.4865 9.56482 14.4096 9.65697C14.3326 9.74911 14.2753 9.85598 14.241 9.97104C14.2174 10.0564 12.2739 18.7141 13.6844 20.051C13.7057 20.0858 13.7339 20.1159 13.7674 20.1392C13.8008 20.1625 13.8388 20.1786 13.8788 20.1865H13.8935C13.9236 20.198 13.9555 20.204 13.9877 20.2042C14.0259 20.2033 14.0637 20.1963 14.0996 20.1836C16.0108 19.8891 19.0881 11.4847 19.1058 11.3993C19.1392 11.2842 19.1489 11.1634 19.1342 11.0445C19.1195 10.9255 19.0808 10.8108 19.0204 10.7072C18.9128 10.521 18.7674 10.3595 18.5934 10.2331C19.0498 9.82086 19.9509 8.90208 19.8744 8.21006ZM18.5551 11.2285C18.1951 12.3048 17.7763 13.3607 17.3006 14.3912L16.3436 14.1114C16.269 14.0894 16.1887 14.0978 16.1203 14.1348C16.0519 14.1718 16.0009 14.2343 15.9784 14.3087C15.9671 14.3458 15.9632 14.3848 15.967 14.4235C15.9708 14.4621 15.9822 14.4996 16.0005 14.5338C16.0189 14.568 16.0438 14.5982 16.0738 14.6228C16.1039 14.6473 16.1385 14.6657 16.1757 14.6768L17.0591 14.933C16.0137 17.1534 14.7387 19.4827 14.0614 19.5946C13.6785 19.2471 13.6874 17.6658 13.8582 15.8724L14.7121 16.1227C14.7395 16.127 14.7673 16.127 14.7946 16.1227C14.8599 16.1255 14.9243 16.1065 14.9777 16.0686C15.031 16.0307 15.0702 15.9762 15.0891 15.9136C15.1004 15.8763 15.1041 15.8371 15.1001 15.7983C15.0961 15.7596 15.0845 15.722 15.0659 15.6877C15.0472 15.6535 15.022 15.6233 14.9916 15.5989C14.9612 15.5745 14.9263 15.5563 14.8888 15.5455L13.9318 15.2658C14.0496 14.2056 14.2263 13.1131 14.3764 12.1855L15.201 12.427C15.2283 12.4309 15.2561 12.4309 15.2834 12.427C15.3615 12.4383 15.4409 12.4182 15.5042 12.3709C15.5674 12.3237 15.6093 12.2533 15.6206 12.1752C15.6319 12.0971 15.6118 12.0177 15.5646 11.9545C15.5173 11.8912 15.4469 11.8494 15.3688 11.838L14.4854 11.5789C14.6091 10.9281 14.7269 10.401 14.8182 10.1065C14.8383 10.0369 14.8834 9.97711 14.9448 9.93865C15.1022 9.86956 15.2737 9.83829 15.4454 9.84736C15.9177 9.86547 16.3848 9.95176 16.8324 10.1036C17.5156 10.2832 18.3048 10.6248 18.5021 10.987C18.5279 11.021 18.546 11.0602 18.5552 11.1019C18.5643 11.1436 18.5643 11.1868 18.5551 11.2285ZM18.0604 9.93865C17.8111 9.82325 17.5543 9.72487 17.2918 9.64417L17.5863 8.68123C17.5971 8.6441 17.6005 8.60521 17.5963 8.56676C17.5921 8.52832 17.5804 8.49108 17.5618 8.45718C17.5432 8.42327 17.5181 8.39336 17.4879 8.36915C17.4578 8.34493 17.4231 8.3269 17.386 8.31607C17.311 8.2942 17.2304 8.30302 17.162 8.34057C17.0935 8.37812 17.0427 8.44134 17.0209 8.51632L16.7264 9.47926C16.4778 9.41007 16.225 9.35696 15.9696 9.32024C15.7693 8.63411 15.5985 7.55337 15.8282 7.27656C15.8459 7.25595 15.8753 7.22061 15.9814 7.2265C15.9999 7.22942 16.0188 7.22942 16.0373 7.2265C16.1021 7.2265 16.1934 7.30601 16.2493 7.52098C16.2663 7.58336 16.3033 7.63843 16.3546 7.6777C16.406 7.71696 16.4689 7.73823 16.5335 7.73823C16.5981 7.73823 16.661 7.71696 16.7124 7.6777C16.7637 7.63843 16.8007 7.58336 16.8177 7.52098C16.8177 7.52098 17.1681 6.40491 17.9161 6.55215C18.6199 6.82896 18.3283 7.91558 18.3166 7.95975C18.2998 8.02131 18.3036 8.08664 18.3272 8.1459C18.3508 8.20517 18.393 8.25517 18.4474 8.28838C18.5019 8.32159 18.5657 8.33622 18.6292 8.33006C18.6927 8.3239 18.7524 8.29729 18.7995 8.25423C18.9703 8.09521 19.094 8.08049 19.1293 8.10699C19.1471 8.12243 19.1669 8.13531 19.1882 8.14527C19.2825 8.19534 19.2883 8.24245 19.2913 8.26896C19.3296 8.64294 18.5993 9.4557 18.0604 9.93865Z" fill="#343A3F"/>
</svg>
