<svg width="24" height="24" viewBox="0 0 24 24" fill="none" xmlns="http://www.w3.org/2000/svg">
<path d="M11.0147 14.8596H12.0148C12.0924 14.8596 12.1554 14.9226 12.1554 15.0003C12.1554 15.0779 12.0924 15.1409 12.0148 15.1409H11.0147C10.937 15.1409 10.8741 15.0779 10.8741 15.0003C10.8741 14.9226 10.937 14.8596 11.0147 14.8596ZM15.5967 5.80826C15.599 5.76818 15.5839 5.72916 15.5557 5.70082C15.5274 5.67247 15.489 5.65855 15.4483 5.6599C15.391 5.66314 14.036 5.75009 13.1295 6.65546C13.1295 6.65546 13.1295 6.65546 13.1295 6.65556C13.0724 6.71266 13.0186 6.77155 12.9679 6.83177C13.0126 6.56503 13.0408 6.28394 13.0408 5.99167C13.0408 4.31578 12.1543 2.97744 12.1167 2.92126C12.0643 2.84362 11.9354 2.84362 11.8831 2.92126C11.8455 2.97744 10.9592 4.31546 10.9592 5.99074C10.9592 6.2881 10.9881 6.57406 11.0342 6.84492C10.9803 6.78022 10.9235 6.71674 10.8623 6.65558C9.95664 5.74958 8.60102 5.66316 8.54369 5.65992C8.50373 5.65877 8.46458 5.67247 8.43634 5.70094C8.40809 5.72918 8.39302 5.76821 8.39532 5.80829C8.39846 5.86553 8.48467 7.22093 9.39098 8.12755C9.81425 8.5505 10.3341 8.79355 10.7752 8.93431C9.64766 9.159 8.84606 9.90826 8.84606 12.3118C8.84606 15.3341 10.1776 21.1407 11.9993 21.1407C13.8217 21.1407 15.1539 15.3341 15.1539 12.3118C15.1539 9.90533 14.35 9.1571 13.2198 8.93342C13.6603 8.79254 14.1789 8.54964 14.6008 8.12755C15.5071 7.22131 15.5934 5.8655 15.5967 5.80826ZM11.2405 5.99074C11.2405 4.76078 11.7615 3.69564 12.0001 3.27262C12.2387 3.69511 12.7595 4.75882 12.7595 5.99167C12.7595 6.6012 12.6314 7.16995 12.4733 7.64047C12.4119 7.78061 12.3614 7.91755 12.3201 8.04809C12.2017 8.33342 12.0835 8.56181 11.9999 8.71013C11.9077 8.54654 11.7735 8.28629 11.6434 7.95854C11.6199 7.88971 11.5931 7.81908 11.5643 7.74766C11.3894 7.25714 11.2405 6.64807 11.2405 5.99074ZM8.69458 5.95903C9.0725 6.01145 10.0121 6.20282 10.6635 6.85438C10.9599 7.15085 11.1604 7.50662 11.2967 7.84231C11.3216 7.91242 11.3468 7.97981 11.3725 8.04499C11.4828 8.36714 11.5356 8.65337 11.5594 8.82439C11.1812 8.77186 10.2421 8.58029 9.5898 7.92864C8.93815 7.27656 8.7469 6.33708 8.69458 5.95903ZM14.8618 11.8594H14.0004C13.9228 11.8594 13.8598 11.9224 13.8598 12C13.8598 12.0777 13.9228 12.1407 14.0004 12.1407H14.8704C14.8714 12.1972 14.8727 12.253 14.8727 12.3117C14.8727 13.9408 14.515 16.1124 13.9698 17.8595H13.0621C12.9845 17.8595 12.9215 17.9225 12.9215 18.0001C12.9215 18.0778 12.9845 18.1408 13.0621 18.1408H13.8795C13.3599 19.7019 12.6894 20.8594 11.9993 20.8594C10.7087 20.8594 9.48679 16.8101 9.1939 13.6411H9.99977C10.0774 13.6411 10.1404 13.5781 10.1404 13.5005C10.1404 13.4228 10.0774 13.3598 9.99977 13.3598H9.17052C9.1427 12.9938 9.12734 12.6413 9.12734 12.3117C9.12734 11.613 9.19445 11.068 9.318 10.6408H10.221C10.2986 10.6408 10.3616 10.5778 10.3616 10.5001C10.3616 10.4225 10.2986 10.3595 10.221 10.3595H9.414C9.86354 9.23995 10.8078 9.12382 11.9993 9.12382C13.5913 9.12384 14.7426 9.33017 14.8618 11.8594ZM12.4326 8.82437C12.4535 8.67358 12.4973 8.4329 12.5827 8.15743C12.6363 8.02855 12.6893 7.88779 12.7398 7.73765C12.8743 7.43369 13.0626 7.12018 13.3283 6.85438V6.85447C13.9804 6.20314 14.9197 6.01157 15.2977 5.95913C15.2458 6.33684 15.0553 7.27529 14.402 7.92871C13.7504 8.58038 12.8108 8.77195 12.4326 8.82437ZM5.51734 15.1409H4.45092C4.37328 15.1409 4.3103 15.0779 4.3103 15.0003C4.3103 14.9226 4.3733 14.8596 4.45092 14.8596H5.51734C5.59498 14.8596 5.65795 14.9226 5.65795 15.0003C5.65795 15.0779 5.59498 15.1409 5.51734 15.1409ZM6.92254 18.0548C6.97757 18.1096 6.97757 18.1986 6.92254 18.2536L6.16918 19.0071C6.14177 19.0346 6.10577 19.0483 6.06977 19.0483C6.03377 19.0483 5.99779 19.0346 5.97036 19.0071C5.91533 18.9523 5.91533 18.8632 5.97036 18.8083L6.72372 18.0548C6.77856 17.9997 6.86772 17.9997 6.92254 18.0548ZM5.91012 16.8371L4.92595 17.2449C4.90838 17.2522 4.89017 17.2556 4.87217 17.2556C4.81714 17.2556 4.7646 17.223 4.74221 17.1689C4.7125 17.0971 4.7466 17.0149 4.81838 16.985L5.80255 16.5772C5.87412 16.5481 5.95658 16.5815 5.9863 16.6532C6.01601 16.725 5.9819 16.8072 5.91012 16.8371ZM19.6642 15.0003C19.6642 15.0779 19.6012 15.1409 19.5235 15.1409H18.4569C18.3793 15.1409 18.3163 15.0779 18.3163 15.0003C18.3163 14.9226 18.3793 14.8596 18.4569 14.8596H19.5235C19.6012 14.8596 19.6642 14.9226 19.6642 15.0003ZM18.0041 11.1913L17.2503 11.9455C17.2229 11.973 17.1869 11.9868 17.1509 11.9868C17.1149 11.9868 17.0789 11.973 17.0515 11.9456C16.9965 11.8907 16.9965 11.8017 17.0515 11.7467L17.8053 10.9926C17.8601 10.9375 17.9492 10.9376 18.0041 10.9925C18.0591 11.0474 18.0591 11.1364 18.0041 11.1913ZM19.2323 17.1688C19.2099 17.223 19.1574 17.2556 19.1023 17.2556C19.0843 17.2556 19.0661 17.2521 19.0485 17.2449L18.0641 16.8371C17.9923 16.8073 17.9582 16.725 17.988 16.6533C18.0177 16.5812 18.1001 16.5477 18.1717 16.5771L19.1561 16.985C19.2279 17.0147 19.262 17.0971 19.2323 17.1688ZM18.0642 13.1634L19.0494 12.755C19.1207 12.7258 19.2034 12.7593 19.2331 12.831C19.2628 12.9028 19.2287 12.985 19.1569 13.0149L18.1717 13.4232C18.1541 13.4305 18.1359 13.4339 18.1179 13.4339C18.0629 13.4339 18.0103 13.4013 17.988 13.3472C17.9582 13.2754 17.9924 13.1932 18.0642 13.1634ZM12 0C5.37305 0 0 5.37264 0 12C0 18.6273 5.37305 24 12 24C18.6276 24 24 18.6273 24 12C24 5.37264 18.6276 0 12 0ZM12 23.7187C5.53829 23.7187 0.281256 18.4617 0.281256 12C0.281256 5.53826 5.53829 0.281256 12 0.281256C18.4617 0.281256 23.7187 5.53826 23.7187 12C23.7187 18.4617 18.4617 23.7187 12 23.7187Z" fill="#343A3F"/>
</svg>
