<svg width="64" height="60" viewBox="0 0 64 60" fill="none" xmlns="http://www.w3.org/2000/svg">
<path d="M53.5087 7.1014L36.6699 2.58947C30.5621 0.952883 26.0476 3.5763 24.4056 9.70423L18.8444 30.4588C17.1756 36.6872 19.795 41.136 25.9029 42.7726L42.7416 47.2845C48.9479 48.9475 53.3404 46.3775 55.0093 40.1492L60.5704 19.3946C62.2124 13.2666 59.7149 8.76437 53.5087 7.1014Z" fill="url(#paint0_linear)"/>
<g opacity="0.5" filter="url(#filter0_f)">
<path d="M49.1093 12.7836L37.6369 9.70955C33.4756 8.59452 30.3999 10.3819 29.2812 14.5569L25.4923 28.6972C24.3553 32.9407 26.1399 35.9717 30.3013 37.0867L41.7737 40.1607C46.0021 41.2937 48.9947 39.5428 50.1317 35.2993L53.9206 21.159C55.0393 16.984 53.3377 13.9166 49.1093 12.7836Z" fill="#39B93A"/>
</g>
<g filter="url(#filter1_b)">
<mask id="path-3-outside-1" maskUnits="userSpaceOnUse" x="0" y="10.1367" width="50" height="50" fill="black">
<rect fill="white" y="10.1367" width="50" height="50"/>
<path d="M35.3187 11.1367H14.5695C6.45652 11.1367 1 16.8326 1 25.3045V44.8571C1 53.3051 6.45652 59.001 14.5695 59.001H35.3187C43.4316 59.001 48.8642 53.3051 48.8642 44.8571V25.3045C48.8642 16.8326 43.4316 11.1367 35.3187 11.1367Z"/>
</mask>
<path d="M35.3187 11.1367H14.5695C6.45652 11.1367 1 16.8326 1 25.3045V44.8571C1 53.3051 6.45652 59.001 14.5695 59.001H35.3187C43.4316 59.001 48.8642 53.3051 48.8642 44.8571V25.3045C48.8642 16.8326 43.4316 11.1367 35.3187 11.1367Z" fill="#72DC60" fill-opacity="0.35"/>
<path d="M35.3187 11.7228C35.6423 11.7228 35.9048 11.4604 35.9048 11.1367C35.9048 10.813 35.6423 10.5506 35.3187 10.5506V11.7228ZM35.3187 10.5506C34.995 10.5506 34.7326 10.813 34.7326 11.1367C34.7326 11.4604 34.995 11.7228 35.3187 11.7228V10.5506ZM35.3187 10.5506H14.5695V11.7228H35.3187V10.5506ZM14.5695 10.5506C10.3707 10.5506 6.8195 12.0278 4.31913 14.6382C1.82086 17.2465 0.413907 20.9415 0.413907 25.3045H1.58609C1.58609 21.1956 2.9074 17.8067 5.16564 15.449C7.42178 13.0936 10.6553 11.7228 14.5695 11.7228V10.5506ZM0.413907 25.3045V44.8571H1.58609V25.3045H0.413907ZM0.413907 44.8571C0.413907 49.2086 1.82112 52.8976 4.31937 55.5027C6.81967 58.1099 10.3708 59.587 14.5695 59.587V58.4149C10.6553 58.4149 7.42161 57.0441 5.1654 54.6914C2.90714 52.3365 1.58609 48.9536 1.58609 44.8571H0.413907ZM14.5695 59.587H35.3187V58.4149H14.5695V59.587ZM35.3187 59.587C39.5175 59.587 43.0629 58.1098 45.5573 55.5022C48.0495 52.8968 49.4503 49.2078 49.4503 44.8571H48.2781C48.2781 48.9543 46.9626 52.3373 44.7103 54.6919C42.4602 57.0442 39.2328 58.4149 35.3187 58.4149V59.587ZM49.4503 44.8571V25.3045H48.2781V44.8571H49.4503ZM49.4503 25.3045C49.4503 20.9422 48.0498 17.2473 45.5576 14.6388C43.0631 12.0279 39.5176 10.5506 35.3187 10.5506V11.7228C39.2327 11.7228 42.46 13.0935 44.71 15.4485C46.9624 17.8059 48.2781 21.1949 48.2781 25.3045H49.4503Z" fill="url(#paint1_linear)" mask="url(#path-3-outside-1)"/>
</g>
<g filter="url(#filter2_bd)">
<mask id="path-5-inside-2" fill="white">
<path d="M22.0908 42.8405C21.5547 42.8405 21.0186 42.637 20.6094 42.2278L14.9303 36.5487C14.1118 35.7302 14.1118 34.4044 14.9303 33.5883C15.7487 32.7698 17.0722 32.7674 17.8907 33.5859L22.0908 37.786L31.9699 27.9068C32.7884 27.0883 34.1119 27.0883 34.9303 27.9068C35.7488 28.7253 35.7488 30.0511 34.9303 30.8696L23.5722 42.2278C23.1629 42.637 22.6268 42.8405 22.0908 42.8405Z"/>
</mask>
<path d="M22.0908 42.8405C21.5547 42.8405 21.0186 42.637 20.6094 42.2278L14.9303 36.5487C14.1118 35.7302 14.1118 34.4044 14.9303 33.5883C15.7487 32.7698 17.0722 32.7674 17.8907 33.5859L22.0908 37.786L31.9699 27.9068C32.7884 27.0883 34.1119 27.0883 34.9303 27.9068C35.7488 28.7253 35.7488 30.0511 34.9303 30.8696L23.5722 42.2278C23.1629 42.637 22.6268 42.8405 22.0908 42.8405Z" fill="url(#paint2_linear)"/>
<path d="M14.9303 33.5883L15.013 33.6713L15.0132 33.6712L14.9303 33.5883ZM22.0908 37.786L22.0079 37.8689L22.0908 37.9518L22.1736 37.8689L22.0908 37.786ZM34.9303 30.8696L34.8475 30.7867L34.9303 30.8696ZM23.5722 42.2278L23.655 42.3107L23.5722 42.2278ZM22.0908 42.7233C21.5843 42.7233 21.0785 42.5312 20.6922 42.1449L20.5265 42.3107C20.9587 42.7429 21.525 42.9577 22.0908 42.9577V42.7233ZM20.6922 42.1449L15.0132 36.4658L14.8474 36.6316L20.5265 42.3107L20.6922 42.1449ZM15.0132 36.4658C14.2404 35.6931 14.2406 34.4415 15.013 33.6713L14.8475 33.5053C13.983 34.3673 13.9832 35.7674 14.8474 36.6316L15.0132 36.4658ZM15.0132 33.6712C15.786 32.8983 17.0353 32.8963 17.8078 33.6688L17.9736 33.503C17.1091 32.6386 15.7115 32.6413 14.8474 33.5054L15.0132 33.6712ZM17.8078 33.6688L22.0079 37.8689L22.1736 37.7031L17.9736 33.503L17.8078 33.6688ZM22.1736 37.8689L32.0528 27.9897L31.887 27.8239L22.0079 37.7031L22.1736 37.8689ZM32.0528 27.9897C32.8255 27.217 34.0747 27.217 34.8475 27.9897L35.0132 27.8239C34.149 26.9597 32.7513 26.9597 31.887 27.8239L32.0528 27.9897ZM34.8475 27.9897C35.6202 28.7624 35.6202 30.014 34.8475 30.7867L35.0132 30.9525C35.8775 30.0883 35.8775 28.6882 35.0132 27.8239L34.8475 27.9897ZM34.8475 30.7867L23.4893 42.1449L23.655 42.3107L35.0132 30.9525L34.8475 30.7867ZM23.4893 42.1449C23.103 42.5312 22.5972 42.7233 22.0908 42.7233V42.9577C22.6565 42.9577 23.2228 42.7429 23.655 42.3107L23.4893 42.1449Z" fill="url(#paint3_linear)" fill-opacity="0.5" mask="url(#path-5-inside-2)"/>
</g>
<defs>
<filter id="filter0_f" x="16.951" y="1.17752" width="45.5101" height="47.5237" filterUnits="userSpaceOnUse" color-interpolation-filters="sRGB">
<feFlood flood-opacity="0" result="BackgroundImageFix"/>
<feBlend mode="normal" in="SourceGraphic" in2="BackgroundImageFix" result="shape"/>
<feGaussianBlur stdDeviation="4.10265" result="effect1_foregroundBlur"/>
</filter>
<filter id="filter1_b" x="-13.6522" y="-3.51544" width="77.1689" height="77.1689" filterUnits="userSpaceOnUse" color-interpolation-filters="sRGB">
<feFlood flood-opacity="0" result="BackgroundImageFix"/>
<feGaussianBlur in="BackgroundImage" stdDeviation="7.03311"/>
<feComposite in2="SourceAlpha" operator="in" result="effect1_backgroundBlur"/>
<feBlend mode="normal" in="SourceGraphic" in2="effect1_backgroundBlur" result="shape"/>
</filter>
<filter id="filter2_bd" x="5.52502" y="18.5016" width="38.8106" height="33.1303" filterUnits="userSpaceOnUse" color-interpolation-filters="sRGB">
<feFlood flood-opacity="0" result="BackgroundImageFix"/>
<feGaussianBlur in="BackgroundImage" stdDeviation="4.39569"/>
<feComposite in2="SourceAlpha" operator="in" result="effect1_backgroundBlur"/>
<feColorMatrix in="SourceAlpha" type="matrix" values="0 0 0 0 0 0 0 0 0 0 0 0 0 0 0 0 0 0 127 0"/>
<feOffset dx="2.93046" dy="2.93046"/>
<feGaussianBlur stdDeviation="2.93046"/>
<feColorMatrix type="matrix" values="0 0 0 0 0.454902 0 0 0 0 0.870588 0 0 0 0 0.376471 0 0 0 0.5 0"/>
<feBlend mode="normal" in2="effect1_backgroundBlur" result="effect2_dropShadow"/>
<feBlend mode="normal" in="SourceGraphic" in2="effect2_dropShadow" result="shape"/>
</filter>
<linearGradient id="paint0_linear" x1="63.1707" y1="9.69034" x2="26.4487" y2="32.1652" gradientUnits="userSpaceOnUse">
<stop stop-color="#9BF763"/>
<stop offset="1" stop-color="#26AB5B"/>
</linearGradient>
<linearGradient id="paint1_linear" x1="8.61921" y1="16.713" x2="39.1515" y2="54.5279" gradientUnits="userSpaceOnUse">
<stop stop-color="white" stop-opacity="0.25"/>
<stop offset="1" stop-color="white" stop-opacity="0"/>
</linearGradient>
<linearGradient id="paint2_linear" x1="34.0392" y1="30.1005" x2="10.4151" y2="31.1522" gradientUnits="userSpaceOnUse">
<stop stop-color="white"/>
<stop offset="1" stop-color="white" stop-opacity="0.2"/>
</linearGradient>
<linearGradient id="paint3_linear" x1="16.6031" y1="32.5084" x2="34.628" y2="32.6443" gradientUnits="userSpaceOnUse">
<stop stop-color="white"/>
<stop offset="1" stop-color="white" stop-opacity="0"/>
</linearGradient>
</defs>
</svg>
