<svg width="24" height="24" viewBox="0 0 24 24" fill="none" xmlns="http://www.w3.org/2000/svg">
<path fill-rule="evenodd" clip-rule="evenodd" d="M12.0001 1.52344C11.137 1.52344 10.3216 1.82946 9.05993 2.30296L8.92776 2.35255L8.05899 2.67834L7.89522 2.73971C6.3921 3.30287 5.42485 3.66525 4.72102 4.33681C4.25469 4.78176 3.88379 5.31696 3.63091 5.90984C3.24924 6.80464 3.24955 7.83755 3.25003 9.4427L3.25006 9.6176V10.9688V11.0562V11.0563C3.25001 12.5269 3.24998 13.3675 3.39533 14.1552C3.74091 16.028 4.68811 17.737 6.09314 19.0227C6.68408 19.5634 7.39688 20.0089 8.644 20.7883L8.71822 20.8347L8.79046 20.8798H8.79048C9.45928 21.298 9.88862 21.5664 10.3392 21.7346C11.4104 22.1343 12.5898 22.1343 13.6609 21.7346C14.1115 21.5664 14.5409 21.298 15.2097 20.8798L15.2819 20.8347L15.3561 20.7883H15.3562C16.6033 20.0089 17.3161 19.5634 17.907 19.0227C19.312 17.737 20.2592 16.028 20.6048 14.1552C20.7502 13.3675 20.7501 12.5269 20.7501 11.0563V11.0562V10.9688V9.6176V9.4427C20.7506 7.83755 20.7509 6.80464 20.3692 5.90984C20.1164 5.31696 19.7455 4.78176 19.2791 4.33681C18.5753 3.66525 17.6081 3.30287 16.1049 2.73971L15.9412 2.67834L15.0724 2.35255L14.9402 2.30296C13.6786 1.82946 12.8631 1.52344 12.0001 1.52344ZM16.0304 8.97114C16.3233 9.26404 16.3233 9.73891 16.0304 10.0318L11.5304 14.5318C11.2375 14.8247 10.7626 14.8247 10.4698 14.5318L8.46972 12.5318C8.17683 12.2389 8.17683 11.764 8.46972 11.4711C8.76262 11.1782 9.23749 11.1782 9.53038 11.4711L11.0001 12.9408L14.9698 8.97115C15.2626 8.67825 15.7375 8.67825 16.0304 8.97114Z" fill="#343A3F"/>
</svg>
