<svg width="16" height="16" viewBox="0 0 16 16" fill="none" xmlns="http://www.w3.org/2000/svg">
<path fill-rule="evenodd" clip-rule="evenodd" d="M7.99995 1.01562C7.42455 1.01562 6.88095 1.21964 6.03985 1.53531L5.95174 1.56837L5.37256 1.78556L5.26338 1.82647C4.2613 2.20191 3.61647 2.4435 3.14725 2.89121C2.83636 3.18784 2.58909 3.54464 2.42051 3.93989C2.16606 4.53643 2.16627 5.22503 2.16659 6.29513L2.16661 6.41173V7.31256V7.37082V7.37089C2.16657 8.35129 2.16655 8.91169 2.26345 9.43682C2.49384 10.6854 3.12531 11.8247 4.06199 12.6818C4.45595 13.0423 4.93115 13.3393 5.76257 13.8589L5.81205 13.8898L5.86021 13.9199H5.86022C6.30609 14.1987 6.59231 14.3776 6.89268 14.4898C7.60681 14.7562 8.39308 14.7562 9.10715 14.4898C9.40755 14.3776 9.69381 14.1987 10.1397 13.9199L10.1878 13.8898L10.2373 13.8589H10.2373C11.0687 13.3393 11.5439 13.0423 11.9379 12.6818C12.8745 11.8247 13.506 10.6854 13.7364 9.43682C13.8333 8.91169 13.8333 8.35129 13.8333 7.37089V7.37082V7.31256V6.41173V6.29513C13.8336 5.22503 13.8338 4.53643 13.5793 3.93989C13.4108 3.54464 13.1635 3.18784 12.8526 2.89121C12.3834 2.4435 11.7386 2.20191 10.7365 1.82647L10.6273 1.78556L10.0481 1.56837L9.96001 1.53531C9.11895 1.21964 8.57528 1.01562 7.99995 1.01562ZM10.6868 5.98076C10.8821 6.17603 10.8821 6.49261 10.6868 6.68789L7.68681 9.68789C7.49155 9.88316 7.17495 9.88316 6.97975 9.68789L5.64638 8.35456C5.45112 8.15929 5.45112 7.84269 5.64638 7.64742C5.84165 7.45216 6.15823 7.45216 6.35349 7.64742L7.33328 8.62722L9.97975 5.98077C10.1749 5.7855 10.4915 5.7855 10.6868 5.98076Z" fill="#A4133C"/>
</svg>
