<svg width="24" height="24" viewBox="0 0 24 24" fill="none" xmlns="http://www.w3.org/2000/svg">
<path fill-rule="evenodd" clip-rule="evenodd" d="M2.53035 1.46967C2.23746 1.17678 1.76259 1.17678 1.4697 1.46967C1.17681 1.76256 1.17681 2.23744 1.4697 2.53033L2.94062 4.00126C2.44819 4.50318 2.10161 4.89383 1.84921 5.34748C1.67194 5.66611 1.53193 6.0041 1.43197 6.35476C1.24965 6.99438 1.24979 7.67021 1.25001 8.71817L1.25003 8.82843V12V12.0564V12.0565C1.25001 13.8942 1.25 15.3498 1.40316 16.489C1.56079 17.6614 1.8929 18.6104 2.64126 19.3588C3.38963 20.1071 4.33858 20.4392 5.511 20.5969C6.6502 20.75 8.10579 20.75 9.9435 20.75H9.94361H10H16C17.0002 20.75 17.8757 20.216 18.3569 19.4176L21.4697 22.5303C21.7626 22.8232 22.2374 22.8232 22.5303 22.5303C22.8232 22.2374 22.8232 21.7626 22.5303 21.4697L18.5303 17.4697L4.53036 3.46967L2.53035 1.46967ZM3.16 6.07676C3.3182 5.7924 3.53761 5.53694 4.00192 5.06255L17.2187 18.2793C17.0918 18.8352 16.5943 19.25 16 19.25H10C8.0932 19.25 6.73853 19.2484 5.71087 19.1102C4.70478 18.975 4.12513 18.7213 3.70193 18.2981C3.27872 17.8749 3.02505 17.2952 2.88979 16.2892C2.75162 15.2615 2.75003 13.9068 2.75003 12V8.82843C2.75003 7.63241 2.75671 7.17926 2.87453 6.76595C2.94291 6.52602 3.0387 6.29477 3.16 6.07676ZM10 4.75C11.9068 4.75 13.2615 4.75159 14.2892 4.88976C15.2952 5.02502 15.8749 5.27869 16.2981 5.7019C16.7213 6.12511 16.975 6.70476 17.1102 7.71085C17.2484 8.73851 17.25 10.0932 17.25 12V13C17.25 13.4142 17.5858 13.75 18 13.75C18.4142 13.75 18.75 13.4142 18.75 13V12V11.9436V11.9435C18.75 10.9936 18.75 10.1457 18.7289 9.39084L19.25 8.99999C19.9685 8.46105 20.4399 8.11001 20.798 7.91536C20.9675 7.82327 21.0616 7.79411 21.1071 7.78582C21.1277 7.82715 21.1608 7.91994 21.1888 8.11076C21.248 8.51407 21.25 9.10177 21.25 9.99998V17C21.25 17.4142 21.5858 17.75 22 17.75C22.4142 17.75 22.75 17.4142 22.75 17V9.99998V9.9396C22.75 9.11852 22.7501 8.41863 22.673 7.89298C22.5947 7.35997 22.402 6.74438 21.7826 6.43469C21.1632 6.125 20.5551 6.34017 20.0818 6.59742C19.6658 6.82351 19.1758 7.18168 18.6092 7.60571C18.6052 7.57389 18.6011 7.54231 18.5969 7.51098C18.4392 6.33856 18.1071 5.38961 17.3588 4.64124C16.6104 3.89288 15.6614 3.56076 14.489 3.40313C13.3498 3.24997 11.8942 3.24998 10.0564 3.25H10H9.00002C8.58581 3.25 8.25002 3.58579 8.25002 4C8.25002 4.41421 8.58581 4.75 9.00002 4.75H10ZM21.1422 7.78416C21.1418 7.78482 21.137 7.7851 21.129 7.78299C21.1387 7.78244 21.1427 7.78349 21.1422 7.78416ZM21.0962 7.76657C21.0897 7.76145 21.087 7.75742 21.0873 7.75669C21.0876 7.75595 21.0908 7.75851 21.0962 7.76657Z" fill="#343A3F"/>
</svg>
