<svg width="23" height="24" viewBox="0 0 23 24" fill="none" xmlns="http://www.w3.org/2000/svg">
<path d="M2.375 3.25C2.58211 3.25 2.75 3.08211 2.75 2.875C2.75 2.66789 2.58211 2.5 2.375 2.5C2.16789 2.5 2 2.66789 2 2.875C2 3.08211 2.16789 3.25 2.375 3.25Z" fill="#343A3F"/>
<path d="M3.875 3.25C4.08211 3.25 4.25 3.08211 4.25 2.875C4.25 2.66789 4.08211 2.5 3.875 2.5C3.66789 2.5 3.5 2.66789 3.5 2.875C3.5 3.08211 3.66789 3.25 3.875 3.25Z" fill="#343A3F"/>
<path d="M5.375 3.25C5.58211 3.25 5.75 3.08211 5.75 2.875C5.75 2.66789 5.58211 2.5 5.375 2.5C5.16789 2.5 5 2.66789 5 2.875C5 3.08211 5.16789 3.25 5.375 3.25Z" fill="#343A3F"/>
<path d="M6.875 3.25009H11.9698L11.1099 4.10997C10.9632 4.25659 10.9632 4.49359 11.1099 4.64022C11.183 4.71334 11.279 4.75009 11.375 4.75009C11.471 4.75009 11.567 4.71334 11.6401 4.64022L13.1401 3.14022C13.2868 2.99359 13.2868 2.75659 13.1401 2.60997L11.6401 1.10997C11.4935 0.963344 11.2565 0.963344 11.1099 1.10997C10.9632 1.25659 10.9632 1.49359 11.1099 1.64022L11.9698 2.50009H6.875C6.668 2.50009 6.5 2.66772 6.5 2.87509C6.5 3.08247 6.668 3.25009 6.875 3.25009Z" fill="#343A3F"/>
<path d="M21.25 22.875C21.25 22.6679 21.0821 22.5 20.875 22.5C20.6679 22.5 20.5 22.6679 20.5 22.875C20.5 23.0821 20.6679 23.25 20.875 23.25C21.0821 23.25 21.25 23.0821 21.25 22.875Z" fill="#343A3F"/>
<path d="M21.25 21.375C21.25 21.1679 21.0821 21 20.875 21C20.6679 21 20.5 21.1679 20.5 21.375C20.5 21.5821 20.6679 21.75 20.875 21.75C21.0821 21.75 21.25 21.5821 21.25 21.375Z" fill="#343A3F"/>
<path d="M21.25 19.875C21.25 19.6679 21.0821 19.5 20.875 19.5C20.6679 19.5 20.5 19.6679 20.5 19.875C20.5 20.0821 20.6679 20.25 20.875 20.25C21.0821 20.25 21.25 20.0821 21.25 19.875Z" fill="#343A3F"/>
<path d="M21.2501 18.375V13.2802L22.11 14.1401C22.2566 14.2868 22.4936 14.2868 22.6402 14.1401C22.7133 14.067 22.7501 13.971 22.7501 13.875C22.7501 13.779 22.7133 13.683 22.6402 13.6099L21.1402 12.1099C20.9936 11.9632 20.7566 11.9632 20.61 12.1099L19.11 13.6099C18.9633 13.7565 18.9633 13.9935 19.11 14.1401C19.2566 14.2868 19.4936 14.2868 19.6402 14.1401L20.5001 13.2802V18.375C20.5001 18.582 20.6677 18.75 20.8751 18.75C21.0825 18.75 21.2501 18.582 21.2501 18.375Z" fill="#343A3F"/>
<path d="M12.0073 12.5461C11.3471 12.5461 10.7017 12.3541 10.1527 11.9945C9.60379 11.6348 9.17594 11.1236 8.92329 10.5256C8.67064 9.92751 8.60453 9.26941 8.73333 8.6345C8.86213 7.99959 9.18005 7.41639 9.64689 6.95865C10.1137 6.50091 10.7085 6.18918 11.356 6.06289C12.0036 5.9366 12.6747 6.00142 13.2847 6.24915C13.8946 6.49688 14.416 6.91639 14.7828 7.45464C15.1496 7.99289 15.3453 8.62569 15.3453 9.27304C15.3453 10.1411 14.9936 10.9736 14.3676 11.5874C13.7416 12.2012 12.8926 12.5461 12.0073 12.5461ZM12.0073 6.81826C11.5121 6.81826 11.0281 6.96223 10.6164 7.23197C10.2047 7.5017 9.88377 7.88508 9.69428 8.33364C9.50479 8.78219 9.45521 9.27576 9.55181 9.75194C9.64841 10.2281 9.88685 10.6655 10.237 11.0088C10.5871 11.3521 11.0332 11.5859 11.5188 11.6807C12.0045 11.7754 12.5079 11.7268 12.9653 11.541C13.4228 11.3552 13.8138 11.0405 14.0889 10.6368C14.364 10.2332 14.5108 9.75855 14.5108 9.27304C14.5108 8.62199 14.247 7.99761 13.7775 7.53725C13.308 7.07689 12.6712 6.81826 12.0073 6.81826Z" fill="#343A3F"/>
<path d="M14.9279 18.2772H9.08629C8.53297 18.2772 8.00232 18.0616 7.61106 17.678C7.21981 17.2944 7 16.774 7 16.2315V14.595C7.00001 14.524 7.01887 14.4542 7.05472 14.3925C7.09057 14.3308 7.14217 14.2793 7.20446 14.2431L9.29075 13.0157C9.38488 12.974 9.49144 12.968 9.58982 12.9989C9.6882 13.0298 9.7714 13.0954 9.82332 13.1829C9.87523 13.2705 9.89218 13.3738 9.87088 13.4729C9.84958 13.572 9.79155 13.6599 9.70801 13.7195L7.83452 14.8282V16.2315C7.83452 16.557 7.9664 16.8692 8.20115 17.0994C8.43591 17.3296 8.7543 17.4589 9.08629 17.4589H14.9279C15.2599 17.4589 15.5783 17.3296 15.8131 17.0994C16.0478 16.8692 16.1797 16.557 16.1797 16.2315V14.8282L14.2979 13.7195C14.2447 13.6959 14.1971 13.6616 14.1582 13.6189C14.1194 13.5762 14.0901 13.5259 14.0723 13.4714C14.0545 13.4169 14.0486 13.3593 14.0549 13.3024C14.0612 13.2455 14.0796 13.1905 14.109 13.141C14.1383 13.0915 14.1779 13.0486 14.2252 13.0151C14.2726 12.9815 14.3265 12.9581 14.3837 12.9463C14.4408 12.9345 14.4998 12.9346 14.5569 12.9465C14.614 12.9585 14.6679 12.9821 14.7151 13.0157L16.8014 14.2431C16.8652 14.2783 16.9185 14.3294 16.9559 14.3911C16.9932 14.4529 17.0133 14.5232 17.0142 14.595V16.2315C17.0142 16.774 16.7944 17.2944 16.4031 17.678C16.0119 18.0616 15.4812 18.2772 14.9279 18.2772Z" fill="#343A3F"/>
</svg>
