<svg width="24" height="24" viewBox="0 0 24 24" fill="none" xmlns="http://www.w3.org/2000/svg">
<path d="M16.6346 3.72008C17.507 3.89 18.1864 4.24352 18.8337 4.85864C19.4306 5.43248 19.8666 6.21296 20.032 7.02104C20.1191 7.448 20.1009 8.24216 19.9862 8.67392C19.605 10.1612 18.3837 11.3595 16.9055 11.6994C16.529 11.7865 15.9414 11.8371 15.7852 11.8004C15.652 11.7682 15.652 11.7728 15.7439 11.0475L15.767 10.8548H16.1481C17.5667 10.8548 18.7833 9.8768 19.0955 8.4812C19.2102 7.95776 19.169 7.18664 18.9945 6.67688C18.7374 5.90552 18.214 5.31344 17.4839 4.95512C16.5794 4.50968 15.5786 4.50056 14.697 4.92752L14.339 5.09744L14.0865 4.71632L13.834 4.3352L13.9396 4.27088C14.1278 4.1468 14.6512 3.92648 14.991 3.82544C15.3215 3.7292 16.3454 3.66488 16.6346 3.72008Z" fill="#343A3F"/>
<path d="M8.76103 3.76865C9.30751 3.88337 10.1429 4.24601 10.1201 4.35641C10.1156 4.37945 10.01 4.55849 9.88591 4.75121L9.66559 5.10017L9.30295 4.92569C8.41687 4.49873 7.41607 4.50785 6.51151 4.95329C5.78143 5.31137 5.25823 5.90369 5.00095 6.67505C4.83103 7.17545 4.78975 7.93769 4.89991 8.46545C5.12023 9.50753 5.81359 10.3019 6.82807 10.683C7.13551 10.7978 7.29175 10.8254 7.71415 10.8438L8.22823 10.8623L8.25607 11.1695C8.26975 11.3349 8.29279 11.5367 8.30647 11.6195C8.32495 11.7482 8.31559 11.771 8.20999 11.7986C8.04919 11.8398 7.46623 11.7849 7.06687 11.693C5.40967 11.321 4.08727 9.82433 3.92671 8.14385C3.75223 6.35345 4.82191 4.63625 6.53431 3.95225C7.18639 3.69521 8.07703 3.62177 8.76103 3.76865Z" fill="#343A3F"/>
<path d="M12.7323 4.76775C13.7285 4.97439 14.6009 5.52975 15.2482 6.37911C15.4685 6.66831 15.7395 7.20999 15.8818 7.63695C16.0011 7.99959 16.0105 8.08239 16.0105 8.76183C16.015 9.47799 16.0105 9.50559 15.859 9.95079C15.3173 11.5209 14.0134 12.586 12.3836 12.7881C10.6849 12.9947 8.87598 11.8698 8.23326 10.2033C8.00814 9.62031 7.94406 9.21159 7.97166 8.57799C7.9947 7.93983 8.12766 7.46247 8.42166 6.91143C9.27054 5.31879 11.0657 4.42815 12.7323 4.76775ZM11.0108 5.77335C10.0467 6.08103 9.35334 6.76959 9.02742 7.75215C8.91726 8.08263 8.90334 8.18367 8.90334 8.76207C8.9079 9.33135 8.92182 9.44607 9.02742 9.77199C9.28902 10.5616 9.84462 11.2089 10.5471 11.5441C11.0797 11.7966 11.3873 11.8655 11.9797 11.8701C12.8612 11.8746 13.5773 11.5991 14.1788 11.0298C14.5553 10.6717 14.7985 10.2861 14.9684 9.77199C15.0785 9.44607 15.0922 9.33591 15.0922 8.76207C15.0922 8.18823 15.0785 8.07807 14.9684 7.75215C14.6012 6.65031 13.7885 5.92503 12.6406 5.68167C12.1906 5.58951 11.4651 5.62647 11.0108 5.77335Z" fill="#343A3F"/>
<path d="M19.417 11.2857C21.7262 12.4197 23.3376 14.7842 23.7048 17.5708L23.76 17.975L23.5855 18.2229C23.388 18.5121 23.4432 18.4893 22.3963 18.7051C21.4277 18.9024 20.2476 19.0677 20.2063 19.0128C20.1833 18.976 20.1098 18.3976 20.1007 18.1773C20.1007 18.1543 20.3669 18.0993 20.6976 18.0532C21.0235 18.0074 21.6295 17.9064 22.0428 17.8284L22.7914 17.681L22.7638 17.4928C22.6306 16.6572 22.3644 15.785 22.0385 15.1375C21.3727 13.8153 20.3398 12.773 19.0726 12.1488L18.5309 11.8824L18.696 11.4602C18.7879 11.226 18.875 11.0378 18.8887 11.0378C18.9026 11.0378 19.1414 11.148 19.417 11.2857Z" fill="#343A3F"/>
<path d="M5.29924 11.4576L5.4646 11.8846L5.04676 12.0821C3.07732 13.0186 1.74124 14.8183 1.30036 17.137C1.2454 17.4216 1.20868 17.6604 1.2178 17.6695C1.24996 17.7017 2.6962 17.9678 3.25156 18.0415C3.57748 18.0874 3.86212 18.1334 3.8806 18.1471C3.89908 18.1608 3.88516 18.372 3.85756 18.6108L3.80236 19.0469L3.64156 19.0332C3.0814 18.9826 1.33228 18.6706 0.74452 18.5189C0.62044 18.4822 0.537879 18.4133 0.40924 18.2251L0.23932 17.9818L0.294279 17.5502C0.363159 16.9625 0.606519 16.026 0.835959 15.443C1.56676 13.6063 2.88916 12.1234 4.5142 11.3107C5.1754 10.98 5.10652 10.9709 5.29924 11.4576Z" fill="#343A3F"/>
<path d="M15.3035 12.2588C16.0518 12.6169 16.5935 13.0117 17.2823 13.6959C17.9617 14.3799 18.3887 14.9631 18.788 15.7618C19.2702 16.7168 19.5136 17.5616 19.6832 18.8149C19.7063 18.9939 19.6924 19.0261 19.3573 19.4806C19.3343 19.5173 18.3932 19.7149 17.6219 19.8524C15.9599 20.1416 14.6192 20.2611 12.6407 20.2976C10.065 20.3434 7.92563 20.1689 5.75411 19.7329C4.61555 19.5077 4.65683 19.5217 4.45931 19.237L4.29395 18.9937L4.33523 18.631C4.50059 17.3043 4.98707 15.9913 5.74019 14.8479C6.18563 14.1776 7.12667 13.2226 7.76939 12.7911C8.16875 12.5201 9.13283 12.0152 9.16955 12.0519C9.19715 12.0795 9.51851 12.8873 9.50459 12.8967C9.50003 12.9013 9.27971 13.0069 9.01331 13.1355C7.72787 13.7552 6.69491 14.7929 6.02915 16.1242C5.74907 16.6844 5.51027 17.3729 5.39099 17.9561C5.26715 18.5804 5.25323 18.6586 5.29907 18.686C5.32211 18.6997 5.65259 18.7688 6.02915 18.8468C9.29339 19.4849 13.1636 19.5675 16.6804 19.0671C17.4517 18.9569 18.6592 18.7227 18.705 18.6723C18.7463 18.6219 18.6316 17.9837 18.4892 17.4879C17.9336 15.5091 16.6849 13.9621 14.9816 13.1355C14.7155 13.0069 14.4949 12.9013 14.4904 12.8967C14.4673 12.883 14.8163 12.0473 14.8393 12.0473C14.8535 12.0473 15.0647 12.1438 15.3035 12.2588Z" fill="#343A3F"/>
</svg>
