<svg width="48" height="48" viewBox="0 0 48 48" fill="none" xmlns="http://www.w3.org/2000/svg">
<g id="Group 3842">
<circle id="Ellipse 199" cx="24" cy="24" r="24" fill="url(#paint0_linear_23227_12022)"/>
<g id="Group 3223">
<path id="Vector" d="M36.9477 13.2312C36.8904 13.2842 36.8629 13.2842 36.6895 13.2508L36.6151 13.2378C36.6119 13.2501 36.6079 13.2622 36.6032 13.2741C36.7475 13.3089 36.842 13.3779 36.842 13.4498C36.842 13.5216 36.3211 13.9144 35.2093 14.6644C33.5833 15.7534 32.8213 16.2805 32.3383 16.6319C32.0629 16.8337 31.8174 17 31.7876 17C31.7774 16.999 31.7677 16.9955 31.7593 16.9898L30.8864 16.764C30.8232 16.7597 30.7569 16.6849 30.6557 16.5143C30.2308 15.781 28.1047 11.6398 28.0199 11.3712C28.0154 11.3489 28.0155 11.326 28.0202 11.3038C28.025 11.2817 28.0342 11.2606 28.0474 11.2419C28.0853 11.1911 28.1032 11.1839 28.2431 11.2078C28.2424 11.1955 28.2424 11.1831 28.2431 11.1708C28.1692 11.1598 28.0994 11.1308 28.0399 11.0866C27.9856 11.027 27.9856 11.014 28.0466 10.9007C28.0838 10.8339 28.4076 10.492 28.761 10.1471C29.0494 9.874 29.3227 9.58609 29.5796 9.2846C29.6414 9.19372 29.7095 9.10712 29.7835 9.02541C29.858 8.97241 29.9532 9.02541 30.0284 9.15174C30.0478 9.18496 30.065 9.2194 30.0797 9.25483C30.1041 9.24831 30.129 9.2437 30.1541 9.24104C30.1281 9.14448 30.1363 9.11326 30.1668 9.0726C30.1781 9.05388 30.1934 9.03772 30.2116 9.0252C30.2298 9.01268 30.2506 9.00409 30.2725 9C30.3893 9 32.3137 9.43561 32.8027 9.56629L33.6547 9.7478C33.9435 9.80152 35.8486 10.256 35.92 10.2923C36.0071 10.333 35.9996 10.4375 35.8932 10.6038C35.9007 10.6123 35.9077 10.6213 35.914 10.6306C35.9267 10.6408 35.9386 10.6517 35.9498 10.6633C35.962 10.67 35.9737 10.6775 35.9847 10.6858C36.1946 10.5145 36.2192 10.5864 36.2772 10.7867C36.3077 10.8898 36.4781 11.4336 36.6582 12.0014C36.8383 12.5691 36.9916 13.0599 36.9983 13.0962C37.0021 13.121 36.9995 13.1464 36.9906 13.17C36.9818 13.1936 36.967 13.2146 36.9477 13.2312Z" fill="white"/>
<path id="Vector_2" d="M18.1523 15.0165C15.8043 15.2002 13.9608 15.8909 12.2757 17.2177C11.5685 17.7725 10.5899 18.8116 9.99398 19.6465C8.22818 22.0974 7.60477 25.2474 8.2457 28.4513C8.67096 30.5606 9.70514 32.4339 11.2941 33.9671C13.0531 35.6597 15.1047 36.6237 17.6128 36.9402C18.2743 37.0199 19.6705 37.0199 20.2603 36.9402C22.0719 36.6867 23.7889 35.9831 25.7742 34.6745C26.4776 34.21 26.6727 34.043 26.7771 33.8176C26.9196 33.5018 26.8709 33.429 26.3961 33.221C26.2676 33.1685 26.142 33.1094 26.0196 33.0441C26.1156 33.0653 26.2091 33.0966 26.2985 33.1375C27.0742 33.418 27.8814 33.603 28.7022 33.6886C29.3771 33.7371 30.0546 33.7371 30.7294 33.6886C32.8559 33.4963 34.8465 32.5641 36.3515 31.0555C37.8422 29.5708 38.6919 27.8015 38.9503 25.6436C39.0166 24.869 39.0166 24.0903 38.9503 23.3157C38.7613 21.6655 38.1041 20.1032 37.0557 18.8116C36.5367 18.1695 35.5787 17.2936 34.8821 16.8199L34.6832 16.6848L34.4462 16.7607C34.1536 16.8541 33.8259 17.0454 33.4707 17.3262C33.0531 17.6556 32.8336 17.8742 32.8336 17.9607C32.8336 18.0162 32.935 18.1027 33.2756 18.3251C35.3935 19.7133 36.5466 21.3923 36.7882 23.4219C37.1296 26.2804 35.9659 28.8756 33.6704 30.3671C31.2774 31.9284 28.3722 32.0217 26.0455 30.6168C25.1894 30.0946 24.4526 29.3996 23.8826 28.5765C22.6892 26.8072 22.3173 24.0702 22.994 22.0337C23.2272 21.3293 23.7043 20.4625 24.1471 19.935C24.4047 19.6261 24.4192 19.5919 24.3247 19.4909C24.1578 19.3103 22.837 18.53 22.7014 18.53C22.5657 18.53 21.8135 19.6686 21.357 20.5794C20.895 21.4747 20.6033 22.4475 20.4966 23.4485C20.441 23.976 20.476 25.4296 20.5522 25.9184C20.8167 27.608 21.3905 28.9363 22.4194 30.2547C22.9666 30.9553 23.8438 31.7728 24.5373 32.2221C24.8421 32.4202 24.9031 32.4756 24.8055 32.4756C24.6179 32.5628 24.4364 32.6625 24.2622 32.7739C22.8233 33.6347 21.4858 34.2244 20.5278 34.418C19.9635 34.5085 19.3922 34.5491 18.8207 34.5394C18.096 34.4946 17.9428 34.4802 17.6227 34.4316C15.8881 34.1645 14.3456 33.3872 13.0279 32.128C12.2613 31.3925 11.791 30.7579 11.3513 29.8661C10.9528 29.0365 10.6896 28.1489 10.5717 27.2368C10.5023 26.7268 10.5122 25.2383 10.5892 24.7389C10.7065 23.8991 10.9619 23.0844 11.3452 22.3274C11.7698 21.4574 12.3347 20.6626 13.0173 19.9744C14.2953 18.656 15.7791 17.8788 17.58 17.5911C18.2072 17.4901 19.5516 17.4628 20.1994 17.5387C21.7801 17.7043 23.2778 18.3264 24.5083 19.3285C26.3689 20.8238 27.3919 22.7839 27.5773 25.2087C27.6749 26.4922 27.354 28.0983 26.6163 30.0376C26.4281 30.5409 26.4105 30.6449 26.5256 30.6896C27.6162 31.1132 27.9256 31.2134 28.3227 31.2619C28.5513 31.29 28.6153 31.2862 28.6778 31.2445C28.7685 31.1853 29.1198 30.4855 29.3812 29.8395C29.6901 29.0686 29.911 28.2656 30.0397 27.4456C30.0923 27.1192 30.1022 26.8383 30.1022 25.9192C30.0984 24.9271 30.0885 24.7328 30.0222 24.2888C29.6495 21.8948 28.6877 19.9729 27.0058 18.259C25.1005 16.3159 22.7943 15.2616 19.938 15.0294C19.3434 14.9951 18.7474 14.9908 18.1523 15.0165ZM25.24 32.6707C25.24 32.6775 25.2087 32.6707 25.1706 32.6502C25.1325 32.6297 25.1012 32.6054 25.1012 32.5948C25.1012 32.5842 25.1325 32.5948 25.1706 32.6153C25.2087 32.6358 25.2407 32.6608 25.2407 32.6707H25.24Z" fill="white"/>
<path id="Vector_3" d="M28.6171 15.0376C27.4967 15.1937 26.1894 15.622 25.2635 16.1364C25.0214 16.27 24.9662 16.3426 25.0176 16.457C25.0592 16.5405 25.5608 17.0181 26.138 17.5258C26.7878 18.0944 26.7016 18.0559 26.9989 17.8998C27.7184 17.5258 28.5551 17.3387 29.537 17.3387C29.8139 17.3387 29.9032 17.327 29.9448 17.2778C29.9727 17.251 29.9921 17.215 30 17.1751C29.9962 17.0223 29.1081 15.0225 29.0317 15C28.8928 15.0018 28.7543 15.0144 28.6171 15.0376Z" fill="white"/>
</g>
</g>
<defs>
<linearGradient id="paint0_linear_23227_12022" x1="0" y1="0" x2="55.536" y2="8.94815" gradientUnits="userSpaceOnUse">
<stop stop-color="#C9184A"/>
<stop offset="1" stop-color="#EB5B84"/>
</linearGradient>
</defs>
</svg>
