<svg width="24" height="24" viewBox="0 0 24 24" fill="none" xmlns="http://www.w3.org/2000/svg">
<path d="M8.11 19.4484C7.00432 19.0412 6.02036 18.3594 5.25066 17.4673C4.48096 16.5751 3.95079 15.5019 3.71 14.3484L2.05 6.53842C1.81 5.45842 2.5 4.39842 3.58 4.16842L13.35 2.09842L13.38 2.08842C14.45 1.87842 15.5 2.56842 15.72 3.62842L16.07 5.29842L20.42 6.22842H20.45C21.5 6.46842 22.18 7.52842 21.96 8.58842L20.3 16.4084C20.1084 17.3067 19.7417 18.1585 19.2209 18.9151C18.7 19.6716 18.0352 20.3182 17.2645 20.8178C16.4937 21.3174 15.6321 21.6602 14.7288 21.8268C13.8255 21.9933 12.8983 21.9803 12 21.7884C10.4762 21.4704 9.105 20.6456 8.11 19.4484ZM20 8.17842L10.23 6.09842L8.57 13.9184V13.9484C8 16.6284 9.73 19.2684 12.42 19.8384C15.11 20.4084 17.77 18.6884 18.34 15.9984L20 8.17842ZM16 16.4984C15.6841 17.0332 15.208 17.4552 14.6392 17.7046C14.0703 17.9541 13.4374 18.0184 12.83 17.8884C12.2245 17.7588 11.6745 17.4435 11.2568 16.9864C10.8392 16.5292 10.5746 15.9531 10.5 15.3384L16 16.4984ZM8.47 5.16842L4 6.12842L5.66 13.9384L5.67 13.9684C5.82 14.6784 6.12 15.3184 6.53 15.8684C6.43 15.0984 6.45 14.2984 6.62 13.4984L7.05 11.4984C6.6 11.4184 6.21 11.1684 6 10.8084C6.06 10.1984 6.56 9.65842 7.25 9.49842H7.5L8.28 5.68842C8.32 5.49842 8.38 5.32842 8.47 5.16842ZM15.03 12.2284C15.35 11.6984 16.03 11.4184 16.72 11.5684C17.41 11.7084 17.91 12.2384 18 12.8584C17.67 13.3784 17 13.6584 16.3 13.4984C15.61 13.3684 15.11 12.8384 15.03 12.2284ZM10.15 11.1884C10.47 10.6584 11.14 10.3784 11.83 10.5284C12.5 10.6684 13.03 11.2084 13.11 11.8184C12.78 12.3384 12.11 12.6284 11.42 12.4984C10.73 12.3284 10.23 11.7984 10.15 11.1884ZM11.97 4.42842L13.93 4.84842L13.77 4.04842L11.97 4.42842Z" fill="black"/>
</svg>
