<svg width="24" height="24" viewBox="0 0 24 24" fill="none" xmlns="http://www.w3.org/2000/svg">
<path d="M20.1939 13.4037H18.942C18.7431 13.4037 18.582 13.5647 18.582 13.7637V14.7863L12.3118 3.92609C12.3104 3.92345 12.308 3.92153 12.3063 3.91889C12.2912 3.89441 12.2744 3.87113 12.2542 3.85097C12.254 3.85073 12.2535 3.85049 12.2532 3.85025C12.2336 3.83081 12.2112 3.81449 12.1875 3.80009C12.1808 3.79601 12.1738 3.79265 12.1668 3.78881C12.1481 3.77897 12.1284 3.77081 12.108 3.76433C12.1006 3.76193 12.0934 3.75929 12.0857 3.75737C12.0581 3.75065 12.0298 3.74609 12 3.74609C11.9988 3.74609 11.9974 3.74609 11.996 3.74609C11.9928 3.74609 11.99 3.74729 11.9868 3.74753C11.9607 3.74849 11.9355 3.75233 11.9112 3.75857C11.9033 3.76049 11.8959 3.76313 11.8882 3.76577C11.8671 3.77273 11.8472 3.78137 11.828 3.79193C11.8217 3.79529 11.8155 3.79817 11.8092 3.80201C11.7852 3.81713 11.7627 3.83441 11.743 3.85457C11.7404 3.85721 11.7382 3.86057 11.7356 3.86345C11.7185 3.88193 11.7039 3.90209 11.6912 3.92393C11.6892 3.92729 11.6861 3.92969 11.6842 3.93329L9.41859 8.06993C9.32307 8.24441 9.38691 8.46305 9.56139 8.55857C9.73635 8.65433 9.95475 8.59025 10.05 8.41577L11.64 5.51297V6.49433C11.64 6.69329 11.8011 6.85433 12 6.85433C12.199 6.85433 12.36 6.69329 12.36 6.49433V5.44961L18.5818 16.2263V17.3476H14.0784V11.6491C14.0784 11.4501 13.9174 11.2891 13.7184 11.2891H12.36V9.07913C12.36 8.88017 12.199 8.71913 12 8.71913C11.8011 8.71913 11.64 8.88017 11.64 9.07913V11.2891H10.2816C10.0827 11.2891 9.92163 11.4501 9.92163 11.6491V17.3476H5.75931V15.6357L8.82051 10.3331C8.92011 10.1611 8.86083 9.94073 8.68875 9.84137C8.51667 9.74178 8.29659 9.80129 8.19699 9.97313L5.75931 14.1957V13.7637C5.75931 13.5647 5.59827 13.4037 5.39931 13.4037H4.14723C3.94827 13.4037 3.78723 13.5647 3.78723 13.7637V19.0099C3.78723 19.2088 3.94827 19.3699 4.14723 19.3699H5.39907C5.59803 19.3699 5.75907 19.2088 5.75907 19.0099V18.0676H10.2816C10.4806 18.0676 10.6416 17.9066 10.6416 17.7076V12.0091H13.3584V17.7076C13.3584 17.9066 13.5195 18.0676 13.7184 18.0676H18.5818V19.0099C18.5818 19.2088 18.7428 19.3699 18.9418 19.3699H20.1936C20.3926 19.3699 20.5536 19.2088 20.5536 19.0099V13.7637C20.5539 13.5647 20.3926 13.4037 20.1939 13.4037ZM5.03931 18.6499H4.50723V14.1237H5.03907V15.539V17.7074V18.6499H5.03931ZM19.8339 18.6499H19.302V17.7076V16.1299V14.1237H19.8339V18.6499Z" fill="#121619"/>
</svg>
