<svg width="24" height="24" viewBox="0 0 24 24" fill="none" xmlns="http://www.w3.org/2000/svg">
<g clip-path="url(#clip0_23025_11163)">
<path d="M6.6611 6.43773C6.61858 6.21843 6.49982 6.02125 6.32586 5.88113C6.15189 5.741 5.93395 5.66696 5.71062 5.67213C5.28258 5.67213 4.8462 5.9021 4.53985 6.29013C4.45945 6.39199 4.37749 6.49215 4.29688 6.58787C4.0879 6.83539 3.8096 7.01469 3.49782 7.10267C3.37812 7.13683 3.2615 7.18099 3.14919 7.23467C3.03343 7.28934 2.93972 7.38179 2.88348 7.49679C2.82725 7.6118 2.81182 7.74252 2.83975 7.86746C2.86768 7.99239 2.9373 8.10411 3.03716 8.18422C3.13702 8.26433 3.26117 8.30807 3.38919 8.30825H3.39759C3.51208 8.30662 3.6366 8.30733 3.76768 8.3105C3.79479 8.31107 3.82147 8.31142 3.8478 8.31142C4.21007 8.31904 4.56964 8.2475 4.9014 8.10178L5.88533 9.05203C5.93102 9.09725 5.95746 9.15838 5.9591 9.22264C5.96075 9.28689 5.93747 9.3493 5.89415 9.39679L5.88314 9.40978C5.79024 9.51821 5.72187 9.64545 5.68272 9.78277C5.64358 9.92009 5.63458 10.0643 5.65634 10.2054C5.68479 10.3531 5.7431 10.4935 5.82768 10.618C5.91227 10.7424 6.02136 10.8483 6.14827 10.9291C6.37474 11.0548 6.62663 11.1278 6.88521 11.1428C7.07524 11.1423 7.26329 11.1041 7.43844 11.0304C7.61359 10.9567 7.77235 10.8489 7.9055 10.7133C8.02941 10.5861 8.12689 10.4356 8.19231 10.2705C8.25774 10.1054 8.28981 9.92892 8.28667 9.75135C8.27962 9.48651 8.18122 9.08938 7.7526 8.69959L6.29503 7.40274C6.44295 7.29463 6.55629 7.14588 6.62128 6.97456C6.68627 6.80325 6.7001 6.61675 6.6611 6.43773ZM3.77905 7.82189C3.68834 7.81978 3.43154 7.819 3.39081 7.81949C3.37344 7.8216 3.35593 7.81681 3.34205 7.80614C3.32818 7.79548 3.31905 7.77979 3.31662 7.76246C3.31122 7.74534 3.31261 7.72681 3.32049 7.71069C3.32838 7.69457 3.34215 7.68209 3.35897 7.67585C3.44666 7.63397 3.53768 7.59948 3.63109 7.57272C4.03644 7.45823 4.39823 7.22502 4.66987 6.90312C4.75415 6.80338 4.83928 6.69898 4.923 6.59295C5.14006 6.31801 5.43865 6.1553 5.72128 6.16102C5.83028 6.15807 5.93672 6.1943 6.02129 6.26312C6.10587 6.33195 6.16296 6.42881 6.18223 6.53613C6.20716 6.64378 6.19269 6.75681 6.14143 6.8547C6.09017 6.9526 6.00552 7.02888 5.90284 7.0697C5.84958 7.09332 5.79505 7.11394 5.7395 7.13147C5.43399 7.23074 5.14441 7.37361 4.87973 7.55563C4.69013 7.68446 4.34403 7.83502 3.77905 7.82189ZM7.79806 9.76476C7.80031 9.99034 7.7139 10.2078 7.55743 10.3703C7.26096 10.6706 6.72766 10.7048 6.40917 10.5161C6.33819 10.4757 6.2771 10.42 6.23035 10.353C6.18359 10.286 6.15235 10.2095 6.13888 10.1289C6.12843 10.0565 6.13374 9.98267 6.15445 9.91249C6.17516 9.8423 6.21079 9.77742 6.25888 9.72227L6.26594 9.71366C6.38907 9.57114 6.45333 9.3871 6.44566 9.19891C6.43799 9.01073 6.35897 8.83253 6.22465 8.70051L5.33806 7.8442C5.48768 7.75633 5.64519 7.68264 5.80853 7.6241L7.42592 9.06255C7.66592 9.28137 7.79129 9.51756 7.79806 9.76476Z" fill="#121619"/>
<path d="M1.99393 22.8911C2.01856 22.9541 2.04602 23.0165 2.0756 23.077C2.17153 23.2741 2.32084 23.4403 2.50655 23.5568C2.69226 23.6733 2.90693 23.7354 3.12616 23.736C3.23401 23.736 3.34132 23.7209 3.44501 23.6912C4.59023 23.3639 5.64531 22.5876 6.32875 21.9941C6.53418 21.8148 6.67105 21.5698 6.71602 21.3009C6.761 21.0319 6.71129 20.7557 6.57538 20.5193C6.51411 20.4127 6.4248 20.3248 6.31714 20.2653C6.20947 20.2058 6.08757 20.1769 5.96465 20.1818C5.65046 19.4318 5.15289 17.9832 5.20555 16.4419C5.27374 16.2631 5.36811 16.0955 5.48557 15.9444C5.60824 15.7896 5.76909 15.6693 5.95231 15.5954C6.13554 15.5215 6.33484 15.4965 6.53063 15.523C6.73 15.5476 6.91953 15.6236 7.08059 15.7437C7.24166 15.8637 7.36871 16.0236 7.44926 16.2077C7.44926 16.2077 7.95354 17.2755 9.05987 17.2684C9.30748 17.2656 9.55352 17.2287 9.7911 17.1589C9.84203 17.1442 9.8868 17.1134 9.91867 17.071C9.95054 17.0287 9.96777 16.9771 9.96777 16.9241C9.96777 16.8711 9.95054 16.8195 9.91867 16.7772C9.8868 16.7348 9.84203 16.704 9.7911 16.6893C9.55546 16.6032 9.34848 16.4532 9.19343 16.256C9.03837 16.0588 8.94137 15.8223 8.91333 15.573C8.90736 15.5227 8.89884 15.4728 8.88778 15.4234C9.02719 15.1481 9.26387 14.8946 9.59416 14.6693C9.66474 14.6212 9.74239 14.5767 9.81658 14.5358C10.103 14.3775 11.494 13.4815 10.7547 11.3959C10.6535 11.1157 10.6512 10.8093 10.7481 10.5276C10.7715 10.462 10.8005 10.3985 10.8348 10.3379L12.1646 9.55824L16.7876 6.93398C16.9993 6.81377 17.1846 6.65203 17.3323 6.45846C17.48 6.26489 17.587 6.04348 17.6471 5.80752C17.7071 5.57156 17.7188 5.3259 17.6816 5.08528C17.6444 4.84467 17.5589 4.61406 17.4304 4.40728L17.4117 4.37707L19.5913 3.31556C19.6496 3.28719 19.6942 3.23684 19.7153 3.17558C19.7365 3.11432 19.7324 3.04717 19.704 2.98891C19.6757 2.93065 19.6253 2.88605 19.5641 2.86492C19.5028 2.84378 19.4357 2.84785 19.3774 2.87622L16.9542 4.05653L14.4947 5.25434C14.2863 5.35567 14.0547 5.39974 13.8236 5.38203C13.5925 5.36432 13.3703 5.28545 13.1798 5.15354C13.1078 5.10377 13.0323 5.05923 12.9539 5.02027L21.4419 0.77756C21.4681 0.764428 21.4968 0.756694 21.526 0.754813C21.5553 0.752933 21.5847 0.756945 21.6124 0.766612C21.6401 0.77628 21.6656 0.791407 21.6874 0.811098C21.7092 0.830789 21.7267 0.854645 21.7391 0.881255L22.4957 2.50556C22.5202 2.55722 22.5234 2.61643 22.5047 2.67044C22.486 2.72445 22.4468 2.76894 22.3955 2.79434L18.2117 4.85001C18.1829 4.86416 18.1572 4.88384 18.136 4.90794C18.1148 4.93204 18.0985 4.96007 18.0882 4.99045C18.0778 5.02082 18.0735 5.05294 18.0756 5.08497C18.0776 5.117 18.086 5.14831 18.1001 5.17711C18.1143 5.20592 18.1339 5.23166 18.158 5.25285C18.1821 5.27405 18.2102 5.2903 18.2405 5.30066C18.2709 5.31102 18.303 5.3153 18.3351 5.31325C18.3671 5.3112 18.3984 5.30286 18.4272 5.28871L22.6122 3.23248C22.7782 3.15095 22.9056 3.00738 22.9667 2.83277C23.0278 2.65816 23.0178 2.46652 22.9388 2.29923L22.1821 0.674925C22.1422 0.589101 22.0854 0.512159 22.0152 0.448647C21.945 0.385135 21.8628 0.336343 21.7734 0.305156C21.6841 0.273969 21.5893 0.26102 21.4949 0.267075C21.4004 0.27313 21.3081 0.298065 21.2234 0.340407L12.2329 4.83455C11.9052 4.82103 11.5801 4.8978 11.2931 5.05648L10.2407 5.6353C10.2279 5.63304 9.56211 5.50076 8.89498 6.22718C8.77181 6.36635 8.61831 6.47535 8.44632 6.54575C8.40037 6.56791 8.35096 6.59184 8.29717 6.61902C7.9246 6.80756 7.57011 7.03718 7.55557 7.04685C7.50386 7.08049 7.46679 7.13243 7.45178 7.19227C7.43678 7.2521 7.44496 7.31539 7.47467 7.36944C7.9426 8.22024 8.60818 8.4769 9.19364 8.4769C9.53143 8.47624 9.86423 8.39536 10.1646 8.24093C10.3177 8.17476 10.4773 8.12507 10.6408 8.09269C10.6891 8.23123 10.687 8.38233 10.6349 8.51948C10.5829 8.65664 10.4842 8.77107 10.3562 8.84269L9.04046 9.57942C9.01246 9.59509 8.98782 9.61612 8.96795 9.64132C8.94808 9.66651 8.93337 9.69537 8.92465 9.72625C8.91593 9.75713 8.91338 9.78942 8.91714 9.82129C8.92091 9.85315 8.93091 9.88396 8.94658 9.91196C8.96225 9.93996 8.98328 9.9646 9.00847 9.98447C9.03367 10.0043 9.06253 10.0191 9.09341 10.0278C9.12429 10.0365 9.15658 10.039 9.18844 10.0353C9.22031 10.0315 9.25112 10.0215 9.27912 10.0058L10.5947 9.26933C10.8097 9.14924 10.9787 8.96115 11.0751 8.73461C11.1716 8.50807 11.19 8.2559 11.1276 8.01773C11.2214 7.98379 11.3039 7.92452 11.366 7.8465C11.4281 7.76848 11.4673 7.67476 11.4794 7.57577C11.4841 7.53877 11.4852 7.50139 11.4826 7.46417C11.6782 7.46777 11.8672 7.53519 12.0209 7.65615C12.1746 7.77712 12.2846 7.94501 12.3341 8.13425C12.3836 8.3235 12.3698 8.52373 12.295 8.70445C12.2202 8.88517 12.0883 9.03649 11.9195 9.13535L7.69484 11.6124C7.46771 11.7479 7.22364 11.8527 6.96898 11.9241C6.42319 12.0723 5.93952 12.0339 5.52651 11.8111C5.52411 11.8096 5.5215 11.8084 5.5191 11.8069C5.4297 11.7581 5.34468 11.7017 5.26498 11.6383C5.10207 11.5091 4.96622 11.349 4.86519 11.1672C4.76415 10.9854 4.69991 10.7856 4.67614 10.579C4.65794 10.4241 4.66177 10.2674 4.6875 10.1136C4.75448 9.73219 4.94698 9.38414 5.23442 9.12469C5.28226 9.08099 5.31078 9.02007 5.31371 8.95533C5.31663 8.8906 5.29372 8.82736 5.25002 8.77951C5.20631 8.73167 5.14539 8.70315 5.08066 8.70023C5.01593 8.6973 4.95268 8.72021 4.90484 8.76392C4.66908 8.97927 4.48145 9.24199 4.35425 9.53488C3.44134 10.2974 2.24395 11.7893 1.56701 13.7422C0.652115 16.3798 0.833386 19.2223 2.10348 22.1925C2.02511 22.2889 1.97368 22.4043 1.95443 22.527C1.93519 22.6497 1.94882 22.7754 1.99393 22.8911ZM6.15157 20.7632C6.23108 20.9013 6.26023 21.0627 6.23404 21.2199C6.20786 21.3771 6.12797 21.5203 6.00799 21.6252C5.36218 22.1865 4.36978 22.9186 3.31054 23.2213C3.15676 23.2644 2.99271 23.2521 2.84714 23.1864C2.70157 23.1207 2.58377 23.0059 2.51437 22.862C2.49073 22.8137 2.4687 22.7635 2.44887 22.7129C2.4305 22.6618 2.43136 22.6059 2.45127 22.5554C2.47119 22.505 2.50881 22.4635 2.55708 22.4388L5.90296 20.6909C5.94569 20.6684 5.99548 20.6633 6.04184 20.6768C6.0882 20.6903 6.12752 20.7213 6.1515 20.7632H6.15157ZM9.01406 16.7794C8.287 16.7794 7.89602 16.0105 7.89602 16.0105C7.78186 15.7493 7.60168 15.5223 7.37319 15.3519C7.14471 15.1814 6.87579 15.0734 6.59289 15.0384C6.36837 15.0083 6.14004 15.0255 5.92254 15.0888C5.70505 15.1521 5.50319 15.2602 5.32992 15.4061C5.45955 14.7832 5.71199 14.1923 6.07251 13.668C6.27665 14.0813 6.70632 14.2454 6.96425 14.2738C8.26682 14.4509 8.42169 15.5818 8.42832 15.6355C8.48144 16.0743 8.68909 16.4798 9.01406 16.7794ZM8.97171 11.4302C9.29465 11.6657 9.61357 12.0348 9.48905 12.5333C9.42574 12.7688 9.28376 12.9756 9.0867 13.1192L8.79298 13.3397C8.53076 13.5279 8.30811 13.7657 8.13771 14.0398C8.10842 14.088 8.08293 14.1355 8.05929 14.1826C7.75082 13.9679 7.3943 13.8325 7.02115 13.7882C6.96467 13.7811 6.47846 13.7069 6.44938 13.1935C6.8146 12.7934 7.23687 12.4494 7.70253 12.1726C7.67006 12.4562 7.74068 12.7421 7.90152 12.978C7.94042 13.0356 7.98298 13.0949 8.02787 13.154C8.04728 13.1796 8.07152 13.2011 8.09923 13.2172C8.12693 13.2334 8.15755 13.244 8.18934 13.2483C8.22113 13.2527 8.25347 13.2507 8.28451 13.2426C8.31554 13.2345 8.34467 13.2203 8.37023 13.2009C8.39578 13.1815 8.41727 13.1572 8.43345 13.1295C8.44964 13.1018 8.46021 13.0712 8.46457 13.0394C8.46892 13.0076 8.46697 12.9753 8.45882 12.9442C8.45068 12.9132 8.4365 12.8841 8.4171 12.8585C8.37757 12.8065 8.34037 12.7546 8.30634 12.7043C8.2515 12.6228 8.21395 12.5309 8.19602 12.4343C8.17809 12.3378 8.18016 12.2385 8.2021 12.1428C8.22405 12.047 8.2654 11.9568 8.3236 11.8777C8.38181 11.7986 8.45562 11.7322 8.54048 11.6827L8.97171 11.4302ZM10.2938 11.5594C10.8861 13.2306 9.89698 13.9331 9.57968 14.1086C9.49547 14.1552 9.40561 14.2065 9.31851 14.2659C9.07229 14.4296 8.85302 14.6306 8.66853 14.8617C8.60261 14.7449 8.52585 14.6346 8.43926 14.5322C8.46972 14.4489 8.50866 14.369 8.55545 14.2936C8.69398 14.0731 8.87434 13.882 9.08634 13.7309L9.38006 13.5104C9.66684 13.2992 9.87264 12.9962 9.96319 12.6518C10.0977 12.1133 9.901 11.5851 9.4222 11.166L10.2057 10.7066C10.1668 10.9938 10.1971 11.2861 10.294 11.5592L10.2938 11.5594ZM9.9598 7.79707C9.95415 7.79954 9.94787 7.80264 9.94244 7.80547C9.70437 7.91985 9.44419 7.98085 9.18009 7.9842H9.17959C8.70905 7.9842 8.3211 7.76474 8.02364 7.3314C8.15521 7.25213 8.33557 7.14787 8.51776 7.05547C8.56865 7.0297 8.61531 7.00711 8.65893 6.98608C8.88079 6.87893 9.05606 6.79422 9.26832 6.54278C9.52244 6.24151 9.82279 6.09716 10.1582 6.11735C10.2564 6.13491 10.3459 6.1849 10.4123 6.2593C10.439 6.29935 10.4574 6.34435 10.4665 6.39164C10.4755 6.43892 10.4749 6.48753 10.4648 6.5346C10.4418 6.60449 10.404 6.66862 10.3541 6.72264C10.3041 6.77665 10.2431 6.81929 10.1752 6.84766C10.0456 6.85386 9.91572 6.84268 9.78905 6.81441C9.72697 6.79813 9.66097 6.80693 9.60532 6.83889C9.54967 6.87085 9.50881 6.92342 9.49158 6.98525C9.47436 7.04707 9.48213 7.11319 9.51324 7.16933C9.54434 7.22547 9.59627 7.26712 9.65783 7.2853C9.80583 7.32206 9.95795 7.33962 10.1104 7.33754C10.178 7.33754 10.2261 7.33478 10.2436 7.33358C10.4835 7.33083 10.7223 7.36751 10.9503 7.44215C10.9579 7.44386 10.965 7.44704 10.9713 7.45152C10.9776 7.45599 10.983 7.46167 10.9871 7.46823C10.9912 7.47479 10.994 7.4821 10.9953 7.48974C10.9966 7.49737 10.9964 7.50519 10.9946 7.51274C10.9946 7.51962 10.9932 7.52642 10.9904 7.53273C10.9877 7.53904 10.9837 7.54471 10.9786 7.5494C10.9736 7.55408 10.9676 7.55768 10.9611 7.55997C10.9547 7.56227 10.9478 7.5632 10.9409 7.56271C10.8789 7.56638 10.8174 7.57267 10.7562 7.58022C10.7527 7.58022 10.7491 7.581 10.7457 7.58149C10.4748 7.61531 10.2102 7.68789 9.95994 7.797L9.9598 7.79707ZM11.1734 7.00704C11.1508 6.99588 11.1274 6.98623 11.1035 6.97817C11.0134 6.94854 10.9217 6.92384 10.829 6.9042C11.091 6.60709 10.9501 6.11551 10.7563 5.90968L11.5286 5.48474C11.7411 5.36679 11.9824 5.31087 12.225 5.32335C12.4677 5.33583 12.702 5.41621 12.9012 5.55533C13.1631 5.73658 13.4685 5.84491 13.786 5.86922C14.1036 5.89354 14.4219 5.83295 14.7083 5.69368L16.9696 4.5925C16.9696 4.5925 17.6597 5.75177 16.5461 6.50904L12.8243 8.62175C12.8682 8.39701 12.8556 8.16487 12.7875 7.94622C12.7195 7.72757 12.5981 7.52926 12.4344 7.36914C12.2707 7.20901 12.0698 7.0921 11.8497 7.0289C11.6296 6.96571 11.3972 6.95822 11.1735 7.00711L11.1734 7.00704ZM2.02851 13.9022C2.48233 12.5846 3.21526 11.3804 4.17722 10.372C4.15018 11.3737 4.63131 11.7861 5.02244 12.0677C4.50334 12.7041 3.15651 14.6669 3.37442 17.6869C3.37886 17.7485 3.40643 17.8061 3.45159 17.8481C3.49675 17.8902 3.55616 17.9136 3.61788 17.9137C3.62381 17.9137 3.62974 17.9137 3.63574 17.9131C3.7003 17.9083 3.76035 17.8782 3.8027 17.8292C3.84505 17.7802 3.86624 17.7165 3.86162 17.6519C3.65021 14.7225 5.03832 12.8158 5.45232 12.3173C5.7355 12.4402 6.04117 12.5027 6.34985 12.5009C6.38063 12.5009 6.41197 12.5002 6.44359 12.499C3.67837 15.0218 4.89524 18.8842 5.50442 20.3478L4.64169 20.7984C4.53355 20.5389 4.43543 20.2786 4.34945 20.022C4.33969 19.991 4.32387 19.9623 4.30289 19.9375C4.28191 19.9127 4.25621 19.8924 4.22728 19.8777C4.19835 19.8629 4.16678 19.8541 4.1344 19.8517C4.10203 19.8493 4.0695 19.8534 4.03872 19.8637C4.00794 19.874 3.97952 19.8904 3.95513 19.9118C3.93073 19.9332 3.91085 19.9593 3.89665 19.9885C3.88244 20.0177 3.87419 20.0494 3.87238 20.0818C3.87057 20.1142 3.87524 20.1467 3.88611 20.1773C3.98014 20.4577 4.08821 20.742 4.20729 21.0253L2.51437 21.9098C1.32828 19.0877 1.16423 16.3946 2.02851 13.9022Z" fill="#121619"/>
<path d="M3.61527 19.2316C3.63093 19.2939 3.67052 19.3476 3.72545 19.3809C3.78038 19.4143 3.84624 19.4247 3.90876 19.4098C3.97128 19.395 4.02544 19.3561 4.05951 19.3016C4.09357 19.2471 4.1048 19.1814 4.09076 19.1187C4.07467 19.0511 4.05942 18.984 4.04502 18.9171C4.03084 18.8543 3.99243 18.7996 3.93813 18.765C3.88384 18.7303 3.81807 18.7185 3.7551 18.7321C3.69214 18.7456 3.63709 18.7835 3.60191 18.8375C3.56674 18.8914 3.55429 18.9571 3.56727 19.0202C3.58242 19.0901 3.59843 19.1606 3.61527 19.2316Z" fill="#121619"/>
<path d="M20.5293 2.8321C20.6149 2.80658 20.6985 2.77495 20.7796 2.73744C20.8378 2.70907 20.8824 2.65872 20.9036 2.59746C20.9247 2.5362 20.9206 2.46906 20.8923 2.41079C20.8639 2.35253 20.8135 2.30793 20.7523 2.2868C20.691 2.26566 20.6239 2.26973 20.5656 2.2981L20.4221 2.36798C20.3725 2.39222 20.3325 2.43258 20.3087 2.48246C20.2849 2.53234 20.2787 2.5888 20.2912 2.64264C20.3036 2.69649 20.3339 2.74453 20.3772 2.77893C20.4204 2.81334 20.474 2.83208 20.5293 2.8321Z" fill="#121619"/>
<path d="M6.91735 10.227C7.05231 10.227 7.16172 10.1176 7.16172 9.98266C7.16172 9.84769 7.05231 9.73828 6.91735 9.73828C6.78238 9.73828 6.67297 9.84769 6.67297 9.98266C6.67297 10.1176 6.78238 10.227 6.91735 10.227Z" fill="#121619"/>
</g>
<defs>
<clipPath id="clip0_23025_11163">
<rect width="24" height="24" fill="white"/>
</clipPath>
</defs>
</svg>
