<svg width="24" height="24" viewBox="0 0 24 24" fill="none" xmlns="http://www.w3.org/2000/svg">
<g clip-path="url(#clip0_23027_11729)">
<path d="M11.3574 5.4375H11.3998H11.4419H11.484H11.5261H11.5683H11.5824C11.6386 5.4375 11.6808 5.49375 11.6808 5.55C11.6808 5.60625 11.6386 5.66236 11.5683 5.64839H11.5261H11.484H11.4419H11.3998H11.3574H11.3155H11.2731H11.2449C11.1889 5.64839 11.1465 5.60625 11.1465 5.55C11.1326 5.49375 11.1889 5.4375 11.2449 5.4375H11.2731H11.3155H11.3574ZM10.5846 5.47964C10.6547 5.47964 10.697 5.52188 10.7109 5.57813C10.7109 5.63428 10.6688 5.69048 10.6125 5.69048H10.5984L10.5563 5.70459H10.5141L10.472 5.71861H10.4297H10.4016C10.3454 5.73272 10.2891 5.69048 10.2891 5.63423C10.2752 5.57808 10.3172 5.52183 10.3736 5.50772H10.4016L10.4438 5.4937H10.4861H10.5281L10.5704 5.47959H10.5846V5.47964ZM9.72702 5.63428C9.78327 5.62027 9.83948 5.66241 9.86769 5.71866C9.88162 5.77491 9.83948 5.83111 9.78323 5.84512H9.76912L9.74108 5.85923L9.69876 5.87325L9.6568 5.88736H9.62858L9.58644 5.90138C9.51608 5.91548 9.45984 5.88736 9.44591 5.83111C9.4318 5.77486 9.45983 5.71866 9.51608 5.70459L9.53019 5.69048H9.55841L9.60037 5.67647L9.64269 5.66236L9.68483 5.64834H9.71287L9.72702 5.63428ZM8.89766 5.91548C8.95391 5.88736 9.01012 5.91548 9.03833 5.97164C9.06637 6.02789 9.03833 6.08414 8.9819 6.11227L8.95387 6.12628L8.92583 6.14039L8.88351 6.15441L8.85548 6.16852L8.81333 6.18253L8.78512 6.19664C8.72905 6.22477 8.67266 6.19664 8.64458 6.14039C8.61655 6.08414 8.64458 6.02789 8.70083 5.99977L8.72905 5.98575L8.77101 5.97164L8.79923 5.95763L8.84132 5.94352L8.88346 5.91548H8.89766ZM8.11068 6.29498C8.16674 6.26686 8.22299 6.28087 8.25098 6.33712C8.2933 6.39337 8.26508 6.44962 8.22294 6.47775L8.19491 6.49177L8.16669 6.50588L8.13866 6.534L8.09652 6.54802L8.0683 6.57614L8.04008 6.59016C7.98402 6.61828 7.91366 6.60427 7.88568 6.54802C7.85746 6.50588 7.87157 6.43552 7.92782 6.40739L7.95585 6.39338L7.98407 6.36525L8.02621 6.35123L8.05424 6.32311L8.09657 6.309L8.11068 6.29498ZM7.37971 6.77288C7.42166 6.74475 7.49216 6.74475 7.53412 6.801C7.56233 6.84323 7.56234 6.9135 7.50608 6.95564L7.46394 6.98377L7.43573 7.01189L7.40769 7.026L7.37966 7.05403L7.35144 7.08216C7.29519 7.12439 7.23894 7.11028 7.19685 7.06814C7.15471 7.026 7.16882 6.95569 7.21096 6.91355L7.23899 6.88542L7.28132 6.8573L7.30935 6.84328L7.33738 6.81516L7.3656 6.78703L7.37971 6.77288ZM6.71891 7.3492C6.76124 7.30706 6.83141 7.30706 6.87374 7.3492C6.91569 7.39134 6.91569 7.4617 6.87374 7.50384V7.51795L6.84552 7.54598L6.8173 7.56009L6.78927 7.58822L6.76124 7.61634L6.73302 7.64447V7.65848C6.69093 7.70063 6.62057 7.70063 6.57843 7.65848C6.53629 7.61634 6.53629 7.56009 6.56432 7.51795L6.57843 7.50384L6.60646 7.47572L6.63468 7.44759L6.6629 7.41947L6.69093 7.39134L6.71896 7.36331V7.3492H6.71891ZM6.14277 8.00981C6.18473 7.96767 6.25508 7.95366 6.29718 7.9958C6.33951 8.02392 6.35362 8.09419 6.31129 8.13642L6.29718 8.17852L6.26915 8.20664L6.24112 8.23477L6.22701 8.26289L6.19879 8.29102L6.18468 8.31905C6.15665 8.36128 6.08629 8.3753 6.04438 8.33316C5.98794 8.30503 5.97383 8.23477 6.01616 8.19253L6.03027 8.16441L6.04438 8.13637L6.07241 8.10825L6.10044 8.08013L6.11455 8.03789L6.14277 8.00981ZM5.6646 8.74078C5.69282 8.68453 5.74907 8.67052 5.80527 8.69864C5.86152 8.72677 5.87544 8.79703 5.84741 8.85323L5.83349 8.88136L5.80527 8.90949L5.79116 8.93761L5.77705 8.97975L5.76313 9.00788L5.74902 9.036C5.72099 9.07814 5.65063 9.10631 5.59443 9.07814C5.55229 9.04997 5.52426 8.97975 5.55229 8.93761L5.56621 8.90949L5.58032 8.86725L5.60854 8.83913L5.62265 8.79698L5.63657 8.76886L5.6646 8.74078ZM5.27108 9.528C5.2993 9.47175 5.35537 9.44363 5.4118 9.47175C5.46787 9.48577 5.49604 9.55613 5.48198 9.61228L5.46787 9.64041L5.45394 9.66853L5.43983 9.71077L5.42591 9.75291L5.4118 9.78103L5.39769 9.80916C5.38358 9.86541 5.31346 9.89353 5.25702 9.86541C5.20096 9.8513 5.17274 9.78103 5.20096 9.72478V9.71077L5.21507 9.66853L5.22899 9.64041L5.2431 9.59827L5.25702 9.55617L5.27108 9.528ZM5.00418 10.3573C5.0181 10.3011 5.07435 10.2589 5.13055 10.287C5.1868 10.3011 5.22894 10.3573 5.21502 10.4134L5.20091 10.4557L5.1868 10.4978L5.17269 10.5259V10.5682L5.15858 10.6103C5.14448 10.6807 5.08841 10.7087 5.03216 10.6948C4.97591 10.6807 4.93377 10.6243 4.94769 10.5682L4.9618 10.5259L4.97591 10.4839V10.4416L4.99002 10.3995L5.00418 10.3573ZM4.83529 11.2147C4.8494 11.1585 4.90583 11.1163 4.9619 11.1163C5.01815 11.1304 5.06029 11.1866 5.04613 11.2427V11.2709V11.3132V11.3552L5.03221 11.3975V11.4397V11.4536C5.03221 11.51 4.97596 11.552 4.91976 11.552C4.8494 11.552 4.80726 11.4959 4.82137 11.4397V11.4116V11.3693V11.3272L4.83529 11.285V11.2568V11.2147ZM4.79333 12.0862C4.79333 12.0299 4.83529 11.9878 4.90583 11.9878C4.9619 11.9878 5.00423 12.0299 5.00423 12.0862V12.1284V12.1706L5.01815 12.2127V12.2548V12.2969C5.01815 12.3532 4.97601 12.4094 4.90583 12.4094C4.8494 12.4094 4.80726 12.3673 4.79333 12.311V12.2969V12.2548V12.2126V12.1706V12.1284V12.0862ZM4.86346 12.9578C4.84935 12.9016 4.89168 12.8453 4.94774 12.8453C5.0181 12.8312 5.06024 12.8734 5.07435 12.9296V12.9718L5.08846 13.0139V13.0562L5.10257 13.0842V13.1263V13.1404C5.11668 13.1967 5.08846 13.2529 5.0181 13.267C4.96185 13.281 4.90579 13.2388 4.89168 13.1826V13.1685V13.1263L4.87757 13.0842V13.0421L4.86346 13V12.9578ZM5.04613 13.8152C5.03221 13.7589 5.06024 13.7027 5.11668 13.6886C5.17274 13.6747 5.2431 13.7027 5.25702 13.7589V13.787L5.27113 13.8152L5.28524 13.8573L5.29935 13.8995V13.9277L5.31346 13.9557C5.32738 14.012 5.29935 14.0823 5.2431 14.0963C5.18685 14.1104 5.1306 14.0823 5.11668 14.0261L5.10257 13.9979L5.08846 13.9557L5.07435 13.9136L5.06024 13.8856L5.04613 13.8433V13.8152ZM5.34144 14.6445C5.31341 14.5883 5.34144 14.532 5.39769 14.504C5.45394 14.4758 5.51019 14.504 5.53823 14.56L5.55233 14.5883L5.56626 14.6163L5.58037 14.6586L5.59448 14.6866L5.62269 14.7288V14.7429C5.65073 14.7991 5.63662 14.8693 5.58037 14.8975C5.5243 14.9116 5.46791 14.8975 5.43983 14.8413L5.42591 14.8133L5.4118 14.785L5.38358 14.7429L5.36948 14.7149L5.35537 14.6725L5.34144 14.6445ZM5.74907 15.4176C5.72104 15.3755 5.73515 15.3051 5.7771 15.2771C5.83354 15.2348 5.90371 15.2488 5.93193 15.3051L5.94585 15.3333L5.97388 15.3614L5.98799 15.4035L6.0021 15.4318L6.03032 15.4598L6.04443 15.488C6.07246 15.5302 6.05835 15.6003 6.01621 15.6285C5.95996 15.6706 5.90371 15.6566 5.86157 15.6003L5.84746 15.5723L5.83354 15.544L5.80532 15.516L5.79121 15.4739L5.76318 15.4456L5.74907 15.4176ZM6.25504 16.1344C6.2129 16.0923 6.22701 16.022 6.26915 15.9798C6.31129 15.9518 6.38165 15.9518 6.42379 15.9939L6.4379 16.022L6.45201 16.0502L6.48004 16.0783L6.50807 16.1065L6.53629 16.1345L6.5504 16.1625C6.59235 16.2049 6.59235 16.275 6.5504 16.3172C6.49396 16.3455 6.4379 16.3455 6.39557 16.3033L6.36754 16.275L6.33951 16.247L6.31129 16.2188L6.29718 16.1767L6.26915 16.1486L6.25504 16.1344ZM6.84552 16.7811C6.80319 16.7388 6.80319 16.6687 6.84552 16.6263C6.88766 16.5842 6.95798 16.5842 7.00012 16.6263L7.02815 16.6545L7.05637 16.6826L7.0844 16.7108L7.11243 16.7389L7.14065 16.753L7.15476 16.7671C7.1969 16.7951 7.1969 16.8655 7.15476 16.9076C7.12654 16.9638 7.05637 16.9638 7.01404 16.9217H7.00012L6.97208 16.8935L6.94387 16.8654L6.91565 16.8372L6.88762 16.8092L6.85958 16.7811H6.84552ZM7.52024 17.3292C7.4781 17.301 7.46399 17.2308 7.49221 17.1887C7.53416 17.1325 7.60452 17.1184 7.64662 17.1605L7.68894 17.1887L7.71698 17.2027L7.74501 17.2309L7.77323 17.245L7.81537 17.2731V17.2872C7.87162 17.3152 7.88573 17.3856 7.8434 17.4277C7.81537 17.4839 7.74501 17.498 7.70287 17.4557H7.68894L7.66073 17.4277L7.61858 17.4135L7.59055 17.3855L7.56234 17.3573L7.52019 17.3433V17.3292H7.52024ZM8.26509 17.7931C8.20902 17.7649 8.19491 17.7088 8.22294 17.6526C8.25098 17.5964 8.30741 17.5823 8.36348 17.6103L8.4058 17.6244L8.43383 17.6527L8.47593 17.6666L8.50415 17.6807L8.53218 17.6948L8.54629 17.7089C8.60254 17.737 8.63076 17.7932 8.60254 17.8494C8.57432 17.9057 8.5183 17.9197 8.46187 17.9057L8.44794 17.8915L8.4058 17.8774L8.37758 17.8494L8.33544 17.8353L8.30741 17.8212L8.26509 17.7931ZM9.06641 18.1586C9.01016 18.1445 8.98194 18.0741 8.99605 18.0181C9.02427 17.9619 9.08034 17.9337 9.13673 17.9619L9.17868 17.9758L9.2069 17.9899L9.24923 18.004L9.29118 18.0181H9.3194L9.33351 18.0321C9.38957 18.0462 9.41779 18.1025 9.40368 18.1587C9.38957 18.2149 9.3194 18.2571 9.26315 18.229H9.24923L9.22101 18.2149L9.17868 18.2008L9.13673 18.1867L9.10851 18.1727L9.06641 18.1586ZM9.89573 18.4116C9.83948 18.3975 9.81126 18.3413 9.81126 18.285C9.82537 18.229 9.88157 18.1866 9.95193 18.2008H9.96604L10.008 18.2149H10.0362L10.0784 18.229L10.1204 18.2429H10.1487C10.2188 18.257 10.2471 18.3133 10.2329 18.3695C10.2329 18.4257 10.1769 18.4679 10.1063 18.4538H10.0783L10.0362 18.4396L9.99402 18.4257H9.95188L9.92366 18.4116H9.89573ZM10.7672 18.5521C10.711 18.5382 10.6547 18.4959 10.6688 18.4257C10.6688 18.3695 10.7251 18.3273 10.7813 18.3273H10.7954L10.8374 18.3413H10.8656H10.9077H10.9499H10.9922C11.0482 18.3554 11.1046 18.3975 11.0906 18.4538C11.0906 18.5241 11.0482 18.5662 10.9781 18.5662H10.9357L10.8938 18.5521H10.8515H10.8094H10.7672V18.5521ZM11.6387 18.5663C11.5824 18.5663 11.5262 18.5241 11.5262 18.4679C11.5262 18.4116 11.5683 18.3554 11.6248 18.3554H11.6528H11.6949L11.7231 18.3413H11.7651H11.8074H11.8355C11.9058 18.3413 11.9479 18.3834 11.9621 18.4396C11.9621 18.4959 11.9199 18.5521 11.8635 18.5521H11.8215L11.7792 18.5663H11.7371H11.6949H11.6528H11.6387ZM12.51 18.4679C12.4538 18.482 12.3976 18.4396 12.3837 18.3834C12.3696 18.3273 12.4117 18.2711 12.4679 18.257H12.4821H12.5241L12.5663 18.2429H12.6084L12.6366 18.2289L12.6787 18.2148C12.735 18.2148 12.7912 18.2429 12.8051 18.2991C12.8193 18.3695 12.7771 18.4257 12.7209 18.4257L12.6787 18.4396L12.6505 18.4538H12.6084L12.5663 18.4679H12.5241H12.51ZM13.3535 18.2711C13.2973 18.285 13.241 18.257 13.2269 18.2008C13.1989 18.1445 13.241 18.0741 13.2973 18.0602L13.3253 18.0461L13.3676 18.032L13.3956 18.018H13.4377L13.466 18.0039L13.494 17.9898C13.5503 17.9757 13.6065 18.0039 13.6346 18.0601C13.6487 18.1164 13.6206 18.1726 13.5644 18.2007H13.5503L13.5081 18.2148L13.4661 18.2289L13.4237 18.2429L13.3957 18.257L13.3535 18.2711ZM14.1687 17.9478C14.1125 17.9758 14.0563 17.9478 14.0282 17.8915C14 17.8353 14.0282 17.779 14.0845 17.751L14.1125 17.7369L14.1546 17.7088L14.1829 17.6947L14.225 17.6806L14.253 17.6665L14.2671 17.6526C14.3234 17.6243 14.3937 17.6526 14.4076 17.6947C14.4359 17.7509 14.4217 17.8211 14.3655 17.8493H14.3516L14.3234 17.8773L14.2813 17.8914L14.2391 17.9056L14.2109 17.9196L14.1687 17.9478ZM14.9418 17.5119C14.8856 17.5542 14.8154 17.5402 14.7872 17.4839C14.7591 17.4418 14.7731 17.3714 14.8154 17.3433L14.8435 17.3151L14.8856 17.301L14.9138 17.273L14.9419 17.2449L14.9701 17.2308L14.9982 17.2167C15.0403 17.1886 15.1106 17.1886 15.1386 17.2449C15.1807 17.287 15.1669 17.3572 15.1247 17.3995L15.0965 17.4135L15.0684 17.4276L15.0402 17.4556L14.9981 17.4698L14.97 17.498L14.9418 17.5119ZM15.6306 16.9918C15.5885 17.0341 15.5181 17.02 15.4901 16.9778C15.4478 16.9356 15.4478 16.8654 15.4901 16.8233L15.5181 16.8091L15.5462 16.7811L15.5744 16.7528L15.6025 16.7387L15.6307 16.7107L15.6588 16.6824C15.7009 16.6544 15.7712 16.6544 15.8134 16.6965C15.8416 16.7387 15.8416 16.809 15.7994 16.8512L15.7712 16.8653L15.7432 16.8933L15.7149 16.9216L15.6869 16.9496L15.6587 16.9778L15.6306 16.9918ZM16.2632 16.3733C16.2209 16.4295 16.1507 16.4295 16.1086 16.3875C16.0663 16.3454 16.0663 16.275 16.0945 16.2328L16.1086 16.2187L16.1366 16.1907L16.1646 16.1624L16.1929 16.1344L16.2209 16.1063L16.2351 16.0781C16.2771 16.036 16.3475 16.0219 16.3897 16.064C16.4318 16.1063 16.4459 16.1624 16.4038 16.2186L16.3756 16.2468L16.3475 16.2749L16.3334 16.3031L16.3054 16.3312L16.2771 16.3594L16.2632 16.3733ZM16.7972 15.6847C16.7692 15.7409 16.6988 15.7548 16.6567 15.7127C16.6005 15.6847 16.5864 15.6143 16.6285 15.5722V15.5581L16.6567 15.5301L16.6709 15.4879L16.6989 15.4597L16.713 15.4317L16.7411 15.4034V15.3893C16.7693 15.3472 16.8395 15.3191 16.8817 15.3613C16.9378 15.3893 16.9519 15.4597 16.9239 15.5018L16.9097 15.5159L16.8956 15.5439L16.8676 15.5722L16.8535 15.6143L16.8254 15.6425L16.8113 15.6705L16.7972 15.6847ZM17.2471 14.9396C17.2189 14.9818 17.1486 15.01 17.0925 14.9818C17.0502 14.9537 17.0222 14.8975 17.0502 14.8412V14.8271L17.0784 14.7991L17.0925 14.757L17.1065 14.7287L17.1206 14.6866L17.1347 14.6586V14.6445C17.1628 14.5882 17.2331 14.5741 17.2894 14.5882C17.3315 14.6163 17.3595 14.6866 17.3315 14.7428L17.3174 14.7849L17.3032 14.8132L17.2893 14.8553L17.2611 14.8833L17.2471 14.9255V14.9396ZM17.5844 14.1244C17.5564 14.1806 17.5002 14.2087 17.4439 14.1947C17.3877 14.1806 17.3594 14.1103 17.3736 14.054L17.3877 14.0401V14.0119L17.4018 13.9698L17.4157 13.9276L17.4299 13.8994L17.444 13.8573C17.4579 13.8011 17.5141 13.773 17.5704 13.7869C17.6266 13.8011 17.6688 13.8573 17.6407 13.9135V13.9556L17.6266 13.9978L17.6125 14.04L17.5986 14.0681L17.5844 14.1102V14.1244ZM17.8094 13.281C17.7953 13.3372 17.7391 13.3793 17.6828 13.3654C17.6266 13.3513 17.5844 13.2951 17.5986 13.2389V13.2108L17.6125 13.1685V13.1264L17.6266 13.0843V13.0562V13.028C17.6407 12.9718 17.6969 12.9296 17.7532 12.9437C17.8094 12.9578 17.8516 12.9999 17.8516 13.0701L17.8375 13.0842V13.1263L17.8233 13.1685V13.2107L17.8094 13.2529V13.281ZM17.9217 12.4095C17.9077 12.4657 17.8656 12.522 17.8094 12.5079C17.739 12.5079 17.6969 12.4658 17.6969 12.3954L17.711 12.3674V12.3253V12.297V12.2549V12.2128V12.1845C17.711 12.1285 17.7671 12.0862 17.8233 12.0862C17.8796 12.0862 17.9358 12.1284 17.9217 12.1986V12.2127V12.2549V12.297V12.3391V12.3814V12.4095H17.9217ZM17.9077 11.538C17.9217 11.5943 17.8795 11.6505 17.8094 11.6505C17.7531 11.6644 17.6969 11.6084 17.6969 11.5519V11.5099V11.4817L17.6828 11.4396V11.3974V11.3551V11.3412C17.6687 11.2849 17.711 11.2287 17.7812 11.2287C17.8374 11.2146 17.8936 11.2567 17.8936 11.3131V11.3271V11.3692L17.9077 11.4115V11.4535V11.4958V11.538ZM17.7953 10.6665C17.8094 10.7228 17.7671 10.7932 17.711 10.7932C17.6548 10.8071 17.5986 10.779 17.5844 10.7087V10.6807L17.5703 10.6524L17.5564 10.6103V10.5682L17.5423 10.5259V10.512C17.5281 10.4557 17.5564 10.3995 17.6124 10.3854C17.6687 10.3574 17.739 10.3995 17.7531 10.4557V10.4839L17.7671 10.5259V10.5682L17.7812 10.5962L17.7953 10.6384V10.6665ZM17.5564 9.82313C17.5844 9.87938 17.5564 9.94964 17.5002 9.96375C17.4439 9.99188 17.3736 9.94964 17.3594 9.89348L17.3455 9.85125L17.3314 9.82313L17.3173 9.78098L17.3032 9.75286L17.2893 9.71072V9.69661C17.261 9.64036 17.2893 9.5842 17.3455 9.55608C17.4017 9.54197 17.4578 9.57009 17.486 9.62634V9.64036L17.5001 9.66848L17.514 9.71072L17.5281 9.75286L17.5423 9.78098L17.5564 9.82313ZM17.219 9.02189C17.2472 9.07814 17.219 9.13439 17.1627 9.16252C17.1206 9.19064 17.0503 9.17653 17.0222 9.12038V9.10627L17.0081 9.07814L16.98 9.04997L16.9659 9.00788L16.9518 8.97975L16.9238 8.93761C16.8955 8.88136 16.9096 8.811 16.9659 8.78302C17.0221 8.75489 17.0783 8.78302 17.1064 8.82516L17.1205 8.83917L17.1346 8.8673L17.1627 8.90953L17.1768 8.93766L17.1909 8.9798L17.2049 9.00792L17.219 9.02189ZM16.7692 8.27691C16.7972 8.31905 16.7833 8.38941 16.741 8.41753C16.6847 8.45963 16.6285 8.44566 16.5863 8.38941L16.5583 8.36128L16.5441 8.33316L16.5161 8.29102L16.502 8.26289L16.474 8.23477V8.22066C16.4316 8.17852 16.4457 8.1083 16.4879 8.06606C16.53 8.03794 16.6004 8.05205 16.6425 8.09419V8.1083L16.6708 8.13642L16.6988 8.16445L16.7129 8.20669L16.741 8.23481L16.7692 8.26294V8.27691ZM16.2209 7.58817C16.2632 7.63027 16.2632 7.70053 16.2209 7.74277C16.1788 7.78491 16.1086 7.77089 16.0663 7.72866L16.0382 7.70053L16.01 7.6725L15.9819 7.64437L15.9539 7.61625L15.9398 7.58812L15.9115 7.57402C15.8835 7.53188 15.8835 7.46166 15.9257 7.41942C15.9678 7.37728 16.0241 7.3913 16.0662 7.43353L16.0944 7.44755L16.1225 7.47567L16.1366 7.5038L16.1646 7.53192L16.1929 7.56005L16.2209 7.58817ZM15.5885 6.98372C15.6448 7.01184 15.6448 7.08211 15.6024 7.13836C15.5744 7.18059 15.504 7.18059 15.4478 7.13836L15.4339 7.12434L15.4056 7.09622L15.3776 7.08211L15.3494 7.05398L15.3073 7.02595L15.2931 7.01184C15.2369 6.9697 15.2369 6.91345 15.2651 6.8572C15.3072 6.81511 15.3776 6.80095 15.4197 6.84319L15.4477 6.8572L15.476 6.88533L15.504 6.91345L15.5461 6.94158L15.5744 6.95559L15.5885 6.98372ZM14.8856 6.46364C14.9418 6.49177 14.9559 6.56203 14.9138 6.60427C14.8856 6.66052 14.8154 6.67453 14.7731 6.64641L14.7592 6.63239L14.7171 6.60427L14.6888 6.59016L14.6608 6.57614L14.6185 6.54802L14.5904 6.534C14.5342 6.50588 14.5201 6.43552 14.5484 6.37941C14.5904 6.33717 14.6467 6.32316 14.7029 6.35128L14.731 6.3653L14.7731 6.39342L14.8013 6.40744L14.8294 6.43556L14.8715 6.44967L14.8856 6.46364ZM14.1125 6.042C14.1687 6.07013 14.1969 6.12623 14.1687 6.18253C14.1406 6.23878 14.0844 6.26691 14.0282 6.23878L14.0141 6.22477L13.9719 6.21066L13.9437 6.19664L13.9016 6.18253L13.8735 6.16852L13.8314 6.15441C13.7752 6.12628 13.7611 6.07012 13.7752 6.01387C13.8032 5.95762 13.8595 5.9295 13.9157 5.95763L13.9578 5.97164L13.986 5.98575L14.0282 5.99977L14.0703 6.01387L14.0984 6.02789L14.1125 6.042ZM13.2973 5.73277C13.3535 5.74678 13.3956 5.80303 13.3676 5.85928C13.3535 5.91553 13.2973 5.95767 13.241 5.92955H13.213L13.1706 5.91553L13.1426 5.90142L13.1005 5.88741H13.0584L13.0302 5.8733C12.9739 5.85928 12.9459 5.80303 12.96 5.74678C12.9739 5.69053 13.0302 5.64839 13.0864 5.66241L13.1144 5.67652L13.1567 5.69053H13.1989L13.241 5.70464L13.2692 5.71866L13.2973 5.73277ZM12.4538 5.52188C12.51 5.53589 12.5522 5.59214 12.5383 5.64839C12.5241 5.70464 12.4679 5.74678 12.4117 5.73277H12.3696L12.3275 5.71866H12.2854H12.243L12.215 5.70464H12.2009C12.1447 5.70464 12.1026 5.64839 12.1167 5.59219C12.1167 5.52192 12.173 5.47969 12.2291 5.4938H12.243H12.2853L12.3274 5.50781H12.3555L12.3976 5.52192H12.4399H12.4538V5.52188Z" fill="#A2A9B0"/>
<path d="M4.10449 15.4288C4.0061 15.4709 3.90752 15.485 3.82329 15.4709C3.7249 15.4426 3.64066 15.3864 3.5703 15.3162C3.31732 16.1877 2.9238 17.2841 2.29122 18.1135C1.19477 19.5472 -2.60472e-05 17.5934 0.224927 16.764C0.520052 15.6956 1.08246 14.4448 1.40561 14.0652C1.93962 13.4467 2.71291 13.5171 3.38744 13.7279C3.71079 11.3946 5.39768 11.549 4.99005 13.6294C5.93187 13.7138 6.92974 14.009 7.25309 15.035C7.43571 15.6396 7.46393 17.3825 7.2813 18.7741C7.14059 19.8706 4.75099 21.5573 4.18872 19.3222C3.87954 18.0572 3.96396 16.5673 4.10449 15.4288ZM3.13465 14.3464C2.68469 14.2198 2.20694 14.1777 1.92569 14.5149C1.79932 14.6557 1.6586 14.9508 1.57432 15.1195C1.39169 15.485 1.25097 15.8503 1.11044 16.2299C1.02597 16.469 0.941693 16.7078 0.885443 16.9467C0.843349 17.0874 0.983834 17.4247 1.05419 17.5513C1.11044 17.6636 1.29307 17.9166 1.44771 17.9448C1.5461 17.9589 1.7148 17.762 1.75694 17.7059C1.96783 17.4247 2.13654 17.1295 2.29113 16.8203C2.58626 16.2018 2.81126 15.541 2.99388 14.8804C3.02215 14.754 3.07821 14.5571 3.13465 14.3464ZM4.9338 14.3041C4.89166 14.5853 4.84933 14.8804 4.80719 15.1617C4.69488 16.0472 4.62457 16.9326 4.66666 17.8182C4.68077 18.2682 4.73683 18.7179 4.84929 19.1537C4.89162 19.3364 5.00412 19.6737 5.22888 19.7299C5.67865 19.8424 6.55029 19.1114 6.60635 18.6897C6.64868 18.3666 6.67666 18.0432 6.70474 17.7199C6.73296 17.2139 6.73296 16.6937 6.71885 16.1878C6.70474 15.9207 6.67671 15.4989 6.6064 15.2459C6.39555 14.5571 5.63655 14.3603 4.9338 14.3041Z" fill="#A2A9B0"/>
<path d="M4.02003 15.5269C4.0061 15.5269 3.97807 15.5408 3.96396 15.5408C3.90753 15.5408 3.86557 15.5408 3.80913 15.5269C3.75307 15.5269 3.69682 15.4986 3.65473 15.4706C3.64062 15.4565 3.6124 15.4424 3.59829 15.4424C3.48598 15.85 3.33138 16.2999 3.1346 16.7497C2.92371 17.2557 2.65662 17.7337 2.34743 18.1554C2.08034 18.5068 1.79932 18.6614 1.53199 18.6894C1.32115 18.7035 1.12442 18.6473 0.941744 18.535C0.773182 18.4084 0.618401 18.2397 0.491979 18.057C0.210776 17.6353 0.0702445 17.1011 0.168635 16.7497C0.309166 16.2155 0.52001 15.6532 0.730854 15.1614C0.955807 14.6554 1.19473 14.2195 1.34932 14.0228C1.63034 13.6995 1.96779 13.5589 2.33328 13.5168C2.67054 13.4886 3.00799 13.5449 3.33134 13.6291C3.47187 12.7859 3.7811 12.2658 4.11837 12.069C4.25904 11.9705 4.39957 11.9424 4.52599 11.9565C4.6526 11.9705 4.77917 12.0408 4.87756 12.1674C5.0884 12.4063 5.18679 12.8843 5.07429 13.5731C5.52424 13.6152 5.98788 13.7136 6.38159 13.9245C6.80313 14.1353 7.1547 14.4867 7.30929 15.0209C7.40768 15.3301 7.46388 15.9486 7.47804 16.6514C7.47804 17.3261 7.43571 18.0992 7.35143 18.788C7.28126 19.2378 6.85952 19.8 6.32534 20.1373C6.08623 20.306 5.81937 20.4185 5.55223 20.4606C5.28513 20.5168 5.0321 20.4888 4.79323 20.3622C4.49792 20.1935 4.25904 19.8703 4.13243 19.3361C3.96392 18.7035 3.90748 18.0007 3.90748 17.326C3.90753 16.6934 3.9499 16.075 4.02003 15.5269ZM3.9499 15.4002C3.99199 15.4002 4.03413 15.3861 4.07646 15.3722L4.17485 15.3159L4.16074 15.4424C4.10449 16.0046 4.04829 16.6654 4.04829 17.326C4.04829 18.0007 4.10454 18.6755 4.25913 19.308C4.38574 19.7999 4.59659 20.095 4.86349 20.2357C5.06028 20.3481 5.29934 20.3763 5.53821 20.3341C5.77709 20.292 6.0162 20.1795 6.25507 20.0249C6.74717 19.7016 7.15474 19.1815 7.21099 18.7597C7.30938 18.085 7.33741 17.326 7.33741 16.6513C7.32331 15.9625 7.28135 15.3581 7.18296 15.063C7.02818 14.5568 6.71895 14.2476 6.32543 14.0369C5.91781 13.826 5.43982 13.7415 4.9901 13.6995L4.90587 13.6853L4.91979 13.6152C5.06032 12.9404 4.96193 12.4766 4.77926 12.2516C4.69498 12.1532 4.61051 12.1111 4.51217 12.097C4.41382 12.0829 4.30128 12.1111 4.18882 12.1813C3.87959 12.3782 3.58446 12.8842 3.45804 13.7276L3.44393 13.8119L3.37357 13.7836C3.03631 13.6852 2.68474 13.6151 2.34748 13.6573C2.02413 13.6853 1.7149 13.8119 1.46187 14.107C1.29312 14.3038 1.08246 14.7116 0.85751 15.2175C0.646619 15.6953 0.435776 16.2577 0.295057 16.7778C0.210823 17.101 0.337385 17.5931 0.604291 17.9866C0.716791 18.1553 0.857463 18.3099 1.02603 18.4224C1.18085 18.5208 1.34937 18.5771 1.51812 18.5489C1.75699 18.5349 1.9961 18.3942 2.23498 18.0708C2.54421 17.6632 2.7972 17.1854 3.00809 16.7075C3.21898 16.2154 3.37357 15.7236 3.49999 15.2877L3.54232 15.1753L3.62656 15.2597C3.65478 15.3018 3.68281 15.33 3.72495 15.3581C3.75317 15.3722 3.79526 15.3862 3.8374 15.4002C3.86562 15.4143 3.90753 15.4143 3.9499 15.4002ZM3.05018 14.3883C2.85345 14.3462 2.65667 14.3038 2.47385 14.3179C2.27712 14.3321 2.10856 14.4022 1.96788 14.5568C1.91182 14.6272 1.85543 14.7256 1.78526 14.838C1.72901 14.9505 1.67281 15.063 1.63048 15.1473C1.5462 15.3301 1.46192 15.4987 1.39179 15.6815C1.32124 15.8782 1.23696 16.0609 1.16684 16.2578C1.12451 16.3702 1.09648 16.4826 1.05434 16.6092C1.01201 16.7217 0.984026 16.8481 0.941885 16.9605C0.927776 17.0027 0.941885 17.0872 0.970104 17.1714C1.01206 17.3119 1.06849 17.4524 1.11063 17.5228C1.13867 17.579 1.22295 17.6915 1.30737 17.7757C1.36362 17.832 1.40576 17.8741 1.46196 17.8741C1.47607 17.8882 1.5041 17.8602 1.53214 17.832C1.60268 17.7758 1.67285 17.6915 1.70107 17.6633C1.79946 17.5228 1.89781 17.3823 1.98209 17.2417C2.06632 17.0872 2.1506 16.9464 2.22115 16.7918C2.37556 16.4826 2.50217 16.1592 2.61467 15.8361C2.72717 15.5127 2.83962 15.1894 2.9239 14.8521C2.95193 14.7959 2.96604 14.6975 2.99407 14.5991C3.00804 14.5429 3.02215 14.4725 3.05018 14.3883ZM2.45974 14.1915C2.6847 14.1774 2.92376 14.2195 3.14876 14.2758L3.20482 14.3038L3.19071 14.3601C3.16268 14.4585 3.14876 14.5429 3.12054 14.6413C3.09232 14.7397 3.07821 14.8239 3.05023 14.8942C2.96595 15.2315 2.8676 15.5549 2.74099 15.8923C2.62868 16.2155 2.50212 16.5388 2.34748 16.848C2.27712 17.0027 2.19284 17.1573 2.09449 17.3119C2.01021 17.4524 1.91187 17.607 1.81329 17.7478C1.78526 17.7758 1.70098 17.8741 1.61651 17.9445C1.56026 17.9866 1.49013 18.0288 1.4337 18.0149C1.34946 18.0007 1.27929 17.9445 1.20893 17.8741C1.11054 17.7757 1.02607 17.6633 0.983979 17.579C0.941838 17.5087 0.885588 17.354 0.843448 17.2135C0.815229 17.1011 0.801307 17.0027 0.815229 16.9184C0.843448 16.8059 0.885541 16.6793 0.927682 16.567C0.955901 16.4405 0.998041 16.3279 1.04018 16.2015C1.11054 16.0187 1.19478 15.8219 1.26513 15.6252C1.34942 15.4424 1.41973 15.2738 1.50401 15.091C1.54615 15.0067 1.60259 14.8943 1.67276 14.7677C1.72901 14.6554 1.79937 14.5429 1.86949 14.4585C2.02409 14.2758 2.23498 14.2054 2.45974 14.1915ZM4.99006 14.3742C4.97595 14.4585 4.97595 14.5288 4.96184 14.5991C4.93381 14.7959 4.90578 14.9927 4.87756 15.1753C4.82131 15.6112 4.77917 16.0469 4.75095 16.4967C4.72292 16.9323 4.70881 17.3823 4.73684 17.8179C4.73684 18.0429 4.76506 18.2679 4.79328 18.4788C4.82131 18.7035 4.86345 18.9285 4.9197 19.1394C4.93381 19.2237 4.97595 19.3502 5.03215 19.4627C5.0884 19.5611 5.15857 19.6454 5.24304 19.6595C5.25696 19.6734 5.25696 19.6734 5.27107 19.6734C5.48196 19.7016 5.76317 19.5611 6.01615 19.3641C6.28306 19.1534 6.4939 18.9002 6.53623 18.7035C6.53623 18.7035 6.53623 18.6894 6.55034 18.6755C6.56426 18.5208 6.57837 18.3521 6.59229 18.1975C6.6064 18.0428 6.62051 17.8882 6.63462 17.7195C6.64873 17.4524 6.66284 17.1994 6.66284 16.9323C6.66284 16.6793 6.66284 16.4263 6.64873 16.1874C6.63462 16.0469 6.63462 15.8782 6.62051 15.7095C6.6064 15.5407 6.57837 15.3862 6.53623 15.2597C6.43784 14.9364 6.21288 14.7255 5.91776 14.5991C5.65067 14.4725 5.31345 14.4022 4.99006 14.3742ZM4.82135 14.585C4.83528 14.4726 4.84938 14.3742 4.86345 14.2899L4.87756 14.2195L4.93381 14.2336C5.29929 14.2617 5.66459 14.3321 5.97382 14.4726C6.29717 14.6272 6.55034 14.8522 6.66284 15.2176C6.70479 15.3582 6.73301 15.5269 6.74712 15.6954C6.76123 15.8782 6.77515 16.0469 6.77515 16.1734C6.78926 16.4263 6.80318 16.6793 6.78926 16.9323C6.78926 17.1994 6.78926 17.4665 6.76123 17.7337C6.76123 17.8882 6.74712 18.0429 6.73301 18.2116C6.7189 18.3802 6.70479 18.535 6.67676 18.6894C6.67676 18.7035 6.67676 18.7317 6.66284 18.7456C6.62051 18.9706 6.38163 19.2518 6.10038 19.4627C5.81937 19.6874 5.49603 19.8421 5.25696 19.7999C5.24304 19.7999 5.22893 19.7999 5.21501 19.7999C5.07434 19.7719 4.97595 19.6594 4.90578 19.5187C4.84934 19.4064 4.8072 19.2657 4.77917 19.1673C4.72292 18.9565 4.68077 18.7317 4.65256 18.5067C4.62453 18.2818 4.61042 18.0428 4.59649 17.8319C4.56827 17.3822 4.58238 16.9323 4.61042 16.4825C4.63845 16.0469 4.68077 15.5969 4.75095 15.1613C4.7651 14.9505 4.79332 14.7676 4.82135 14.585Z" fill="#121619"/>
<path d="M4.22023 13.5199C4.43491 13.5639 4.57334 13.7736 4.52927 13.9883C4.48521 14.2031 4.27549 14.3416 4.0608 14.2975C3.84598 14.2535 3.70755 14.0438 3.75157 13.8291C3.79563 13.6142 4.00535 13.4759 4.22023 13.5199Z" fill="#121619"/>
<path d="M5.62833 11.7873C5.78368 11.2513 5.91035 10.6878 6.03682 10.083L6.03684 10.083C6.33235 8.66116 6.48772 7.36479 6.50189 6.40481L6.50189 6.40477C6.50888 5.90408 6.47724 5.49168 6.40553 5.1941C6.3697 5.0454 6.32323 4.92262 6.26459 4.83133C6.20583 4.73986 6.13223 4.67619 6.04176 4.65462L6.04178 4.65455L6.03911 4.65407C5.9451 4.63697 5.85034 4.66584 5.75849 4.72684C5.66694 4.78764 5.57469 4.88256 5.4824 5.00531C5.29772 5.25095 5.10604 5.61735 4.91561 6.07565L4.91531 6.0764C4.56269 6.9651 4.18233 8.23307 3.90082 9.64117C3.77405 10.2467 3.67547 10.838 3.60514 11.3874C3.52089 11.9623 3.4787 12.4813 3.45044 12.9441C3.40877 13.0572 3.38057 13.1701 3.35284 13.2944C3.33873 13.351 3.32814 13.4041 3.31781 13.456L3.31746 13.4577C3.3101 13.4946 3.30285 13.5309 3.29446 13.5681C2.98335 13.4902 2.65695 13.4395 2.3291 13.467L2.3291 13.4669L2.32755 13.4671C1.95187 13.5104 1.60214 13.6557 1.31159 13.99L1.31154 13.9899L1.31001 13.9919C1.15137 14.1937 0.910403 14.6344 0.685161 15.141L0.684898 15.1417C0.473537 15.6347 0.261754 16.1993 0.120381 16.7366C0.0681426 16.9235 0.080289 17.1542 0.139474 17.3892C0.198879 17.625 0.306678 17.8692 0.450374 18.0847L0.450865 18.0854C0.579765 18.2717 0.738124 18.4446 0.911716 18.575L0.911586 18.5751L0.915556 18.5776C1.10589 18.6946 1.31282 18.7542 1.53533 18.7393L1.53533 18.7393L1.53721 18.7391C1.82154 18.7093 2.11403 18.545 2.38724 18.1856L2.38724 18.1856L2.38776 18.1849C2.69934 17.7599 2.96829 17.2786 3.18059 16.7693C3.36892 16.3388 3.51878 15.9082 3.63013 15.5143C3.67319 15.5425 3.73568 15.5748 3.80282 15.5767C3.86213 15.5907 3.90795 15.5908 3.96163 15.5908C3.89647 16.1233 3.85752 16.7182 3.85752 17.326C3.85752 18.0029 3.91407 18.7101 4.08398 19.3483C4.21287 19.8915 4.45806 20.2283 4.76847 20.4056L4.76846 20.4056L4.76985 20.4064C5.01965 20.5388 5.28434 20.5678 5.56131 20.5098C5.83596 20.4663 6.10907 20.3509 6.35316 20.1789C6.62512 20.007 6.8681 19.7782 7.05229 19.535C7.23632 19.2921 7.3641 19.0315 7.40088 18.7957L7.40091 18.7957L7.40111 18.7941C7.48566 18.1031 7.52809 17.3279 7.5281 16.6514L7.52808 16.6504C7.51394 15.9486 7.45793 15.3236 7.35718 15.0064C7.19812 14.4574 6.83623 14.0961 6.40461 13.8801C6.01715 13.6727 5.56553 13.573 5.1275 13.5281C5.12848 13.5204 5.12961 13.5128 5.1308 13.505C5.13107 13.5033 5.13134 13.5016 5.13161 13.4998C5.13448 13.4812 5.13776 13.4601 5.13828 13.4386C5.14526 13.409 5.14883 13.3799 5.15212 13.352L5.15273 13.3469C5.15595 13.3195 5.15912 13.2926 5.16486 13.2632C5.31949 12.8405 5.47425 12.3345 5.62833 11.7873ZM5.62833 11.7873C5.62835 11.7873 5.62837 11.7872 5.62839 11.7872L5.58026 11.7736L5.62828 11.7875C5.6283 11.7875 5.62832 11.7874 5.62833 11.7873ZM2.34743 13.6574C2.02409 13.6854 1.71485 13.8121 1.46182 14.1072C1.29307 14.3039 1.08242 14.7117 0.857463 15.2177C0.646572 15.6954 0.435729 16.2579 0.29501 16.778L2.34743 13.6574ZM0.343335 16.7908C0.483228 16.2739 0.69306 15.714 0.903151 15.238C1.12855 14.731 1.33654 14.33 1.49977 14.1397L1.49978 14.1397C1.74316 13.8559 2.03961 13.7343 2.35175 13.7072L2.35175 13.7073L2.35363 13.707C2.6798 13.6663 3.02256 13.7336 3.35717 13.8311L3.42525 13.8585L3.48293 13.8816L3.4932 13.8203L3.50718 13.7368C3.51891 13.6778 3.52823 13.6212 3.53699 13.568C3.53879 13.557 3.54056 13.5462 3.54233 13.5356C3.55284 13.4724 3.56309 13.4144 3.57666 13.3604L3.57668 13.3604L3.57697 13.3591C3.59694 13.2695 3.62364 13.181 3.64786 13.1007C3.65685 13.0709 3.6655 13.0422 3.67334 13.0151L3.68539 12.991L3.6903 12.9811L3.69064 12.9702C3.70467 12.5229 3.76048 11.9907 3.83079 11.4287C3.90098 10.8819 3.99916 10.2927 4.12545 9.68967C4.42022 8.28585 4.78471 7.03798 5.13482 6.17C5.30993 5.74267 5.48048 5.40564 5.63385 5.18332C5.71071 5.07192 5.7815 4.99192 5.84435 4.94353C5.90788 4.89462 5.95531 4.88382 5.98996 4.89249L5.98993 4.89257L5.99289 4.89313C6.02741 4.89959 6.06565 4.92863 6.10323 4.99869C6.1404 5.06799 6.17217 5.16905 6.19723 5.30126C6.24724 5.56515 6.26836 5.94074 6.26133 6.40341L6.26133 6.40342C6.24728 7.34116 6.09343 8.63104 5.81259 10.0347C5.68646 10.6239 5.54604 11.1992 5.40574 11.7325C5.25134 12.2797 5.09703 12.77 4.92936 13.2034L4.92599 13.2121V13.2215V13.2356C4.92599 13.2604 4.92285 13.2892 4.91925 13.3215L4.91906 13.3231C4.91589 13.3515 4.9124 13.3829 4.91193 13.4119C4.89885 13.465 4.886 13.5292 4.8733 13.5925L4.87072 13.6054L4.8707 13.6055L4.85678 13.6756L4.84675 13.7261L4.89753 13.7347L4.98177 13.7488L4.98175 13.749L4.9854 13.7493C5.433 13.7912 5.90316 13.8749 6.30209 14.0812C6.6858 14.2867 6.98483 14.5862 7.1351 15.0778L7.13508 15.0778L7.13548 15.079C7.18272 15.2207 7.21744 15.4406 7.24195 15.7141C7.26634 15.9865 7.28032 16.3083 7.28737 16.652C7.28735 17.3255 7.25933 18.0816 7.16146 18.7527L7.16138 18.7533C7.13484 18.9523 7.02421 19.1797 6.85669 19.399C6.68971 19.6176 6.46901 19.8246 6.22771 19.9832C5.99192 20.1358 5.75926 20.2446 5.52949 20.2851C5.29959 20.3256 5.07286 20.2979 4.88823 20.1925L4.88824 20.1925L4.88677 20.1917C4.63711 20.0601 4.43229 19.7803 4.30759 19.296C4.15428 18.6686 4.09824 17.9982 4.09824 17.3261C4.09824 16.6682 4.15422 16.0095 4.21042 15.4478C4.21043 15.4477 4.21044 15.4476 4.21045 15.4475L4.2245 15.3216L4.23541 15.2238L4.14999 15.2727L4.05599 15.3264C4.01404 15.3402 3.98121 15.3504 3.94985 15.3504H3.94174L3.93404 15.3529C3.89902 15.3646 3.87189 15.3617 3.85971 15.3556L3.85994 15.3552L3.85318 15.3529C3.8111 15.3389 3.77431 15.3266 3.74997 15.3149C3.71492 15.2912 3.69209 15.2679 3.66804 15.232L3.66883 15.2315L3.66191 15.2246L3.57768 15.1401L3.52284 15.0851L3.49548 15.1578L3.45315 15.2703L3.45301 15.2702L3.45193 15.2739C3.32572 15.709 3.17182 16.1985 2.96218 16.6877C2.75218 17.1636 2.50105 17.6375 2.1951 18.0408L2.19471 18.0413C1.96096 18.3577 1.73397 18.4863 1.51516 18.4991L1.51515 18.4988L1.50983 18.4997C1.35785 18.5251 1.20212 18.4752 1.05327 18.3807C0.891674 18.2727 0.755547 18.1236 0.645848 17.959L0.645624 17.9587C0.515385 17.7667 0.419418 17.5506 0.366385 17.3436C0.313206 17.136 0.304134 16.9415 0.343335 16.7908Z" fill="#121619" stroke="black" stroke-width="0.1"/>
<path d="M8.13929 12.0809L11.4456 11.1133L10.3001 7.19955L6.99387 8.16718L8.13929 12.0809Z" fill="#A2A9B0"/>
<path d="M8.44483 11.4664L11.8768 11.1719L11.5282 7.1094L8.0962 7.40392L8.44483 11.4664Z" fill="#DDE1E6"/>
<path d="M10.3293 7.08745H10.3292H10.3292H10.3291H10.329H10.3289H10.3288H10.3287H10.3287H10.3286H10.3285H10.3284H10.3283H10.3282H10.3282H10.3281H10.328H10.3279H10.3278H10.3278H10.3277H10.3276H10.3275H10.3274H10.3273H10.3273H10.3272H10.3271H10.327H10.3269H10.3268H10.3268H10.3267H10.3266H10.3265H10.3264H10.3263H10.3263H10.3262H10.3261H10.326H10.3259H10.3258H10.3257H10.3257H10.3256H10.3255H10.3254H10.3253H10.3252H10.3252H10.3251H10.325H10.3249H10.3248H10.3247H10.3247H10.3246H10.3245H10.3244H10.3243H10.3242H10.3241H10.3241H10.324H10.3239H10.3238H10.3237H10.3236H10.3236H10.3235H10.3234H10.3233H10.3232H10.3231H10.323H10.323H10.3229H10.3228H10.3227H10.3226H10.3225H10.3224H10.3224H10.3223H10.3222H10.3221H10.322H10.3219H10.3218H10.3218H10.3217H10.3216H10.3215H10.3214H10.3213H10.3212H10.3211H10.3211H10.321H10.3209H10.3208H10.3207H10.3206H10.3205H10.3205H10.3204H10.3203H10.3202H10.3201H10.32H10.3199H10.3198H10.3198H10.3197H10.3196H10.3195H10.3194H10.3193H10.3192H10.3191H10.319H10.319H10.3189H10.3188H10.3187H10.3186H10.3185H10.3184H10.3183H10.3182H10.3182H10.3181H10.318H10.3179H10.3178H10.3177H10.3176H10.3175H10.3174H10.3173H10.3172H10.3172H10.3171H10.317H10.3169H10.3168H10.3167H10.3166H10.3165H10.3164H10.3163H10.3162H10.3162H10.3161H10.316H10.3159H10.3158H10.3157H10.3156H10.3155H10.3154H10.3153H10.3152H10.3151H10.315H10.3149H10.3149H10.3148H10.3147H10.3146H10.3145H10.3144H10.3143H10.3142H10.3141H10.314H10.3139H10.3138H10.3137H10.3136H10.3135H10.3134H10.3133H10.3132H10.3132H10.3131H10.313H10.3129H10.3128H10.3127H10.3126H10.3125H10.3124H10.3123H10.3122H10.3121H10.312H10.3119H10.3118H10.3117H10.3116H10.3115H10.3114H10.3113H10.3112H10.3111H10.311H10.3109H10.3108H10.3107H10.3106H10.3105H10.3104H10.3103H10.3102H10.3101H10.31H10.3099H10.3098H10.3097H10.3096H10.3095H10.3094H10.3093H10.3092H10.3091H10.309H10.3089H10.3088H10.3087H10.3086H10.3085H10.3084H10.3083H10.3082H10.3081H10.308H10.3079H10.3078H10.3077H10.3076H10.3075H10.3074H10.3073H10.3072H10.307H10.3069H10.3068H10.3067H10.3066H10.3065H10.3064H10.3063H10.3062H10.3061H10.306H10.3059H10.3058H10.3057H10.3056H10.3055H10.3053H10.3052H10.3051H10.305H10.3049H10.3048H10.3047H10.3046H10.3045H10.3044H10.3043H10.3042H10.304H10.3039H10.3038H10.3037H10.3036H10.3035H10.3034H10.3033H10.3032H10.303H10.3029H10.3028H10.3027H10.3026H10.3025H10.3024H10.3023H10.3022H10.302H10.3019H10.3018H10.3017H10.3016H10.3015H10.3014H10.3012H10.3011H10.301H10.3009H10.3008H10.3007H10.3005H10.3004H10.3003H10.3002H10.3001H10.3H10.2999H10.2997H10.2996H10.2995H10.2994H10.2993H10.2991H10.299H10.2989H10.2988H10.2987H10.2985H10.2984H10.2983H10.2982H10.2981H10.298H10.2978H10.2977H10.2976H10.2975H10.2973H10.2972H10.2971H10.297H10.2969H10.2967H10.2966H10.2965H10.2964H10.2962H10.2961H10.296H10.2959H10.2957H10.2956H10.2955H10.2954H10.2952H10.2951H10.295H10.2949H10.2947H10.2946H10.2945H10.2944H10.2942H10.2941H10.294H10.2938H10.2937H10.2936H10.2935H10.2933H10.2932H10.2931H10.2929H10.2928H10.2927H10.2926H10.2924H10.2923H10.2922H10.292H10.2919H10.2918H10.2916H10.2915H10.2914H10.2912H10.2911H10.291H10.2908H10.2907H10.2906H10.2904H10.2903H10.2902H10.29H10.2899H10.2898H10.2896H10.2895H10.2893H10.2892H10.2891H10.2889H10.2888H10.2887H10.2885H10.2884H10.2882H10.2881H10.288H10.2878H10.2877H10.2875H10.2874H10.2873H10.2871H10.287H10.2868H10.2867H10.2866H10.2864H10.2863H10.2861H10.286H10.2858H10.2857H10.2856H10.2854H10.2853H10.2851H10.285H10.2848H10.2847H10.2845H10.2844H10.2843H10.2841H10.284H10.2838H10.2837H10.2835H10.2834H10.2832H10.2831H10.2829H10.2828H10.2826H10.2825H10.2823H10.2822H10.282H10.2819H10.2817H10.2816H10.2814H10.2813H10.2811H10.281H10.2808H10.2806H10.2805H10.2803H10.2802H10.28H10.2799H10.2797H10.2796H10.2794H10.2793H10.2791H10.2789H10.2788H10.2786H10.2785H10.2783H10.2782H10.278H10.2778H10.2777H10.2775H10.2774H10.2772H10.277H10.2769H10.2767H10.2766H10.2764H10.2762H10.2761H10.2759H10.2757H10.2756H10.2754H10.2752V7.08591L10.2631 7.08895L10.2106 7.10209L8.09405 7.28431C8.05637 7.28511 8.02682 7.30424 8.00783 7.32595C7.98927 7.34718 7.97618 7.37603 7.97618 7.40455H7.97605L7.97632 7.40823L8.00139 7.74765L6.96317 8.05788C6.92892 8.06163 6.90417 8.0865 6.89141 8.10936C6.87653 8.13603 6.87054 8.17126 6.88204 8.20658L8.03274 12.1076C8.03547 12.144 8.05613 12.172 8.08462 12.1862C8.11113 12.1995 8.14302 12.2003 8.17018 12.1885L11.0153 11.3618L11.8816 11.2916L11.8817 11.293L11.8932 11.2893C11.9203 11.2803 11.9451 11.2662 11.9639 11.2474C11.9825 11.2288 11.9978 11.2028 11.9978 11.1716H11.998L11.9977 11.1673L11.6464 7.10686C11.6456 7.06916 11.6263 7.03964 11.6047 7.02073C11.5835 7.00223 11.5546 6.98906 11.5261 6.98906V6.98889L11.522 6.98923L10.3293 7.08745ZM11.4806 7.16311L11.8233 11.1257L10.9882 11.1919L10.9881 11.1908L10.9779 11.1938L8.1726 12.0231L7.06204 8.19786L8.15225 7.88835L8.19237 7.87696L8.18836 7.83544L8.15108 7.45001L10.2372 7.2716L10.2446 7.27097L10.2515 7.26821L10.2706 7.26056L10.3073 7.2576L11.4806 7.16311Z" fill="#121619" stroke="black" stroke-width="0.1"/>
<path d="M9.0242 13.8281L8.3634 15.3602L9.45986 14.7697L9.0242 13.8281Z" fill="#121619"/>
<path d="M20.2692 18.4805L21.1828 19.0566L20.2692 18.4805ZM21.1969 19.7455L21.239 21.0528L20.2692 22.0789V19.5908L21.1969 19.7455Z" fill="#DDE1E6"/>
<path d="M17.4236 8.91793V3.88967C17.4236 3.87045 17.4155 3.8512 17.4095 3.83918C17.4027 3.82556 17.3929 3.8102 17.3811 3.7983L17.3752 3.79235L17.3678 3.78864C17.3251 3.76746 17.2584 3.76537 17.2117 3.81223L17.2117 3.8122L17.2102 3.81381L12.1921 9.30981L12.1906 9.3085L12.1843 9.32111L12.229 9.34353L12.1843 9.32112L12.1843 9.32113L12.1843 9.32115L12.1842 9.3212L12.1842 9.32133L12.184 9.32172L12.1834 9.32297L12.1814 9.32713C12.1798 9.33053 12.1777 9.3353 12.1755 9.34071C12.1734 9.34601 12.171 9.35255 12.169 9.35938C12.1674 9.36515 12.1651 9.37426 12.1649 9.38423M17.4236 8.91793L21.3306 21.1441L20.3618 22.1692L20.3608 22.1702C20.3132 22.2178 20.2392 22.2178 20.1917 22.1702C20.1626 22.1411 20.1628 22.1071 20.1629 22.0832C20.1629 22.0817 20.1629 22.0801 20.1629 22.0786V19.6894L15.0924 18.8676M17.4236 8.91793C18.238 8.76758 19.8283 8.49405 21.2307 8.25574C21.9494 8.13361 22.6188 8.02072 23.1095 7.93835C23.3548 7.89717 23.5555 7.86361 23.6953 7.84035L23.8573 7.81351L23.9003 7.80649L23.9103 7.80491C23.9435 7.79275 23.9773 7.80383 23.9995 7.82053C24.0211 7.83671 24.0382 7.86213 24.0429 7.89293C24.0542 7.91604 24.0495 7.94047 24.0451 7.95373C24.0391 7.97173 24.0282 7.98816 24.0167 7.99994L17.4236 15.5892V16.5548L21.2359 18.9428L17.4236 8.91793ZM12.1649 9.38423L12.1649 9.38347L12.2149 9.38567H12.1649C12.1649 9.38519 12.1649 9.38471 12.1649 9.38423ZM12.1649 9.38423L12.012 12.8615M12.012 12.8615L8.99659 13.7091L8.98405 13.7126L8.97482 13.7218C8.97383 13.7228 8.97172 13.7246 8.96733 13.7279C8.96641 13.7286 8.96525 13.7295 8.96394 13.7304C8.96053 13.733 8.95613 13.7363 8.95255 13.7392C8.94741 13.7433 8.94005 13.7495 8.93373 13.7573C8.92927 13.7628 8.92267 13.7723 8.91962 13.7852M12.012 12.8615L12.0104 12.8976L12.0604 12.8998L12.0468 12.8517L12.012 12.8615ZM8.91962 13.7852L8.26437 15.305M8.91962 13.7852C8.9186 13.7895 8.91798 13.7942 8.91798 13.7993H8.96798M8.91962 13.7852L8.92206 13.7795L8.96798 13.7993M8.26437 15.305C8.25157 15.322 8.24678 15.3423 8.24678 15.3596C8.24678 15.3777 8.25201 15.399 8.26619 15.4165M8.26437 15.305L8.26145 15.3118L8.30737 15.3316M8.26437 15.305C8.2667 15.3019 8.2693 15.2989 8.27219 15.296L8.30737 15.3316M8.26619 15.4165C8.29711 15.4691 8.3669 15.4816 8.42161 15.4633L8.42185 15.464L8.42953 15.4598L9.43174 14.9182M8.26619 15.4165C8.26805 15.4188 8.27007 15.4211 8.27225 15.4232L8.30737 15.3876L8.26253 15.4098C8.26368 15.4121 8.2649 15.4144 8.26619 15.4165ZM9.43174 14.9182L11.8094 18.1023L11.8091 18.1026L11.8138 18.1074L11.8142 18.1078C11.8207 18.1144 11.8301 18.124 11.8404 18.1318C11.8493 18.1386 11.8646 18.1484 11.8845 18.1504M9.43174 14.9182L9.46973 14.8976L9.44596 14.8536L9.4059 14.8836L9.43174 14.9182ZM11.8845 18.1504L15.0713 18.8664L15.071 18.8676H15.0823H15.0924M11.8845 18.1504C11.8868 18.1506 11.8892 18.1507 11.8916 18.1507V18.1007L11.8807 18.1495L11.8845 18.1504ZM15.0924 18.8676H15.0964V18.8176L15.0884 18.8669L15.0924 18.8676ZM8.30737 15.3316L8.96798 13.7993M8.30737 15.3316L8.96798 13.7993M21.3312 21.1435C21.3488 21.1255 21.3546 21.1029 21.3569 21.0889C21.3595 21.0737 21.3594 21.0593 21.3594 21.0525L21.3593 21.0509L21.3172 19.7593L21.3312 21.1435ZM21.3172 19.7585L21.3172 19.7452L21.3172 19.7442L21.3031 19.0564C21.3031 19.0562 21.3031 19.056 21.3031 19.0558L21.3031 19.0554L21.3172 19.7585ZM17.183 4.18743V9.06242C17.183 9.09482 17.194 9.12573 17.2169 9.14868C17.2398 9.17163 17.2707 9.18268 17.3032 9.18268H17.3173V9.18367L17.3271 9.18171C18.6041 8.92625 22.4817 8.27169 23.6262 8.08033L17.2103 15.4663C17.1829 15.4947 17.1829 15.5261 17.183 15.5411L17.183 15.5423V16.5582C17.1755 16.5775 17.1724 16.5983 17.1724 16.6177C17.1724 16.6413 17.177 16.6669 17.1883 16.6894L17.2021 16.717H17.2327L21.0638 19.1132L21.0906 19.7183V19.7312L21.0906 19.7453L21.0906 19.7464L21.1184 21.0051L20.3895 21.7834V19.5907C20.3895 19.5301 20.3482 19.4733 20.288 19.4704L15.12 18.628L11.9768 17.9294L9.55615 14.6971L9.55658 14.6968L9.55137 14.6916C9.53119 14.6716 9.50739 14.6581 9.4801 14.6547C9.45332 14.6514 9.42922 14.6586 9.40942 14.6685L9.40941 14.6685L9.40848 14.669L8.6072 15.0938L9.11667 13.9256L12.1581 13.0744L12.1584 13.0753L12.167 13.071C12.1865 13.0612 12.206 13.0468 12.2213 13.029C12.2358 13.012 12.2504 12.9873 12.2508 12.9574L12.4046 9.43407L17.183 4.18743Z" fill="#121619" stroke="black" stroke-width="0.1"/>
</g>
<defs>
<clipPath id="clip0_23027_11729">
<rect width="24" height="24" fill="white"/>
</clipPath>
</defs>
</svg>
