<svg width="22" height="24" viewBox="0 0 22 24" fill="none" xmlns="http://www.w3.org/2000/svg">
<path d="M17.7885 3.33009L18.282 3.38484L18.3367 3.87834C18.3495 3.99534 18.4477 4.08309 18.5647 4.08309C18.6817 4.08309 18.78 3.99534 18.7927 3.87834L18.8475 3.38484L19.341 3.33009C19.4572 3.31734 19.5457 3.21909 19.5457 3.10209C19.5457 2.98509 19.458 2.88684 19.341 2.87409L18.8475 2.81934L18.7927 2.32584C18.78 2.20884 18.6817 2.12109 18.5647 2.12109C18.4477 2.12109 18.3495 2.20884 18.3367 2.32584L18.282 2.81934L17.7885 2.87409C17.6722 2.88684 17.5837 2.98509 17.5837 3.10209C17.5837 3.21834 17.6722 3.31734 17.7885 3.33009Z" fill="#121619"/>
<path d="M3.66373 3.50578L4.12498 3.55678L4.17598 4.01878C4.18873 4.13503 4.28773 4.22278 4.40473 4.22278C4.52173 4.22278 4.61998 4.13503 4.63273 4.01803L4.68373 3.55678L5.14573 3.50578C5.26198 3.49303 5.35048 3.39478 5.35048 3.27778C5.35048 3.16078 5.26273 3.06253 5.14573 3.04978L4.68373 2.99803L4.63273 2.53678C4.61998 2.42053 4.52173 2.33203 4.40473 2.33203C4.28773 2.33203 4.18948 2.42053 4.17673 2.53678L4.12498 2.99803L3.66373 3.04978C3.54748 3.06253 3.45898 3.16078 3.45898 3.27778C3.45898 3.39478 3.54748 3.49303 3.66373 3.50578Z" fill="#121619"/>
<path d="M0.798727 5.88878L1.32373 5.94728L1.38148 6.47228C1.39423 6.58928 1.49248 6.67703 1.60948 6.67703C1.72648 6.67703 1.82473 6.58853 1.83748 6.47228L1.89523 5.94728L2.42023 5.88878C2.53648 5.87603 2.62498 5.77778 2.62498 5.66078C2.62498 5.54378 2.53723 5.44553 2.42023 5.43278L1.89523 5.37428L1.83748 4.84928C1.82623 4.73228 1.72798 4.64453 1.61098 4.64453C1.49398 4.64453 1.39498 4.73228 1.38223 4.84928L1.32448 5.37428L0.799477 5.43278C0.682477 5.44478 0.594727 5.54303 0.594727 5.66003C0.594727 5.77703 0.682477 5.87528 0.798727 5.88878Z" fill="#121619"/>
<path d="M14.2724 1.22528C14.3152 1.26803 14.3737 1.29278 14.4352 1.29278C14.4959 1.29278 14.5544 1.26878 14.5979 1.22528L14.8949 0.928281C14.9377 0.885531 14.9624 0.826281 14.9624 0.765531C14.9624 0.704781 14.9384 0.646281 14.8949 0.602781L14.5979 0.305781C14.5079 0.215781 14.3632 0.215781 14.2732 0.305781L13.9762 0.602781C13.9334 0.645531 13.9087 0.704031 13.9087 0.765531C13.9087 0.826281 13.9327 0.884781 13.9762 0.928281L14.2724 1.22528Z" fill="#121619"/>
<path d="M11.754 2.49906C11.7968 2.54181 11.8553 2.56656 11.9168 2.56656C11.9783 2.56656 12.036 2.54256 12.0795 2.49906L12.3765 2.20206C12.4665 2.11206 12.4665 1.96731 12.3765 1.87731L12.0795 1.58031C11.9933 1.49406 11.841 1.49406 11.7548 1.58031L11.4578 1.87731C11.3678 1.96731 11.3678 2.11206 11.4578 2.20206L11.754 2.49906Z" fill="#121619"/>
<path d="M1.455 8.73937C1.365 8.64938 1.22025 8.64938 1.13025 8.73937L0.833247 9.03637C0.790497 9.07912 0.765747 9.13762 0.765747 9.19912C0.765747 9.25987 0.789747 9.31837 0.833247 9.36187L1.13025 9.65887C1.173 9.70162 1.2315 9.72637 1.293 9.72637C1.3545 9.72637 1.41225 9.70237 1.45575 9.65887L1.75275 9.36187C1.7955 9.31912 1.82025 9.25987 1.82025 9.19912C1.82025 9.13837 1.79625 9.07987 1.75275 9.03637L1.455 8.73937Z" fill="#121619"/>
<path d="M20.5868 9.45684C20.6318 9.50184 20.6903 9.52434 20.7495 9.52434C20.8088 9.52434 20.8673 9.50184 20.9123 9.45684L21.2093 9.15984C21.252 9.11709 21.2768 9.05859 21.2768 8.99709C21.2768 8.93634 21.2528 8.87784 21.2093 8.83434L20.9123 8.53734C20.826 8.45109 20.6738 8.45109 20.5875 8.53734L20.2905 8.83434C20.2478 8.87709 20.223 8.93634 20.223 8.99709C20.223 9.05784 20.247 9.11634 20.2905 9.15984L20.5868 9.45684Z" fill="#121619"/>
<path d="M8.62347 0.983437C8.66847 1.02844 8.72697 1.05094 8.78622 1.05094C8.84547 1.05094 8.90397 1.02844 8.94897 0.983437L9.24597 0.686437C9.28797 0.643687 9.31272 0.585187 9.31272 0.524437C9.31272 0.463687 9.28872 0.405187 9.24522 0.361688L8.94822 0.0646875C8.86197 -0.0215625 8.70972 -0.0215625 8.62347 0.0646875L8.32647 0.361688C8.28372 0.404438 8.25897 0.463687 8.25897 0.524437C8.25897 0.585187 8.28297 0.643687 8.32647 0.687187L8.62347 0.983437Z" fill="#121619"/>
<path d="M3.31725 20.3205L2.4915 20.229L2.4 19.404C2.388 19.2877 2.28975 19.1992 2.17275 19.1992C2.05575 19.1992 1.9575 19.287 1.94475 19.404L1.85325 20.229L1.0275 20.3205C0.911254 20.3332 0.822754 20.4315 0.822754 20.5485C0.822754 20.6655 0.910504 20.7637 1.0275 20.7765L1.85325 20.868L1.94475 21.693C1.9575 21.81 2.05575 21.8977 2.17275 21.8977C2.28975 21.8977 2.388 21.8092 2.40075 21.693L2.49225 20.868L3.318 20.7765C3.43425 20.7637 3.52275 20.6655 3.52275 20.5485C3.52275 20.4315 3.4335 20.3332 3.31725 20.3205Z" fill="#121619"/>
<path d="M18.2948 21.0291L17.8403 20.9788L17.79 20.5243C17.7773 20.4081 17.679 20.3203 17.562 20.3203C17.445 20.3203 17.3468 20.4088 17.334 20.5251L17.2838 20.9796L16.8293 21.0298C16.713 21.0426 16.6245 21.1408 16.6245 21.2578C16.6245 21.3748 16.7123 21.4731 16.8293 21.4858L17.2838 21.5361L17.334 21.9906C17.3468 22.1068 17.445 22.1953 17.562 22.1953C17.679 22.1953 17.7773 22.1076 17.79 21.9913L17.8403 21.5368L18.2948 21.4866C18.411 21.4738 18.4995 21.3756 18.4995 21.2586C18.4995 21.1416 18.411 21.0426 18.2948 21.0291Z" fill="#121619"/>
<path d="M21.42 17.9676L21.021 17.9233L20.9768 17.5251C20.964 17.4081 20.8658 17.3203 20.7488 17.3203C20.6318 17.3203 20.5335 17.4088 20.5208 17.5251L20.4765 17.9233L20.0783 17.9676C19.962 17.9803 19.8735 18.0786 19.8735 18.1956C19.8735 18.3126 19.9613 18.4108 20.0783 18.4236L20.4765 18.4678L20.5208 18.8661C20.5335 18.9823 20.6318 19.0708 20.7488 19.0708C20.8658 19.0708 20.964 18.9831 20.9768 18.8661L21.021 18.4678L21.42 18.4236C21.5363 18.4108 21.6248 18.3126 21.6248 18.1956C21.6248 18.0786 21.5363 17.9811 21.42 17.9676Z" fill="#121619"/>
<path d="M7.76921 22.7745C7.67921 22.6845 7.53446 22.6845 7.44446 22.7745L7.14746 23.0715C7.10471 23.1143 7.07996 23.1728 7.07996 23.2343C7.07996 23.295 7.10396 23.3535 7.14746 23.397L7.44446 23.694C7.48721 23.7368 7.54571 23.7615 7.60721 23.7615C7.66871 23.7615 7.72646 23.7375 7.76996 23.694L8.06696 23.397C8.10971 23.3543 8.13446 23.295 8.13446 23.2343C8.13446 23.1735 8.11046 23.115 8.06696 23.0715L7.76921 22.7745Z" fill="#121619"/>
<path d="M10.2878 21.4972C10.1978 21.4072 10.053 21.4072 9.96301 21.4972L9.66601 21.7942C9.62326 21.8369 9.59851 21.8954 9.59851 21.9569C9.59851 22.0177 9.62251 22.0762 9.66601 22.1197L9.96301 22.4167C10.0058 22.4594 10.0643 22.4842 10.1258 22.4842C10.1865 22.4842 10.245 22.4602 10.2885 22.4167L10.5855 22.1197C10.6283 22.0769 10.653 22.0184 10.653 21.9569C10.653 21.8954 10.629 21.8377 10.5855 21.7942L10.2878 21.4972Z" fill="#121619"/>
<path d="M20.5868 15.2604C20.6295 15.3032 20.688 15.3279 20.7495 15.3279C20.8103 15.3279 20.8688 15.3039 20.9123 15.2604L21.2093 14.9634C21.252 14.9207 21.2768 14.8622 21.2768 14.8007C21.2768 14.7392 21.2528 14.6814 21.2093 14.6379L20.9123 14.3409C20.8223 14.2509 20.6775 14.2509 20.5875 14.3409L20.2905 14.6379C20.2478 14.6807 20.223 14.7392 20.223 14.8007C20.223 14.8614 20.247 14.9199 20.2905 14.9634L20.5868 15.2604Z" fill="#121619"/>
<path d="M0.987 15.3723L0.69 15.0753C0.64725 15.0326 0.58875 15.0078 0.52725 15.0078C0.4665 15.0078 0.408 15.0318 0.3645 15.0753L0.0675 15.3723C-0.0225 15.4623 -0.0225 15.6071 0.0675 15.6971L0.3645 15.9941C0.40725 16.0368 0.46575 16.0616 0.52725 16.0616C0.588 16.0616 0.6465 16.0376 0.69 15.9941L0.987 15.6971C1.07625 15.6078 1.07625 15.4623 0.987 15.3723Z" fill="#121619"/>
<path d="M13.4183 23.0128C13.3755 22.9701 13.317 22.9453 13.2555 22.9453C13.1948 22.9453 13.1363 22.9693 13.0928 23.0128L12.7958 23.3098C12.753 23.3526 12.7283 23.4111 12.7283 23.4726C12.7283 23.5341 12.7523 23.5918 12.7958 23.6353L13.0928 23.9323C13.1378 23.9773 13.1963 23.9998 13.2555 23.9998C13.3148 23.9998 13.3733 23.9773 13.4183 23.9323L13.7153 23.6353C13.758 23.5926 13.7828 23.5341 13.7828 23.4726C13.7828 23.4118 13.7588 23.3533 13.7153 23.3098L13.4183 23.0128Z" fill="#121619"/>
<path d="M16.0005 10.8491C16.2067 11.0553 16.4332 11.2256 16.6732 11.3553C16.977 11.5196 17.2845 11.6058 17.5635 11.6058C17.859 11.6058 18.1117 11.5091 18.294 11.3268C18.4192 11.2016 18.5047 11.0441 18.546 10.8588C18.627 10.4966 18.5317 10.0593 18.2797 9.62734C18.156 9.41584 18.0007 9.21634 17.8177 9.03334C17.3445 8.55934 16.7602 8.27734 16.2547 8.27734C15.9592 8.27734 15.7065 8.37409 15.5242 8.55634C15.1305 8.94934 15.1545 9.64534 15.5842 10.3286C15.699 10.5116 15.8392 10.6871 16.0005 10.8491ZM15.957 8.98834C16.023 8.92159 16.1227 8.88859 16.2547 8.88859C16.596 8.88859 17.0287 9.10984 17.385 9.46534C17.5312 9.61159 17.6542 9.76984 17.7517 9.93559C17.9212 10.2251 17.9947 10.5206 17.949 10.7253C17.9332 10.7951 17.9055 10.8498 17.862 10.8926C17.7075 11.0478 17.3355 11.0148 16.965 10.8161C16.7797 10.7163 16.596 10.5776 16.4347 10.4163C16.3057 10.2873 16.194 10.1478 16.1025 10.0031C15.843 9.58984 15.7815 9.16309 15.957 8.98834Z" fill="#121619"/>
<path d="M18.9525 16.3525C19.0103 16.2535 19.068 16.153 19.122 16.0518C19.1505 15.9993 19.1768 15.946 19.2038 15.8927C19.2405 15.8208 19.2773 15.7488 19.3125 15.676C19.35 15.598 19.3845 15.5185 19.4198 15.4397C19.4423 15.3888 19.4655 15.3385 19.4865 15.2875C19.5263 15.1923 19.5638 15.0955 19.6005 14.9988C19.6148 14.9605 19.6298 14.923 19.644 14.8848C19.6815 14.782 19.716 14.6778 19.7498 14.5728C19.761 14.5367 19.7738 14.5015 19.7843 14.4655C19.8158 14.3635 19.8443 14.26 19.872 14.1565C19.8833 14.1153 19.8953 14.074 19.9058 14.0328C19.9298 13.9375 19.9515 13.8415 19.9725 13.7455C19.9838 13.6938 19.9958 13.642 20.007 13.5895C20.0243 13.5048 20.0385 13.4185 20.0528 13.333C20.064 13.2685 20.0753 13.2048 20.085 13.1403C20.0873 13.1245 20.0903 13.1095 20.0925 13.0938C20.097 13.0638 20.0985 13.0323 20.1023 13.0023C20.1218 12.8538 20.1383 12.7038 20.1503 12.553C20.1548 12.4975 20.1593 12.442 20.163 12.3858C20.175 12.199 20.1825 12.0115 20.1833 11.8218C20.1833 11.8188 20.1833 11.8165 20.1833 11.8135V11.8113V11.8105C20.1833 11.8098 20.1833 11.8098 20.1833 11.809L20.1818 11.6553C20.1818 11.6478 20.1795 11.641 20.1788 11.6335C20.0835 6.73675 16.0733 2.78125 11.154 2.78125C6.17551 2.78125 2.12476 6.832 2.12476 11.8105C2.12476 13.5678 2.63101 15.2088 3.50326 16.597C3.51226 16.6165 3.52501 16.633 3.53776 16.6503C4.22326 17.725 5.12851 18.646 6.19201 19.348C6.20701 19.36 6.22276 19.3698 6.23926 19.3788C7.65451 20.3013 9.34201 20.8398 11.154 20.8398C12.9638 20.8398 14.649 20.3027 16.0635 19.3825C16.086 19.3713 16.1063 19.3593 16.125 19.3428C17.2628 18.589 18.2205 17.5855 18.9195 16.4103C18.9203 16.4088 18.921 16.408 18.9218 16.4073C18.9323 16.3893 18.942 16.3705 18.9525 16.3525ZM19.4498 13.2228C19.4355 13.3053 19.422 13.387 19.4055 13.4688C19.3965 13.5153 19.3853 13.561 19.3755 13.6075C19.3553 13.699 19.335 13.7905 19.3125 13.8813C19.3035 13.918 19.293 13.9548 19.2825 13.9915C19.2563 14.089 19.2293 14.1865 19.1993 14.2833C19.1895 14.3155 19.1783 14.3478 19.1678 14.38C19.1363 14.4775 19.104 14.575 19.0688 14.671C19.056 14.7063 19.0418 14.7415 19.029 14.7768C18.9953 14.866 18.96 14.9552 18.9233 15.0437C18.9038 15.0903 18.8835 15.136 18.8625 15.1825C18.8303 15.256 18.7973 15.3295 18.7635 15.4015C18.7328 15.466 18.7005 15.5305 18.6675 15.595C18.642 15.646 18.6165 15.697 18.5895 15.7472C18.543 15.8342 18.495 15.9205 18.4455 16.006C18.4343 16.0255 18.423 16.045 18.4118 16.0645C18.2948 16.1785 18.1515 16.264 17.994 16.3135C15.9953 16.9435 13.644 17.2765 11.1945 17.2765C10.8233 17.2765 10.4565 17.269 10.1033 17.254C7.93201 17.1655 5.71276 16.7883 3.98626 16.2198C3.24076 15.0122 2.79376 13.6038 2.74351 12.0955C3.50401 12.424 4.34626 12.7098 5.26501 12.9408C7.07026 13.3945 9.12076 13.6345 11.1953 13.6345C14.3333 13.6345 17.2808 13.1043 19.5623 12.1368C19.5615 12.1548 19.5615 12.1728 19.5608 12.19C19.5578 12.2635 19.5518 12.337 19.5465 12.4113C19.5413 12.4825 19.5368 12.5538 19.53 12.625C19.5233 12.6993 19.5135 12.7727 19.5045 12.8463C19.4963 12.9152 19.488 12.985 19.4783 13.0533C19.47 13.1088 19.4595 13.1658 19.4498 13.2228ZM3.89176 7.564C4.13701 7.6465 4.38451 7.72825 4.63501 7.7995C4.72951 7.8265 4.82401 7.8535 4.91926 7.87825C5.66776 8.0815 6.46576 8.24875 7.29151 8.37475C7.29526 8.3755 7.29901 8.37625 7.30201 8.37625C8.55676 8.56675 9.867 8.66275 11.1968 8.66275C12.5288 8.66275 13.839 8.566 15.093 8.3755C15.096 8.3755 15.099 8.37475 15.102 8.374C16.0328 8.2315 16.9268 8.038 17.7578 7.798C17.9843 7.7335 18.2078 7.6585 18.4305 7.58425C19.1003 8.73325 19.506 10.054 19.563 11.4633C17.3265 12.466 14.3678 13.0188 11.1968 13.0188C9.17175 13.0188 7.17301 12.7855 5.41651 12.343C4.43176 12.0955 3.53701 11.7858 2.74801 11.4258C2.81026 10.0233 3.21976 8.70775 3.89176 7.564ZM18.09 7.05775C17.9235 7.111 17.7555 7.16275 17.5868 7.21075C16.7835 7.4425 15.9188 7.63 15.0173 7.768C15.0135 7.768 15.0098 7.76875 15.0068 7.7695C12.5588 8.14225 9.84076 8.143 7.38301 7.7695C7.38001 7.76875 7.37776 7.76875 7.37476 7.768C6.57526 7.64575 5.80276 7.483 5.07676 7.2865C4.98526 7.2625 4.89451 7.237 4.80376 7.2115C4.63576 7.16275 4.46701 7.11175 4.30051 7.05775C4.38151 6.94 4.46626 6.8245 4.55401 6.7105C4.77451 6.775 4.99651 6.83575 5.21551 6.8905C5.80801 7.042 6.43276 7.171 7.07176 7.2745C7.07476 7.2745 7.07776 7.27525 7.08076 7.276C9.71551 7.70275 12.6743 7.7035 15.3105 7.276C15.3135 7.276 15.3165 7.27525 15.3203 7.2745C16.2023 7.13125 17.0483 6.94225 17.8373 6.7105C17.9243 6.8245 18.009 6.94 18.09 7.05775ZM14.7705 4.2115C13.6193 4.37575 12.4215 4.462 11.1953 4.462C9.94726 4.462 8.72926 4.37125 7.55851 4.20175C8.64976 3.68425 9.86775 3.39325 11.154 3.39325C12.4478 3.394 13.674 3.688 14.7705 4.2115ZM6.68251 4.68475C8.11801 4.9435 9.636 5.07475 11.1953 5.07475C12.7305 5.07475 14.2253 4.94575 15.6413 4.69525C16.299 5.1115 16.896 5.6155 17.4143 6.19225C16.7235 6.38425 15.993 6.54475 15.2318 6.66925C15.228 6.66925 15.2243 6.67 15.2205 6.67075C12.645 7.0885 9.74626 7.0885 7.17076 6.67075C7.16776 6.67075 7.16476 6.67 7.16176 6.66925C6.54376 6.56875 5.94001 6.44425 5.36626 6.29725C5.21626 6.25975 5.06326 6.21325 4.91176 6.1705C5.43001 5.59825 6.02626 5.098 6.68251 4.68475ZM8.20726 19.6938C9.17551 19.7995 10.1843 19.8558 11.196 19.8558C12.1898 19.8558 13.1618 19.7965 14.109 19.6908C13.1888 20.0365 12.1935 20.2278 11.154 20.2278C10.1175 20.2278 9.12451 20.038 8.20726 19.6938ZM15.8003 18.8245C14.343 19.1012 12.795 19.243 11.196 19.243C9.56925 19.243 7.95076 19.0982 6.50926 18.8253C5.76826 18.3325 5.10976 17.7258 4.55851 17.0298C6.20251 17.4858 8.16076 17.7865 10.0793 17.8645C10.4408 17.8803 10.8165 17.8877 11.196 17.8877C13.5398 17.8877 15.795 17.5855 17.7585 17.0193C17.205 17.719 16.5443 18.3295 15.8003 18.8245Z" fill="#121619"/>
</svg>
