<svg width="24" height="24" viewBox="0 0 24 24" fill="none" xmlns="http://www.w3.org/2000/svg">
<path d="M12.9623 16.4648H11.0388V18.5689H12.9623V16.4648Z" fill="#121619"/>
<path d="M15.5239 5.3125L12.9612 17.35V16.4649H11.0388V17.35L9.59414 5.3125H2.64233V18.2397L3.14341 18.0337C5.85857 16.9164 8.8991 16.8846 11.6371 17.9447L12 18.091L12.3629 17.9447C15.1009 16.8846 18.1414 16.9164 20.8566 18.0337L21.3577 18.2397V5.3125H15.5239Z" fill="#121619"/>
<path d="M12 17.697C9.11878 16.5123 5.88645 16.5123 3.00525 17.697V4.28397C5.88622 3.09805 9.119 3.09805 12 4.28397V17.697Z" fill="#FCFCFD"/>
<path d="M18.9003 19.6253L18.288 19.1148L17.6769 19.6253C17.4697 19.7986 17.1536 19.651 17.1536 19.3806V15.9141H19.4224V19.3806C19.4224 19.651 19.1075 19.7986 18.9003 19.6253Z" fill="#FCFCFD"/>
<path d="M17.1536 17.1913C17.9201 17.2342 18.6803 17.3551 19.4224 17.5519V15.9141H17.1536V17.1913Z" fill="#121619"/>
<path d="M12 17.697C14.8812 16.5123 18.1135 16.5123 20.9947 17.697V4.28397C18.1138 3.09805 14.881 3.09805 12 4.28397V17.697Z" fill="#FCFCFD"/>
<path d="M3.75452 4.95337V4.00391C3.50281 4.0882 3.25227 4.18069 3.00525 4.28254V17.6956C5.90507 16.6091 9.10016 16.6091 12 17.6956V16.2755L11.9192 16.2486C7.04076 14.6552 3.75452 10.0847 3.75452 4.95337Z" fill="#FCFCFD"/>
<path d="M12.7493 4.95337V4.00391C12.4964 4.0882 12.2466 4.18108 12 4.28254V17.6956C14.8998 16.6091 18.0949 16.6091 20.9947 17.6956V16.2755L20.914 16.2486C16.0343 14.6552 12.7493 10.0847 12.7493 4.95337Z" fill="#FCFCFD"/>
<path d="M19.4424 6.89631C19.4149 6.89621 19.3876 6.89146 19.3616 6.88226C17.5131 6.20014 15.4818 6.20014 13.6332 6.88226C13.6043 6.89287 13.5736 6.89768 13.5428 6.89642C13.5121 6.89516 13.4819 6.88786 13.4539 6.87492C13.426 6.86198 13.4009 6.84367 13.38 6.82103C13.3592 6.79838 13.343 6.77185 13.3323 6.74295C13.3217 6.71404 13.3169 6.68333 13.3182 6.65257C13.3194 6.62181 13.3268 6.59159 13.3397 6.56365C13.3526 6.53572 13.3709 6.5106 13.3936 6.48974C13.4162 6.46887 13.4428 6.45268 13.4717 6.44207C15.4247 5.72244 17.5702 5.72244 19.5232 6.44207C19.575 6.46088 19.6186 6.49739 19.6461 6.54515C19.6737 6.59291 19.6835 6.64887 19.6738 6.70316C19.6642 6.75746 19.6357 6.8066 19.5933 6.84193C19.551 6.87727 19.4976 6.89653 19.4424 6.89631Z" fill="#121619"/>
<path d="M19.4423 9.37793C19.4147 9.37801 19.3873 9.37284 19.3615 9.36271C17.513 8.6806 15.4817 8.6806 13.6331 9.36271C13.604 9.37498 13.5726 9.38121 13.541 9.38102C13.5093 9.38083 13.4781 9.37423 13.449 9.36162C13.42 9.349 13.3938 9.33064 13.3721 9.30763C13.3504 9.28462 13.3336 9.25744 13.3226 9.22775C13.3117 9.19805 13.3069 9.16644 13.3085 9.13484C13.3102 9.10324 13.3182 9.07229 13.3321 9.04387C13.346 9.01545 13.3656 8.99015 13.3895 8.9695C13.4135 8.94884 13.4414 8.93326 13.4716 8.92369C15.4243 8.20252 17.5704 8.20252 19.5231 8.92369C19.5749 8.9425 19.6185 8.97901 19.646 9.02677C19.6736 9.07454 19.6834 9.13049 19.6737 9.18479C19.6641 9.23908 19.6356 9.28822 19.5932 9.32356C19.5509 9.35889 19.4975 9.37815 19.4423 9.37793Z" fill="#121619"/>
<path d="M19.4423 11.8572C19.4148 11.8571 19.3875 11.8524 19.3615 11.8432C17.513 11.1611 15.4817 11.1611 13.6331 11.8432C13.604 11.8555 13.5726 11.8617 13.541 11.8615C13.5093 11.8613 13.4781 11.8547 13.449 11.8421C13.42 11.8295 13.3938 11.8111 13.3721 11.7881C13.3504 11.7651 13.3336 11.7379 13.3226 11.7082C13.3117 11.6785 13.3069 11.6469 13.3085 11.6153C13.3102 11.5837 13.3182 11.5528 13.3321 11.5243C13.346 11.4959 13.3656 11.4706 13.3895 11.45C13.4135 11.4293 13.4414 11.4137 13.4716 11.4042C15.4243 10.683 17.5704 10.683 19.5231 11.4042C19.5741 11.4235 19.6168 11.4601 19.6437 11.5076C19.6707 11.5551 19.6802 11.6105 19.6706 11.6642C19.661 11.7179 19.6329 11.7666 19.5913 11.8019C19.5496 11.8371 19.4969 11.8567 19.4423 11.8572Z" fill="#121619"/>
<path d="M19.4424 14.3377C19.4149 14.3376 19.3876 14.3329 19.3616 14.3237C17.5131 13.6415 15.4818 13.6415 13.6332 14.3237C13.6043 14.3343 13.5736 14.3391 13.5428 14.3378C13.5121 14.3366 13.4819 14.3293 13.4539 14.3163C13.426 14.3034 13.4009 14.2851 13.38 14.2624C13.3592 14.2398 13.343 14.2133 13.3323 14.1844C13.3217 14.1554 13.3169 14.1247 13.3182 14.094C13.3194 14.0632 13.3268 14.033 13.3397 14.0051C13.3526 13.9771 13.3709 13.952 13.3936 13.9311C13.4162 13.9103 13.4428 13.8941 13.4717 13.8835C15.4247 13.1638 17.5702 13.1638 19.5232 13.8835C19.575 13.9023 19.6186 13.9388 19.6461 13.9866C19.6737 14.0343 19.6835 14.0903 19.6738 14.1446C19.6642 14.1989 19.6357 14.248 19.5933 14.2833C19.551 14.3187 19.4976 14.3379 19.4424 14.3377Z" fill="#121619"/>
<path d="M4.55768 6.89631C4.50254 6.89653 4.44909 6.87727 4.40675 6.84193C4.36441 6.8066 4.3359 6.75746 4.32625 6.70316C4.31659 6.64887 4.32641 6.59291 4.35397 6.54515C4.38153 6.49739 4.42506 6.46088 4.4769 6.44207C6.42989 5.72244 8.57542 5.72244 10.5284 6.44207C10.5573 6.45268 10.5838 6.46887 10.6065 6.48974C10.6291 6.5106 10.6474 6.53572 10.6604 6.56365C10.6733 6.59159 10.6806 6.62181 10.6819 6.65257C10.6831 6.68333 10.6783 6.71404 10.6677 6.74295C10.6571 6.77185 10.6409 6.79838 10.6201 6.82103C10.5992 6.84367 10.5741 6.86198 10.5461 6.87492C10.5182 6.88786 10.488 6.89516 10.4572 6.89642C10.4265 6.89768 10.3958 6.89287 10.3668 6.88226C8.5183 6.20014 6.487 6.20014 4.63846 6.88226C4.61251 6.89146 4.5852 6.89621 4.55768 6.89631Z" fill="#121619"/>
<path d="M4.55768 9.37793C4.50254 9.37815 4.44909 9.35889 4.40675 9.32356C4.36441 9.28822 4.3359 9.23908 4.32625 9.18479C4.31659 9.13049 4.32641 9.07454 4.35397 9.02677C4.38153 8.97901 4.42506 8.9425 4.4769 8.92369C6.42961 8.20252 8.5757 8.20252 10.5284 8.92369C10.5586 8.93326 10.5865 8.94884 10.6105 8.9695C10.6344 8.99015 10.654 9.01545 10.6679 9.04387C10.6818 9.07229 10.6898 9.10324 10.6915 9.13484C10.6931 9.16644 10.6883 9.19805 10.6774 9.22775C10.6664 9.25744 10.6496 9.28462 10.6279 9.30763C10.6061 9.33064 10.58 9.349 10.551 9.36162C10.5219 9.37423 10.4907 9.38083 10.459 9.38102C10.4274 9.38121 10.396 9.37498 10.3668 9.36271C8.5183 8.6806 6.487 8.6806 4.63846 9.36271C4.61274 9.37284 4.58533 9.37801 4.55768 9.37793Z" fill="#121619"/>
<path d="M4.55766 11.8572C4.50307 11.8567 4.45039 11.8371 4.4087 11.8019C4.36702 11.7666 4.33896 11.7179 4.32938 11.6642C4.3198 11.6105 4.3293 11.5551 4.35623 11.5076C4.38316 11.4601 4.42584 11.4235 4.47688 11.4042C6.42959 10.683 8.57568 10.683 10.5284 11.4042C10.5585 11.4137 10.5865 11.4293 10.6104 11.45C10.6344 11.4706 10.6539 11.4959 10.6679 11.5243C10.6818 11.5528 10.6898 11.5837 10.6914 11.6153C10.6931 11.6469 10.6883 11.6785 10.6773 11.7082C10.6664 11.7379 10.6496 11.7651 10.6278 11.7881C10.6061 11.8111 10.58 11.8295 10.5509 11.8421C10.5219 11.8547 10.4906 11.8613 10.459 11.8615C10.4273 11.8617 10.396 11.8555 10.3668 11.8432C8.51828 11.1611 6.48698 11.1611 4.63844 11.8432C4.6125 11.8524 4.58519 11.8571 4.55766 11.8572Z" fill="#121619"/>
<path d="M4.55768 14.3377C4.50254 14.3379 4.44909 14.3187 4.40675 14.2833C4.36441 14.248 4.3359 14.1989 4.32625 14.1446C4.31659 14.0903 4.32641 14.0343 4.35397 13.9866C4.38153 13.9388 4.42506 13.9023 4.4769 13.8835C6.42989 13.1638 8.57542 13.1638 10.5284 13.8835C10.5573 13.8941 10.5838 13.9103 10.6065 13.9311C10.6291 13.952 10.6474 13.9771 10.6604 14.0051C10.6733 14.033 10.6806 14.0632 10.6819 14.094C10.6831 14.1247 10.6783 14.1554 10.6677 14.1844C10.6571 14.2133 10.6409 14.2398 10.6201 14.2624C10.5992 14.2851 10.5741 14.3034 10.5461 14.3163C10.5182 14.3293 10.488 14.3366 10.4572 14.3378C10.4265 14.3391 10.3958 14.3343 10.3668 14.3237C8.5183 13.6415 6.487 13.6415 4.63846 14.3237C4.61251 14.3329 4.5852 14.3376 4.55768 14.3377Z" fill="#121619"/>
<path d="M19.4224 18.3763C19.4224 18.2483 19.3189 18.1445 19.1912 18.1445C19.0635 18.1445 18.96 18.2483 18.96 18.3763V19.1464C18.96 19.2745 19.0635 19.3782 19.1912 19.3782C19.3189 19.3782 19.4224 19.2745 19.4224 19.1464V18.3763Z" fill="#121619"/>
</svg>
