<svg width="24" height="24" viewBox="0 0 24 24" fill="none" xmlns="http://www.w3.org/2000/svg">
<path d="M8.51952 3.51132L9.49974 8.29455H8.22345C8.09607 8.29455 7.97412 8.34726 7.88655 8.44026C7.79922 8.53275 7.75377 8.65779 7.76151 8.7849L8.47404 20.8391C8.48232 21.503 9.02487 22.041 9.69093 22.041H14.0234C14.6894 22.041 15.2322 21.503 15.2405 20.8391L15.953 8.7849C15.9602 8.65779 15.915 8.53275 15.8274 8.44026C15.7401 8.34723 15.6182 8.29455 15.4905 8.29455H10.4448L9.38424 3.1176C9.35712 2.9853 9.27393 2.87214 9.15663 2.80602L5.00895 0.48852C4.78599 0.36399 4.50387 0.44355 4.37883 0.66678C4.25403 0.89001 4.33413 1.17213 4.55736 1.29666L8.51952 3.51132ZM11.3566 17.3575C11.4013 17.5771 11.5945 17.728 11.8095 17.728C11.8405 17.728 11.8717 17.7249 11.903 17.7182C12.1536 17.667 12.3148 17.4226 12.2636 17.172L10.6344 9.22053H14.9996L14.9247 10.4847H11.794C11.5382 10.4847 11.331 10.6919 11.331 10.9477C11.331 11.2029 11.5382 11.4107 11.794 11.4107H14.87L14.3156 20.7963C14.315 20.8056 14.3145 20.8144 14.3145 20.8237C14.3145 20.9843 14.1838 21.1151 14.0234 21.1151H9.69093C9.53049 21.1151 9.39975 20.9844 9.39975 20.8237C9.39975 20.8143 9.39951 20.8055 9.399 20.7963L8.84403 11.4107H9.29433C9.54987 11.4107 9.75732 11.2029 9.75732 10.9477C9.75732 10.6919 9.54987 10.4847 9.29433 10.4847H8.78925L8.71485 9.22053H9.68937L11.3566 17.3575Z" fill="#121619"/>
<path d="M13.3311 15.1186C14.0112 15.1186 14.5641 14.5652 14.5641 13.8852C14.5641 13.2052 14.0112 12.6523 13.3311 12.6523C12.6512 12.6523 12.0983 13.2052 12.0983 13.8852C12.0983 14.5652 12.6512 15.1186 13.3311 15.1186Z" fill="#121619"/>
<path d="M9.3385 17.6528C9.3385 18.0688 9.67696 18.4072 10.0929 18.4072C10.5089 18.4072 10.8473 18.0688 10.8473 17.6528C10.8473 17.2369 10.5089 16.8984 10.0929 16.8984C9.67696 16.8984 9.3385 17.2368 9.3385 17.6528Z" fill="#121619"/>
<path d="M12.817 20.7736C13.6205 20.7736 14.2741 20.12 14.2741 19.3165C14.2741 18.513 13.6205 17.8594 12.817 17.8594C12.0135 17.8594 11.3599 18.513 11.3599 19.3165C11.3599 20.12 12.0135 20.7736 12.817 20.7736ZM12.817 18.7853C13.11 18.7853 13.3482 19.0235 13.3482 19.3165C13.3482 19.6095 13.11 19.8477 12.817 19.8477C12.524 19.8477 12.2858 19.6095 12.2858 19.3165C12.2858 19.0235 12.524 18.7853 12.817 18.7853Z" fill="#121619"/>
<path d="M19.2171 22.6484H18.0906C17.8348 22.6484 17.6276 22.8556 17.6276 23.1114C17.6276 23.3672 17.8348 23.5744 18.0906 23.5744H19.2171C19.4728 23.5744 19.68 23.3672 19.68 23.1114C19.68 22.8556 19.4728 22.6484 19.2171 22.6484Z" fill="#121619"/>
<path d="M16.1526 22.6484H4.94407C4.68856 22.6484 4.48108 22.8556 4.48108 23.1114C4.48108 23.3672 4.68856 23.5744 4.94407 23.5744H16.1526C16.4082 23.5744 16.6157 23.3672 16.6157 23.1114C16.6156 22.8556 16.4081 22.6484 16.1526 22.6484Z" fill="#121619"/>
</svg>
