<svg width="24" height="24" viewBox="0 0 24 24" fill="none" xmlns="http://www.w3.org/2000/svg">
<path d="M21.9772 11.8826C21.8407 11.67 21.6386 11.517 21.4069 11.412C21.1747 11.307 20.9081 11.2504 20.625 11.25H15.5156C15.474 11.25 15.4358 11.2609 15.3983 11.2736C15.3611 11.2609 15.3229 11.25 15.2812 11.25H2.25C2.043 11.25 1.875 11.4176 1.875 11.625V14.25C1.8765 15.0776 2.54737 15.7485 3.375 15.75H14.1562C14.9839 15.7485 15.6547 15.0776 15.6562 14.25V13.5H20.625C21.0026 13.4989 21.3506 13.3999 21.6274 13.2165C21.7654 13.1242 21.8869 13.0091 21.9772 12.8674C22.068 12.7267 22.1254 12.5554 22.125 12.375C22.1254 12.1946 22.068 12.0233 21.9772 11.8826ZM14.6857 14.7795C14.5477 14.9164 14.3621 15 14.1562 15H3.375C3.16912 15 2.9835 14.9164 2.8455 14.7795C2.70862 14.6419 2.625 14.4562 2.625 14.25V12H14.9062V14.25C14.9062 14.4562 14.8226 14.6419 14.6857 14.7795ZM21.345 12.4646C21.3101 12.5209 21.2265 12.5974 21.0986 12.6547C20.9719 12.7121 20.8057 12.7504 20.625 12.75H15.6562V12H20.625C20.8661 11.9989 21.0806 12.069 21.2115 12.1575C21.2771 12.201 21.3214 12.2479 21.345 12.2854C21.3686 12.3236 21.3746 12.3495 21.375 12.375C21.3746 12.4005 21.3686 12.4264 21.345 12.4646Z" fill="#121619"/>
<path d="M3.75 12.75C3.543 12.75 3.375 12.9176 3.375 13.125V13.875C3.375 14.0824 3.543 14.25 3.75 14.25C3.957 14.25 4.125 14.0824 4.125 13.875V13.125C4.125 12.9176 3.957 12.75 3.75 12.75Z" fill="#121619"/>
<path d="M4.32151 6.25771C3.89851 6.83858 3.74851 7.44421 3.75001 7.97108C3.75564 9.02821 4.30201 9.76696 4.32151 9.79958C4.44301 9.96721 4.67776 10.0047 4.84539 9.88321C5.01264 9.76208 5.04976 9.52846 4.92939 9.36046L4.92864 9.35933C4.91514 9.34583 4.49476 8.72446 4.50001 7.97108C4.50151 7.57883 4.60164 7.15058 4.92864 6.69758C5.35164 6.11671 5.50164 5.51071 5.50014 4.98383C5.49451 3.92671 4.94814 3.18758 4.92864 3.15496C4.80714 2.98733 4.57276 2.94983 4.40514 3.07133C4.23789 3.19246 4.20076 3.42608 4.32114 3.59408L4.32189 3.59521C4.33539 3.60871 4.75576 4.23046 4.75051 4.98383C4.74864 5.37608 4.64851 5.80471 4.32151 6.25771Z" fill="#121619"/>
<path d="M12.1965 6.25771C11.7735 6.83858 11.6235 7.44421 11.625 7.97108C11.6306 9.02821 12.177 9.76696 12.1965 9.79958C12.318 9.96721 12.5528 10.0047 12.7204 9.88321C12.8876 9.76208 12.9248 9.52846 12.8044 9.36046L12.8036 9.35933C12.7901 9.34583 12.3698 8.72446 12.375 7.97108C12.3765 7.57883 12.4766 7.15058 12.8036 6.69758C13.2266 6.11671 13.3766 5.51071 13.3751 4.98383C13.3695 3.92671 12.8231 3.18758 12.8036 3.15496C12.6821 2.98733 12.4478 2.94983 12.2801 3.07133C12.1129 3.19246 12.0758 3.42608 12.1961 3.59408L12.1969 3.59521C12.2104 3.60871 12.6308 4.23046 12.6255 4.98383C12.6236 5.37608 12.5235 5.80471 12.1965 6.25771Z" fill="#121619"/>
<path d="M8.25901 6.25808C7.83601 6.83896 7.68601 7.44458 7.68751 7.97108C7.69314 9.02821 8.23951 9.76696 8.25901 9.79958C8.38051 9.96721 8.61526 10.0047 8.78289 9.88321C8.95014 9.76208 8.98726 9.52846 8.86689 9.36046L8.86614 9.35933C8.85264 9.34583 8.43226 8.72446 8.43751 7.97108C8.43901 7.57921 8.53914 7.15096 8.86614 6.69796C9.28914 6.11671 9.43914 5.51071 9.43764 4.98383C9.43201 3.92671 8.88564 3.18758 8.86614 3.15496C8.74464 2.98733 8.50989 2.94983 8.34264 3.07133C8.17539 3.19246 8.13826 3.42608 8.25864 3.59408L8.25939 3.59521C8.27289 3.60871 8.69289 4.23008 8.68801 4.98383C8.68614 5.37608 8.58601 5.80471 8.25901 6.25808Z" fill="#121619"/>
<path d="M14.25 19.1252H12.8381C12.8535 19.0971 12.8708 19.0704 12.885 19.0412C13.0099 18.7813 13.0781 18.4806 13.0781 18.1599C13.0778 17.9008 12.9952 17.6702 12.888 17.4774C12.7249 17.1876 12.504 16.9674 12.3232 16.8107C12.1425 16.6551 12 16.5651 11.9887 16.5579C11.8665 16.4807 11.7116 16.4807 11.5894 16.5579C11.5744 16.5673 11.3265 16.7229 11.0648 16.9884C10.9339 17.1219 10.7989 17.2836 10.6905 17.4774C10.5829 17.6706 10.5007 17.9008 10.5004 18.1599C10.5007 18.5166 10.5889 18.8466 10.7426 19.1248H9.83813C9.8535 19.0967 9.87075 19.0701 9.885 19.0408C10.0099 18.7809 10.0781 18.4802 10.0781 18.1596C10.0778 17.9004 9.99525 17.6698 9.888 17.4771C9.72487 17.1872 9.504 16.9671 9.32325 16.8103C9.1425 16.6551 9 16.5651 8.98875 16.5579C8.8665 16.4807 8.71163 16.4807 8.58938 16.5579C8.57438 16.5673 8.3265 16.7229 8.06475 16.9884C7.93388 17.1219 7.79887 17.2836 7.6905 17.4774C7.58287 17.6706 7.50075 17.9008 7.50037 18.1599C7.50075 18.5166 7.58887 18.8466 7.74262 19.1248H6.91575C6.92062 19.1151 6.927 19.1057 6.93188 19.0956C7.05638 18.8361 7.125 18.5353 7.125 18.2151C7.12463 17.9559 7.04213 17.7253 6.93488 17.5322C6.77175 17.2423 6.55087 17.0222 6.37012 16.8654C6.18937 16.7098 6.04687 16.6198 6.03562 16.6127C5.91337 16.5354 5.7585 16.5354 5.63625 16.6127C5.62125 16.6221 5.37337 16.7777 5.11162 17.0436C4.98075 17.1767 4.84575 17.3383 4.73738 17.5322C4.62975 17.7257 4.54763 17.9559 4.54725 18.2151C4.54763 18.5481 4.62263 18.8586 4.75763 19.1252H3.375C3.168 19.1252 3 19.2928 3 19.5002C3 19.7076 3.168 19.8752 3.375 19.8752H14.25C14.457 19.8752 14.625 19.7076 14.625 19.5002C14.625 19.2928 14.457 19.1252 14.25 19.1252ZM11.3453 17.8427C11.4394 17.6717 11.6036 17.4992 11.7446 17.3788C11.7604 17.3653 11.7739 17.3552 11.7885 17.3428C11.8538 17.3964 11.9254 17.4587 11.997 17.5333C12.0911 17.6312 12.1793 17.7437 12.2389 17.8536C12.2989 17.9642 12.3285 18.0677 12.3285 18.1603C12.3292 18.4431 12.2441 18.6928 12.1301 18.8518C12.0735 18.9317 12.0112 18.9883 11.9535 19.0224C11.895 19.0566 11.844 19.0704 11.7892 19.0708C11.7349 19.0704 11.6835 19.0566 11.625 19.0224C11.5387 18.9718 11.4412 18.8679 11.3693 18.7168C11.2965 18.5661 11.25 18.3722 11.25 18.1603C11.2496 18.0647 11.2815 17.9574 11.3453 17.8427ZM8.34525 17.8427C8.43937 17.6717 8.60363 17.4992 8.74463 17.3788C8.76038 17.3653 8.77388 17.3552 8.7885 17.3428C8.85375 17.3964 8.92537 17.4587 8.997 17.5333C9.09113 17.6312 9.17925 17.7437 9.23887 17.8536C9.29887 17.9642 9.3285 18.0677 9.3285 18.1603C9.32925 18.4431 9.24412 18.6928 9.13013 18.8518C9.0735 18.9317 9.01125 18.9883 8.9535 19.0224C8.895 19.0566 8.844 19.0704 8.78925 19.0708C8.73487 19.0704 8.6835 19.0566 8.625 19.0224C8.53875 18.9718 8.44125 18.8679 8.36925 18.7168C8.2965 18.5661 8.25 18.3722 8.25 18.1603C8.24963 18.0647 8.2815 17.9574 8.34525 17.8427ZM5.67188 19.0768C5.58562 19.0262 5.48813 18.9223 5.41575 18.7712C5.34338 18.6208 5.2965 18.4273 5.29688 18.2154C5.2965 18.1198 5.32837 18.0122 5.39212 17.8974C5.48625 17.7264 5.6505 17.5539 5.7915 17.4336C5.80725 17.4201 5.82075 17.4099 5.83537 17.3972C5.90062 17.4512 5.97225 17.5134 6.0435 17.5881C6.13762 17.6859 6.22575 17.7984 6.28537 17.9083C6.34537 18.0189 6.375 18.1224 6.375 18.2151C6.37575 18.4978 6.291 18.7476 6.17663 18.9062C6.12 18.9861 6.05775 19.0427 6 19.0768C5.9415 19.1109 5.8905 19.1248 5.83575 19.1252C5.78138 19.1248 5.73038 19.1109 5.67188 19.0768Z" fill="#121619"/>
</svg>
