<svg width="24" height="24" viewBox="0 0 24 24" fill="none" xmlns="http://www.w3.org/2000/svg">
<path d="M16.8361 11.2856L16.148 10.597L13.4189 7.8675C13.4246 7.85625 13.4302 7.84547 13.4353 7.83422L13.4569 7.78453C13.6577 7.76859 13.8527 7.7097 14.0288 7.61184C14.2048 7.51399 14.3578 7.37945 14.4774 7.21734C14.5084 7.24246 14.5426 7.26342 14.5791 7.27969L14.9972 7.46344L15.1819 7.04531C15.2038 6.99518 15.2165 6.94151 15.2194 6.88688C15.2204 6.87126 15.2204 6.85561 15.2194 6.84C15.2155 6.76538 15.193 6.69292 15.154 6.62922C15.1149 6.56552 15.0606 6.51261 14.9958 6.47531L15.0357 6.38484C15.0577 6.33578 15.0703 6.28297 15.0727 6.22922C15.0737 6.21361 15.0737 6.19795 15.0727 6.18234C15.0701 6.13129 15.0583 6.08113 15.038 6.03422L15.2002 5.66625L15.3103 5.41641L15.39 5.23547L15.4257 5.25141L15.5757 5.3175L15.6511 5.14594L15.4557 5.06109L15.4997 4.79063C15.5208 4.6613 15.5054 4.52865 15.4551 4.40764C15.4048 4.28663 15.3217 4.18208 15.2152 4.10578L15.3821 3.72703L15.4819 3.50016L15.3103 3.42469L15.211 3.64969L15.0703 3.58781L15.1322 3.44719L15.3849 3.20859L15.8536 1.14281L15.7777 1.10953L16.0421 0.509063L15.8705 0.433594L15.6047 1.03266L15.5288 0.999375L14.3208 2.73891L14.3152 3.08625L14.2528 3.22688L14.1122 3.16453L14.2116 2.93953L14.04 2.86359L13.9407 3.08906L13.7733 3.46922C13.645 3.44198 13.5117 3.45116 13.3883 3.49573C13.265 3.54029 13.1566 3.61846 13.0753 3.72141L12.9047 3.93609L12.8963 3.93234L12.7088 3.85078L12.6333 4.02234L12.7828 4.08797L12.8189 4.10391L12.6638 4.45641L12.6291 4.53469L12.6197 4.55672L12.5536 4.70625L12.3689 5.12813L12.3483 5.11875C12.2649 5.08306 12.1709 5.08158 12.0864 5.11464C12.002 5.14771 11.9339 5.21266 11.8969 5.29547L11.8317 5.445C11.8134 5.48633 11.8034 5.53086 11.8024 5.57605C11.8013 5.62124 11.8091 5.6662 11.8255 5.70835C11.8418 5.75051 11.8663 5.78902 11.8975 5.82169C11.9288 5.85436 11.9662 5.88055 12.0075 5.89875L12.031 5.90859C11.9762 6.05659 11.9477 6.21299 11.9466 6.37078C11.9434 6.55006 11.9753 6.72823 12.0403 6.89531C12.0904 7.0232 12.159 7.14307 12.2438 7.25109L12.2213 7.30219C12.2042 7.34096 12.1911 7.38131 12.1819 7.42266H8.56831V7.41937H5.08128L4.55909 7.01156V6.08297L4.45456 6.09516C4.3233 6.11044 4.20222 6.17341 4.11434 6.2721C4.02645 6.37079 3.97788 6.49832 3.97784 6.63047V7.06594C3.98006 7.30012 4.07337 7.52423 4.238 7.69078C4.13255 7.69826 4.03387 7.7455 3.96191 7.82294C3.88995 7.90038 3.85008 8.00226 3.85034 8.10797V8.20172H8.50409C8.61706 9.27984 9.05909 10.3927 9.82081 11.5097C9.94409 11.6911 10.0763 11.873 10.215 12.0506V12.7936C10.1921 12.8405 10.1682 12.8845 10.1475 12.9309C10.0969 13.0373 10.0491 13.1456 10.0069 13.252C9.99237 13.2862 9.97878 13.3209 9.96566 13.3547C9.588 14.3113 9.43346 15.3415 9.51378 16.3669C9.53769 16.668 9.58138 16.9673 9.64456 17.2627L10.4916 20.235C10.7126 21.0065 11.1676 21.6905 11.7938 22.1925L12.2625 23.3789H6.89581V23.5664H19.0833V23.3789H13.6102V23.0039C13.814 23.037 14.0201 23.0537 14.2266 23.0536H14.3288L13.9482 18.6305L13.9458 18.6173C13.9187 18.4999 13.9139 18.3784 13.9317 18.2592L14.3438 15.5433C14.4537 14.818 14.3079 14.077 13.9313 13.4475C13.8877 13.3744 13.8403 13.3022 13.7907 13.2319C13.6721 13.0668 13.5381 12.9135 13.3903 12.7739V12.0994L13.6557 12.0642C13.8602 12.0365 14.0621 11.9921 14.2594 11.9316C14.7523 11.7854 15.2112 11.5428 15.6094 11.2177L16.4592 12.068H18.9141L19.4433 12.6047V13.3912H19.5441C19.6719 13.3887 19.7937 13.3363 19.8835 13.2452C19.9732 13.1541 20.0239 13.0316 20.0246 12.9037V12.4528C20.0195 12.2615 19.9503 12.0775 19.8282 11.9302C19.8089 11.9077 19.7921 11.8884 19.7742 11.8711L19.6997 11.7966H19.7344C19.8449 11.7963 19.9509 11.7523 20.029 11.6741C20.1071 11.5959 20.151 11.4899 20.1511 11.3794V11.2856H16.8361ZM4.05753 8.01422C4.07567 7.9738 4.10509 7.93947 4.14225 7.91536C4.17942 7.89124 4.22276 7.87837 4.26706 7.87828H4.73581V7.69078H4.54691C4.43254 7.63079 4.33657 7.54092 4.26922 7.43072C4.20186 7.32053 4.16564 7.19414 4.16441 7.065V6.63188C4.16452 6.56436 4.18401 6.4983 4.22057 6.44155C4.25714 6.38479 4.30923 6.33973 4.37066 6.31172V7.1025L5.01566 7.605H8.47362V7.66266C8.47362 7.77891 8.47878 7.89703 8.48675 8.01281L4.05753 8.01422ZM13.5103 8.22563L14.1563 8.87156C13.9887 9.10659 13.7666 9.29737 13.5089 9.4275L13.5103 8.22563ZM14.401 6.15047C14.2195 5.98889 14.0959 5.77243 14.0489 5.53406C14.0374 5.47563 14.0305 5.41639 14.0283 5.35687L14.5908 5.60437L14.5149 5.77734L14.4375 5.94891C14.4148 5.9999 14.4022 6.05483 14.4005 6.11063C14.3991 6.12328 14.3996 6.13641 14.4 6.14906L14.401 6.15047ZM14.7361 5.9775C14.7791 5.99628 14.8159 6.02677 14.8423 6.06549C14.8688 6.1042 14.8838 6.14956 14.8857 6.19641C14.8864 6.20499 14.8864 6.21361 14.8857 6.22219C14.8842 6.25262 14.877 6.2825 14.8646 6.31031L14.8257 6.39797L14.7375 6.35906C14.6953 6.3406 14.659 6.3109 14.6326 6.27321C14.6061 6.23551 14.5905 6.19127 14.5875 6.14531C14.5871 6.13641 14.5871 6.12749 14.5875 6.11859C14.5883 6.08625 14.5954 6.05438 14.6086 6.02484L14.6471 5.93719L14.7361 5.9775ZM14.723 5.76703L14.7614 5.67984L14.9532 5.76422L14.9063 5.865C14.8764 5.84115 14.8436 5.82115 14.8088 5.80547L14.723 5.76703ZM15.0328 6.85312C15.0335 6.86217 15.0335 6.87126 15.0328 6.88031C15.0311 6.91262 15.0236 6.94436 15.0108 6.97406L14.9011 7.21734L14.6546 7.10859C14.6106 7.08932 14.5727 7.05839 14.545 7.01914C14.5173 6.9799 14.5009 6.93384 14.4975 6.88594C14.4975 6.87656 14.4975 6.86719 14.4975 6.85734C14.4985 6.82388 14.506 6.79093 14.5196 6.76031L14.6278 6.51375L14.858 6.615L14.8749 6.6225C14.9198 6.64223 14.9584 6.67417 14.9861 6.71468C15.0139 6.75519 15.0297 6.80266 15.0319 6.85172L15.0328 6.85312ZM15.5339 1.32188L15.6094 1.35797L15.2344 3.02672L14.5575 2.72859L15.5339 1.32188ZM14.5027 3.12703L14.5064 2.91141L15.1322 3.18609L14.9757 3.33422L14.8983 3.51L14.5463 3.35531L14.4244 3.30141L14.5027 3.12703ZM14.0367 3.33656L14.5289 3.55313L14.9949 3.75891L15.1355 3.82078L15.0497 4.01578L13.95 3.53109L14.0367 3.33656ZM13.2225 3.83813C13.2933 3.74815 13.3921 3.68429 13.5032 3.65662C13.6143 3.62895 13.7314 3.63905 13.8361 3.68531L14.625 4.03359L15.0136 4.20422C15.1184 4.25034 15.2048 4.33001 15.2593 4.43066C15.3138 4.53131 15.3332 4.64723 15.3146 4.76016L15.2785 4.98234L14.3742 4.58438L13.0819 4.01484L13.2225 3.83813ZM12.9933 4.18031L14.783 4.96734L15.2175 5.15859L15.1378 5.33953L12.9127 4.36125L12.9933 4.18031ZM12.8382 4.53281L13.2877 4.73063L15.0633 5.51297L15.0286 5.59125L14.7422 5.46469L14.7258 5.45766L12.8039 4.61109L12.8382 4.53281ZM12.728 4.78266L13.6519 5.18953C13.4922 5.32586 13.2974 5.41436 13.0896 5.44488C12.8819 5.47539 12.6698 5.44668 12.4777 5.36203H12.4735L12.728 4.78266ZM12.0844 5.72531C12.0531 5.71208 12.027 5.68898 12.0101 5.65952C11.9932 5.63007 11.9863 5.59588 11.9907 5.56219C11.9924 5.54725 11.9965 5.53269 12.0028 5.51906L12.0685 5.36906C12.0852 5.33122 12.1163 5.30154 12.1548 5.28652C12.1934 5.2715 12.2363 5.27236 12.2742 5.28891L12.2836 5.29359L12.0914 5.72906L12.0844 5.72531ZM12.2175 6.82547C12.1606 6.68076 12.1325 6.52628 12.135 6.37078C12.1366 6.20682 12.1717 6.04491 12.2382 5.895L12.398 5.53172H12.4022C12.6405 5.63702 12.905 5.66842 13.1613 5.62188C13.4177 5.57534 13.6542 5.45298 13.8403 5.27063C13.8325 5.50092 13.886 5.72916 13.9951 5.93206C14.1043 6.13497 14.2654 6.30528 14.4619 6.42562L14.3485 6.68344C14.3253 6.7358 14.3124 6.79214 14.3105 6.84937C14.3105 6.86531 14.3105 6.88125 14.3105 6.89625C14.3153 6.9542 14.3313 7.01069 14.3574 7.06266C14.2497 7.22119 14.1062 7.35217 13.9386 7.445C13.7709 7.53784 13.5837 7.58991 13.3922 7.59703C13.2096 7.60262 13.028 7.56726 12.8609 7.49353C12.6937 7.41979 12.5451 7.30957 12.4261 7.17094C12.3377 7.06816 12.2668 6.95142 12.2166 6.82547H12.2175ZM12.6483 8.20406C12.7075 8.22107 12.7686 8.2299 12.8302 8.23031C12.92 8.23008 13.0089 8.21155 13.0913 8.17585C13.1738 8.14015 13.2481 8.08802 13.3097 8.02266L13.3238 8.03625V9.50906C13.1264 9.58189 12.9177 9.61919 12.7074 9.61922H12.6483V8.20406ZM12.6385 8.0025C12.5474 7.96226 12.4712 7.8944 12.4207 7.80853C12.3702 7.72265 12.348 7.62309 12.3572 7.52391C12.3614 7.48271 12.3709 7.44223 12.3853 7.40344C12.6213 7.6273 12.9276 7.76218 13.2521 7.785C13.2442 7.8012 13.2353 7.81686 13.2253 7.83187C13.1634 7.92522 13.0703 7.99358 12.9627 8.02481C12.8551 8.05605 12.7399 8.04814 12.6375 8.0025H12.6385ZM11.7858 7.60828H12.1678C12.1742 7.70995 12.204 7.80877 12.2548 7.89706C12.3056 7.98535 12.3761 8.06073 12.4608 8.11734V9.60188C12.2219 9.56879 11.9922 9.48728 11.7858 9.36234V7.60828ZM10.9374 7.60828H11.5983V9.23297C11.3874 9.06616 11.2169 8.85374 11.0998 8.61165C10.9826 8.36957 10.9218 8.1041 10.9219 7.83516C10.922 7.7593 10.9269 7.68353 10.9364 7.60828H10.9374ZM10.4902 7.60828H10.7489C10.7402 7.68359 10.7356 7.75934 10.7353 7.83516C10.7351 8.25033 10.866 8.65497 11.1092 8.99141C11.3525 9.32785 11.6958 9.5789 12.0901 9.70879C12.4844 9.83867 12.9097 9.84076 13.3053 9.71475C13.7009 9.58874 14.0466 9.34106 14.2932 9.00703L14.476 9.18984C14.1932 9.56021 13.8013 9.83253 13.3556 9.96845C12.9098 10.1044 12.4327 10.0971 11.9913 9.94753C11.55 9.79799 11.1667 9.51378 10.8953 9.13491C10.624 8.75605 10.4784 8.30162 10.4789 7.83563C10.478 7.75922 10.4817 7.68328 10.4892 7.60828H10.4902ZM8.68128 8.0925V8.07656C8.66956 7.93969 8.66347 7.80047 8.66347 7.66266V7.60828H8.92034C8.94706 7.97531 9.07222 9.37594 9.51003 10.6434C9.03237 9.77953 8.75394 8.92453 8.68128 8.0925ZM10.1382 13.4217C10.1508 13.3884 10.1644 13.3556 10.1785 13.3223C10.2211 13.2188 10.2675 13.1133 10.3191 13.0097C10.3332 12.9806 10.3477 12.952 10.3617 12.9234L11.2796 13.1578V13.1719L9.788 14.6639C9.86382 14.2394 9.9811 13.8233 10.1382 13.4217ZM11.461 13.268C11.5561 13.3488 11.6769 13.3932 11.8017 13.3931C11.9258 13.3929 12.0458 13.3489 12.1407 13.2689L12.2724 16.9584H11.8936V13.7672H11.7061V16.9584H11.3274L11.461 13.268ZM11.4582 12.8616C11.4583 12.7712 11.494 12.6845 11.5575 12.6202L11.5674 12.6108C11.6122 12.5689 11.6674 12.5397 11.7272 12.5264C11.7871 12.513 11.8494 12.5159 11.9078 12.5348C11.9661 12.5536 12.0184 12.5878 12.0591 12.6337C12.0998 12.6795 12.1275 12.7355 12.1393 12.7957C12.1511 12.8558 12.1465 12.9181 12.1261 12.9759C12.1058 13.0338 12.0702 13.0851 12.0233 13.1246C11.9764 13.1641 11.9198 13.1903 11.8593 13.2005C11.7988 13.2107 11.7367 13.2046 11.6794 13.1827C11.6173 13.1594 11.5634 13.1185 11.5242 13.065C11.5177 13.0559 11.5116 13.0466 11.506 13.0369C11.4747 12.9837 11.4582 12.9232 11.4582 12.8616ZM12.323 12.96C12.3478 12.8386 12.3276 12.7123 12.2663 12.6047L13.201 12.3703V12.7397L12.323 12.96ZM12.7969 13.035L12.3385 13.4934L12.3263 13.1522L12.7969 13.035ZM11.2707 12.8616C11.271 12.897 11.275 12.9324 11.2824 12.967L10.4025 12.7416V12.3736L11.3339 12.6127C11.2929 12.6892 11.2712 12.7747 11.2707 12.8616ZM9.7355 14.9798L11.2669 13.4484L11.2257 14.6058L9.68675 16.1447C9.66852 15.7557 9.68484 15.3659 9.7355 14.9798ZM9.8255 17.2186C9.76716 16.9463 9.72629 16.6706 9.70316 16.3931L11.2158 14.8809L11.1746 16.0378L9.86206 17.3503L9.8255 17.2186ZM9.91925 17.5561L11.1647 16.3111L11.1352 17.1441H11.4474L10.1691 18.4223L9.91925 17.5561ZM10.875 20.7309L13.8122 17.7938L13.7466 18.233C13.7255 18.3733 13.7307 18.5164 13.7621 18.6548L13.786 18.9361L11.2992 21.4228C11.1326 21.2087 10.9903 20.9766 10.875 20.7309ZM11.4178 21.5695L13.8085 19.1789L13.8971 20.2059L11.9944 22.1086C11.7838 21.9499 11.5907 21.7692 11.4183 21.5695H11.4178ZM12.7772 23.3775H12.4603L12.0741 22.3988C12.2951 22.5465 12.5307 22.6712 12.7772 22.7709V23.3775ZM13.4213 23.3775H12.9647V22.8417C13.1141 22.8936 13.2666 22.9362 13.4213 22.9692V23.3775ZM14.1244 22.8652C13.766 22.8548 13.4111 22.7916 13.0711 22.6777L14.0264 21.7223L14.1244 22.8652ZM14.0053 21.4795L12.8766 22.6083C12.62 22.5068 12.3755 22.3771 12.1477 22.2216L13.9172 20.452L14.0053 21.4795ZM13.86 17.483L10.7953 20.5458C10.7475 20.4269 10.7057 20.3056 10.6702 20.1825L10.5296 19.6945L14.0574 16.1667L13.86 17.483ZM14.1563 15.5142L14.1052 15.8531L10.4714 19.4869L10.2267 18.6291L11.7113 17.1445H12.4688L12.443 16.4147L14.1666 14.6911C14.2011 14.9646 14.1977 15.2416 14.1563 15.5142ZM13.8282 13.6472C13.9671 13.9035 14.0677 14.1787 14.1267 14.4642L12.4322 16.1588L12.3938 15.0806L13.8282 13.6472ZM13.635 13.3397C13.6683 13.3866 13.6992 13.4334 13.7288 13.4803L12.3839 14.8247L12.3455 13.7466L13.148 12.9441L13.2652 12.9145C13.402 13.0446 13.5262 13.1875 13.636 13.3411L13.635 13.3397ZM13.3505 11.9137L13.2877 11.9222H13.2V12.1767L12.1299 12.4434C12.0353 12.369 11.9184 12.3289 11.798 12.3295C11.6777 12.3302 11.5612 12.3717 11.4675 12.4472L11.4642 12.45L10.4016 12.1772V11.9836L10.3814 11.9578C9.39331 10.6758 9.14769 8.1375 9.10644 7.60687H10.3003C10.2933 7.68187 10.2896 7.75781 10.2896 7.83328C10.2892 8.33622 10.4459 8.82672 10.7378 9.23631C11.0297 9.6459 11.4421 9.95415 11.9176 10.118C12.3931 10.2819 12.9079 10.2933 13.3902 10.1505C13.8724 10.0077 14.2981 9.7179 14.6077 9.32156L15.5728 10.2863C15.3957 10.5666 14.5842 11.7314 13.3514 11.9152L13.3505 11.9137ZM15.6005 10.9692C15.5832 10.9861 15.5658 11.002 15.5471 11.0161C15.2478 11.2766 14.9064 11.4841 14.5374 11.6297C15.1552 11.2134 15.5588 10.6509 15.7092 10.4208L15.9066 10.6181C15.8176 10.7458 15.7157 10.864 15.6024 10.9706L15.6005 10.9692ZM19.7344 11.6091H19.2657V11.7966H19.4377L19.6435 12.0037C19.6589 12.0192 19.6735 12.0352 19.6861 12.0506C19.7795 12.1651 19.8321 12.3075 19.8357 12.4552V12.9042C19.8352 12.9673 19.8151 13.0287 19.7782 13.0797C19.7412 13.1308 19.6892 13.1691 19.6294 13.1892V12.5283L19.0242 11.9137L18.991 11.8805H16.5347L15.7467 11.092C15.8542 10.9895 15.9524 10.8777 16.0402 10.7578H16.0435L16.7583 11.4731H19.9425C19.9244 11.5133 19.8952 11.5474 19.8583 11.5715C19.8214 11.5955 19.7784 11.6086 19.7344 11.6091Z" fill="#121619"/>
</svg>
