<svg width="24" height="24" viewBox="0 0 24 24" fill="none" xmlns="http://www.w3.org/2000/svg">
<path d="M23.1122 18.6828H22.4968V4.51953C22.4968 3.97252 22.2795 3.44792 21.8927 3.06112C21.5059 2.67433 20.9813 2.45703 20.4343 2.45703H3.5663C3.01952 2.45778 2.49535 2.67531 2.10872 3.06195C1.72208 3.44858 1.50455 3.97275 1.5038 4.51953V18.6828H0.887866C0.796491 18.6828 0.708858 18.7191 0.644246 18.7837C0.579634 18.8483 0.543335 18.936 0.543335 19.0273V20.0586C0.543707 20.4516 0.69997 20.8285 0.97784 21.1064C1.25571 21.3844 1.63249 21.5408 2.02552 21.5413H21.9736C22.3668 21.5409 22.7438 21.3846 23.0218 21.1066C23.2998 20.8286 23.4563 20.4517 23.4568 20.0586V19.0273C23.4568 18.936 23.4205 18.8483 23.3559 18.7837C23.2912 18.7191 23.2036 18.6828 23.1122 18.6828ZM2.19287 4.51953C2.19336 4.15551 2.33825 3.80656 2.59574 3.54924C2.85323 3.29193 3.20228 3.14728 3.5663 3.14703H20.4347C20.7986 3.1474 21.1475 3.29213 21.4048 3.54944C21.6621 3.80675 21.8069 4.15564 21.8072 4.51953V18.6828H2.19287V4.51953ZM22.7677 20.0577C22.7668 20.2679 22.6829 20.4694 22.5341 20.618C22.3854 20.7667 22.1839 20.8505 21.9736 20.8512H2.02552C1.8154 20.8503 1.61416 20.7663 1.46562 20.6177C1.31708 20.4691 1.23326 20.2678 1.2324 20.0577V19.3723H22.7677V20.0577Z" fill="#121619"/>
<path d="M20.0044 4.46094H3.99562C3.91335 4.46106 3.8345 4.49379 3.77633 4.55196C3.71816 4.61013 3.68543 4.68899 3.6853 4.77125V16.5209C3.68543 16.6032 3.71816 16.6821 3.77633 16.7402C3.8345 16.7984 3.91335 16.8311 3.99562 16.8313H20.0044C20.0866 16.8311 20.1655 16.7984 20.2237 16.7402C20.2818 16.6821 20.3146 16.6032 20.3147 16.5209V4.77125C20.3146 4.68899 20.2818 4.61013 20.2237 4.55196C20.1655 4.49379 20.0866 4.46106 20.0044 4.46094ZM19.6941 16.2106H4.30593V5.08156H19.6941V16.2106Z" fill="#121619"/>
<path d="M12.8081 17.2539H11.1918C11.1004 17.2539 11.0128 17.2902 10.9482 17.3548C10.8836 17.4194 10.8473 17.5071 10.8473 17.5984C10.8473 17.6898 10.8836 17.7774 10.9482 17.8421C11.0128 17.9067 11.1004 17.943 11.1918 17.943H12.8081C12.8994 17.943 12.9871 17.9067 13.0517 17.8421C13.1163 17.7774 13.1526 17.6898 13.1526 17.5984C13.1526 17.5071 13.1163 17.4194 13.0517 17.3548C12.9871 17.2902 12.8994 17.2539 12.8081 17.2539Z" fill="#121619"/>
<rect x="6.15" y="6.15" width="2.7" height="2.7" stroke="#121619" stroke-width="0.3"/>
<circle cx="15.5" cy="7.5" r="1.35" stroke="#121619" stroke-width="0.3"/>
<path d="M5.52776 13.85L7 11.3L8.47224 13.85H5.52776Z" stroke="#121619" stroke-width="0.3"/>
<path d="M16 11.4854L16.3064 12.4283L16.34 12.532H16.449H17.4405L16.6384 13.1147L16.5502 13.1788L16.5839 13.2824L16.8903 14.2253L16.0882 13.6426L16 13.5785L15.9118 13.6426L15.1097 14.2253L15.4161 13.2824L15.4498 13.1788L15.3616 13.1147L14.5595 12.532H15.551H15.66L15.6936 12.4283L16 11.4854Z" stroke="#121619" stroke-width="0.3"/>
</svg>
