<svg width="24" height="24" viewBox="0 0 24 24" fill="none" xmlns="http://www.w3.org/2000/svg">
<g clip-path="url(#clip0_23030_12117)">
<path d="M21.355 10.0838V11.4071V17.5696V19.7414C21.355 20.471 20.7615 21.0647 20.0316 21.0647H3.96821C3.23861 21.0647 2.64485 20.4712 2.64485 19.7414V16.475V11.4071V10.0838H3.96821H20.0319H21.355ZM21.595 9.84375H20.0316H3.96821H2.40485V11.4071V16.475V19.7411C2.40485 20.6044 3.10469 21.3045 3.96821 21.3045H20.0319C20.8952 21.3045 21.5953 20.6046 21.5953 19.7411V17.5693V11.4071V9.84375H21.595Z" fill="#121619"/>
<path d="M20.0443 2.94703C20.065 2.94703 20.0907 2.95999 20.0986 2.98855L20.755 5.38927C20.76 5.40775 20.7547 5.42287 20.7495 5.43199C20.7442 5.44135 20.7341 5.45335 20.7154 5.45839L3.38018 10.1974C3.37514 10.1989 3.3701 10.1996 3.36506 10.1996C3.34442 10.1996 3.31874 10.1866 3.31082 10.1581L2.65442 7.75735C2.64938 7.73887 2.65466 7.72375 2.65994 7.71463C2.66522 7.70527 2.6753 7.69327 2.69402 7.68823L20.0292 2.94919C20.0343 2.94751 20.0393 2.94703 20.0443 2.94703ZM20.0443 2.70703C20.0184 2.70703 19.9923 2.71039 19.9661 2.71759L2.63066 7.45639C2.47274 7.49959 2.37986 7.66255 2.42306 7.82047L3.07946 10.2212C3.11546 10.3529 3.23474 10.4393 3.36506 10.4393C3.39098 10.4393 3.41714 10.436 3.4433 10.4288L20.7787 5.68999C20.9367 5.64679 21.0295 5.48383 20.9863 5.32591L20.3299 2.92519C20.2939 2.79343 20.1747 2.70703 20.0443 2.70703Z" fill="#121619"/>
<path d="M21.355 10.0837V11.9903H2.64509V10.0837H21.355ZM21.595 9.84375H2.40509V12.2303H21.5952V9.84375H21.595Z" fill="#121619"/>
<path d="M2.52509 12.1114V9.96484H7.58117L4.76549 12.1114H2.52509Z" fill="#121619"/>
<path d="M7.22597 10.0838L4.72517 11.9901H2.64509V10.0838H7.22597ZM7.93661 9.84375H2.40509V12.2301H4.82261L4.81421 12.2238L7.93661 9.84375Z" fill="#121619"/>
<path d="M9.25183 12.1114L12.0677 9.96484H15.518L12.7021 12.1114H9.25183Z" fill="#121619"/>
<path d="M15.1625 10.0837L12.6617 11.9901H9.60725L12.108 10.0837H15.1625ZM15.8734 9.84375H12.0272L8.89661 12.2303H12.7594L12.751 12.2241L15.8734 9.84375Z" fill="#121619"/>
<path d="M17.1888 12.1114L20.0045 9.96484H21.427V12.1114H17.1888Z" fill="#121619"/>
<path d="M21.3067 10.0838V11.9901H17.5443L20.0451 10.0838H21.3067ZM21.5467 9.84375H19.9639L16.8334 12.2301H21.5467V9.84375Z" fill="#121619"/>
<path d="M8.48279 5.98184L11.6597 5.11328L14.5039 7.28168L11.327 8.15L8.48279 5.98184Z" fill="#121619"/>
<path d="M11.634 5.24327L14.238 7.22831L11.3528 8.01719L8.74876 6.03215L11.634 5.24327ZM11.6852 4.98047L8.21692 5.92847L11.3014 8.27975L14.7696 7.33175L11.6852 4.98047Z" fill="#121619"/>
<path d="M3.34181 10.3291C3.27749 10.3291 3.22085 10.2857 3.20381 10.2235L2.53013 7.75894C2.50925 7.68286 2.55437 7.6039 2.63045 7.58302L5.16269 6.89062L8.00693 9.05902L3.37973 10.3241C3.36749 10.3274 3.35477 10.3291 3.34181 10.3291C3.34205 10.3291 3.34205 10.3291 3.34181 10.3291Z" fill="#121619"/>
<path d="M5.13722 7.02061L7.74122 9.00565L3.34178 10.2076C3.33578 10.2076 3.3233 10.204 3.31946 10.1903L2.64578 7.72573C2.6429 7.71517 2.65154 7.70005 2.6621 7.69717L5.13722 7.02061ZM5.18834 6.75781L2.59874 7.46581C2.45858 7.50421 2.37578 7.64893 2.41418 7.78909L3.08786 10.2537C3.11978 10.3708 3.22586 10.4476 3.34154 10.4476C3.36458 10.4476 3.38786 10.4445 3.41114 10.4382L8.27258 9.10933L5.18834 6.75781Z" fill="#121619"/>
<path d="M14.9796 4.20583L20.0296 2.82535C20.0421 2.82199 20.0548 2.82031 20.0675 2.82031C20.1319 2.82031 20.1885 2.86375 20.2055 2.92591L20.8792 5.39047C20.8893 5.42743 20.8845 5.46607 20.8655 5.49919C20.8466 5.53255 20.8159 5.55631 20.7789 5.56639L17.824 6.37423L14.9796 4.20583Z" fill="#121619"/>
<path d="M20.0676 2.93922C20.0736 2.93922 20.0861 2.94282 20.0899 2.9565L20.7636 5.42106C20.7665 5.43162 20.7578 5.44674 20.7473 5.44962L17.8495 6.24186L15.2455 4.25682L20.0611 2.94042C20.0633 2.93946 20.0654 2.93922 20.0676 2.93922ZM20.0676 2.69922C20.0446 2.69922 20.0213 2.70234 19.998 2.70858L14.7139 4.15314L17.7984 6.50442L20.8104 5.68098C20.9506 5.64258 21.0334 5.49786 20.995 5.3577L20.3213 2.89314C20.2894 2.77626 20.1833 2.69922 20.0676 2.69922Z" fill="#121619"/>
<path d="M4.76815 15.2753H19.1998C19.3417 15.2753 19.4566 15.1604 19.4566 15.0185C19.4566 14.8767 19.3417 14.7617 19.1998 14.7617H4.76815C4.62631 14.7617 4.51135 14.8767 4.51135 15.0185C4.51135 15.1604 4.62631 15.2753 4.76815 15.2753Z" fill="#121619"/>
<path d="M4.76022 17.5097H19.1919C19.3337 17.5097 19.4487 17.3947 19.4487 17.2529C19.4487 17.1111 19.3337 16.9961 19.1919 16.9961H4.76022C4.61838 16.9961 4.50342 17.1111 4.50342 17.2529C4.50342 17.3947 4.61838 17.5097 4.76022 17.5097Z" fill="#121619"/>
<path d="M19.2078 19.2305H4.77633C4.63449 19.2305 4.51953 19.3454 4.51953 19.4873C4.51953 19.6291 4.63449 19.7441 4.77633 19.7441H19.208C19.3498 19.7441 19.4648 19.6291 19.4648 19.4873C19.4646 19.3454 19.3496 19.2305 19.2078 19.2305Z" fill="#121619"/>
</g>
<defs>
<clipPath id="clip0_23030_12117">
<rect width="24" height="24" fill="white"/>
</clipPath>
</defs>
</svg>
