<svg width="24" height="24" viewBox="0 0 24 24" fill="none" xmlns="http://www.w3.org/2000/svg">
<path d="M10.4936 17.2761L6 14.5H19.5C20.3285 14.5 21 15.1715 21 16C21 16.8285 20.3285 17.5 19.5 17.5H11.2819C11.0035 17.5 10.7305 17.4225 10.4936 17.2761Z" stroke="#121619" stroke-linecap="round" stroke-linejoin="round"/>
<path d="M15 5.5C15.5523 5.5 16 5.0523 16 4.5C16 3.94771 15.5523 3.5 15 3.5C14.4477 3.5 14 3.94771 14 4.5C14 5.0523 14.4477 5.5 15 5.5Z" stroke="#121619" stroke-width="2" stroke-miterlimit="2"/>
<path d="M17.0001 16C19 14.5 18.2501 11.2168 17.7501 10.25C17.2501 9.2832 16.2747 8 16.2747 8C16.2747 8 15.7501 8 15.2501 8.5C13.9108 9.8393 13.0001 11.5 11.7501 11.5C10.5001 11.5 8.75006 10.5 8.75006 10.5" stroke="#121619" stroke-miterlimit="2" stroke-linecap="round" stroke-linejoin="round"/>
<path d="M10.0002 7.50231C8.2018 5.25435 6.80755 4.2192 4.0002 4.03331C3.44912 3.99682 3 4.45002 3 5.0023V14.0023" stroke="#121619" stroke-linecap="round" stroke-linejoin="round"/>
<path d="M3.5 21.5C5.5 21.5 4.96875 20.5 6.5 20.5C8.03125 20.5 7.5 21.5 9.25 21.5C11 21.5 10.5 20.5 12.25 20.5C14 20.5 13.7188 21.5 15.25 21.5C16.7812 21.5 16 20.5 17.75 20.5C19.5 20.5 19.0312 21.5 21 21.5" stroke="#121619" stroke-linecap="round" stroke-linejoin="round"/>
<path d="M3.65872 19.5913L3.65873 19.5905C3.66105 19.367 3.62227 19.1834 3.58126 19.0529C3.56074 18.9875 3.53953 18.935 3.5223 18.8968C3.51368 18.8777 3.50601 18.8621 3.49988 18.8502L3.49187 18.8351L3.48885 18.8296L3.4876 18.8274L3.48705 18.8264L3.48679 18.826L3.48667 18.8257C3.4866 18.8256 3.48654 18.8255 3.18313 19L3.48654 18.8255L3.35508 18.5969L3.09906 18.6602C2.63659 18.7747 2.29995 19.07 2.0767 19.3377C1.87091 19.5823 1.74361 19.8245 1.6838 19.9506L1.46422 20.4132L1.97506 20.4497C2.16725 20.4635 2.37619 20.4713 2.59438 20.4713C2.82316 20.4713 3.0443 20.4635 3.24612 20.4477L3.47446 20.4298L3.54946 20.2134C3.62896 19.9839 3.65644 19.7718 3.65872 19.5913Z" stroke="#121619" stroke-width="0.7"/>
<path d="M2.82842 19.7594C2.93887 19.7594 3.02841 19.6698 3.02841 19.5594C3.02841 19.4489 2.93887 19.3594 2.82842 19.3594C2.71796 19.3594 2.62842 19.4489 2.62842 19.5594C2.62842 19.6698 2.71796 19.7594 2.82842 19.7594Z" fill="#121619" stroke="#121619"/>
</svg>
