<svg width="24" height="24" viewBox="0 0 24 24" fill="none" xmlns="http://www.w3.org/2000/svg">
<path d="M7.039 11.6211C7.12025 11.7027 7.21683 11.7674 7.32318 11.8115C7.42953 11.8557 7.54356 11.8784 7.65872 11.8783C7.69015 11.8783 7.72155 11.8766 7.75281 11.8733C7.88313 11.8597 8.00874 11.817 8.12034 11.7484C8.23194 11.6797 8.32667 11.5868 8.39755 11.4766L9.23354 10.1827L12.5135 9.77422L13.2294 10.226C13.2613 10.2461 13.298 10.2573 13.3357 10.2584C13.3734 10.2596 13.4107 10.2505 13.4438 10.2323C13.4768 10.2141 13.5044 10.1873 13.5236 10.1549C13.5427 10.1224 13.5529 10.0853 13.5529 10.0476V8.15226C13.5529 8.11453 13.5427 8.0775 13.5236 8.04501C13.5044 8.01252 13.4768 7.98577 13.4438 7.96755C13.4107 7.94933 13.3734 7.94031 13.3357 7.94142C13.298 7.94253 13.2613 7.95374 13.2294 7.97388L12.5135 8.4256L10.5285 8.17837L11.1573 7.2052C11.1835 7.16468 11.195 7.11641 11.1899 7.06843C11.1848 7.02046 11.1634 6.97569 11.1293 6.94157L8.48663 4.29886L8.48636 4.29863L7.4892 3.30144C7.34534 3.15757 7.17455 3.04345 6.98658 2.96559C6.79861 2.88773 6.59715 2.84766 6.39369 2.84766C6.19024 2.84766 5.98877 2.88773 5.80081 2.96559C5.61284 3.04345 5.44205 3.15757 5.29818 3.30144L4.87299 3.7266C4.58288 4.01737 4.41996 4.41135 4.41996 4.82209C4.41996 5.23284 4.58288 5.62681 4.87299 5.91759L5.18746 6.23205L3.95155 7.03056C3.84152 7.10165 3.74879 7.19645 3.68015 7.30802C3.61151 7.41959 3.56869 7.5451 3.55485 7.67536C3.541 7.80562 3.55647 7.93733 3.60012 8.06084C3.64377 8.18435 3.7145 8.29653 3.80712 8.38916L7.03898 11.621L7.039 11.6211ZM12.5363 8.85357C12.5847 8.85948 12.6336 8.84856 12.6749 8.82263L13.131 8.53482V9.66503L12.6749 9.37719C12.6337 9.35122 12.5847 9.34029 12.5363 9.34625L9.53225 9.7204L10.2743 8.57185L12.5363 8.85357ZM8.40174 10.6927L4.75154 7.01596L8.30881 4.71768L10.7105 7.11939L8.40174 10.6927ZM5.1713 5.61932C4.96018 5.40772 4.84162 5.12101 4.84162 4.8221C4.84162 4.5232 4.96018 4.23649 5.1713 4.02488L5.59649 3.59973C5.80792 3.38832 6.09468 3.26955 6.39367 3.26955C6.69267 3.26955 6.97942 3.38832 7.19086 3.59973L8.00367 4.41254L5.54987 5.9979L5.1713 5.61932Z" fill="#121619"/>
<path d="M14.5656 10.1628C14.8681 10.2401 15.1611 10.3507 15.4392 10.4925C15.4639 10.5049 15.4909 10.5123 15.5185 10.5143C15.5462 10.5163 15.5739 10.5128 15.6002 10.5041C15.6265 10.4954 15.6508 10.4815 15.6718 10.4634C15.6927 10.4453 15.7099 10.4232 15.7223 10.3984C15.7347 10.3736 15.7421 10.3467 15.7441 10.319C15.7461 10.2914 15.7426 10.2637 15.7338 10.2374C15.7251 10.2111 15.7113 10.1868 15.6931 10.1658C15.675 10.1449 15.6529 10.1277 15.6281 10.1153C15.319 9.95713 14.9927 9.83478 14.6558 9.75067C14.6013 9.73913 14.5444 9.74962 14.4976 9.77983C14.4508 9.81005 14.4179 9.85755 14.406 9.91197C14.3941 9.96638 14.4042 10.0233 14.4341 10.0703C14.464 10.1173 14.5113 10.1505 14.5656 10.1628Z" fill="#121619"/>
<path d="M16.8595 11.6733C16.8917 11.719 16.9408 11.7501 16.9959 11.7596C17.051 11.7692 17.1077 11.7565 17.1534 11.7242C17.1992 11.692 17.2302 11.6429 17.2398 11.5878C17.2493 11.5327 17.2366 11.476 17.2044 11.4303C17.003 11.1469 16.7642 10.8921 16.4944 10.6728C16.473 10.6552 16.4483 10.642 16.4218 10.634C16.3953 10.626 16.3674 10.6233 16.3399 10.626C16.3123 10.6288 16.2855 10.6369 16.2611 10.65C16.2367 10.6631 16.2151 10.6808 16.1975 10.7023C16.1621 10.7456 16.1453 10.8012 16.1508 10.8568C16.1564 10.9125 16.1838 10.9637 16.2271 10.9991C16.4674 11.1943 16.6801 11.421 16.8595 11.6733Z" fill="#121619"/>
<path d="M17.4057 12.2292C17.3794 12.2378 17.355 12.2515 17.334 12.2696C17.3129 12.2876 17.2957 12.3096 17.2832 12.3343C17.2706 12.359 17.2631 12.386 17.261 12.4136C17.2589 12.4412 17.2622 12.469 17.2708 12.4953C17.3655 12.7896 17.4204 13.0953 17.434 13.4042C17.4367 13.4583 17.46 13.5093 17.4992 13.5466C17.5384 13.584 17.5904 13.6048 17.6446 13.6049C17.648 13.6049 17.6515 13.6048 17.655 13.6047C17.7109 13.6019 17.7634 13.5771 17.801 13.5357C17.8386 13.4943 17.8582 13.4396 17.8555 13.3837C17.84 13.0372 17.7782 12.6942 17.6718 12.3641C17.6631 12.3378 17.6494 12.3134 17.6314 12.2924C17.6134 12.2713 17.5914 12.2541 17.5667 12.2415C17.542 12.229 17.515 12.2215 17.4874 12.2194C17.4598 12.2173 17.432 12.2206 17.4057 12.2292Z" fill="#121619"/>
<path d="M18.4304 9.80195C18.6835 9.98543 18.9156 10.1964 19.1223 10.431C19.1593 10.473 19.2114 10.4986 19.2672 10.5021C19.3231 10.5057 19.378 10.4869 19.42 10.4499C19.462 10.413 19.4876 10.3608 19.4912 10.305C19.4947 10.2491 19.476 10.1942 19.439 10.1522C19.2116 9.89423 18.9564 9.66224 18.678 9.46046C18.6327 9.42848 18.5766 9.41564 18.5219 9.42472C18.4671 9.4338 18.4182 9.46407 18.3856 9.50898C18.3531 9.55388 18.3395 9.60981 18.3479 9.66464C18.3562 9.71948 18.3859 9.76881 18.4304 9.80195Z" fill="#121619"/>
<path d="M16.7216 9.02468C17.0284 9.10075 17.3278 9.20377 17.6164 9.33253C17.6417 9.34398 17.6689 9.35033 17.6967 9.35121C17.7244 9.35209 17.7521 9.34749 17.778 9.33767C17.804 9.32786 17.8277 9.31301 17.8479 9.294C17.8682 9.27498 17.8844 9.25216 17.8958 9.22685C17.9072 9.20154 17.9134 9.17423 17.9142 9.14649C17.915 9.11875 17.9104 9.09112 17.9005 9.06519C17.8906 9.03927 17.8757 9.01554 17.8566 8.99539C17.8375 8.97523 17.8147 8.95904 17.7893 8.94773C17.478 8.80875 17.155 8.69755 16.8241 8.61544C16.7699 8.60216 16.7127 8.61088 16.665 8.63967C16.6172 8.66846 16.5828 8.715 16.5692 8.76909C16.5557 8.82319 16.5641 8.88044 16.5927 8.92834C16.6212 8.97624 16.6676 9.01088 16.7216 9.02468Z" fill="#121619"/>
<path d="M14.8402 8.85849C14.8416 8.85836 14.9836 8.84375 15.2176 8.84375C15.4022 8.84375 15.5924 8.85259 15.7829 8.87003C15.7895 8.87062 15.796 8.8709 15.8024 8.8709C15.8567 8.87085 15.9088 8.8499 15.9481 8.81238C15.9873 8.77487 16.0105 8.72368 16.013 8.66947C16.0154 8.61525 15.9969 8.56218 15.9612 8.52128C15.9255 8.48039 15.8754 8.45482 15.8214 8.44989C15.6181 8.43131 15.415 8.42188 15.2177 8.42188C14.959 8.42188 14.8022 8.43831 14.7956 8.439C14.7404 8.44539 14.6899 8.47333 14.6552 8.51675C14.6204 8.56016 14.6043 8.61554 14.6101 8.67083C14.616 8.72612 14.6435 8.77686 14.6866 8.812C14.7297 8.84715 14.7849 8.86385 14.8402 8.85849H14.8402Z" fill="#121619"/>
<path d="M20.4392 11.9262C20.3318 11.6026 20.1947 11.2896 20.0298 10.9911C20.0163 10.9669 19.9982 10.9456 19.9765 10.9284C19.9547 10.9112 19.9299 10.8985 19.9032 10.8909C19.8766 10.8833 19.8487 10.881 19.8212 10.8842C19.7937 10.8874 19.767 10.896 19.7428 10.9095C19.7186 10.9229 19.6973 10.9411 19.6801 10.9628C19.6629 10.9845 19.6502 11.0094 19.6426 11.036C19.635 11.0627 19.6327 11.0905 19.6359 11.118C19.6391 11.1456 19.6477 11.1722 19.6612 11.1964C19.8135 11.472 19.94 11.7612 20.0391 12.0601C20.0569 12.1132 20.095 12.157 20.145 12.1819C20.1951 12.2069 20.253 12.211 20.3061 12.1932C20.3591 12.1755 20.403 12.1374 20.4279 12.0873C20.4529 12.0372 20.4569 11.9793 20.4392 11.9262Z" fill="#121619"/>
<path d="M19.745 20.4067C18.8774 19.8501 17.876 19.5371 16.8459 19.5005V17.9581H16.9538C17.6939 17.9572 18.4035 17.6629 18.9268 17.1395C19.4501 16.6162 19.7445 15.9066 19.7454 15.1665V14.8477C19.7454 14.829 19.7379 14.8111 19.7248 14.7979C19.7116 14.7848 19.6937 14.7773 19.675 14.7773H19.3562C18.7239 14.7782 18.1106 14.9934 17.6164 15.3878C17.1221 15.7822 16.7762 16.3324 16.6349 16.9487C16.4937 16.3324 16.1477 15.7822 15.6535 15.3878C15.1593 14.9934 14.546 14.7782 13.9137 14.7773H13.5948C13.5762 14.7773 13.5583 14.7848 13.5451 14.7979C13.5319 14.8111 13.5245 14.829 13.5245 14.8477V15.1665C13.5254 15.9066 13.8197 16.6162 14.3431 17.1395C14.8664 17.6629 15.576 17.9572 16.3161 17.9581H16.424V19.5005C15.3938 19.5371 14.3924 19.8501 13.5248 20.4067C13.1916 20.6201 12.8043 20.7336 12.4086 20.7336C12.013 20.7336 11.6257 20.6201 11.2925 20.4067C10.4249 19.8501 9.42353 19.5371 8.39337 19.5005V17.9581H8.50128C9.24139 17.9572 9.95095 17.6629 10.4743 17.1395C10.9976 16.6162 11.292 15.9066 11.2929 15.1665V14.8477C11.2929 14.829 11.2855 14.8111 11.2723 14.7979C11.2591 14.7848 11.2412 14.7773 11.2225 14.7773H10.9037C10.2714 14.7782 9.65808 14.9934 9.16385 15.3878C8.66962 15.7821 8.32366 16.3324 8.18243 16.9487C8.0412 16.3324 7.69524 15.7821 7.20101 15.3878C6.70678 14.9934 6.09347 14.7782 5.46118 14.7773H5.14233C5.12368 14.7773 5.1058 14.7848 5.09261 14.7979C5.07942 14.8111 5.07202 14.829 5.07202 14.8477V15.1665C5.07285 15.9066 5.36723 16.6162 5.89057 17.1395C6.4139 17.6629 7.12346 17.9572 7.86357 17.9581H7.97149V19.5005C6.94134 19.5371 5.93998 19.8501 5.07234 20.4067C5.02527 20.4369 4.99214 20.4846 4.98023 20.5393C4.96833 20.5939 4.97863 20.6511 5.00887 20.6982C5.0391 20.7452 5.0868 20.7784 5.14146 20.7903C5.19613 20.8022 5.25328 20.7919 5.30035 20.7616C6.16071 20.2109 7.16087 19.9182 8.18241 19.9182C9.20396 19.9182 10.2041 20.2109 11.0645 20.7616C11.4657 21.0186 11.9322 21.1553 12.4086 21.1553C12.8851 21.1553 13.3516 21.0187 13.7528 20.7616C14.6132 20.2109 15.6134 19.9182 16.6349 19.9182C17.6565 19.9182 18.6567 20.2109 19.5171 20.7616C19.5404 20.777 19.5665 20.7875 19.5939 20.7926C19.6213 20.7978 19.6494 20.7975 19.6767 20.7917C19.704 20.7859 19.7298 20.7747 19.7528 20.7589C19.7757 20.743 19.7953 20.7228 19.8104 20.6993C19.8254 20.6759 19.8357 20.6497 19.8406 20.6222C19.8454 20.5947 19.8448 20.5666 19.8387 20.5394C19.8327 20.5122 19.8213 20.4864 19.8052 20.4637C19.7891 20.4409 19.7686 20.4215 19.745 20.4067ZM8.20568 17.9513H8.15918C8.12545 17.9513 8.09221 17.9433 8.06224 17.9278C8.03227 17.9124 8.00645 17.89 7.98694 17.8624C7.98159 17.8549 7.44424 17.1032 6.796 16.6348C6.77355 16.6186 6.75451 16.5981 6.73997 16.5745C6.72544 16.5509 6.71569 16.5247 6.71129 16.4973C6.70689 16.47 6.70791 16.442 6.71431 16.4151C6.72071 16.3881 6.73235 16.3627 6.74858 16.3403C6.7648 16.3178 6.78529 16.2988 6.80887 16.2842C6.83245 16.2697 6.85867 16.26 6.88602 16.2555C6.91337 16.2511 6.94131 16.2522 6.96827 16.2586C6.99522 16.265 7.02065 16.2766 7.0431 16.2928C7.54249 16.6537 7.96779 17.1504 8.18243 17.4221C8.39707 17.1504 8.82237 16.6537 9.32175 16.2928C9.3671 16.2601 9.4236 16.2467 9.47884 16.2555C9.53407 16.2644 9.58351 16.2949 9.61628 16.3403C9.64905 16.3856 9.66246 16.4421 9.65357 16.4973C9.64467 16.5526 9.6142 16.602 9.56886 16.6348C8.92062 17.1032 8.38327 17.8549 8.37792 17.8624C8.35841 17.89 8.33259 17.9124 8.30262 17.9278C8.27265 17.9433 8.23941 17.9513 8.20568 17.9513ZM16.6582 17.9513H16.6117C16.578 17.9514 16.5447 17.9433 16.5147 17.9278C16.4848 17.9124 16.459 17.89 16.4395 17.8624C16.4341 17.8549 15.8967 17.1032 15.2485 16.6348C15.226 16.6186 15.207 16.5981 15.1925 16.5745C15.1779 16.5509 15.1682 16.5247 15.1638 16.4973C15.1594 16.47 15.1604 16.442 15.1668 16.4151C15.1732 16.3881 15.1848 16.3627 15.2011 16.3403C15.2173 16.3178 15.2378 16.2988 15.2614 16.2842C15.285 16.2697 15.3112 16.26 15.3385 16.2555C15.3659 16.2511 15.3938 16.2522 15.4208 16.2586C15.4477 16.265 15.4731 16.2766 15.4956 16.2928C15.995 16.6537 16.4203 17.1504 16.6349 17.4221C16.8496 17.1504 17.2749 16.6537 17.7743 16.2928C17.7967 16.2766 17.8221 16.265 17.8491 16.2586C17.876 16.2522 17.904 16.2511 17.9313 16.2555C17.9587 16.26 17.9849 16.2697 18.0085 16.2842C18.0321 16.2988 18.0526 16.3178 18.0688 16.3403C18.085 16.3627 18.0966 16.3881 18.103 16.4151C18.1094 16.442 18.1105 16.47 18.1061 16.4973C18.1017 16.5247 18.0919 16.5509 18.0774 16.5745C18.0628 16.5981 18.0438 16.6186 18.0214 16.6348C17.3731 17.1032 16.8358 17.8549 16.8304 17.8624C16.8109 17.89 16.7851 17.9124 16.7551 17.9278C16.7252 17.9433 16.6919 17.9514 16.6582 17.9513H16.6582Z" fill="#121619"/>
</svg>
