<svg width="24" height="24" viewBox="0 0 24 24" fill="none" xmlns="http://www.w3.org/2000/svg">
<path d="M7.48584 13.6914C6.95615 14.4555 6.44053 15.2008 5.91553 15.9555C7.92178 15.9555 9.90459 15.9555 11.8827 15.9555" stroke="#121619" stroke-width="0.46875" stroke-miterlimit="10" stroke-linecap="round" stroke-linejoin="round"/>
<path d="M12.7218 15.9609C12.7546 15.9609 12.7359 15.9609 12.7687 15.9609" stroke="#121619" stroke-width="0.46875" stroke-miterlimit="10" stroke-linecap="round" stroke-linejoin="round"/>
<path d="M13.6265 15.9602C15.2015 15.9602 16.7765 15.9602 18.3608 15.9602C17.2265 14.343 16.1155 12.7633 15.0046 11.1836" stroke="#121619" stroke-width="0.46875" stroke-miterlimit="10" stroke-linecap="round" stroke-linejoin="round"/>
<path d="M14.5499 10.5297C14.2452 10.0984 13.9405 9.6625 13.6358 9.22656C12.4639 10.3984 11.3483 11.5 10.2561 12.6156C9.95142 12.925 9.68892 12.9766 9.39829 12.6297C9.20142 12.3953 9.00454 12.1656 8.75142 11.8656C8.48892 12.2453 8.2311 12.6109 7.98267 12.9766" stroke="#121619" stroke-width="0.46875" stroke-miterlimit="10" stroke-linecap="round" stroke-linejoin="round"/>
<path d="M10.5515 7.68437C11.6015 7.68437 12.5999 7.68437 13.6124 7.68437C13.6124 7.15937 13.6124 6.67188 13.6124 6.17969C12.5718 6.17969 11.5733 6.17969 10.5515 6.17969C10.5515 6.69062 10.5515 7.15937 10.5515 7.68437Z" stroke="#121619" stroke-width="0.46875" stroke-miterlimit="10"/>
<path d="M13.6359 9.37109C13.5187 9.37109 13.4249 9.27734 13.4249 9.16016V7.70703C13.4249 7.58984 13.5187 7.49609 13.6359 7.49609C13.7531 7.49609 13.8468 7.58984 13.8468 7.70703V9.16016C13.8468 9.27734 13.7531 9.37109 13.6359 9.37109Z" fill="#121619"/>
</svg>
