<svg width="24" height="24" viewBox="0 0 24 24" fill="none" xmlns="http://www.w3.org/2000/svg">
<g clip-path="url(#clip0_23033_12994)">
<path d="M9.77771 12.8396H10.1249C10.1249 12.3898 10.4674 11.9229 10.6526 11.703L11.0842 12.1346C11.1983 12.2485 11.3528 12.3124 11.5139 12.3124C11.675 12.3124 11.8296 12.2485 11.9436 12.1346L12.3754 11.7029C12.5604 11.9221 12.9027 12.3882 12.9027 12.8396H13.2499C13.2499 12.1533 12.6649 11.4968 12.5319 11.3563L12.284 10.6953L11.959 10.8168L12.1801 11.4066L11.698 11.8887C11.6738 11.9129 11.6451 11.9321 11.6135 11.9452C11.5819 11.9583 11.5481 11.965 11.5139 11.965C11.4797 11.965 11.4458 11.9583 11.4142 11.9452C11.3826 11.9321 11.3539 11.9129 11.3297 11.8887L10.8476 11.4066L11.0688 10.8168L10.7437 10.6953L10.4959 11.3563C10.3627 11.4968 9.77771 12.1533 9.77771 12.8396Z" fill="#121619"/>
<path d="M9.77772 9.89204V9.4278C9.92751 9.46597 10.0631 9.54649 10.1683 9.65975L10.4288 9.43041C10.2321 9.22069 9.96526 9.09047 9.67893 9.06443C9.37511 9.04568 9.07702 9.16331 8.79352 9.41504L9.02416 9.6745C9.13992 9.56581 9.27887 9.48484 9.4305 9.4377V9.89204H9.77772Z" fill="#121619"/>
<path d="M16.1753 19.3455C16.1639 19.3273 16.1492 19.3114 16.1319 19.2986L13.4236 17.2674V15.6866C13.8179 15.2475 15.0084 13.5405 15.7028 11.96C16.4283 11.7864 17.5903 10.1067 17.5903 9.36814C17.5903 8.57552 16.4991 8.02083 16.4527 7.99757C16.4284 7.98616 16.4018 7.9806 16.375 7.98134V6.41667C16.375 3.92448 14.4219 2.25 11.5139 2.25C8.6059 2.25 6.65278 3.92448 6.65278 6.41667V7.98116C6.62596 7.98043 6.59934 7.98602 6.57509 7.99748C6.52865 8.02075 5.4375 8.57543 5.4375 9.36806C5.4375 10.1067 6.59948 11.7866 7.325 11.9599C8.01944 13.5405 9.2099 15.2474 9.60417 15.6865V17.2674L6.89583 19.2986C6.87859 19.3114 6.86387 19.3273 6.85243 19.3455L5.98438 20.7344C5.96793 20.7607 5.95884 20.7909 5.95804 20.8219C5.95724 20.8529 5.96477 20.8836 5.97983 20.9107C5.9949 20.9378 6.01695 20.9604 6.0437 20.9761C6.07045 20.9918 6.10092 21.0001 6.13194 21H16.8958C16.9269 21.0001 16.9573 20.9918 16.9841 20.9761C17.0108 20.9604 17.0329 20.9378 17.0479 20.9107C17.063 20.8836 17.0705 20.8529 17.0697 20.8219C17.0689 20.7909 17.0598 20.7607 17.0434 20.7344L16.1753 19.3455ZM13.6749 19.7556L14.099 20.0383L13.9758 20.6528H12.8548C13.2161 19.7096 13.4081 18.7101 13.422 17.7003L14.1181 18.2222V19.0289L13.6493 19.487C13.6308 19.5051 13.6166 19.527 13.6077 19.5513C13.5988 19.5756 13.5954 19.6015 13.5978 19.6272C13.6002 19.653 13.6084 19.6779 13.6216 19.7001C13.6348 19.7223 13.6529 19.7412 13.6744 19.7556H13.6749ZM8.92951 20.0383L9.35365 19.7556C9.37515 19.7412 9.39319 19.7223 9.40643 19.7001C9.41968 19.6779 9.4278 19.653 9.43021 19.6272C9.43261 19.6015 9.42923 19.5756 9.42033 19.5513C9.41142 19.527 9.39721 19.5051 9.37873 19.487L8.90972 19.0289V18.2222L9.60573 17.7002C9.61964 18.7101 9.81168 19.7096 10.173 20.6528H9.052L8.92951 20.0383ZM7.70312 7.73472C7.71424 7.38142 7.72483 7.04774 7.85894 6.64523C8.09566 5.93594 8.48464 5.05764 9.40226 4.50382C10.1118 4.8309 11.0235 5.20139 11.5139 5.20139C12.0043 5.20139 12.916 4.8309 13.6253 4.50382C14.543 5.05773 14.9319 5.93611 15.1687 6.64514C15.3029 7.04774 15.3134 7.38142 15.3249 7.73472C15.3418 8.26771 15.3591 8.81884 15.7882 9.62335C16.4144 10.7976 13.7142 14.9087 13.1277 15.4953C12.5679 16.0547 12.3568 16.1389 11.5139 16.1389C10.671 16.1389 10.4599 16.0547 9.90052 15.4953C9.31389 14.9087 6.61372 10.7976 7.24002 9.62335C7.6691 8.81884 7.68646 8.26771 7.70312 7.73472ZM11.667 19.2639H11.3608L11.0725 18.6872L11.4043 18.3969C11.4407 18.399 11.4772 18.4003 11.5139 18.4003C11.5506 18.4003 11.5871 18.399 11.6234 18.3969L11.9553 18.6872L11.667 19.2639ZM9.95139 17.5712V17.5706C10.1936 17.9293 10.552 18.1935 10.9662 18.3188L10.0903 19.085C9.9977 18.5857 9.95121 18.079 9.95139 17.5712ZM12.0615 18.3188C12.4758 18.1935 12.8342 17.9293 13.0764 17.5706V17.5712C13.0766 18.079 13.0301 18.5857 12.9375 19.085L12.0615 18.3188ZM11.5139 16.4861C12.2591 16.4861 12.599 16.4232 13.0764 16.0168V16.9437L12.7968 17.3649C12.6563 17.5766 12.4656 17.7501 12.2418 17.8702C12.018 17.9903 11.7679 18.0531 11.5139 18.0531C11.2599 18.0531 11.0098 17.9903 10.786 17.8702C10.5621 17.7501 10.3715 17.5766 10.231 17.3649L9.95139 16.9437V16.0168C10.4288 16.4232 10.7687 16.4861 11.5139 16.4861ZM10.1727 19.4746L10.8023 18.9235L11.072 19.4628L10.849 20.6528H10.5461C10.3925 20.2699 10.2676 19.876 10.1727 19.4746ZM11.3976 19.6111H11.6313L11.8348 20.6528H11.2023L11.3976 19.6111ZM11.9561 19.4623L12.2252 18.9236L12.8549 19.4747C12.7599 19.8761 12.6352 20.27 12.4816 20.6529H12.1885L11.9561 19.4623ZM16.4043 8.36623C16.7099 8.54392 17.2431 8.94271 17.2431 9.36806C17.2431 9.88785 16.4415 11.075 15.897 11.4852C16.2068 10.6633 16.3381 9.91745 16.0942 9.45998C15.998 9.28189 15.9163 9.09641 15.8497 8.90529L16.4043 8.36623ZM11.5139 2.59722C14.256 2.59722 16.0278 4.09644 16.0278 6.41667V8.24826L15.745 8.523C15.6974 8.25943 15.6728 7.99222 15.6715 7.72439C15.6759 7.32161 15.6174 6.92062 15.4979 6.53594C15.2556 5.80981 14.8076 4.77326 13.72 4.15747C13.6959 4.14383 13.6689 4.13615 13.6413 4.13507C13.6136 4.13398 13.5861 4.13952 13.561 4.15122C12.603 4.59783 11.8569 4.85417 11.5139 4.85417C11.1709 4.85417 10.4247 4.59783 9.46667 4.15104C9.44159 4.13934 9.41409 4.13381 9.38644 4.13489C9.35879 4.13598 9.3318 4.14366 9.30773 4.15729C8.22014 4.77266 7.77257 5.80903 7.52951 6.53542C7.41008 6.92007 7.3515 7.32104 7.3559 7.72378C7.35464 7.99161 7.33007 8.25883 7.28246 8.5224L7 8.24826V6.41667C7 4.09644 8.77179 2.59722 11.5139 2.59722ZM5.78472 9.36806C5.78472 8.94392 6.31797 8.5447 6.62352 8.36641L7.17821 8.90521C7.1116 9.09632 7.02983 9.28181 6.93368 9.4599C6.68967 9.91736 6.82083 10.6631 7.1309 11.4852C6.58628 11.075 5.78472 9.88785 5.78472 9.36806ZM7.13021 19.5569L8.5625 18.4826V19.1019C8.56248 19.125 8.56708 19.1479 8.57602 19.1692C8.58496 19.1905 8.59807 19.2099 8.61458 19.226L8.9822 19.5854L8.63967 19.8138C8.61105 19.8329 8.58874 19.86 8.57557 19.8918C8.56241 19.9236 8.55897 19.9585 8.56571 19.9923L8.698 20.6528H6.44514L7.13021 19.5569ZM14.3298 20.6528L14.4619 19.9924C14.4686 19.9586 14.4652 19.9237 14.452 19.8919C14.4389 19.8601 14.4166 19.833 14.3879 19.8139L14.0454 19.5855L14.413 19.2261C14.4295 19.2099 14.4426 19.1906 14.4516 19.1693C14.4605 19.148 14.4651 19.1251 14.4651 19.102V18.4826L15.8974 19.5569L16.5826 20.6528H14.3298Z" fill="#121619"/>
<path d="M13.3484 9.06445C13.0621 9.09048 12.7953 9.22071 12.5986 9.43042L12.8599 9.65907C12.9673 9.54943 13.102 9.47041 13.25 9.43016V9.89197H13.5973V9.43693C13.7486 9.48464 13.8871 9.56581 14.0027 9.67443L14.2334 9.41497C13.9503 9.16332 13.6529 9.04561 13.3484 9.06445Z" fill="#121619"/>
<path d="M11.5138 13.7089C11.3679 13.7024 11.2259 13.6595 11.1008 13.5842C10.9757 13.5088 10.8714 13.4033 10.7975 13.2773L10.4937 13.4459C10.8291 14.0491 11.486 14.0561 11.5138 14.0561C11.5416 14.0561 12.1985 14.0491 12.5336 13.4459L12.2298 13.2773C12.1561 13.4035 12.0519 13.509 11.9268 13.5844C11.8017 13.6598 11.6597 13.7026 11.5138 13.7089Z" fill="#121619"/>
<path d="M9.43055 8.06988C9.82965 8.07829 10.2281 8.10679 10.6243 8.1553L10.6677 7.81076C10.2571 7.76008 9.84418 7.73067 9.43055 7.72266C8.50121 7.72266 8.10876 8.1046 8.09253 8.12075L8.3368 8.36771C8.33966 8.36502 8.65798 8.06988 9.43055 8.06988Z" fill="#121619"/>
<path d="M13.5974 8.06988C14.37 8.06988 14.6883 8.36502 14.6899 8.36623L14.9354 8.12075C14.9192 8.1046 14.5267 7.72266 13.5974 7.72266C13.1839 7.73071 12.7711 7.76015 12.3606 7.81085L12.404 8.15538C12.8001 8.10686 13.1984 8.07833 13.5974 8.06988Z" fill="#121619"/>
<g clip-path="url(#clip1_23033_12994)">
<path d="M13.5093 13.6988C13.5237 13.9559 13.7019 14.165 13.9375 14.2291C13.9955 14.2449 14.0579 14.2518 14.121 14.2489L14.1558 14.2463L14.785 17.7159C14.7985 17.7919 14.8551 17.8495 14.9243 17.8683C14.943 17.8734 14.9646 17.8753 14.9849 17.8747L15.7922 17.8312C15.8981 17.8258 15.9814 17.734 15.976 17.6281L15.8188 14.6685C15.8134 14.5626 15.7216 14.4794 15.6157 14.4847C15.5098 14.4901 15.4265 14.5819 15.4319 14.6878L15.5776 17.4534L15.1351 17.4777L14.5456 14.2238L15.1877 14.1895L16.3882 14.3031C17.4967 14.4078 18.5523 14.8918 19.3551 15.6625C19.4444 15.7551 19.5558 15.8256 19.683 15.8602C19.7541 15.8795 19.8301 15.8882 19.9078 15.8832C20.3013 15.8617 20.604 15.5242 20.5844 15.1311L20.5219 13.9651C20.7303 13.9153 20.9169 13.8053 21.0631 13.6442C21.2532 13.4328 21.3491 13.1616 21.3338 12.8782C21.3185 12.5948 21.1945 12.3341 20.9831 12.144C20.822 11.9977 20.623 11.9095 20.4115 11.8821L20.349 10.716C20.3275 10.3225 19.9919 10.0203 19.5969 10.0394C19.4053 10.0496 19.2301 10.1325 19.1031 10.2747C19.0915 10.2876 19.0832 10.3034 19.0716 10.3163C19.0716 10.3163 19.0711 10.3182 19.0693 10.3177C18.351 11.171 17.3547 11.7617 16.262 11.9828L15.0801 12.2218L14.0144 12.2774C13.8595 12.2855 13.7166 12.3531 13.6126 12.4695C13.5092 12.5839 13.4562 12.7343 13.4643 12.8891L13.5093 13.6988ZM20.7227 12.4367C20.8565 12.5575 20.9364 12.7219 20.9453 12.9031C20.9548 13.0824 20.8934 13.2566 20.7726 13.3905C20.6975 13.4745 20.6027 13.5351 20.4985 13.571L20.4323 12.2855C20.54 12.3107 20.6391 12.3598 20.7227 12.4367ZM19.6171 10.4306C19.6519 10.428 19.6866 10.4334 19.7203 10.4426C19.8531 10.4787 19.9537 10.5964 19.9624 10.7414L20.0341 12.0807L20.1253 13.813L20.197 15.1523C20.2064 15.3316 20.0678 15.4868 19.8866 15.4957C19.7826 15.5016 19.6885 15.4559 19.6237 15.3841L19.6223 15.3817C19.6223 15.3817 19.6205 15.3812 19.621 15.3793C19.5769 15.3271 19.5468 15.2607 19.5431 15.1854L19.3086 10.7745C19.304 10.703 19.3252 10.6324 19.3649 10.5749C19.3654 10.573 19.3673 10.5735 19.3678 10.5717C19.3678 10.5717 19.3683 10.5698 19.3688 10.5679C19.3756 10.5577 19.3824 10.5475 19.3911 10.5378C19.4507 10.4737 19.5314 10.4354 19.6171 10.4306ZM16.342 12.3681C17.3138 12.1704 18.2137 11.6981 18.9334 11.024L19.1425 14.982C18.3539 14.3878 17.4094 14.0124 16.4225 13.9187L15.3745 13.8205L15.3578 13.5126L15.3089 12.5773L16.342 12.3681ZM13.9039 12.7355C13.9385 12.6967 13.9865 12.6756 14.0378 12.6715L14.9242 12.6253L14.9862 13.8153L14.0998 13.8615C13.9939 13.8668 13.9015 13.7855 13.8962 13.6795L13.854 12.8746C13.8517 12.8238 13.8692 12.7743 13.9039 12.7355Z" fill="#121619"/>
<path d="M21.6554 12.8642C21.6603 12.9499 21.7195 13.0203 21.798 13.0416C21.8167 13.0467 21.8383 13.0486 21.8586 13.048L23.0448 12.985C23.1507 12.9797 23.234 12.8878 23.2286 12.7819C23.2233 12.676 23.1333 12.5933 23.0255 12.5981L21.8393 12.6611C21.7315 12.666 21.6506 12.7565 21.6554 12.8642Z" fill="#121619"/>
<path d="M21.5651 12.0757C21.585 12.0912 21.6083 12.1015 21.6326 12.1081C21.7056 12.128 21.7889 12.1024 21.8381 12.0395L22.6959 10.9168C22.7611 10.8321 22.7444 10.7091 22.6592 10.6457C22.5745 10.5805 22.4514 10.5972 22.388 10.6824L21.5303 11.8051C21.465 11.8898 21.4804 12.0105 21.5651 12.0757Z" fill="#121619"/>
<path d="M21.6509 13.6516C21.5728 13.7248 21.5693 13.8484 21.643 13.9247L22.6136 14.95C22.6384 14.9768 22.6695 14.9953 22.7032 15.0045C22.7668 15.0218 22.8371 15.0068 22.8866 14.958C22.9647 14.8848 22.9682 14.7612 22.8946 14.6849L21.924 13.6596C21.8527 13.5819 21.7291 13.5785 21.6509 13.6516Z" fill="#121619"/>
</g>
</g>
<defs>
<clipPath id="clip0_23033_12994">
<rect width="24" height="24" fill="white"/>
</clipPath>
<clipPath id="clip1_23033_12994">
<rect width="11.6303" height="11.6303" fill="white" transform="translate(14.0526 6.9375) rotate(15.2162)"/>
</clipPath>
</defs>
</svg>
