<svg width="24" height="24" viewBox="0 0 24 24" fill="none" xmlns="http://www.w3.org/2000/svg">
<path d="M17.182 4.97688C17.0446 4.97688 16.9204 4.89016 16.8735 4.75938C16.8327 4.66234 16.8412 4.55078 16.8974 4.46031C16.9574 4.36375 17.0629 4.30469 17.1763 4.30469H17.1824C17.3638 4.30469 17.5106 4.45141 17.5106 4.63281V4.64828C17.5106 4.81234 17.3892 4.95156 17.2265 4.97359C17.211 4.97594 17.1965 4.97688 17.182 4.97688Z" fill="#121619"/>
<path d="M16.1493 17.0348H14.7027C13.9523 17.0348 13.342 16.4245 13.342 15.674V14.3849C13.342 14.2035 13.4887 14.0568 13.6701 14.0568C13.8515 14.0568 13.9982 14.2035 13.9982 14.3849V15.674C13.9982 16.0626 14.3141 16.3785 14.7027 16.3785H16.1493C16.5379 16.3785 16.8538 16.0626 16.8538 15.674V5.75431C16.6907 5.834 16.5084 5.87806 16.3171 5.87806C15.9801 5.87806 15.6557 5.73697 15.426 5.49134C15.1963 5.73744 14.872 5.87806 14.5349 5.87806C14.3432 5.87806 14.1604 5.834 13.9977 5.75431V13.0813C13.9977 13.2627 13.851 13.4095 13.6696 13.4095C13.4882 13.4095 13.3415 13.2627 13.3415 13.0813V4.87119C13.3415 4.70525 13.4657 4.56509 13.6307 4.5454C13.7952 4.52525 13.9495 4.63212 13.9884 4.79384C14.0498 5.04603 14.2743 5.22181 14.5349 5.22181C14.6943 5.22181 14.841 5.15759 14.9488 5.0404C15.0707 4.90822 15.2441 4.83181 15.4251 4.83181H15.4256C15.6065 4.83181 15.7804 4.90775 15.9027 5.0404C16.0106 5.15759 16.1577 5.22181 16.3166 5.22181C16.5763 5.22181 16.8009 5.04603 16.8632 4.79478C16.9031 4.63353 17.0568 4.52806 17.2213 4.54775C17.3859 4.5679 17.5101 4.70759 17.5101 4.87353V15.674C17.5101 16.4245 16.8998 17.0348 16.1493 17.0348Z" fill="#121619"/>
<path d="M15.4261 14.713C15.2447 14.713 15.098 14.5662 15.098 14.3848V7.74219C15.098 7.56078 15.2447 7.41406 15.4261 7.41406C15.6075 7.41406 15.7542 7.56078 15.7542 7.74219V14.3848C15.7542 14.5662 15.6075 14.713 15.4261 14.713Z" fill="#121619"/>
<path d="M15.4261 6.96827C15.3398 6.96827 15.2555 6.93358 15.1941 6.87218C15.1791 6.85718 15.1655 6.8403 15.1533 6.82249C15.1416 6.80468 15.1312 6.78593 15.1233 6.76577C15.1148 6.74608 15.1087 6.72546 15.1045 6.70436C15.1003 6.68327 15.098 6.66171 15.098 6.64061C15.098 6.61905 15.1003 6.59749 15.1045 6.57639C15.1087 6.5553 15.1148 6.53468 15.1233 6.51499C15.1312 6.4953 15.1416 6.47608 15.1533 6.45827C15.1655 6.44046 15.1791 6.42358 15.1941 6.40858C15.2705 6.33217 15.3839 6.29749 15.4903 6.31858C15.5114 6.3228 15.532 6.32936 15.5517 6.33733C15.5714 6.34577 15.5906 6.35561 15.6084 6.3678C15.6262 6.37952 15.6431 6.39311 15.6581 6.40858C15.6731 6.42358 15.6872 6.44046 15.6989 6.45827C15.7106 6.47608 15.7209 6.4953 15.7294 6.51499C15.7373 6.53468 15.7439 6.5553 15.7481 6.57639C15.7523 6.59749 15.7542 6.61905 15.7542 6.64061C15.7542 6.72686 15.7195 6.81124 15.6581 6.87218C15.6431 6.88764 15.6262 6.90124 15.6084 6.91296C15.5906 6.92514 15.5714 6.93499 15.5517 6.94343C15.532 6.95139 15.5114 6.95796 15.4903 6.96218C15.4692 6.96639 15.4476 6.96827 15.4261 6.96827Z" fill="#121619"/>
<path d="M16.3172 5.87906C15.9801 5.87906 15.6558 5.73797 15.4261 5.49234C15.1964 5.73844 14.872 5.87906 14.535 5.87906C13.9706 5.87906 13.4836 5.49703 13.3504 4.94953C13.3429 4.91859 13.3368 4.88812 13.3317 4.85719C13.3143 4.75312 13.3237 4.64625 13.3579 4.54594C13.3626 4.53187 13.3678 4.51828 13.3739 4.50469C13.3889 4.46766 13.4081 4.43156 13.4306 4.39734L15.1298 0.820312C15.1842 0.705937 15.2995 0.632812 15.4261 0.632812C15.5526 0.632812 15.6679 0.705937 15.7223 0.820312L17.4215 4.39875C17.4431 4.43156 17.4614 4.46625 17.4764 4.50187C17.4834 4.51734 17.4895 4.53328 17.4942 4.54922C17.527 4.64719 17.5364 4.75172 17.5204 4.8525C17.5148 4.88719 17.5083 4.91812 17.5012 4.94859C17.3662 5.49844 16.8797 5.87906 16.3172 5.87906ZM15.4261 4.83281C15.607 4.83281 15.7809 4.90875 15.9033 5.04141C16.0111 5.15859 16.1583 5.22281 16.3172 5.22281C16.5768 5.22281 16.8014 5.04703 16.8637 4.79578C16.8661 4.785 16.8693 4.77141 16.8717 4.75687V4.75641C16.86 4.74 16.8492 4.72266 16.8403 4.70391L15.4261 1.72687L14.0118 4.70391C14.0029 4.72219 13.9926 4.73953 13.9809 4.75594C13.9833 4.76859 13.9856 4.78172 13.9889 4.79484C14.0498 5.04609 14.2748 5.22187 14.5354 5.22187C14.6948 5.22187 14.8415 5.15766 14.9493 5.04047C15.0712 4.90828 15.2447 4.83187 15.4256 4.83187C15.4256 4.83281 15.4261 4.83281 15.4261 4.83281Z" fill="#121619"/>
<path d="M16.2984 3.125H14.5541C14.3727 3.125 14.226 2.97828 14.226 2.79687C14.226 2.61547 14.3727 2.46875 14.5541 2.46875H16.2984C16.4798 2.46875 16.6265 2.61547 16.6265 2.79687C16.6265 2.97828 16.4793 3.125 16.2984 3.125Z" fill="#121619"/>
<path d="M16.2178 17.0366H14.6343C13.9218 17.0366 13.342 16.4567 13.342 15.7442V14.3867C13.342 14.2053 13.4887 14.0586 13.6701 14.0586H17.1824C17.3639 14.0586 17.5106 14.2053 17.5106 14.3867V15.7442C17.5101 16.4567 16.9307 17.0366 16.2178 17.0366ZM13.9978 14.7148V15.7442C13.9978 16.0948 14.2832 16.3803 14.6339 16.3803H16.2178C16.5684 16.3803 16.8539 16.0948 16.8539 15.7442V14.7148H13.9978Z" fill="#121619"/>
<path d="M17.182 19.2537C17.1609 19.2537 17.1394 19.2513 17.1183 19.2471C17.0972 19.2429 17.0765 19.2368 17.0569 19.2284C17.0367 19.2204 17.0179 19.2101 17.0001 19.1984C16.9819 19.1862 16.9654 19.1726 16.95 19.1576C16.935 19.1426 16.9214 19.1257 16.9092 19.1074C16.8975 19.0901 16.8876 19.0709 16.8792 19.0512C16.8712 19.031 16.8647 19.0104 16.8604 18.9898C16.8562 18.9687 16.8539 18.9471 16.8539 18.9255C16.8539 18.904 16.8562 18.8824 16.8604 18.8613C16.8647 18.8407 16.8712 18.8196 16.8792 18.7999C16.8876 18.7802 16.8975 18.761 16.9092 18.7432C16.9214 18.7254 16.935 18.7085 16.95 18.6935C16.9654 18.6785 16.9819 18.6645 17.0001 18.6527C17.0179 18.641 17.0367 18.6307 17.0569 18.6227C17.0765 18.6143 17.0972 18.6082 17.1183 18.604C17.1604 18.5955 17.204 18.5955 17.2462 18.604C17.2673 18.6082 17.2879 18.6143 17.3076 18.6227C17.3273 18.6307 17.3465 18.641 17.3644 18.6527C17.3822 18.6645 17.399 18.6785 17.414 18.6935C17.4295 18.7085 17.4431 18.7254 17.4548 18.7432C17.467 18.761 17.4769 18.7802 17.4853 18.7999C17.4933 18.8196 17.4998 18.8407 17.504 18.8613C17.5083 18.8824 17.5101 18.904 17.5101 18.9255C17.5101 18.9471 17.5083 18.9687 17.504 18.9898C17.4998 19.0104 17.4933 19.031 17.4853 19.0512C17.4769 19.0709 17.467 19.0901 17.4548 19.1074C17.4431 19.1257 17.4295 19.1426 17.414 19.1576C17.399 19.1726 17.3822 19.1862 17.3644 19.1984C17.3465 19.2101 17.3273 19.2204 17.3076 19.2284C17.2879 19.2368 17.2673 19.2429 17.2462 19.2471C17.2251 19.2513 17.2036 19.2537 17.182 19.2537Z" fill="#121619"/>
<path d="M4.05838 23.3702H3.92151C3.7401 23.3702 3.59338 23.2234 3.59338 23.042V1.19922C3.59338 1.01781 3.7401 0.871094 3.92151 0.871094H9.77385C9.95526 0.871094 10.102 1.01781 10.102 1.19922V16.7092C10.102 16.8906 9.95526 17.0373 9.77385 17.0373C9.59245 17.0373 9.44573 16.8906 9.44573 16.7092V1.52734H4.24963V22.5002L9.58213 18.6611C9.72932 18.5552 9.93417 18.5884 10.0401 18.7356C10.146 18.8828 10.1128 19.0877 9.96557 19.1936L4.2501 23.3083C4.19432 23.3486 4.12729 23.3702 4.05838 23.3702Z" fill="#121619"/>
<path d="M6.05198 3.81641H3.92151C3.7401 3.81641 3.59338 3.66969 3.59338 3.48828C3.59338 3.30688 3.7401 3.16016 3.92151 3.16016H6.05198C6.23338 3.16016 6.3801 3.30688 6.3801 3.48828C6.3801 3.66969 6.23292 3.81641 6.05198 3.81641Z" fill="#121619"/>
<path d="M6.05198 7H3.92151C3.7401 7 3.59338 6.85328 3.59338 6.67188C3.59338 6.49047 3.7401 6.34375 3.92151 6.34375H6.05198C6.23338 6.34375 6.3801 6.49047 6.3801 6.67188C6.3801 6.85328 6.23292 7 6.05198 7Z" fill="#121619"/>
<path d="M6.052 10.1833C6.03044 10.1833 6.00888 10.181 5.98778 10.1768C5.96669 10.1726 5.94606 10.1665 5.92638 10.158C5.90669 10.1501 5.88747 10.1397 5.86966 10.128C5.85185 10.1163 5.83497 10.1022 5.81997 10.0872C5.75856 10.0263 5.72388 9.94146 5.72388 9.85521C5.72388 9.83412 5.72575 9.81256 5.72997 9.79099C5.73419 9.77037 5.74075 9.74974 5.74872 9.72959C5.75716 9.7099 5.767 9.69115 5.77919 9.67334C5.79091 9.65506 5.8045 9.63818 5.81997 9.62318C5.83497 9.60818 5.85185 9.59459 5.86966 9.5824C5.88747 9.57068 5.90669 9.56037 5.92638 9.5524C5.94606 9.54396 5.96669 9.53787 5.98778 9.53365C6.09419 9.51209 6.20763 9.54677 6.28403 9.62318C6.29903 9.63818 6.31263 9.65506 6.32481 9.67334C6.33653 9.69115 6.34685 9.7099 6.35481 9.72959C6.36325 9.74974 6.36935 9.77037 6.37356 9.79099C6.37778 9.81256 6.38013 9.83412 6.38013 9.85521C6.38013 9.94146 6.34497 10.0263 6.28403 10.0872C6.26856 10.1022 6.25216 10.1163 6.23388 10.128C6.21606 10.1397 6.19731 10.1501 6.17716 10.158C6.15747 10.1665 6.13685 10.1726 6.11622 10.1768C6.09466 10.181 6.0731 10.1833 6.052 10.1833Z" fill="#121619"/>
<path d="M4.98651 10.1836H3.92151C3.7401 10.1836 3.59338 10.0369 3.59338 9.85547C3.59338 9.67406 3.7401 9.52734 3.92151 9.52734H4.98651C5.16791 9.52734 5.31463 9.67406 5.31463 9.85547C5.31463 10.0369 5.16791 10.1836 4.98651 10.1836Z" fill="#121619"/>
<path d="M6.05198 13.3672H3.92151C3.7401 13.3672 3.59338 13.2205 3.59338 13.0391C3.59338 12.8577 3.7401 12.7109 3.92151 12.7109H6.05198C6.23338 12.7109 6.3801 12.8577 6.3801 13.0391C6.3801 13.2205 6.23292 13.3672 6.05198 13.3672Z" fill="#121619"/>
<path d="M6.05198 16.5508H3.92151C3.7401 16.5508 3.59338 16.4041 3.59338 16.2227C3.59338 16.0413 3.7401 15.8945 3.92151 15.8945H6.05198C6.23338 15.8945 6.3801 16.0413 6.3801 16.2227C6.3801 16.4041 6.23292 16.5508 6.05198 16.5508Z" fill="#121619"/>
<path d="M6.05198 19.7344H3.92151C3.7401 19.7344 3.59338 19.5877 3.59338 19.4062C3.59338 19.2248 3.7401 19.0781 3.92151 19.0781H6.05198C6.23338 19.0781 6.3801 19.2248 6.3801 19.4062C6.3801 19.5877 6.23292 19.7344 6.05198 19.7344Z" fill="#121619"/>
<path d="M20.0784 23.3686H4.05839C3.91589 23.3686 3.78979 23.2767 3.7462 23.1412C3.70261 23.0058 3.75136 22.8577 3.86667 22.7742L9.58214 18.6595C9.63792 18.6192 9.70495 18.5977 9.77386 18.5977H16.0809C16.2623 18.5977 16.409 18.7444 16.409 18.9258C16.409 19.1072 16.2623 19.2539 16.0809 19.2539H9.87933L5.07557 22.7123H19.7503V19.2539H18.2671C18.0857 19.2539 17.939 19.1072 17.939 18.9258C17.939 18.7444 18.0857 18.5977 18.2671 18.5977H20.0784C20.2598 18.5977 20.4065 18.7444 20.4065 18.9258V23.0405C20.4065 23.2219 20.2598 23.3686 20.0784 23.3686Z" fill="#121619"/>
</svg>
