<svg width="24" height="24" viewBox="0 0 24 24" fill="none" xmlns="http://www.w3.org/2000/svg">
<path d="M3.41443 17.7617C3.3647 17.7617 3.31701 17.7815 3.28185 17.8166C3.24668 17.8518 3.22693 17.8995 3.22693 17.9492C3.22792 18.9138 3.61141 19.8386 4.29331 20.5209C4.9752 21.2031 5.89984 21.5871 6.86443 21.5886C6.91416 21.5886 6.96185 21.5688 6.99701 21.5337C7.03217 21.4985 7.05193 21.4508 7.05193 21.4011C7.05193 21.3514 7.03217 21.3037 6.99701 21.2685C6.96185 21.2333 6.91416 21.2136 6.86443 21.2136C5.99929 21.2121 5.17004 20.8676 4.55847 20.2557C3.94691 19.6438 3.60292 18.8144 3.60193 17.9492C3.60193 17.8995 3.58217 17.8518 3.54701 17.8166C3.51185 17.7815 3.46416 17.7617 3.41443 17.7617Z" fill="#121619"/>
<path d="M4.68746 17.9463C4.67892 18.2369 4.72879 18.5263 4.83411 18.7973C4.93943 19.0683 5.09806 19.3154 5.30061 19.524C5.50317 19.7326 5.74551 19.8984 6.01331 20.0117C6.2811 20.1249 6.5689 20.1833 6.85965 20.1833C7.1504 20.1833 7.4382 20.1249 7.70599 20.0117C7.97378 19.8984 8.21613 19.7326 8.41868 19.524C8.62123 19.3154 8.77987 19.0683 8.88519 18.7973C8.99051 18.5263 9.04038 18.2369 9.03184 17.9463V9.76193L16.875 7.08818V13.9263C16.5828 13.4961 16.146 13.1851 15.644 13.0497C15.1419 12.9143 14.6079 12.9636 14.1392 13.1886C13.6704 13.4136 13.2979 13.7994 13.0895 14.2758C12.8811 14.7522 12.8506 15.2876 13.0035 15.7846C13.1564 16.2816 13.4826 16.7072 13.9228 16.984C14.363 17.2609 14.8879 17.3705 15.4021 17.2931C15.9163 17.2157 16.3856 16.9563 16.7247 16.5621C17.0638 16.1679 17.2502 15.665 17.25 15.1451V4.32818C17.2498 4.29843 17.2426 4.26915 17.2289 4.24274C17.2152 4.21633 17.1954 4.19356 17.1712 4.17631C17.1472 4.15888 17.1193 4.14742 17.09 4.14285C17.0607 4.13829 17.0307 4.14076 17.0025 4.15006L8.78996 6.96256C8.75337 6.97535 8.72165 6.99916 8.69915 7.03073C8.67665 7.06229 8.66449 7.10005 8.66434 7.13881V16.7388C8.40554 16.3513 8.02893 16.0573 7.59017 15.9003C7.15141 15.7433 6.67379 15.7317 6.22789 15.8671C5.78199 16.0024 5.39149 16.2777 5.11408 16.6521C4.83668 17.0266 4.6871 17.4803 4.68746 17.9463ZM15.0712 16.9413C14.7163 16.9398 14.3697 16.8332 14.0753 16.6349C13.7809 16.4367 13.5519 16.1556 13.4171 15.8273C13.2822 15.4989 13.2477 15.138 13.3179 14.7901C13.3881 14.4421 13.5597 14.1228 13.8112 13.8723C14.0627 13.6218 14.3828 13.4515 14.731 13.3828C15.0793 13.3141 15.44 13.3501 15.7678 13.4863C16.0956 13.6224 16.3757 13.8527 16.5728 14.1479C16.7698 14.4431 16.875 14.7901 16.875 15.1451C16.8745 15.6216 16.6848 16.0785 16.3476 16.4153C16.0105 16.7521 15.5534 16.9413 15.0768 16.9413H15.0712ZM16.875 4.59068V6.69068L9.03746 9.37381V7.26443L16.875 4.59068ZM8.66246 17.9463C8.66283 18.302 8.55769 18.6499 8.36034 18.9458C8.16298 19.2418 7.88228 19.4725 7.55375 19.6089C7.22522 19.7453 6.86362 19.7812 6.51469 19.712C6.16576 19.6428 5.84519 19.4717 5.59353 19.2203C5.34187 18.9689 5.17043 18.6485 5.1009 18.2997C5.03137 17.9508 5.06687 17.5892 5.20291 17.2605C5.33895 16.9318 5.56942 16.6509 5.86516 16.4532C6.1609 16.2556 6.50862 16.1501 6.86434 16.1501C7.34075 16.1506 7.79754 16.3399 8.13459 16.6766C8.47165 17.0133 8.66147 17.4699 8.66246 17.9463Z" fill="#121619"/>
<path d="M11.955 15.1453C11.9559 14.3176 12.2852 13.5242 12.8704 12.9389C13.4557 12.3537 14.2492 12.0244 15.0768 12.0234C15.1266 12.0234 15.1742 12.0037 15.2094 11.9685C15.2446 11.9334 15.2643 11.8857 15.2643 11.8359C15.2643 11.7862 15.2446 11.7385 15.2094 11.7034C15.1742 11.6682 15.1266 11.6484 15.0768 11.6484C14.1499 11.6499 13.2613 12.0188 12.6058 12.6743C11.9503 13.3298 11.5814 14.2183 11.58 15.1453C11.58 15.195 11.5997 15.2427 11.6349 15.2779C11.67 15.3131 11.7177 15.3328 11.7675 15.3328C11.8172 15.3328 11.8649 15.3131 11.9 15.2779C11.9352 15.2427 11.955 15.195 11.955 15.1453Z" fill="#121619"/>
<path d="M4.01247 9.44438C4.04206 9.46263 4.07614 9.47229 4.11091 9.47229C4.14568 9.47229 4.17976 9.46263 4.20935 9.44438C4.42685 9.30938 6.3356 8.09813 6.4331 7.035V6.99C6.4331 6.96563 6.4331 6.9225 6.4331 6.89625V6.87937C6.43784 6.707 6.40857 6.53538 6.34695 6.37432C6.28534 6.21326 6.19259 6.06592 6.07401 5.94073C5.95543 5.81553 5.81334 5.71492 5.65586 5.64466C5.49838 5.5744 5.3286 5.53587 5.15622 5.53125C4.946 5.53343 4.73962 5.58787 4.55567 5.68967C4.37172 5.79146 4.21598 5.93741 4.10247 6.11438C3.98964 5.9372 3.83431 5.79105 3.6506 5.68921C3.46689 5.58737 3.26064 5.53307 3.0506 5.53125C2.70544 5.54252 2.37863 5.68938 2.14102 5.93998C1.9034 6.19058 1.77413 6.52473 1.78122 6.87V6.88875C1.78122 6.9225 1.78122 6.95625 1.78122 7.00312V7.03125C1.88435 8.09813 3.79497 9.30938 4.01247 9.44438ZM2.1581 6.96188C2.1581 6.9375 2.1581 6.91125 2.1581 6.87937C2.15333 6.75609 2.17295 6.63307 2.21582 6.51738C2.2587 6.40169 2.32399 6.2956 2.40795 6.20519C2.49191 6.11479 2.59289 6.04184 2.7051 5.99054C2.81731 5.93925 2.93854 5.9106 3.06185 5.90625C3.26722 5.91029 3.46527 5.98331 3.6241 6.11358C3.78293 6.24384 3.89331 6.42376 3.93747 6.62438C3.94763 6.66492 3.97105 6.7009 4.004 6.72662C4.03695 6.75233 4.07755 6.76629 4.11935 6.76629C4.16114 6.76629 4.20174 6.75233 4.23469 6.72662C4.26765 6.7009 4.29106 6.66492 4.30122 6.62438C4.34583 6.42468 4.45582 6.24559 4.61376 6.1155C4.77171 5.98541 4.96855 5.91177 5.1731 5.90625C5.29624 5.91084 5.41727 5.93966 5.52926 5.99107C5.64126 6.04248 5.74202 6.11546 5.82578 6.20584C5.90955 6.29622 5.97467 6.40223 6.01743 6.5178C6.06019 6.63337 6.07974 6.75624 6.07497 6.87937C6.07497 6.87937 6.07497 6.93938 6.07497 6.96V6.9975C6.01122 7.7025 4.72872 8.67188 4.12497 9.06C3.5231 8.67 2.2406 7.70063 2.17685 6.9975L2.1581 6.96188Z" fill="#121619"/>
<path d="M19.335 15.3845C19.3346 15.4325 19.3485 15.4796 19.3749 15.5196C19.4014 15.5597 19.4391 15.591 19.4834 15.6095C19.5277 15.628 19.5765 15.633 19.6236 15.6237C19.6707 15.6144 19.7139 15.5914 19.7479 15.5574C19.7818 15.5235 19.8049 15.4802 19.8142 15.4331C19.8234 15.386 19.8185 15.3373 19.7999 15.293C19.7814 15.2487 19.7501 15.211 19.71 15.1845C19.67 15.1581 19.623 15.1442 19.575 15.1445C19.5113 15.1445 19.4503 15.1698 19.4053 15.2148C19.3603 15.2598 19.335 15.3209 19.335 15.3845Z" fill="#121619"/>
<path d="M21.8831 18.0017C21.8831 17.9543 21.869 17.9078 21.8426 17.8684C21.8163 17.8289 21.7788 17.7982 21.7349 17.78C21.6911 17.7618 21.6428 17.7571 21.5963 17.7663C21.5497 17.7756 21.5069 17.7984 21.4734 17.832C21.4398 17.8656 21.4169 17.9083 21.4077 17.9549C21.3984 18.0015 21.4032 18.0497 21.4213 18.0936C21.4395 18.1374 21.4703 18.1749 21.5097 18.2013C21.5492 18.2276 21.5956 18.2417 21.6431 18.2417C21.7067 18.2417 21.7678 18.2164 21.8128 18.1714C21.8578 18.1264 21.8831 18.0654 21.8831 18.0017Z" fill="#121619"/>
<path d="M17.0625 19.5C17.015 19.5 16.9686 19.5141 16.9292 19.5404C16.8897 19.5668 16.8589 19.6043 16.8408 19.6482C16.8226 19.692 16.8179 19.7403 16.8271 19.7868C16.8364 19.8334 16.8592 19.8761 16.8928 19.9097C16.9264 19.9433 16.9691 19.9661 17.0157 19.9754C17.0622 19.9846 17.1105 19.9799 17.1544 19.9617C17.1982 19.9436 17.2357 19.9128 17.2621 19.8733C17.2884 19.8339 17.3025 19.7875 17.3025 19.74C17.3025 19.6763 17.2772 19.6153 17.2322 19.5703C17.1872 19.5253 17.1262 19.5 17.0625 19.5Z" fill="#121619"/>
<path d="M3.65432 3.37672C3.65432 3.32925 3.64024 3.28285 3.61387 3.24338C3.5875 3.20391 3.55002 3.17315 3.50616 3.15499C3.46231 3.13682 3.41405 3.13207 3.3675 3.14133C3.32094 3.15059 3.27818 3.17345 3.24461 3.20701C3.21105 3.24058 3.18819 3.28334 3.17893 3.3299C3.16967 3.37645 3.17442 3.42471 3.19259 3.46856C3.21075 3.51242 3.24151 3.5499 3.28098 3.57627C3.32045 3.60264 3.36685 3.61672 3.41432 3.61672C3.47797 3.61672 3.53901 3.59143 3.58402 3.54642C3.62903 3.50142 3.65432 3.44037 3.65432 3.37672Z" fill="#121619"/>
<path d="M18.7912 3.98391C18.8389 3.98389 18.8855 3.96966 18.9251 3.94304C18.9647 3.91641 18.9954 3.87859 19.0134 3.8344C19.0314 3.79022 19.0358 3.74168 19.0261 3.69498C19.0164 3.64827 18.993 3.60553 18.9588 3.5722C18.9247 3.53887 18.8814 3.51647 18.8345 3.50785C18.7876 3.49924 18.7391 3.5048 18.6954 3.52383C18.6517 3.54286 18.6146 3.5745 18.5889 3.6147C18.5632 3.6549 18.5501 3.70184 18.5512 3.74953C18.5527 3.8122 18.5786 3.87181 18.6235 3.91561C18.6683 3.95941 18.7285 3.98392 18.7912 3.98391Z" fill="#121619"/>
<path d="M2.44871 11.1383C2.44908 11.0903 2.43516 11.0433 2.40873 11.0032C2.38229 10.9631 2.34454 10.9318 2.30026 10.9133C2.25599 10.8948 2.2072 10.8898 2.16011 10.8991C2.11302 10.9084 2.06975 10.9314 2.03581 10.9654C2.00187 10.9993 1.9788 11.0426 1.96952 11.0897C1.96025 11.1368 1.9652 11.1856 1.98374 11.2298C2.00228 11.2741 2.03357 11.3119 2.07363 11.3383C2.11369 11.3647 2.16071 11.3786 2.20871 11.3783C2.27236 11.3783 2.33341 11.353 2.37841 11.308C2.42342 11.263 2.44871 11.2019 2.44871 11.1383Z" fill="#121619"/>
<path d="M6.57557 12.5469C6.5281 12.5469 6.4817 12.561 6.44224 12.5873C6.40277 12.6137 6.37201 12.6512 6.35384 12.695C6.33568 12.7389 6.33092 12.7871 6.34018 12.8337C6.34944 12.8803 6.3723 12.923 6.40587 12.9566C6.43943 12.9901 6.48219 13.013 6.52875 13.0223C6.57531 13.0315 6.62356 13.0268 6.66742 13.0086C6.71127 12.9904 6.74875 12.9597 6.77513 12.9202C6.8015 12.8807 6.81557 12.8343 6.81557 12.7869C6.81557 12.7232 6.79029 12.6622 6.74528 12.6172C6.70027 12.5722 6.63922 12.5469 6.57557 12.5469Z" fill="#121619"/>
<path d="M11.7019 3.61109C11.7019 3.56363 11.6878 3.51722 11.6615 3.47776C11.6351 3.43829 11.5976 3.40753 11.5538 3.38936C11.5099 3.3712 11.4617 3.36644 11.4151 3.37571C11.3685 3.38497 11.3258 3.40782 11.2922 3.44139C11.2587 3.47495 11.2358 3.51772 11.2265 3.56427C11.2173 3.61083 11.222 3.65908 11.2402 3.70294C11.2584 3.74679 11.2891 3.78428 11.3286 3.81065C11.3681 3.83702 11.4145 3.85109 11.4619 3.85109C11.5256 3.85109 11.5866 3.82581 11.6316 3.7808C11.6766 3.73579 11.7019 3.67475 11.7019 3.61109Z" fill="#121619"/>
<path d="M19.5975 10.032C19.6473 10.032 19.695 10.0123 19.7301 9.97711C19.7653 9.94195 19.785 9.89426 19.785 9.84453V9.44141C19.785 9.39168 19.7653 9.34399 19.7301 9.30882C19.695 9.27366 19.6473 9.25391 19.5975 9.25391C19.5478 9.25391 19.5001 9.27366 19.465 9.30882C19.4298 9.34399 19.41 9.39168 19.41 9.44141V9.84453C19.41 9.89426 19.4298 9.94195 19.465 9.97711C19.5001 10.0123 19.5478 10.032 19.5975 10.032Z" fill="#121619"/>
<path d="M19.41 11.4562C19.41 11.506 19.4297 11.5537 19.4649 11.5888C19.5001 11.624 19.5477 11.6437 19.5975 11.6437C19.6472 11.6437 19.6949 11.624 19.7301 11.5888C19.7652 11.5537 19.785 11.506 19.785 11.4562V11.0625C19.785 11.0128 19.7652 10.9651 19.7301 10.9299C19.6949 10.8948 19.6472 10.875 19.5975 10.875C19.5477 10.875 19.5001 10.8948 19.4649 10.9299C19.4297 10.9651 19.41 11.0128 19.41 11.0625V11.4562Z" fill="#121619"/>
<path d="M20.0156 10.4492C20.0156 10.4989 20.0354 10.5466 20.0705 10.5818C20.1057 10.617 20.1534 10.6367 20.2031 10.6367H20.6063C20.656 10.6367 20.7037 10.617 20.7388 10.5818C20.774 10.5466 20.7938 10.4989 20.7938 10.4492C20.7938 10.3995 20.774 10.3518 20.7388 10.3166C20.7037 10.2815 20.656 10.2617 20.6063 10.2617H20.2031C20.1534 10.2617 20.1057 10.2815 20.0705 10.3166C20.0354 10.3518 20.0156 10.3995 20.0156 10.4492Z" fill="#121619"/>
<path d="M18.4031 10.4492C18.4031 10.4989 18.4228 10.5466 18.458 10.5818C18.4932 10.617 18.5408 10.6367 18.5906 10.6367H18.9937C19.0434 10.6367 19.0911 10.617 19.1263 10.5818C19.1614 10.5466 19.1812 10.4989 19.1812 10.4492C19.1812 10.3995 19.1614 10.3518 19.1263 10.3166C19.0911 10.2815 19.0434 10.2617 18.9937 10.2617H18.5906C18.5408 10.2617 18.4932 10.2815 18.458 10.3166C18.4228 10.3518 18.4031 10.3995 18.4031 10.4492Z" fill="#121619"/>
<path d="M21.0244 5.39922C21.0741 5.39922 21.1218 5.37946 21.157 5.3443C21.1922 5.30914 21.2119 5.26145 21.2119 5.21172V4.80859C21.2119 4.75887 21.1922 4.71117 21.157 4.67601C21.1218 4.64085 21.0741 4.62109 21.0244 4.62109C20.9747 4.62109 20.927 4.64085 20.8918 4.67601C20.8567 4.71117 20.8369 4.75887 20.8369 4.80859V5.21172C20.8369 5.26145 20.8567 5.30914 20.8918 5.3443C20.927 5.37946 20.9747 5.39922 21.0244 5.39922Z" fill="#121619"/>
<path d="M20.8369 6.825C20.8369 6.87473 20.8566 6.92242 20.8918 6.95758C20.9269 6.99275 20.9746 7.0125 21.0244 7.0125C21.0741 7.0125 21.1218 6.99275 21.1569 6.95758C21.1921 6.92242 21.2119 6.87473 21.2119 6.825V6.42188C21.2119 6.37215 21.1921 6.32446 21.1569 6.28929C21.1218 6.25413 21.0741 6.23438 21.0244 6.23438C20.9746 6.23438 20.9269 6.25413 20.8918 6.28929C20.8566 6.32446 20.8369 6.37215 20.8369 6.42188V6.825Z" fill="#121619"/>
<path d="M22.0331 5.625H21.63C21.5803 5.625 21.5326 5.64475 21.4974 5.67992C21.4623 5.71508 21.4425 5.76277 21.4425 5.8125C21.4425 5.86223 21.4623 5.90992 21.4974 5.94508C21.5326 5.98025 21.5803 6 21.63 6H22.0331C22.0829 6 22.1305 5.98025 22.1657 5.94508C22.2009 5.90992 22.2206 5.86223 22.2206 5.8125C22.2206 5.76277 22.2009 5.71508 22.1657 5.67992C22.1305 5.64475 22.0829 5.625 22.0331 5.625Z" fill="#121619"/>
<path d="M20.4188 5.625H20.0156C19.9659 5.625 19.9182 5.64475 19.883 5.67992C19.8479 5.71508 19.8281 5.76277 19.8281 5.8125C19.8281 5.86223 19.8479 5.90992 19.883 5.94508C19.9182 5.98025 19.9659 6 20.0156 6H20.4188C20.4685 6 20.5162 5.98025 20.5513 5.94508C20.5865 5.90992 20.6063 5.86223 20.6063 5.8125C20.6063 5.76277 20.5865 5.71508 20.5513 5.67992C20.5162 5.64475 20.4685 5.625 20.4188 5.625Z" fill="#121619"/>
<path d="M8.0625 3.18844C8.11223 3.18844 8.15992 3.16868 8.19508 3.13352C8.23025 3.09836 8.25 3.05067 8.25 3.00094V2.60156C8.25 2.55183 8.23025 2.50414 8.19508 2.46898C8.15992 2.43382 8.11223 2.41406 8.0625 2.41406C8.01277 2.41406 7.96508 2.43382 7.92992 2.46898C7.89475 2.50414 7.875 2.55183 7.875 2.60156V3.00094C7.875 3.05067 7.89475 3.09836 7.92992 3.13352C7.96508 3.16868 8.01277 3.18844 8.0625 3.18844Z" fill="#121619"/>
<path d="M7.875 4.61797C7.875 4.6677 7.89475 4.71539 7.92992 4.75055C7.96508 4.78571 8.01277 4.80547 8.0625 4.80547C8.11223 4.80547 8.15992 4.78571 8.19508 4.75055C8.23025 4.71539 8.25 4.6677 8.25 4.61797V4.21484C8.25 4.16512 8.23025 4.11742 8.19508 4.08226C8.15992 4.0471 8.11223 4.02734 8.0625 4.02734C8.01277 4.02734 7.96508 4.0471 7.92992 4.08226C7.89475 4.11742 7.875 4.16512 7.875 4.21484V4.61797Z" fill="#121619"/>
<path d="M9.07689 3.79688C9.12662 3.79688 9.17431 3.77712 9.20947 3.74196C9.24464 3.70679 9.26439 3.6591 9.26439 3.60938C9.26439 3.55965 9.24464 3.51196 9.20947 3.47679C9.17431 3.44163 9.12662 3.42188 9.07689 3.42188H8.67377C8.62404 3.42188 8.57635 3.44163 8.54119 3.47679C8.50602 3.51196 8.48627 3.55965 8.48627 3.60938C8.48627 3.6591 8.50602 3.70679 8.54119 3.74196C8.57635 3.77712 8.62404 3.79688 8.67377 3.79688H9.07689Z" fill="#121619"/>
<path d="M7.4644 3.79688C7.51413 3.79688 7.56182 3.77712 7.59699 3.74196C7.63215 3.70679 7.65191 3.6591 7.65191 3.60938C7.65191 3.55965 7.63215 3.51196 7.59699 3.47679C7.56182 3.44163 7.51413 3.42188 7.4644 3.42188H7.06128C7.01155 3.42188 6.96386 3.44163 6.9287 3.47679C6.89353 3.51196 6.87378 3.55965 6.87378 3.60938C6.87378 3.6591 6.89353 3.70679 6.9287 3.74196C6.96386 3.77712 7.01155 3.79688 7.06128 3.79688H7.4644Z" fill="#121619"/>
<path d="M3.9187 13.8055C3.96843 13.8055 4.01612 13.7857 4.05128 13.7506C4.08645 13.7154 4.1062 13.6677 4.1062 13.618V13.2148C4.1062 13.1651 4.08645 13.1174 4.05128 13.0823C4.01612 13.0471 3.96843 13.0273 3.9187 13.0273C3.86897 13.0273 3.82128 13.0471 3.78612 13.0823C3.75096 13.1174 3.7312 13.1651 3.7312 13.2148V13.618C3.7312 13.6677 3.75096 13.7154 3.78612 13.7506C3.82128 13.7857 3.86897 13.8055 3.9187 13.8055Z" fill="#121619"/>
<path d="M3.7312 15.2312C3.7312 15.281 3.75096 15.3287 3.78612 15.3638C3.82128 15.399 3.86897 15.4187 3.9187 15.4187C3.96843 15.4187 4.01612 15.399 4.05128 15.3638C4.08645 15.3287 4.1062 15.281 4.1062 15.2312V14.8281C4.1062 14.7784 4.08645 14.7307 4.05128 14.6955C4.01612 14.6604 3.96843 14.6406 3.9187 14.6406C3.86897 14.6406 3.82128 14.6604 3.78612 14.6955C3.75096 14.7307 3.7312 14.7784 3.7312 14.8281V15.2312Z" fill="#121619"/>
<path d="M4.92566 14.4102C4.97539 14.4102 5.02308 14.3904 5.05825 14.3552C5.09341 14.3201 5.11316 14.2724 5.11316 14.2227C5.11316 14.1729 5.09341 14.1252 5.05825 14.0901C5.02308 14.0549 4.97539 14.0352 4.92566 14.0352H4.52441C4.47469 14.0352 4.42699 14.0549 4.39183 14.0901C4.35667 14.1252 4.33691 14.1729 4.33691 14.2227C4.33691 14.2724 4.35667 14.3201 4.39183 14.3552C4.42699 14.3904 4.47469 14.4102 4.52441 14.4102H4.92566Z" fill="#121619"/>
<path d="M3.31316 14.0352H2.91003C2.86031 14.0352 2.81261 14.0549 2.77745 14.0901C2.74229 14.1252 2.72253 14.1729 2.72253 14.2227C2.72253 14.2724 2.74229 14.3201 2.77745 14.3552C2.81261 14.3904 2.86031 14.4102 2.91003 14.4102H3.31316C3.36289 14.4102 3.41058 14.3904 3.44574 14.3552C3.4809 14.3201 3.50066 14.2724 3.50066 14.2227C3.50066 14.1729 3.4809 14.1252 3.44574 14.0901C3.41058 14.0549 3.36289 14.0352 3.31316 14.0352Z" fill="#121619"/>
</svg>
