<svg width="24" height="24" viewBox="0 0 24 24" fill="none" xmlns="http://www.w3.org/2000/svg">
<path d="M12.185 23.552H12.1845C8.9935 23.5515 2 20.768 2 12.5C2 5.8835 6.71 0.5 12.499 0.5C18.5835 0.5 23 5.5465 23 12.5C23 14.876 21.4935 19.42 19.1315 19.42C18.3605 19.42 17.6375 18.9345 16.982 17.977C16.482 17.2465 15.946 16.8275 15.512 16.8275C15.2905 16.8275 15.084 16.942 14.898 17.1685C14.3715 17.8105 13.988 19.391 14.49 21.9015C14.5615 22.259 14.4805 22.593 14.2555 22.8675C13.7925 23.433 12.874 23.552 12.185 23.552ZM12.499 1.5C7.261 1.5 3 6.4345 3 12.5C3 20.02 9.307 22.5515 12.184 22.552H12.1845C12.95 22.552 13.362 22.381 13.4825 22.234C13.5065 22.205 13.5245 22.1745 13.5095 22.0985C13.025 19.6755 13.255 17.596 14.1245 16.535C14.504 16.0725 14.9835 15.828 15.5115 15.828C16.0635 15.828 16.91 16.103 17.8065 17.4125C18.121 17.872 18.6065 18.4205 19.131 18.4205C20.489 18.42 22 14.8915 22 12.5C22 6.126 18.004 1.5 12.499 1.5Z" fill="#121619"/>
<path d="M9.49899 20.5C8.12049 20.5 6.99899 19.3785 6.99899 18C6.99899 16.6215 8.12049 15.5 9.49899 15.5C10.8775 15.5 11.999 16.6215 11.999 18C11.999 19.3785 10.8775 20.5 9.49899 20.5ZM9.49899 16.5C8.67199 16.5 7.99899 17.173 7.99899 18C7.99899 18.827 8.67199 19.5 9.49899 19.5C10.326 19.5 10.999 18.827 10.999 18C10.999 17.173 10.326 16.5 9.49899 16.5Z" fill="#121619"/>
<path d="M6.503 13.5C6.503 13.5 6.5015 13.5 6.501 13.5C5.398 13.5 4.5015 12.603 4.5015 11.5C4.501 10.9665 4.709 10.464 5.0865 10.086C5.464 9.708 5.967 9.5 6.5015 9.5C7.0365 9.5 7.5385 9.7085 7.916 10.087C8.293 10.465 8.5005 10.967 8.5 11.5005C8.5015 12.0325 8.2945 12.5345 7.917 12.913C7.54 13.2915 7.0375 13.5 6.503 13.5ZM6.503 10.5C6.234 10.5 5.983 10.604 5.794 10.793C5.605 10.9815 5.5015 11.2325 5.5015 11.4995C5.5015 12.0515 5.9495 12.5 6.5 12.5L6.503 13V12.5C6.77 12.5 7.021 12.396 7.2095 12.207C7.3975 12.0185 7.501 11.768 7.5005 11.5015C7.5005 11.2335 7.397 10.9825 7.2085 10.7935C7.0195 10.604 6.769 10.5 6.503 10.5Z" fill="#121619"/>
<path d="M9.0015 9C9.0015 9 9 9 8.9995 9C7.8965 9 7 8.103 7 7C6.9995 6.4665 7.2075 5.964 7.585 5.586C7.9625 5.208 8.4655 5 9 5C9.535 5 10.037 5.2085 10.4145 5.587C10.7915 5.965 10.999 6.467 10.9985 7.0005C11 7.5325 10.793 8.0345 10.4155 8.413C10.0385 8.7915 9.536 9 9.0015 9ZM9.0015 6C8.7325 6 8.4815 6.104 8.2925 6.293C8.1035 6.482 8 6.733 8 6.9995C8 7.5515 8.448 8 8.9985 8L9.0015 8.5V8C9.2685 8 9.5195 7.896 9.708 7.707C9.896 7.5185 9.9995 7.268 9.999 7.0015C9.999 6.7335 9.8955 6.4825 9.707 6.2935C9.518 6.104 9.2675 6 9.0015 6Z" fill="#121619"/>
<path d="M13.503 7C13.503 7 13.5015 7 13.501 7C12.398 7 11.5015 6.103 11.5015 5C11.501 4.4665 11.709 3.964 12.0865 3.586C12.464 3.208 12.967 3 13.5015 3C14.0365 3 14.5385 3.2085 14.916 3.587C15.293 3.965 15.5005 4.467 15.5 5.0005C15.5015 5.5325 15.2945 6.0345 14.917 6.413C14.54 6.7915 14.0375 7 13.503 7ZM13.503 4C13.234 4 12.983 4.104 12.794 4.293C12.605 4.4815 12.5015 4.7325 12.5015 4.9995C12.5015 5.5515 12.9495 6 13.5 6L13.503 6.5V6C13.77 6 14.021 5.896 14.2095 5.707C14.3975 5.5185 14.501 5.268 14.5005 5.0015C14.5005 4.7335 14.397 4.4825 14.2085 4.2935C14.0195 4.104 13.769 4 13.503 4Z" fill="#121619"/>
<path d="M18.0015 10.5C18.0015 10.5 18 10.5 17.9995 10.5C16.8965 10.5 16 9.603 16 8.5C15.9995 7.9665 16.2075 7.464 16.585 7.086C16.9625 6.708 17.4655 6.5 18 6.5C18.535 6.5 19.037 6.7085 19.4145 7.087C19.7915 7.465 19.999 7.967 19.9985 8.5005C20 9.0325 19.793 9.5345 19.4155 9.913C19.0385 10.2915 18.536 10.5 18.0015 10.5ZM18.0015 7.5C17.7325 7.5 17.4815 7.604 17.2925 7.793C17.1035 7.982 17 8.233 17 8.4995C17 9.0515 17.448 9.5 17.9985 9.5L18.0015 10V9.5C18.2685 9.5 18.5195 9.396 18.708 9.207C18.896 9.0185 18.9995 8.768 18.999 8.5015C18.999 8.2335 18.8955 7.9825 18.707 7.7935C18.518 7.604 18.2675 7.5 18.0015 7.5Z" fill="#121619"/>
</svg>
