<svg width="24" height="24" viewBox="0 0 24 24" fill="none" xmlns="http://www.w3.org/2000/svg">
<path d="M19.8126 6.50573C19.8033 6.38353 19.7998 6.26119 19.796 6.13162L19.7952 6.10336C19.7623 4.96931 18.9721 4.0402 17.9758 3.93727C17.2913 3.33722 16.3504 3.0525 15.4028 3.20433L5.48559 4.79227L5.35035 4.81392L3.90515 5.0453V5.28511C3.90515 6.83789 4.51406 7.95637 5.71495 8.60939C6.66801 9.12764 7.98642 9.369 9.86404 9.369H11.4397C11.6339 9.369 11.8053 9.4628 11.9099 9.62634C12.0146 9.78989 12.028 9.98475 11.9466 10.161L10.6959 12.8721C10.081 13.0211 9.50278 13.3192 8.99151 13.7567C8.31473 14.3357 7.79536 15.1402 7.51396 16.0395H6.1575V18.2507C6.1575 19.5983 7.09725 20.7182 8.28131 20.8216L8.28975 20.8338H14.9465L15.0305 20.7142C15.6453 19.8391 15.9703 18.7861 15.9703 17.6689C15.9703 17.4269 15.9545 17.1874 15.9239 16.9512H19.0167V11.7724C19.2412 11.7002 19.4491 11.5687 19.6253 11.3837C19.9094 11.0857 20.0758 10.6844 20.0941 10.2536L20.0948 10.237L19.8126 6.50573ZM4.47295 5.52408L5.3504 5.38355V6.2978H4.5779C4.52025 6.0585 4.48537 5.80092 4.47295 5.52408ZM6.72 16.602H7.46878C7.38065 16.9792 7.0912 17.2795 6.72 17.383V16.602ZM14.6514 20.2713H8.58121L8.57934 20.2687L8.43867 20.2667C7.491 20.2531 6.72 19.3488 6.72 18.2507V17.9186C7.45809 17.7842 8.01956 17.137 8.01956 16.3607V16.3146C8.26106 15.472 8.73356 14.7178 9.35723 14.1841C9.67171 13.9151 10.0149 13.7074 10.3772 13.5631C10.6068 13.4717 10.8442 13.4062 11.0871 13.3672C11.2619 13.3392 11.4395 13.3242 11.6191 13.3242C12.0703 13.3242 12.5121 13.4145 12.9321 13.5927L13.3232 13.7585V12.0736C14.3261 12.2112 15.101 13.0735 15.101 14.1136V15.954L15.1179 16.0005C15.1642 16.1281 15.2048 16.2577 15.2401 16.3888C15.2898 16.5732 15.3277 16.761 15.3554 16.9513C15.3896 17.187 15.4078 17.4264 15.4078 17.669C15.4078 18.6191 15.1467 19.5156 14.6514 20.2713ZM18.4541 16.3887H15.8195C15.7763 16.2084 15.7251 16.0303 15.6634 15.8556V14.1135C15.6634 12.668 14.4874 11.4919 13.0418 11.4919H12.7606V12.9323C12.3901 12.8189 12.0077 12.7616 11.619 12.7616C11.5329 12.7616 11.4473 12.7654 11.3621 12.7709L12.4574 10.3967C12.6183 10.0479 12.5908 9.64659 12.3838 9.32311C12.1767 8.99962 11.8238 8.8065 11.4397 8.8065H9.86404C7.01578 8.8065 5.39737 8.20917 4.77154 6.8603H5.91285V5.29345L15.4918 3.7597C16.0787 3.66577 16.6621 3.77527 17.1541 4.04512C16.428 4.31794 15.8654 5.0408 15.7634 5.93184L15.7593 5.96756C15.7447 6.0945 15.731 6.21436 15.7119 6.33375L15.1147 10.0547L15.1115 10.0873C15.0729 10.9941 15.7028 11.76 16.5157 11.7945L18.4541 11.8335V16.3887ZM19.2181 10.9957C19.1562 11.0607 19.0882 11.1141 19.0166 11.157C18.8799 11.2389 18.7287 11.28 18.574 11.2734L18.4541 11.271L16.5366 11.2323C16.0395 11.2093 15.6549 10.7157 15.6728 10.1268L16.2673 6.42286C16.2884 6.29095 16.3035 6.15905 16.3181 6.03145L16.3222 5.99587C16.418 5.1593 17.0326 4.51908 17.7436 4.49137C17.777 4.49011 17.8104 4.48964 17.8442 4.49109C18.1618 4.50459 18.4537 4.63992 18.6873 4.85756C19.0077 5.15616 19.2182 5.60995 19.233 6.11958L19.2338 6.1477C19.2375 6.27801 19.2414 6.41273 19.2517 6.54806L19.5314 10.2454C19.5156 10.534 19.4047 10.7999 19.2181 10.9957Z" fill="#121619"/>
<path d="M12.2935 17.8125H9.57947V18.375H12.2935V17.8125Z" fill="#121619"/>
<path d="M9.57251 19.1062L12.1942 19.6094L12.3002 19.0569L9.67854 18.5537L9.57251 19.1062Z" fill="#121619"/>
<path d="M9.95996 15.918H9.20996V16.7599H9.95996V15.918Z" fill="#121619"/>
<path d="M13.4604 5.375H12.5229V6.40447H13.4604V5.375Z" fill="#121619"/>
</svg>
