<svg width="24" height="24" viewBox="0 0 24 24" fill="none" xmlns="http://www.w3.org/2000/svg">
<path d="M19.504 6.38366H17.872C17.18 6.38366 16.548 5.95166 16.292 5.30766L16.144 4.93166C15.764 3.96766 14.852 3.34766 13.82 3.34766H10.18C9.148 3.34766 8.236 3.97166 7.856 4.93166L7.708 5.30766C7.496 5.84366 7.04 6.21966 6.492 6.33966V5.49566C6.492 5.27566 6.312 5.09566 6.092 5.09566H4.476C4.256 5.09566 4.076 5.27566 4.076 5.49566V6.42366C2.9 6.62366 2 7.64766 2 8.88366V17.1877C2 18.5637 3.12 19.6837 4.5 19.6837H6.348C6.568 19.6837 6.748 19.5037 6.748 19.2837C6.748 19.0637 6.568 18.8837 6.348 18.8837H4.5C3.564 18.8837 2.8 18.1197 2.8 17.1877V8.88366C2.8 7.94766 3.564 7.18366 4.5 7.18366H6.092H6.128C7.16 7.18366 8.072 6.56366 8.452 5.60366L8.6 5.22766C8.852 4.58366 9.488 4.14766 10.18 4.14766H13.82C14.524 4.14766 15.144 4.57166 15.4 5.22766L15.548 5.59966C15.92 6.54366 16.856 7.17966 17.872 7.17966H19.504C20.44 7.17966 21.2 7.94366 21.2 8.87966V17.1837C21.2 18.1197 20.44 18.8797 19.504 18.8797H17.652C17.432 18.8797 17.252 19.0597 17.252 19.2797C17.252 19.4997 17.432 19.6797 17.652 19.6797H19.504C20.88 19.6797 22 18.5597 22 17.1837V8.88366C22 7.50366 20.88 6.38366 19.504 6.38366ZM4.876 6.38366V5.89566H5.692V6.38366H4.876Z" fill="#121619"/>
<path d="M12 8.03906C8.52002 8.03906 5.69202 10.8671 5.69202 14.3471C5.69202 17.8271 8.52402 20.6511 12 20.6511C15.476 20.6511 18.308 17.8231 18.308 14.3431C18.308 10.8631 15.48 8.03906 12 8.03906ZM12 19.8511C8.96402 19.8511 6.49202 17.3791 6.49202 14.3431C6.49202 11.3071 8.96402 8.83906 12 8.83906C15.036 8.83906 17.508 11.3111 17.508 14.3471C17.508 17.3831 15.036 19.8511 12 19.8511Z" fill="#121619"/>
<path d="M12 11.1445C10.236 11.1445 8.79999 12.5805 8.79999 14.3445C8.79999 16.1085 10.236 17.5445 12 17.5445C13.764 17.5445 15.2 16.1085 15.2 14.3445C15.2 12.5805 13.764 11.1445 12 11.1445ZM12 16.7445C10.676 16.7445 9.59999 15.6685 9.59999 14.3445C9.59999 13.0205 10.676 11.9445 12 11.9445C13.324 11.9445 14.4 13.0205 14.4 14.3445C14.4 15.6685 13.324 16.7445 12 16.7445Z" fill="#121619"/>
<path d="M19.54 9.425C19.76 9.425 19.94 9.245 19.94 9.025C19.94 8.805 19.76 8.625 19.54 8.625H17.756C17.536 8.625 17.356 8.805 17.356 9.025C17.356 9.245 17.536 9.425 17.756 9.425H19.54Z" fill="#121619"/>
</svg>
