<svg width="24" height="24" viewBox="0 0 24 24" fill="none" xmlns="http://www.w3.org/2000/svg">
<path d="M20.1535 1.70312H18.2801C18.1048 1.70312 17.9625 1.8453 17.9625 2.02066C17.9625 2.19602 18.1048 2.33819 18.2801 2.33819H20.1535C20.9855 2.33819 21.6623 3.01497 21.6623 3.84695V8.01137H20.12V5.83394H20.6643C20.8396 5.83394 20.9819 5.69181 20.9819 5.51641C20.9819 5.341 20.8396 5.19888 20.6643 5.19888H19.8024C19.6271 5.19888 19.4849 5.341 19.4849 5.51641V8.32891C19.4849 8.50431 19.6271 8.64644 19.8024 8.64644H21.6623V14.5072H15.6725V13.5617H18.0533V13.7906C18.0533 13.966 18.1955 14.1081 18.3708 14.1081C18.5461 14.1081 18.6883 13.966 18.6883 13.7906V13.2442C18.6883 13.0688 18.5461 12.9266 18.3708 12.9266H15.3549C15.1796 12.9266 15.0373 13.0688 15.0373 13.2442V14.5072H11.7459C11.5706 14.5072 11.4283 14.6493 11.4283 14.8248V21.6627H10.1156C9.94025 21.6627 9.79803 21.8049 9.79803 21.9803C9.79803 22.1556 9.94025 22.2978 10.1156 22.2978H11.7459H21.9798C22.1551 22.2978 22.2974 22.1556 22.2974 21.9803V14.8248V3.847C22.2974 2.66486 21.3356 1.70312 20.1535 1.70312ZM21.6623 18.085H20.8934C20.718 18.085 20.5758 18.2272 20.5758 18.4026C20.5758 18.5779 20.718 18.7201 20.8934 18.7201H21.6623V21.6628H12.0635V18.7201H17.2153V19.7875H16.5104V19.3666C16.5104 19.1913 16.3682 19.0491 16.1929 19.0491C16.0176 19.0491 15.8754 19.1913 15.8754 19.3666V20.105C15.8754 20.2804 16.0176 20.4226 16.1929 20.4226H17.5329C17.7082 20.4226 17.8504 20.2804 17.8504 20.105V18.7201H19.4786C19.6539 18.7201 19.7961 18.5779 19.7961 18.4026C19.7961 18.2272 19.6539 18.085 19.4786 18.085H12.0635V15.1424H21.6623V18.085Z" fill="#121619"/>
<path d="M3.6708 13.4074C3.49549 13.4074 3.35327 13.5495 3.35327 13.7248V19.6445C3.35327 19.8198 3.49549 19.962 3.6708 19.962C3.84616 19.962 3.98833 19.8198 3.98833 19.6445V15.3109H5.29882C5.47413 15.3109 5.6163 15.1687 5.6163 14.9934V10.3097C5.6163 10.1344 5.47413 9.99219 5.29882 9.99219H3.6708C3.49549 9.99219 3.35327 10.1344 3.35327 10.3097C3.35327 10.4851 3.49549 10.6273 3.6708 10.6273H4.98129V14.6758H3.98833V13.7248C3.98833 13.5495 3.84616 13.4074 3.6708 13.4074Z" fill="#121619"/>
<path d="M18.1894 11.6413C18.3647 11.6413 18.5069 11.4992 18.5069 11.3238V10.2351H20.1199C20.2953 10.2351 20.4374 10.093 20.4374 9.91755C20.4374 9.74214 20.2953 9.60002 20.1199 9.60002H18.5069V4.24722C18.5069 4.07181 18.3647 3.92969 18.1894 3.92969C18.014 3.92969 17.8718 4.07181 17.8718 4.24722V11.3238C17.8718 11.4992 18.014 11.6413 18.1894 11.6413Z" fill="#121619"/>
<path d="M16.084 11.3229V6.52778H16.7196C16.8383 6.52778 16.9471 6.4615 17.0017 6.35598C17.0561 6.25052 17.0473 6.12339 16.9786 6.02655L15.32 3.68852C15.2605 3.60456 15.164 3.55469 15.0611 3.55469C14.9581 3.55469 14.8616 3.60456 14.8021 3.68852L13.1436 6.02655C13.0422 6.16961 13.0759 6.3678 13.2188 6.46923C13.362 6.57072 13.5602 6.53702 13.6615 6.39395L15.061 4.42103L16.105 5.89272H15.7664C15.5911 5.89272 15.4489 6.03489 15.4489 6.21025V11.0099H8.48968C8.31437 11.0099 8.17215 11.152 8.17215 11.3274V18.953H7.39637V10.2341H14.3557C14.531 10.2341 14.6732 10.092 14.6732 9.91661V6.21025C14.6732 6.03484 14.531 5.89272 14.3557 5.89272C14.1804 5.89272 14.0382 6.03489 14.0382 6.21025V9.59908H7.07884C6.90352 9.59908 6.76135 9.7412 6.76135 9.91661V19.2706C6.76135 19.4459 6.90352 19.5881 7.07884 19.5881H8.48973C8.66504 19.5881 8.80726 19.4459 8.80726 19.2706V11.6449H15.7665C15.9418 11.645 16.084 11.4983 16.084 11.3229Z" fill="#121619"/>
<path d="M12.0635 7.7725V2.33819H12.6181C12.7934 2.33819 12.9356 2.19602 12.9356 2.02066C12.9356 1.8453 12.7934 1.70312 12.6181 1.70312H3.84647C2.66437 1.70312 1.70264 2.66486 1.70264 3.847V20.1541C1.70264 21.3362 2.66442 22.2979 3.84647 22.2979H5.595C5.77031 22.2979 5.91253 22.1557 5.91253 21.9804C5.91253 21.805 5.77031 21.6628 5.595 21.6628H3.84647C3.01453 21.6628 2.3377 20.986 2.3377 20.1541V12.1882H3.67078C3.84614 12.1882 3.98831 12.0461 3.98831 11.8707C3.98831 11.6953 3.84614 11.5532 3.67078 11.5532H2.3377V8.09008H4.47881C4.65412 8.09008 4.79634 7.94791 4.79634 7.77255C4.79634 7.59714 4.65412 7.45502 4.47881 7.45502H2.3377V3.84705C2.3377 3.01506 3.01448 2.33828 3.84647 2.33828H4.16128V5.56858H3.67078C3.49547 5.56858 3.35325 5.71075 3.35325 5.88611C3.35325 6.06147 3.49547 6.20364 3.67078 6.20364H4.47881C4.65412 6.20364 4.79634 6.06147 4.79634 5.88611V2.33819H6.05962V3.95336C6.05962 4.12872 6.20184 4.27089 6.37715 4.27089H9.61655V5.88602C9.61655 6.06142 9.75872 6.20355 9.93403 6.20355C10.1094 6.20355 10.2516 6.06138 10.2516 5.88602V3.95336C10.2516 3.77795 10.1094 3.63583 9.93403 3.63583H6.69469V2.33819H11.4283V7.45492H8.47312V5.51641C8.47312 5.341 8.33095 5.19888 8.15559 5.19888C7.98028 5.19888 7.83806 5.341 7.83806 5.51641V7.45492H6.37715C6.20184 7.45492 6.05962 7.59709 6.05962 7.77245C6.05962 7.94781 6.20184 8.08998 6.37715 8.08998H11.7458C11.9212 8.09003 12.0635 7.94786 12.0635 7.7725Z" fill="#121619"/>
</svg>
