<svg width="24" height="24" viewBox="0 0 24 24" fill="none" xmlns="http://www.w3.org/2000/svg">
<path d="M23.827 16.9101C23.6556 16.5824 23.3165 16.3985 22.9649 16.4188C22.8643 16.2828 22.7239 16.1824 22.5594 16.1309C22.3544 16.0667 22.1367 16.0862 21.9464 16.1857C21.7561 16.2853 21.6159 16.453 21.5518 16.658C21.5031 16.8133 21.5025 16.9757 21.5483 17.1281C21.3198 17.3837 21.2606 17.7646 21.4286 18.0859C21.5797 18.3747 21.875 18.5401 22.1804 18.5401C22.3126 18.5401 22.4466 18.5091 22.5716 18.4437C22.672 18.3912 22.7601 18.319 22.8313 18.2328C23.035 18.2744 23.2502 18.2464 23.4396 18.1472C23.6566 18.0338 23.8164 17.8426 23.8896 17.6089C23.9628 17.3752 23.9405 17.1271 23.827 16.9101ZM23.2857 17.4199C23.263 17.4921 23.2135 17.5513 23.1463 17.5865C23.0559 17.6337 22.9465 17.6287 22.8603 17.5732C22.7761 17.519 22.6712 17.5078 22.5776 17.543C22.4839 17.5782 22.4123 17.6557 22.3847 17.752C22.3684 17.8092 22.3306 17.8556 22.2782 17.8829C22.1738 17.9378 22.0441 17.8971 21.9893 17.7926C21.9346 17.6879 21.9752 17.5583 22.0781 17.5045L22.0875 17.4999C22.1755 17.457 22.2386 17.3758 22.2585 17.28C22.2784 17.1842 22.2529 17.0845 22.1893 17.0101C22.1806 16.9999 22.1732 16.9891 22.1673 16.9778C22.1461 16.9372 22.142 16.8908 22.1556 16.8471C22.1692 16.8035 22.1991 16.7677 22.2398 16.7465C22.2646 16.7336 22.2917 16.7269 22.3189 16.7269C22.3361 16.7269 22.3534 16.7296 22.3703 16.7348C22.414 16.7485 22.4497 16.7784 22.4709 16.8188C22.477 16.8305 22.4818 16.8432 22.4853 16.8564C22.5079 16.9446 22.5675 17.0188 22.6488 17.06C22.73 17.101 22.825 17.1053 22.9096 17.0713C23.045 17.017 23.1984 17.0737 23.2662 17.2034C23.3014 17.2707 23.3083 17.3474 23.2857 17.4199Z" fill="#121619"/>
<path d="M19.8194 13.0784C19.846 13.1681 19.8708 13.2606 19.8929 13.3533C19.9276 13.4985 20.0574 13.5963 20.2004 13.5963C20.2248 13.5963 20.2495 13.5934 20.2742 13.5875C20.4441 13.5469 20.549 13.3761 20.5084 13.2062C20.4837 13.1024 20.4559 12.9989 20.426 12.8984C20.3763 12.7309 20.2003 12.6352 20.0327 12.6851C19.8652 12.7348 19.7697 12.9109 19.8194 13.0784Z" fill="#121619"/>
<path d="M17.7065 10.3802C18.2077 10.7154 18.6385 11.1079 18.9868 11.5467C19.0943 11.6821 19.1955 11.8241 19.2875 11.9686C19.3399 12.051 19.3909 12.1366 19.4389 12.223C19.4967 12.3271 19.6045 12.3858 19.7158 12.3858C19.7678 12.3858 19.8204 12.373 19.8691 12.346C20.0219 12.2611 20.077 12.0685 19.9921 11.9157C19.938 11.8183 19.8805 11.7216 19.8212 11.6286C19.7175 11.4658 19.6035 11.3057 19.4823 11.1532C19.0932 10.663 18.6141 10.226 18.0582 9.8542C17.913 9.75702 17.7165 9.79616 17.6193 9.94129C17.5222 10.0866 17.5612 10.2831 17.7065 10.3802Z" fill="#121619"/>
<path d="M6.01383 11.6058C6.06357 11.6343 6.1178 11.6479 6.17124 11.6479C6.28078 11.6479 6.38733 11.5909 6.44583 11.4891C6.53119 11.3406 6.56447 11.296 6.68855 11.13L6.69844 11.1168C7.01466 10.6936 7.40091 10.3193 7.84664 10.0045C7.98938 9.90373 8.02336 9.70629 7.92254 9.56351C7.82166 9.42092 7.62422 9.38684 7.48153 9.48766C6.98152 9.84082 6.5475 10.2615 6.19144 10.7381L6.18155 10.7513C6.05424 10.9218 6.00155 10.9924 5.89725 11.1737C5.81016 11.3252 5.86238 11.5186 6.01383 11.6058Z" fill="#121619"/>
<path d="M5.49441 12.7491C5.54054 12.7733 5.59027 12.7847 5.63944 12.7847C5.74773 12.7847 5.85357 12.7292 5.91329 12.6315C5.93091 12.6026 5.94334 12.5722 5.95088 12.541C5.96218 12.5132 5.98777 12.4524 6.04487 12.3233C6.11551 12.1634 6.04327 11.9767 5.88348 11.906C5.72349 11.8354 5.53674 11.9076 5.4661 12.0674C5.41046 12.1932 5.38041 12.264 5.36438 12.3036C5.34324 12.3556 5.25043 12.6214 5.49441 12.7491Z" fill="#121619"/>
<path d="M11.6099 10.5351C11.5809 10.5306 10.8861 10.429 10.0165 10.7385C9.2238 11.0204 8.12214 11.7109 7.37491 13.3995C7.3316 13.4973 7.34069 13.6104 7.3991 13.7001C7.4575 13.7898 7.55725 13.8439 7.66427 13.8439H11.5618C11.7366 13.8439 11.8782 13.7023 11.8782 13.5275V10.8479C11.8782 10.6916 11.7643 10.5588 11.6099 10.5351ZM11.2454 13.2111H8.17193C9.17852 11.363 10.6452 11.1499 11.2454 11.1462V13.2111Z" fill="#121619"/>
<path d="M16.8405 11.8189C16.0807 11.1229 14.7312 10.3317 12.6172 10.5151C12.4537 10.5293 12.3281 10.6663 12.3281 10.8304V13.526C12.3281 13.7008 12.4697 13.8424 12.6445 13.8424H17.706C17.8106 13.8424 17.9085 13.7907 17.9675 13.7042C18.0264 13.6178 18.0388 13.5077 18.0005 13.4103C17.9873 13.3766 17.6665 12.5755 16.8405 11.8189ZM12.9609 13.2096V11.1266C14.3348 11.0667 15.4882 11.4491 16.3921 12.2665C16.7612 12.6002 17.0174 12.9474 17.1808 13.2095H12.9609V13.2096Z" fill="#121619"/>
<path d="M11.4807 14.6094H10.6687C10.5199 14.6094 10.3981 14.7312 10.3981 14.88C10.3981 15.0289 10.5199 15.1507 10.6687 15.1507H11.4807C11.6296 15.1507 11.7514 15.0289 11.7514 14.88C11.7514 14.7312 11.6296 14.6094 11.4807 14.6094Z" fill="#121619"/>
<path d="M17.6951 14.6094H16.883C16.7342 14.6094 16.6124 14.7312 16.6124 14.88C16.6124 15.0289 16.7342 15.1507 16.883 15.1507H17.6951C17.8439 15.1507 17.9657 15.0289 17.9657 14.88C17.9657 14.7312 17.8439 14.6094 17.6951 14.6094Z" fill="#121619"/>
<path d="M21.0518 15.3642C21.0025 14.9534 20.8379 14.6558 20.5624 14.4794C20.2967 14.3092 20.0016 14.3039 19.8039 14.3282C19.2844 12.5377 18.1204 10.9868 16.6629 10.2163C16.1672 9.95429 15.6547 9.76328 15.1469 9.62589H16.883C17.0791 9.62589 17.238 9.46694 17.238 9.2709C17.238 9.07487 17.079 8.91592 16.883 8.91592H16.235C16.2975 8.79794 16.3332 8.66378 16.3332 8.52133V7.05189C16.3332 6.58511 15.9534 6.20537 15.4867 6.20537H14.6556C14.6735 6.13693 14.684 6.06559 14.684 5.99162V4.52228C14.684 4.0555 14.3042 3.67572 13.8375 3.67572H13.4227L13.5813 3.52965C13.7098 3.41125 13.7181 3.21109 13.5997 3.08256C13.4812 2.95393 13.2811 2.94578 13.1526 3.06419L12.7157 3.4667L12.2855 3.0655C12.1577 2.94629 11.9576 2.95328 11.8382 3.08111C11.7191 3.20889 11.7261 3.40909 11.8539 3.52834L12.0119 3.67572H11.5992C11.1324 3.67572 10.7527 4.0555 10.7527 4.52228V5.99172C10.7527 6.06564 10.7632 6.13703 10.781 6.20547H9.94998C9.48315 6.20547 9.10337 6.5852 9.10337 7.05198V8.52142C9.10337 8.66387 9.13914 8.79803 9.20157 8.91601H8.55367C8.35754 8.91601 8.19864 9.07497 8.19864 9.271C8.19864 9.46703 8.35759 9.62598 8.55367 9.62598H10.0675C9.14031 9.87339 8.16793 10.3114 7.47854 11.0836C7.16204 11.4381 6.92336 11.8368 6.69254 12.2224C6.64267 12.3057 6.59275 12.3892 6.54198 12.4722C6.5296 12.4924 6.50504 12.5371 6.4726 12.5965C6.32115 12.8746 6.21095 13.0605 6.14364 13.1515H4.88476C3.43623 13.1515 2.19779 14.1378 1.71624 15.5197C1.5099 15.5112 1.18206 15.5397 0.910604 15.7555C0.735057 15.8952 0.522948 16.1672 0.509542 16.6705C0.498573 17.0841 0.618104 17.4025 0.865042 17.6171C0.975198 17.7128 1.09665 17.7745 1.21515 17.8137C1.16214 17.889 1.13078 17.9805 1.13078 18.079V18.1651C1.13078 18.4205 1.33979 18.6295 1.59521 18.6295H2.44356C2.52901 18.6501 2.61751 18.6618 2.70868 18.6618H3.20204C3.30859 19.4207 3.79262 20.0603 4.45754 20.3837H2.87635C2.7016 20.3837 2.55995 20.5253 2.55995 20.7001C2.55995 20.8749 2.7016 21.0165 2.87635 21.0165H20.3297C20.5044 21.0165 20.6461 20.8749 20.6461 20.7001C20.6461 20.5253 20.5044 20.3837 20.3297 20.3837H17.0039C17.6689 20.0603 18.1529 19.4207 18.2595 18.6618H18.9078C18.9999 18.6618 19.0893 18.6504 19.1754 18.6295H20.028C20.2834 18.6295 20.4924 18.4205 20.4924 18.1651V18.1361H20.6796C20.8543 18.1361 20.996 17.9945 20.996 17.8197V16.8185C20.996 16.6437 20.8543 16.5021 20.6796 16.5021H20.571C20.647 16.456 20.7209 16.3993 20.788 16.3277C20.9414 16.1641 21.1117 15.8641 21.0518 15.3642ZM1.46781 17.2272C1.40181 17.2126 1.33403 17.1861 1.28017 17.1394C1.1829 17.0549 1.13645 16.9028 1.14221 16.6873C1.1477 16.4802 1.20174 16.3338 1.30262 16.2523C1.36365 16.2031 1.44142 16.1763 1.51796 16.1629L1.46781 17.2272ZM14.684 6.83823H15.4867C15.6025 6.83823 15.7005 6.93611 15.7005 7.05194V7.47025H14.684V6.83823ZM14.684 8.10301H15.7005V8.52133C15.7005 8.63715 15.6025 8.73503 15.4867 8.73503H14.684V8.10301ZM13.0192 4.30853H13.8375C13.9533 4.30853 14.0512 4.40645 14.0512 4.52228V4.94059H13.0192V4.30853ZM13.0192 5.5734H14.0512V5.99172C14.0512 6.10754 13.9533 6.20547 13.8375 6.20547H13.2485H13.0192V5.5734ZM13.0347 7.4702V7.05189C13.0347 6.93606 13.1327 6.83818 13.2485 6.83818H13.8375H14.0512V7.47015H13.0347V7.4702ZM14.0512 8.10301V8.73498H13.2485C13.1327 8.73498 13.0347 8.63711 13.0347 8.52128V8.10297H14.0512V8.10301ZM11.3856 4.52228C11.3856 4.40645 11.4834 4.30853 11.5993 4.30853H12.3864V4.94054H11.3856V4.52228ZM11.3856 5.5734H12.3864V6.20542H12.1883H11.5992C11.4834 6.20542 11.3855 6.1075 11.3855 5.99167V5.5734H11.3856ZM11.3856 6.83823H11.5993H12.1883C12.3041 6.83823 12.402 6.93611 12.402 7.05194V7.47025H11.3856V6.83823ZM11.3856 8.10301H12.402V8.52133C12.402 8.63715 12.3041 8.73503 12.1883 8.73503H11.3856V8.10301ZM9.73628 7.05194C9.73628 6.93611 9.83415 6.83823 9.95007 6.83823H10.7528V7.4702H9.73628V7.05194ZM9.95007 8.73503C9.83415 8.73503 9.73628 8.63715 9.73628 8.52133V8.10301H10.7528V8.73498H9.95007V8.73503ZM6.10271 18.6618C5.98468 18.9067 5.73484 19.0762 5.44473 19.0762C5.15467 19.0762 4.90473 18.9067 4.78675 18.6618C4.74057 18.5659 4.71395 18.4589 4.71395 18.3454C4.71395 17.9418 5.04109 17.6146 5.44473 17.6146C5.84837 17.6146 6.17556 17.9417 6.17556 18.3454C6.17556 18.4589 6.14893 18.5659 6.10271 18.6618ZM6.43187 20.3837C7.09684 20.0603 7.58087 19.4208 7.68742 18.6618H13.7742C13.8808 19.4208 14.3648 20.0603 15.0297 20.3837H6.43187ZM16.6748 18.6618C16.5568 18.9067 16.3069 19.0762 16.0168 19.0762C15.7268 19.0762 15.4768 18.9067 15.3588 18.6618C15.3127 18.5659 15.286 18.4589 15.286 18.3454C15.286 17.9418 15.6132 17.6146 16.0168 17.6146C16.4205 17.6146 16.7477 17.9417 16.7477 18.3454C16.7477 18.4589 16.721 18.5659 16.6748 18.6618ZM19.4853 17.1349C19.4829 17.2371 19.4794 17.3328 19.4754 17.4207C19.4741 17.4488 19.4712 17.4764 19.4669 17.5034C19.4606 17.5419 19.4512 17.5789 19.4392 17.6147H18.5092H18.1604C17.8556 16.7232 17.0102 16.0802 16.0169 16.0802C15.0235 16.0802 14.178 16.7232 13.8733 17.6147H7.58837C7.28359 16.7232 6.43815 16.0802 5.44482 16.0802C4.45145 16.0802 3.60596 16.7232 3.30128 17.6147H2.17403C2.14862 17.5412 2.13418 17.4617 2.13418 17.3782V16.7972C2.13418 15.1359 3.36807 13.7843 4.88481 13.7843H6.25675C6.5064 13.7843 6.66081 13.5741 7.02845 12.8992C7.05357 12.853 7.07232 12.818 7.08203 12.8021C7.13378 12.7175 7.18468 12.6325 7.23559 12.5474C7.46115 12.1705 7.6742 11.8146 7.95067 11.505C9.0316 10.2943 10.9836 10.016 12.051 9.958C13.1964 9.89575 14.8751 9.98701 16.3672 10.7757C17.9085 11.5906 19.1289 13.48 19.4041 15.4772C19.4855 16.0685 19.4963 16.6685 19.4853 17.1349ZM20.3632 17.5033H20.1026C20.1041 17.4854 20.1067 17.4677 20.1075 17.4495C20.1119 17.3532 20.1157 17.2477 20.1182 17.1349H20.3632V17.5033ZM20.328 15.8932C20.2748 15.9507 20.2017 15.9886 20.128 16.0129L20.0228 14.9528C20.0924 14.9579 20.1641 14.9751 20.2233 15.0137C20.3307 15.0836 20.398 15.2269 20.4235 15.4395C20.4482 15.6452 20.416 15.7979 20.328 15.8932Z" fill="#121619"/>
<path d="M23.118 20.3828H21.6483C21.4736 20.3828 21.3319 20.5244 21.3319 20.6992C21.3319 20.874 21.4736 21.0156 21.6483 21.0156H23.118C23.2927 21.0156 23.4344 20.874 23.4344 20.6992C23.4344 20.5244 23.2927 20.3828 23.118 20.3828Z" fill="#121619"/>
<path d="M1.53111 20.3828H0.384644C0.209847 20.3828 0.0682373 20.5244 0.0682373 20.6992C0.0682373 20.874 0.209847 21.0156 0.384644 21.0156H1.53111C1.70591 21.0156 1.84752 20.874 1.84752 20.6992C1.84752 20.5244 1.70591 20.3828 1.53111 20.3828Z" fill="#121619"/>
</svg>
