<svg width="24" height="24" viewBox="0 0 24 24" fill="none" xmlns="http://www.w3.org/2000/svg">
<path d="M17.1611 3.10827C17.2025 3.10827 17.2438 3.0876 17.2851 3.0876L16.9958 1.84766L15.6525 2.15764C15.7145 2.59162 15.4459 3.00494 15.0119 3.10827C14.5779 3.2116 14.1439 2.96361 13.9993 2.52963L13.214 2.71562C13.276 3.1496 13.0073 3.56291 12.5733 3.66624C12.1394 3.76957 11.7054 3.52158 11.5607 3.0876L10.7754 3.27359C10.8374 3.70757 10.5688 4.12089 10.1348 4.22422C9.70081 4.32754 9.26683 4.07956 9.12217 3.64558L8.33687 3.83157C8.39887 4.26555 8.13022 4.67886 7.69624 4.78219C7.26225 4.88552 6.82827 4.63753 6.68361 4.20355L5.89832 4.38954C5.96031 4.82352 5.69166 5.23684 5.25768 5.34017C4.8237 5.44349 4.38972 5.19551 4.24506 4.76153L3.29443 4.98885L3.58375 6.20813C4.0384 6.1048 4.49305 6.39412 4.61704 6.84876C4.72037 7.30341 4.43105 7.75806 3.9764 7.88205L4.16239 8.64668C4.61704 8.54336 5.07169 8.83268 5.19568 9.28732C5.29901 9.74197 5.00969 10.1966 4.55504 10.3206L4.74104 11.0852C5.19568 10.9819 5.65033 11.2712 5.77432 11.7259C5.87765 12.1805 5.58833 12.6352 5.13368 12.7592L5.31968 13.5238C5.77432 13.4205 6.22897 13.7098 6.35296 14.1644C6.45629 14.6191 6.16697 15.0737 5.71232 15.1977L5.89832 15.9624C6.35296 15.859 6.80761 16.1483 6.9316 16.603C7.03493 17.0576 6.74561 17.5123 6.29097 17.6363L6.47696 18.4009C6.9316 18.2976 7.38625 18.5869 7.51024 19.0416C7.61357 19.4962 7.32425 19.9508 6.86961 20.0748L7.09693 21.0255L7.82023 20.8601C7.7169 20.4055 8.00622 19.9508 8.46087 19.8268C8.91551 19.7235 9.37016 20.0128 9.49415 20.4675L10.2588 20.2815C10.1555 19.8268 10.4448 19.3722 10.8994 19.2482C11.3541 19.1449 11.8087 19.4342 11.9327 19.8888L12.6973 19.7029C12.594 19.2482 12.8833 18.7936 13.338 18.6696C13.7926 18.5662 14.2473 18.8556 14.3713 19.3102L15.1359 19.1242C15.0326 18.6696 15.3219 18.2149 15.7765 18.0909C16.2312 17.9876 16.6858 18.2769 16.8098 18.7316L17.5745 18.5456C17.4711 18.0909 17.7604 17.6363 18.2151 17.5123C18.6697 17.409 19.1244 17.6983 19.2484 18.1529L20.7983 17.7809L20.571 16.8097C20.5297 16.8303 20.4883 16.851 20.447 16.851C19.9923 16.9543 19.5377 16.665 19.4137 16.2103C19.3104 15.7557 19.5997 15.3011 20.0543 15.1771C20.0957 15.1771 20.137 15.1564 20.1783 15.1564L19.9923 14.3711C19.951 14.3918 19.9097 14.4124 19.8684 14.4124C19.4137 14.5158 18.9591 14.2264 18.8351 13.7718C18.7317 13.3171 19.0211 12.8625 19.4757 12.7385C19.517 12.7385 19.5584 12.7178 19.5997 12.7178L19.4137 11.9325C19.3724 11.9532 19.331 11.9739 19.2897 11.9739C18.8351 12.0772 18.3804 11.7879 18.2564 11.3332C18.1531 10.8786 18.4424 10.4239 18.8971 10.2999C18.9384 10.2999 18.9797 10.2793 19.0211 10.2793L18.8351 9.49398C18.7937 9.51465 18.7524 9.53531 18.7111 9.53531C18.2564 9.63864 17.8018 9.34932 17.6778 8.89467C17.5745 8.44003 17.8638 7.98538 18.3184 7.86139C18.3598 7.86139 18.4011 7.84072 18.4424 7.84072L18.2564 7.05542C18.2151 7.07609 18.1738 7.09675 18.1324 7.09675C17.6778 7.20008 17.2231 6.91076 17.0991 6.45612C16.9958 6.00147 17.2851 5.54682 17.7398 5.42283C17.7811 5.42283 17.8224 5.40216 17.8638 5.40216L17.6778 4.72019C17.6365 4.74086 17.5951 4.76153 17.5538 4.76153C17.0991 4.86485 16.6445 4.57553 16.5205 4.12089C16.4172 3.66624 16.7065 3.2116 17.1611 3.10827Z" fill="white"/>
<path d="M18.2152 14.9448C18.4219 15.8335 17.8639 16.7221 16.9753 16.9287L10.1142 18.5407C9.22561 18.7473 8.33698 18.1893 8.13032 17.3007L5.93976 7.87715C5.7331 6.98852 6.29107 6.09989 7.1797 5.89324L14.0407 4.28131C14.9294 4.07465 15.818 4.63263 16.0246 5.52125L18.2152 14.9448Z" fill="#A2A9B0"/>
<path d="M13.9328 9.01625C14.6551 8.84703 15.1035 8.12433 14.9342 7.40204C14.765 6.67976 14.0423 6.23141 13.32 6.40063C12.5977 6.56985 12.1494 7.29256 12.3186 8.01484C12.4878 8.73713 13.2105 9.18547 13.9328 9.01625Z" fill="#21272A"/>
<path d="M12.842 9.88012C12.78 9.6528 12.47 9.54947 12.1394 9.61147L9.32883 10.2728C8.99818 10.3554 8.77085 10.6034 8.81219 10.8101C8.87418 11.0374 8.66753 11.2647 8.39887 11.3267C8.10955 11.3887 7.92356 11.6367 7.98556 11.8434C8.04755 12.0707 8.35754 12.174 8.68819 12.112L10.6928 11.6367C11.0234 11.554 11.2507 11.3061 11.2094 11.0994C11.1474 10.8721 11.3954 10.6241 11.7261 10.5621L12.3254 10.4174C12.6767 10.3348 12.904 10.1074 12.842 9.88012Z" fill="white"/>
<path d="M16.2933 13.1697C16.2519 12.9424 16.0039 12.8184 15.7559 12.8804L15.384 12.9631C15.136 13.0251 14.888 12.9011 14.8467 12.7151C14.8053 12.5084 14.5573 12.4051 14.3093 12.4671L11.7055 13.0871C11.4575 13.1491 11.2921 13.3557 11.3335 13.5624C11.3748 13.769 11.2095 13.9757 10.9615 14.0377L10.5068 14.141C10.2589 14.203 10.0935 14.4303 10.1555 14.637C10.1969 14.8643 10.4449 14.9883 10.6928 14.9263L11.9741 14.6163C12.2221 14.5543 12.4701 14.6577 12.5114 14.823C12.5528 14.9883 12.3874 15.195 12.1394 15.257L11.9121 15.319C11.6641 15.381 11.4988 15.6083 11.5608 15.8149C11.6021 16.0423 11.8501 16.1663 12.0981 16.1043L13.3381 15.8149C13.586 15.7529 13.7514 15.5463 13.71 15.3396C13.6687 15.133 13.834 14.9263 14.082 14.8643L14.2267 14.823C14.4747 14.761 14.64 14.5543 14.5987 14.3477C14.5573 14.141 14.7227 13.9344 14.9706 13.8724L15.9626 13.645C16.1899 13.6244 16.3552 13.397 16.2933 13.1697Z" fill="white"/>
<path d="M7.11762 21.2066C7.07628 21.2066 7.03495 21.1859 7.01429 21.1653C6.97296 21.1446 6.93162 21.0826 6.93162 21.0413L6.7043 20.0906C6.68364 20.0286 6.7043 19.9873 6.72497 19.9253C6.74563 19.884 6.80763 19.8427 6.84896 19.8427C6.84896 19.8427 6.84896 19.8427 6.86963 19.8427C7.03495 19.8013 7.17961 19.698 7.26228 19.5533C7.34494 19.4087 7.38627 19.2433 7.34494 19.0574C7.26228 18.7267 6.91096 18.4994 6.58031 18.582H6.55964C6.45631 18.6027 6.35298 18.5407 6.31165 18.4167L6.12566 17.6521C6.105 17.5488 6.16699 17.4454 6.27032 17.4041H6.29099C6.45631 17.3628 6.60097 17.2594 6.68364 17.1148C6.7663 16.9701 6.80763 16.8048 6.7663 16.6188C6.68364 16.2881 6.33232 16.0608 6.00167 16.1435H5.981C5.87767 16.1642 5.77434 16.1022 5.73301 15.9782L5.54702 15.2135C5.52635 15.1102 5.58835 15.0069 5.69168 14.9655H5.71235C6.06366 14.8829 6.27032 14.5316 6.18766 14.2009C6.105 13.8703 5.75368 13.6429 5.42303 13.7256H5.40236C5.29903 13.7463 5.1957 13.6843 5.15437 13.5603L4.96838 12.7956C4.94771 12.6923 5.00971 12.589 5.11304 12.5476H5.13371C5.46436 12.465 5.69168 12.1137 5.60902 11.783C5.52635 11.4524 5.17504 11.225 4.84439 11.3077H4.82372C4.72039 11.3284 4.61706 11.2664 4.57573 11.1424L4.38974 10.3777C4.36907 10.3157 4.38974 10.2744 4.41041 10.2124C4.43107 10.1711 4.49307 10.1298 4.5344 10.1298C4.5344 10.1298 4.5344 10.1298 4.55506 10.1298C4.90638 10.0471 5.11304 9.69578 5.03038 9.36513C4.96838 9.0758 4.69973 8.86915 4.41041 8.86915C4.36907 8.86915 4.30708 8.86915 4.26575 8.88981C4.16242 8.91048 4.03842 8.84848 4.01776 8.74515L3.83176 7.98052C3.8111 7.91852 3.83176 7.87719 3.85243 7.81519C3.8731 7.77386 3.93509 7.73253 3.97642 7.73253C3.97642 7.73253 3.97642 7.73253 3.99709 7.73253C4.16242 7.6912 4.30708 7.58787 4.38974 7.44321C4.4724 7.29855 4.51373 7.13322 4.4724 6.94723C4.38974 6.61658 4.03842 6.38926 3.70777 6.47192C3.64577 6.49259 3.60444 6.47192 3.54244 6.45126C3.50111 6.43059 3.45978 6.36859 3.43912 6.32726L3.1498 5.10798C3.12913 5.04599 3.1498 5.00466 3.17046 4.94266C3.19113 4.90133 3.25312 4.86 3.29446 4.86L4.24508 4.63267C4.34841 4.61201 4.45174 4.674 4.49307 4.77733C4.5964 5.08732 4.92705 5.29397 5.2577 5.21131C5.58835 5.12865 5.79501 4.81866 5.75368 4.48801C5.73301 4.38468 5.81567 4.28135 5.919 4.26069L6.7043 4.0747C6.80763 4.05403 6.91096 4.11603 6.95229 4.21936C7.05562 4.52934 7.38627 4.736 7.71692 4.65334C8.04757 4.57067 8.25423 4.26069 8.2129 3.93004C8.19223 3.82671 8.2749 3.72338 8.37823 3.70271L9.16352 3.51672C9.26685 3.49606 9.37018 3.55805 9.41151 3.66138C9.51484 3.97137 9.84549 4.17803 10.1761 4.09536C10.5068 4.0127 10.7135 3.70271 10.6721 3.37206C10.6515 3.26873 10.7341 3.1654 10.8374 3.14474L11.6227 2.95875C11.7261 2.93808 11.8294 3.00008 11.8707 3.10341C11.9741 3.41339 12.3047 3.62005 12.6354 3.53739C12.966 3.45472 13.1727 3.14474 13.1313 2.81409C13.1107 2.71076 13.1933 2.60743 13.2967 2.58676L14.082 2.40077C14.1853 2.38011 14.2886 2.4421 14.33 2.54543C14.4333 2.85542 14.7639 3.06208 15.0946 2.97941C15.4252 2.89675 15.6319 2.58676 15.5906 2.25611C15.5699 2.15278 15.6526 2.04946 15.7559 2.02879L17.0992 1.7188C17.2025 1.69814 17.3265 1.76013 17.3472 1.86346L17.6365 3.10341C17.6571 3.1654 17.6365 3.2274 17.5951 3.26873C17.5538 3.31006 17.5125 3.3514 17.4505 3.3514C17.4092 3.3514 17.3885 3.3514 17.3472 3.37206C17.1818 3.41339 17.0372 3.51672 16.9545 3.66138C16.8718 3.80604 16.8305 3.97137 16.8718 4.15736C16.9545 4.50868 17.3058 4.71533 17.6571 4.63267C17.6985 4.63267 17.7191 4.61201 17.7398 4.59134C17.8018 4.57067 17.8638 4.57067 17.9051 4.59134C17.9671 4.61201 17.9878 4.674 18.0085 4.736L18.1944 5.5213C18.2151 5.5833 18.1944 5.64529 18.1531 5.68662C18.1118 5.72796 18.0705 5.76929 18.0085 5.76929C17.9671 5.76929 17.9465 5.76929 17.9051 5.78995C17.7398 5.83128 17.5951 5.93461 17.5125 6.07927C17.4298 6.22393 17.3885 6.38926 17.4298 6.57525C17.4918 6.86457 17.7605 7.07123 18.0498 7.07123C18.0911 7.07123 18.1531 7.07123 18.1944 7.05056C18.2358 7.05056 18.2564 7.0299 18.2771 7.00923C18.3391 6.98856 18.4011 6.98856 18.4424 7.00923C18.5044 7.0299 18.5251 7.09189 18.5458 7.15389L18.7318 7.93919C18.7524 8.00119 18.7318 8.06318 18.6904 8.10452C18.6491 8.14585 18.6078 8.18718 18.5458 8.18718C18.5044 8.18718 18.4838 8.18718 18.4424 8.20784C18.2771 8.24918 18.1325 8.3525 18.0498 8.49716C17.9671 8.64182 17.9258 8.80715 17.9671 8.99314C18.0498 9.34446 18.4011 9.55112 18.7524 9.46845C18.7938 9.46845 18.8144 9.44779 18.8351 9.42712C18.8971 9.40646 18.9591 9.40646 19.0004 9.42712C19.0624 9.44779 19.0831 9.50979 19.1037 9.57178L19.2897 10.3571C19.3104 10.4191 19.2897 10.4811 19.2484 10.5224C19.2071 10.5637 19.1657 10.6051 19.1037 10.6051C19.0624 10.6051 19.0417 10.6051 19.0004 10.6257C18.8351 10.6671 18.6904 10.7704 18.6078 10.9151C18.5251 11.0597 18.4838 11.225 18.5251 11.411C18.6078 11.7624 18.9591 11.969 19.3104 11.8863C19.3517 11.8863 19.3724 11.8657 19.3931 11.845C19.4551 11.8243 19.5171 11.8243 19.5584 11.845C19.6204 11.8657 19.641 11.9277 19.6617 11.9897L19.8477 12.775C19.8684 12.837 19.8477 12.899 19.8064 12.9403C19.765 12.9816 19.7237 13.023 19.6617 13.023C19.6204 13.023 19.5997 13.023 19.5584 13.0436C19.2071 13.1263 19.0004 13.4776 19.0831 13.8289C19.1657 14.1802 19.5171 14.3869 19.8684 14.3042C19.9097 14.3042 19.9304 14.2836 19.951 14.2629C20.013 14.2422 20.075 14.2422 20.1164 14.2629C20.1784 14.2836 20.199 14.3456 20.2197 14.4076L20.4057 15.1929C20.4263 15.2549 20.4057 15.3169 20.3643 15.3582C20.323 15.3995 20.2817 15.4409 20.2197 15.4409C20.1784 15.4409 20.1577 15.4409 20.1164 15.4615C19.765 15.5442 19.5584 15.8955 19.641 16.2468C19.7237 16.5981 20.075 16.8048 20.4263 16.7221C20.4677 16.7221 20.4883 16.7015 20.509 16.6808C20.571 16.6601 20.633 16.6601 20.6743 16.6808C20.7363 16.7015 20.757 16.7635 20.7777 16.8255L21.005 17.7967C21.0257 17.9001 20.9637 18.0241 20.8603 18.0447L19.3104 18.4167C19.2484 18.4374 19.2071 18.4167 19.1451 18.396C19.1037 18.3754 19.0624 18.3134 19.0624 18.2721C19.0004 17.9827 18.7318 17.7761 18.4424 17.7761C18.4011 17.7761 18.3391 17.7761 18.2978 17.7967C17.8638 17.7967 17.6571 18.1481 17.7398 18.4994C17.7605 18.6027 17.6985 18.7267 17.5951 18.7474L16.8305 18.9334C16.7685 18.954 16.7272 18.9334 16.6652 18.9127C16.6239 18.892 16.5825 18.83 16.5825 18.7887C16.5205 18.4994 16.2519 18.2927 15.9625 18.2927C15.9212 18.2927 15.8592 18.2927 15.8179 18.3134C15.4666 18.396 15.2599 18.7474 15.3426 19.0987C15.3632 19.202 15.3012 19.326 15.1979 19.3467L14.4333 19.5327C14.3713 19.5533 14.33 19.5327 14.268 19.512C14.2266 19.4913 14.1853 19.4293 14.1853 19.388C14.1233 19.0987 13.8546 18.892 13.5653 18.892C13.524 18.892 13.462 18.892 13.4207 18.9127C13.0693 18.9954 12.8627 19.3467 12.9454 19.698C12.966 19.8013 12.904 19.9253 12.8007 19.946L12.0361 20.132C11.9327 20.1526 11.8087 20.0906 11.7881 19.9873C11.7261 19.698 11.4574 19.4913 11.1681 19.4913C11.1268 19.4913 11.0648 19.4913 11.0234 19.512C10.6721 19.5947 10.4655 19.946 10.5481 20.2973C10.5688 20.4006 10.5068 20.5246 10.4035 20.5453L9.63883 20.7313C9.53551 20.7519 9.41151 20.6899 9.39085 20.5866C9.30818 20.2353 8.95687 20.0286 8.60555 20.1113C8.44022 20.1526 8.29556 20.256 8.2129 20.4006C8.13024 20.5453 8.08891 20.7106 8.13024 20.8966C8.1509 20.9586 8.13024 20.9999 8.10957 21.0619C8.0889 21.1033 8.02691 21.1446 7.98558 21.1446L7.26228 21.3099C7.13828 21.1859 7.11762 21.2066 7.11762 21.2066ZM7.13828 20.1733L7.26228 20.7519L7.61359 20.6693C7.61359 20.4626 7.65492 20.256 7.77892 20.07C7.92358 19.822 8.17157 19.6567 8.44022 19.5947C8.52289 19.574 8.60555 19.574 8.68821 19.574C9.10153 19.574 9.47351 19.822 9.6595 20.194L10.0521 20.0906C10.0315 19.5947 10.3621 19.14 10.8788 19.016C10.9614 18.9954 11.0441 18.9954 11.1268 18.9954C11.5401 18.9954 11.9121 19.2433 12.0981 19.6153L12.4907 19.512C12.47 19.016 12.8007 18.5614 13.3173 18.4374C13.4 18.4167 13.4827 18.4167 13.5653 18.4167C13.9786 18.4167 14.3506 18.6647 14.5366 19.0367L14.9293 18.9334C14.9086 18.4374 15.2392 17.9827 15.7559 17.8587C15.8386 17.8381 15.9212 17.8381 16.0039 17.8381C16.4172 17.8381 16.7892 18.0861 16.9752 18.458L17.3678 18.3547C17.3472 17.8587 17.6778 17.4041 18.1944 17.2801C18.2771 17.2594 18.3598 17.2594 18.4424 17.2594C18.8558 17.2594 19.2277 17.5074 19.4137 17.8794L20.5917 17.6108L20.4677 17.0528C20.4057 17.0528 20.3643 17.0734 20.3024 17.0734C19.8064 17.0734 19.3931 16.7428 19.2691 16.2468C19.1451 15.7095 19.4551 15.1515 19.9924 14.9862L19.9097 14.6142C19.8477 14.6142 19.8064 14.6349 19.7444 14.6349C19.2484 14.6349 18.8351 14.3042 18.7111 13.8083C18.5871 13.2709 18.8971 12.713 19.4344 12.5476L19.3517 12.1757C19.2897 12.1757 19.2484 12.1963 19.1864 12.1963C18.6904 12.1963 18.2771 11.8657 18.1531 11.3697C18.0911 11.101 18.1325 10.8117 18.2771 10.5637C18.4218 10.3364 18.6078 10.1918 18.8558 10.1091L18.7731 9.73711C18.7111 9.73711 18.6698 9.75777 18.6078 9.75777C18.1118 9.75777 17.6985 9.42712 17.5745 8.93114C17.5125 8.66249 17.5538 8.37317 17.6985 8.12518C17.8431 7.89786 18.0291 7.7532 18.2771 7.67053L18.0911 7.40188C18.0291 7.40188 17.9878 7.42255 17.9258 7.42255C17.4298 7.42255 17.0165 7.09189 16.8925 6.59592C16.8305 6.32726 16.8718 6.03794 17.0165 5.78995C17.1612 5.56263 17.3472 5.41797 17.5951 5.33531L17.5125 4.96332C17.4505 4.96332 17.4092 4.98399 17.3472 4.98399C16.8512 4.98399 16.4379 4.65334 16.3139 4.15736C16.2519 3.88871 16.2932 3.59939 16.4379 3.3514C16.5825 3.12407 16.7685 2.97941 17.0165 2.89675L16.8305 2.07012L15.8592 2.29744C15.8386 2.77276 15.5079 3.18607 15.0533 3.2894C14.9706 3.31006 14.8879 3.31007 14.8053 3.31007C14.4126 3.31007 14.0613 3.08274 13.8753 2.75209L13.4413 2.85542C13.4207 3.33073 13.09 3.74405 12.6354 3.84737C12.5527 3.86804 12.47 3.86804 12.3874 3.86804C11.9947 3.86804 11.6434 3.64072 11.4574 3.31007L11.0234 3.41339C11.0028 3.88871 10.6721 4.30202 10.2175 4.40535C10.1348 4.42601 10.0521 4.42601 9.96949 4.42601C9.57684 4.42601 9.22552 4.19869 9.03953 3.86804L8.60555 3.97137C8.58488 4.44668 8.25423 4.86 7.79958 4.96332C7.71692 4.98399 7.63426 4.98399 7.5516 4.98399C7.15895 4.98399 6.80763 4.75667 6.62164 4.42601L6.18766 4.52934C6.16699 5.00466 5.83634 5.41797 5.38169 5.5213C5.29903 5.54196 5.21637 5.54196 5.13371 5.54196C4.74106 5.54196 4.38974 5.31464 4.20375 4.98399L3.62511 5.12865L3.83176 5.97594C4.34841 5.95528 4.78239 6.28593 4.90638 6.80257C4.96838 7.07123 4.92705 7.36055 4.78239 7.60854C4.65839 7.79453 4.51373 7.93919 4.30708 8.02185L4.38974 8.4145C4.90638 8.39384 5.34036 8.72449 5.46436 9.24113C5.58835 9.73711 5.3197 10.2538 4.86505 10.4604L4.94771 10.8531C5.46436 10.8324 5.89834 11.1837 6.02233 11.6797C6.14633 12.1757 5.87767 12.6923 5.42303 12.899L5.50569 13.2916C6.02233 13.2709 6.45631 13.6223 6.58031 14.1182C6.7043 14.6142 6.43565 15.1309 5.981 15.3375L6.06366 15.7302C6.58031 15.7095 7.01429 16.0608 7.13828 16.5568C7.20028 16.8255 7.15895 17.1148 7.01429 17.3628C6.89029 17.5488 6.74563 17.6934 6.53898 17.7761L6.62164 18.1687C7.13828 18.1481 7.57226 18.4994 7.69626 18.9954C7.75825 19.264 7.71692 19.5533 7.57226 19.8013C7.4896 19.946 7.32427 20.0906 7.13828 20.1733Z" fill="#121619"/>
<path d="M7.73757 23.3133C5.31968 23.3133 3.2531 21.6807 2.71579 19.3248C2.07516 16.5556 3.79041 13.7658 6.55962 13.1251C6.95227 13.0425 7.34492 12.9805 7.73757 12.9805C10.1555 12.9805 12.222 14.6131 12.7593 16.969C13.4 19.7382 11.6847 22.528 8.91551 23.1687C8.52287 23.272 8.13022 23.3133 7.73757 23.3133ZM7.73757 13.3938C7.36558 13.3938 7.01427 13.4351 6.64228 13.5178C4.07973 14.1171 2.50914 16.6796 3.08778 19.2215C3.60442 21.3914 5.52633 22.9 7.73757 22.9C8.10955 22.9 8.46087 22.8587 8.83285 22.776C11.3954 22.1767 12.966 19.6142 12.3874 17.0723C11.8707 14.9024 9.9488 13.3938 7.73757 13.3938Z" fill="#343A3F"/>
<path d="M7.73758 22.0756C5.89833 22.0756 4.32773 20.8357 3.91442 19.0378C3.41844 16.9299 4.74105 14.822 6.84895 14.326C7.13827 14.264 7.44826 14.2227 7.73758 14.2227C9.57683 14.2227 11.1474 15.4626 11.5607 17.2605C11.8087 18.2731 11.6227 19.3271 11.0648 20.2157C10.5068 21.1043 9.63882 21.7243 8.6262 21.9723C8.33688 22.0343 8.0269 22.0756 7.73758 22.0756ZM7.73758 14.636C7.46892 14.636 7.20027 14.6773 6.93161 14.7393C5.05103 15.1733 3.87308 17.0745 4.32773 18.9551C4.69971 20.5464 6.10498 21.6623 7.73758 21.6623C8.00623 21.6623 8.27489 21.621 8.54354 21.559C9.45283 21.3523 10.2381 20.7944 10.7341 19.9884C11.2301 19.1824 11.3747 18.2525 11.1681 17.3432C10.7754 15.7519 9.37017 14.636 7.73758 14.636Z" fill="#343A3F"/>
<path opacity="0.5" d="M17.3678 14.803C17.2645 14.803 17.1818 14.741 17.1612 14.6377L15.1979 6.2474C15.0739 5.68942 14.5159 5.3381 13.958 5.48276L11.0234 6.16473C10.9201 6.1854 10.7961 6.1234 10.7754 6.02007C10.7548 5.91674 10.8168 5.79275 10.9201 5.77208L13.8546 5.09011C14.2266 5.00745 14.6193 5.06945 14.9499 5.27611C15.2806 5.48276 15.5079 5.79275 15.5906 6.16473L17.5538 14.555C17.5745 14.6584 17.5125 14.7823 17.4091 14.803C17.4091 14.803 17.3885 14.803 17.3678 14.803Z" fill="#DDE1E6"/>
<path opacity="0.5" d="M7.69621 6.94601C7.59288 6.94601 7.51022 6.88401 7.48956 6.78068C7.46889 6.67736 7.53089 6.55336 7.63422 6.5327L8.95682 6.22271C9.06015 6.20204 9.18415 6.26404 9.20481 6.36737C9.22548 6.4707 9.16348 6.59469 9.06015 6.61536L7.73754 6.92534C7.73754 6.92534 7.71688 6.94601 7.69621 6.94601Z" fill="#DDE1E6"/>
</svg>
