<svg width="24" height="24" viewBox="0 0 24 24" fill="none" xmlns="http://www.w3.org/2000/svg">
<path d="M21.8569 14.0423H16.3167C16.2707 14.0424 16.2257 14.0561 16.1873 14.0817L12.5827 16.507C12.2333 16.7423 11.8255 16.8761 11.4047 16.8937L9.35813 16.9809C9.31653 16.9696 9.27252 16.9707 9.23157 16.9842H9.225L7.08563 17.0779C6.97538 17.0823 6.86574 17.0596 6.76634 17.0117C6.66695 16.9638 6.58085 16.8922 6.51563 16.8032C6.45459 16.7233 6.41455 16.6293 6.39916 16.5299C6.38377 16.4305 6.39351 16.3288 6.42751 16.2342C6.50994 16.0127 6.62547 15.805 6.77016 15.6182C7.15266 15.1101 8.0461 14.8968 8.91 14.6906C9.76219 14.4867 10.6444 14.2757 11.175 13.7667C11.2959 13.6557 11.3911 13.5196 11.4539 13.3679C11.5166 13.2162 11.5454 13.0527 11.5383 12.8887C11.5111 12.0918 10.7194 11.2593 10.3664 10.927L12.9553 7.57071L17.9738 9.56993C18.0011 9.58073 18.0302 9.58629 18.0595 9.58634H21.8564C21.9161 9.58365 21.9724 9.55806 22.0137 9.51488C22.055 9.47171 22.078 9.41427 22.078 9.35454C22.078 9.29481 22.055 9.23737 22.0137 9.1942C21.9724 9.15102 21.9161 9.12543 21.8564 9.12274H18.1036L13.2492 7.18915L14.4844 5.58649C14.503 5.56242 14.5167 5.5349 14.5247 5.50553C14.5326 5.47615 14.5347 5.44549 14.5308 5.4153C14.5269 5.38512 14.517 5.35601 14.5018 5.32964C14.4866 5.30327 14.4663 5.28016 14.4422 5.26165L12.9717 4.1268C12.9477 4.10813 12.9202 4.09437 12.8909 4.08634C12.8616 4.0783 12.8309 4.07613 12.8007 4.07997C12.7706 4.0838 12.7414 4.09355 12.715 4.10867C12.6886 4.12379 12.6655 4.14397 12.6469 4.16805L11.0063 6.2943L10.6903 6.16821C10.3133 6.02016 9.90055 5.98873 9.50549 6.07799C9.11042 6.16725 8.75126 6.37309 8.47454 6.66884L4.54688 10.9092C4.53239 10.9248 4.52024 10.9425 4.51079 10.9616L2.30016 15.3009C2.2861 15.3281 2.27761 15.3578 2.2752 15.3883C2.27278 15.4188 2.27649 15.4495 2.2861 15.4785C2.3061 15.5362 2.3478 15.5838 2.40235 15.6112L2.82422 15.8226C3.03631 15.9287 3.26488 15.9979 3.50016 16.0274L2.77594 16.9706L2.77172 16.9767L2.76704 16.9837C2.76427 16.9874 2.76176 16.9913 2.75954 16.9954L2.75485 17.0038L2.74922 17.0156C2.74769 17.0184 2.74644 17.0214 2.74547 17.0245C2.74547 17.0287 2.74172 17.0329 2.74032 17.0371C2.73891 17.0413 2.74032 17.0404 2.74032 17.0423L1.92188 19.6218C1.9075 19.6671 1.90739 19.7157 1.92156 19.761C1.93574 19.8064 1.96352 19.8463 2.00113 19.8753C2.03875 19.9043 2.08438 19.921 2.13183 19.9232C2.17929 19.9254 2.22627 19.913 2.26641 19.8876L4.54688 18.4443C4.56853 18.4319 4.58801 18.4161 4.60454 18.3974C4.6065 18.3956 4.60823 18.3936 4.60969 18.3913L4.61485 18.3857L5.1661 17.6709L5.59454 18.7593C5.65052 18.9034 5.73489 19.0347 5.84263 19.1455C5.95038 19.2563 6.07929 19.3443 6.22172 19.4043C6.50064 19.5237 6.81522 19.529 7.098 19.4191C7.38078 19.3092 7.60924 19.0929 7.73438 18.8165C7.86547 18.9541 8.02832 19.0575 8.20865 19.1176C8.38899 19.1776 8.5813 19.1925 8.76874 19.161C8.95617 19.1294 9.133 19.0524 9.28373 18.9366C9.43446 18.8208 9.55449 18.6698 9.63329 18.4968C9.79514 18.6672 10.0049 18.7844 10.2349 18.8328C10.4648 18.8813 10.7041 18.8588 10.9209 18.7682C11.1881 18.6555 11.4039 18.4474 11.5263 18.1845C11.6487 17.9216 11.669 17.6226 11.5833 17.3456C12.0335 17.3001 12.4655 17.1443 12.8409 16.8918L16.387 14.5059H21.8569C21.9165 14.5032 21.9729 14.4776 22.0142 14.4344C22.0554 14.3912 22.0785 14.3338 22.0785 14.2741C22.0785 14.2143 22.0554 14.1569 22.0142 14.1137C21.9729 14.0706 21.9165 14.045 21.8569 14.0423ZM11.0756 12.9046C11.0803 13.0035 11.0628 13.1021 11.0247 13.1934C10.9865 13.2847 10.9285 13.3663 10.8548 13.4324C10.4147 13.8543 9.59532 14.0502 8.80313 14.2396C8.37235 14.3427 7.93501 14.4473 7.54125 14.5912L10.0833 11.2954C10.4588 11.6554 11.0559 12.3412 11.0747 12.9046H11.0756ZM2.8186 15.3032L4.90922 11.2007L8.81579 6.98618C9.02829 6.75832 9.30449 6.59974 9.60841 6.53109C9.91233 6.46245 10.2299 6.48693 10.5197 6.60134L10.7128 6.67821L6.56907 12.0487C6.54984 12.0672 6.53397 12.0889 6.52219 12.1129L5.12766 14.8284C4.91275 15.1681 4.57923 15.4157 4.19191 15.5232C3.80459 15.6307 3.39113 15.5904 3.03188 15.4101L2.8186 15.3032ZM4.09501 16.0171C4.38859 15.968 4.66841 15.8572 4.91599 15.6919C5.16357 15.5267 5.37328 15.3108 5.53126 15.0585L6.91641 12.3613L12.8728 4.63634L13.9763 5.48618L5.05407 17.0559L5.04704 17.0648L4.38797 17.9193L3.28454 17.0681L4.09501 16.0171ZM3.08063 17.496L4.02704 18.2254L2.55516 19.1568L3.08063 17.496ZM6.94454 18.9801C6.85858 19.0158 6.76638 19.0339 6.67331 19.0336C6.58025 19.0332 6.48819 19.0143 6.40252 18.9779C6.31685 18.9416 6.23929 18.8885 6.17436 18.8218C6.10943 18.7552 6.05845 18.6762 6.02438 18.5896L5.49469 17.2434L5.94985 16.6532C5.98259 16.807 6.04815 16.9518 6.14204 17.0779C6.24749 17.2215 6.38527 17.3383 6.54422 17.4189C6.70317 17.4994 6.87885 17.5414 7.05704 17.5415H7.10391H7.15079L7.33829 18.1162C7.39248 18.2833 7.38211 18.4647 7.30923 18.6246C7.23636 18.7845 7.10625 18.9113 6.94454 18.9801ZM8.8425 18.6581C8.757 18.6938 8.66524 18.7121 8.57259 18.712C8.47993 18.7119 8.38822 18.6933 8.3028 18.6574C8.21738 18.6215 8.13996 18.569 8.07504 18.5028C8.01013 18.4367 7.95902 18.3583 7.92469 18.2723L7.64344 17.5167L9.13407 17.4534L9.23907 17.7923C9.29362 17.96 9.28312 18.1421 9.20967 18.3025C9.13621 18.4629 9.00516 18.5898 8.8425 18.6581ZM10.7419 18.3384C10.6562 18.3739 10.5643 18.3921 10.4716 18.3918C10.3788 18.3916 10.287 18.3729 10.2016 18.3369C10.1161 18.3008 10.0386 18.2482 9.97365 18.182C9.90869 18.1158 9.85752 18.0373 9.82313 17.9512L9.62719 17.4323L11.1038 17.3695L11.1375 17.4726C11.1925 17.6404 11.1824 17.8228 11.1091 17.9835C11.0358 18.1441 10.9047 18.2713 10.7419 18.3398V18.3384Z" fill="#121619"/>
</svg>
