<svg width="45" height="30" viewBox="0 0 45 30" fill="none" xmlns="http://www.w3.org/2000/svg">
<path fill-rule="evenodd" clip-rule="evenodd" d="M18.8668 16.8733C17.5876 17.8174 15.733 18.3194 14.136 18.3194C11.8978 18.3194 9.88227 17.4921 8.35696 16.1148C8.23734 16.0066 8.34402 15.8589 8.48796 15.9426C10.1335 16.9002 12.1686 17.4769 14.2703 17.4769C15.6881 17.4769 17.2468 17.1826 18.6809 16.5743C18.8972 16.4827 19.0786 16.7168 18.8668 16.8733Z" fill="#F79C34"/>
<path fill-rule="evenodd" clip-rule="evenodd" d="M19.3978 16.267C19.2341 16.0576 18.3163 16.1678 17.9039 16.2172C17.779 16.2323 17.7596 16.1231 17.8722 16.044C18.6044 15.5297 19.8044 15.6781 19.9438 15.8505C20.0842 16.024 19.9067 17.2271 19.2208 17.8011C19.1151 17.8894 19.0147 17.8423 19.0615 17.7258C19.2161 17.3401 19.5616 16.4768 19.3978 16.267Z" fill="#F79C34"/>
<path fill-rule="evenodd" clip-rule="evenodd" d="M17.933 12.41V11.9103C17.9334 11.8342 17.9907 11.7836 18.0597 11.7838L20.2996 11.7836C20.3712 11.7836 20.4288 11.8356 20.4288 11.9097V12.3382C20.4281 12.4102 20.3675 12.5039 20.2602 12.6528L19.0998 14.3094C19.5305 14.2994 19.986 14.364 20.3775 14.5838C20.4657 14.6334 20.4894 14.707 20.4963 14.7789V15.3121C20.4963 15.3857 20.4159 15.4706 20.3312 15.4265C19.6419 15.0652 18.727 15.0258 17.9646 15.4308C17.8867 15.4723 17.8054 15.3884 17.8054 15.3149V14.8079C17.8054 14.727 17.8069 14.5881 17.8887 14.4646L19.2328 12.5361L18.0624 12.5359C17.9909 12.5359 17.9334 12.4849 17.933 12.41ZM9.76252 15.5314H9.08106C9.01614 15.5273 8.96437 15.4786 8.95908 15.4163L8.95967 11.9187C8.95967 11.8489 9.0185 11.793 9.09125 11.793L9.72585 11.7928C9.79213 11.7962 9.84547 11.8464 9.84959 11.9103V12.3668H9.86253C10.0278 11.9252 10.3395 11.7191 10.7593 11.7191C11.1855 11.7191 11.4527 11.9252 11.6436 12.3668C11.8089 11.9252 12.1842 11.7191 12.5849 11.7191C12.8712 11.7191 13.1828 11.837 13.3736 12.1019C13.5899 12.3964 13.5456 12.8232 13.5456 13.1985L13.5448 15.4057C13.5448 15.4753 13.4862 15.5314 13.4134 15.5314H12.7329C12.6643 15.5271 12.6105 15.4729 12.6105 15.4059L12.6103 13.5517C12.6103 13.4046 12.6231 13.0367 12.5911 12.8969C12.5403 12.6612 12.3878 12.5949 12.1907 12.5949C12.0252 12.5949 11.8534 12.7053 11.7834 12.8818C11.7134 13.0587 11.7198 13.3529 11.7198 13.5517V15.4057C11.7198 15.4753 11.661 15.5314 11.5884 15.5314H10.9078C10.8393 15.5271 10.7854 15.4729 10.7854 15.4059L10.7846 13.5517C10.7846 13.1616 10.8484 12.5878 10.365 12.5878C9.87508 12.5878 9.8943 13.1469 9.8943 13.5517L9.89391 15.4057C9.89391 15.4753 9.83508 15.5314 9.76252 15.5314ZM22.3632 12.4331C21.8608 12.4331 21.829 13.1173 21.829 13.5442C21.829 13.9712 21.8228 14.8838 22.3571 14.8838C22.8851 14.8838 22.9105 14.1479 22.9105 13.699C22.9105 13.4046 22.8976 13.0512 22.8086 12.7716C22.7323 12.5286 22.5795 12.4331 22.3632 12.4331ZM22.3571 11.7191C23.3685 11.7191 23.9154 12.5878 23.9154 13.6917C23.9154 14.7585 23.3112 15.6051 22.3571 15.6051C21.3647 15.6051 20.824 14.7366 20.824 13.6549C20.824 12.5655 21.3709 11.7191 22.3571 11.7191ZM25.2271 15.5314H24.548C24.48 15.5271 24.4258 15.4729 24.4258 15.4059L24.4247 11.9072C24.4306 11.843 24.487 11.793 24.5557 11.793L25.1877 11.7928C25.2473 11.796 25.2964 11.8364 25.3089 11.8907V12.4257H25.3217C25.5127 11.9472 25.7796 11.7191 26.2502 11.7191C26.5555 11.7191 26.8546 11.8295 27.0454 12.1313C27.2235 12.411 27.2235 12.8818 27.2235 13.2205V15.4214C27.216 15.4833 27.1603 15.5314 27.0929 15.5314H26.4098C26.3467 15.5275 26.2959 15.481 26.2884 15.4214V13.5225C26.2884 13.1397 26.3332 12.5802 25.8623 12.5802C25.697 12.5802 25.5442 12.6906 25.4679 12.8598C25.3724 13.0734 25.3597 13.2868 25.3597 13.5225V15.4057C25.3585 15.4753 25.2997 15.5314 25.2271 15.5314ZM16.8342 15.5227C16.7893 15.5631 16.7244 15.5659 16.6734 15.5386C16.4471 15.3506 16.4065 15.2637 16.2828 15.0845C15.9088 15.4655 15.6439 15.5798 15.1593 15.5798C14.5857 15.5798 14.1394 15.2256 14.1394 14.5177C14.1394 13.9645 14.4392 13.5884 14.8661 13.404C15.2358 13.2417 15.7521 13.2122 16.1475 13.1679V13.0795C16.1475 12.9169 16.1602 12.7255 16.0645 12.5853C15.9816 12.4598 15.8223 12.4082 15.6821 12.4082C15.4221 12.4082 15.1913 12.5414 15.1344 12.8173C15.1224 12.8787 15.0777 12.9397 15.0162 12.9428L14.3555 12.8712C14.2998 12.8585 14.2378 12.8138 14.2537 12.7287C14.4037 11.9385 15.1093 11.6922 15.7506 11.6856H15.8012C16.1294 11.6897 16.5487 11.7797 16.804 12.0246C17.1357 12.3345 17.1035 12.7475 17.1035 13.1975V14.2591C17.1035 14.5785 17.2363 14.7185 17.3608 14.8905C17.4045 14.9527 17.4141 15.0262 17.3586 15.0717C17.2194 15.1884 16.9721 15.4031 16.8362 15.5243L16.8342 15.5227ZM16.1475 13.8614C16.1475 14.1269 16.1538 14.3481 16.02 14.5842C15.9116 14.7758 15.7394 14.8938 15.5482 14.8938C15.287 14.8938 15.134 14.6948 15.134 14.3997C15.134 13.8192 15.6545 13.7137 16.1475 13.7137V13.8614ZM7.90149 15.5227C7.85638 15.5631 7.79128 15.5659 7.74048 15.5386C7.51398 15.3506 7.47339 15.2637 7.34984 15.0845C6.97568 15.4655 6.71094 15.5798 6.22636 15.5798C5.65275 15.5798 5.20642 15.2256 5.20642 14.5177C5.20642 13.9645 5.50587 13.5884 5.93318 13.404C6.30284 13.2417 6.81919 13.2122 7.21434 13.1679V13.0795C7.21434 12.9169 7.22728 12.7255 7.13158 12.5853C7.04863 12.4598 6.88919 12.4082 6.74918 12.4082C6.48914 12.4082 6.25793 12.5414 6.20146 12.8173C6.18969 12.8787 6.14478 12.9397 6.08301 12.9428L5.42253 12.8712C5.36664 12.8585 5.30467 12.8138 5.32075 12.7287C5.47038 11.9385 6.17616 11.6922 6.81762 11.6856H6.86821C7.19649 11.6897 7.61576 11.7797 7.87109 12.0246C8.20251 12.3345 8.17054 12.7475 8.17054 13.1975V14.2591C8.17054 14.5785 8.3033 14.7185 8.42783 14.8905C8.47117 14.9527 8.48117 15.0262 8.42567 15.0717C8.28644 15.1884 8.03896 15.4031 7.90306 15.5243L7.90149 15.5227ZM7.21434 13.8614C7.21434 14.1269 7.22081 14.3481 7.08687 14.5842C6.97862 14.7758 6.80644 14.8938 6.61504 14.8938C6.35383 14.8938 6.20087 14.6948 6.20087 14.3997C6.20087 13.8192 6.72152 13.7137 7.21434 13.7137V13.8614ZM36.5386 16.7861V16.5292C36.5386 16.456 36.5745 16.4056 36.6508 16.4101C36.7932 16.4303 36.9946 16.4505 37.1375 16.4211C37.3242 16.3823 37.4582 16.2499 37.5374 16.0685C37.649 15.8132 37.7229 15.6073 37.7696 15.4722L36.3519 11.9603C36.328 11.9007 36.321 11.7901 36.44 11.7901H36.9356C37.0301 11.7901 37.0685 11.8501 37.0897 11.9089L38.1175 14.7615L39.0986 11.9089C39.1186 11.8505 39.1588 11.7901 39.2525 11.7901H39.7198C39.8381 11.7901 39.8314 11.9005 39.8079 11.9603L38.4016 15.5818C38.2196 16.0638 37.9773 16.8316 37.4313 16.9649C37.1575 17.0365 36.8122 17.0106 36.6094 16.9257C36.5583 16.9 36.5386 16.8314 36.5386 16.7861ZM35.8776 15.3174C35.8776 15.3827 35.824 15.4363 35.7583 15.4363H35.4089C35.3334 15.4363 35.2818 15.3817 35.2722 15.3174L35.2371 15.0796C35.0765 15.2155 34.8794 15.3349 34.6656 15.418C34.2546 15.5777 33.7808 15.6041 33.3792 15.3574C33.0888 15.1792 32.9346 14.8307 32.9346 14.4712C32.9346 14.1932 33.0203 13.9174 33.2104 13.7172C33.4639 13.4436 33.8314 13.3093 34.2752 13.3093C34.5433 13.3093 34.9269 13.3409 35.2059 13.4321V12.9534C35.2059 12.4667 35.001 12.256 34.4607 12.256C34.0477 12.256 33.7318 12.3184 33.2921 12.4551C33.2217 12.4574 33.1805 12.4039 33.1805 12.3386V12.0656C33.1805 12.0001 33.2364 11.9368 33.297 11.9176C33.611 11.7807 34.0558 11.6954 34.5286 11.6797C35.1449 11.6797 35.8776 11.8187 35.8776 12.7667V15.3174ZM35.2059 14.6185V13.8963C34.9714 13.8321 34.5833 13.8055 34.4331 13.8055C34.1958 13.8055 33.9359 13.8615 33.8002 14.0076C33.6988 14.1147 33.653 14.2685 33.653 14.4171C33.653 14.6093 33.7194 14.8021 33.8748 14.8974C34.0552 15.0199 34.335 15.005 34.598 14.9303C34.8508 14.8585 35.0881 14.7317 35.2059 14.6185ZM30.7249 12.2668C31.5003 12.2668 31.7115 12.8765 31.7115 13.5746C31.7158 14.0453 31.6294 14.465 31.3856 14.7052C31.2032 14.885 30.9995 14.934 30.6928 14.934C30.4198 14.934 30.0607 14.7917 29.7924 14.5934V12.5973C30.0717 12.3827 30.428 12.2668 30.7249 12.2668ZM29.6736 16.9114H29.2055C29.14 16.9114 29.0865 16.8578 29.0865 16.7925V11.9152C29.0865 11.8499 29.14 11.7964 29.2055 11.7964H29.5638C29.6391 11.7964 29.6907 11.8509 29.7003 11.9152L29.7379 12.1707C30.0735 11.8729 30.5055 11.6818 30.9171 11.6818C32.07 11.6818 32.4491 12.6318 32.4491 13.6196C32.4491 14.6764 31.8692 15.5255 30.8885 15.5255C30.4755 15.5255 30.0893 15.3731 29.7924 15.1084V16.7925C29.7924 16.8578 29.7389 16.9114 29.6736 16.9114Z" fill="#333E47"/>
</svg>
