<svg width="24" height="24" viewBox="0 0 24 24" fill="none" xmlns="http://www.w3.org/2000/svg">
<path d="M21 3H3C1.34325 3 0 4.34325 0 6V18C0 19.6567 1.34325 21 3 21H21C22.6567 21 24 19.6567 24 18V6C24 4.34325 22.6567 3 21 3ZM22.5 18C22.5 18.8276 21.8269 19.5 21 19.5H3C2.17275 19.5 1.5 18.8276 1.5 18V6C1.5 5.17237 2.17275 4.5 3 4.5H21C21.8269 4.5 22.5 5.17237 22.5 6V18Z" fill="#B0BEC5"/>
<path d="M19.5 12C19.5 14.4851 17.4851 16.5 15 16.5C12.5149 16.5 10.5 14.4851 10.5 12C10.5 9.51487 12.5149 7.5 15 7.5C17.4851 7.5 19.5 9.51487 19.5 12Z" fill="#FFA000"/>
<path d="M13.5 12C13.5 14.4851 11.4851 16.5 9 16.5C6.51487 16.5 4.5 14.4851 4.5 12C4.5 9.51487 6.51487 7.5 9 7.5C11.4851 7.5 13.5 9.51487 13.5 12Z" fill="#D32F2F"/>
</svg>
