<svg width="45" height="30" viewBox="0 0 45 30" fill="none" xmlns="http://www.w3.org/2000/svg">
<path d="M21.5633 14.8418V18.871H20.285V8.92059H23.6751C24.0798 8.91214 24.4821 8.98391 24.8589 9.13176C25.2357 9.27961 25.5794 9.50061 25.8704 9.78201C26.1642 10.0463 26.3981 10.3705 26.5562 10.7327C26.7144 11.0949 26.7932 11.4868 26.7874 11.882C26.7958 12.2793 26.7182 12.6737 26.5599 13.0382C26.4016 13.4027 26.1664 13.7287 25.8704 13.9938C25.2776 14.5591 24.5458 14.8415 23.6751 14.841H21.5633V14.8418ZM21.5633 10.1456V13.6191H23.7069C23.9419 13.6261 24.1758 13.5839 24.3935 13.4953C24.6113 13.4067 24.8082 13.2737 24.9716 13.1046C25.1342 12.9466 25.2634 12.7576 25.3516 12.5487C25.4399 12.3399 25.4853 12.1154 25.4853 11.8887C25.4853 11.662 25.4399 11.4376 25.3516 11.2287C25.2634 11.0199 25.1342 10.8309 24.9716 10.6728C24.8103 10.5002 24.6141 10.3639 24.396 10.2729C24.178 10.1818 23.9431 10.1382 23.7069 10.1448H21.5633V10.1456ZM29.7328 11.8407C30.6776 11.8407 31.4234 12.0932 31.9702 12.5981C32.5169 13.103 32.79 13.7954 32.7895 14.675V18.871H31.5668V17.9262H31.5113C30.982 18.7043 30.278 19.0933 29.3994 19.0933C28.6494 19.0933 28.0219 18.871 27.517 18.4264C27.2747 18.2223 27.0809 17.9668 26.9499 17.6783C26.8189 17.3899 26.7538 17.0759 26.7596 16.7591C26.7596 16.0546 27.0258 15.4944 27.5583 15.0784C28.0907 14.6623 28.8016 14.4538 29.6908 14.4527C30.4498 14.4527 31.0749 14.5917 31.566 14.8696V14.5774C31.5675 14.3614 31.5209 14.1479 31.4295 13.9522C31.3382 13.7565 31.2045 13.5836 31.0381 13.446C30.7001 13.1411 30.2595 12.9747 29.8043 12.98C29.0903 12.98 28.5253 13.2812 28.1093 13.8835L26.9835 13.1745C27.6027 12.2853 28.5192 11.8407 29.7328 11.8407ZM28.0791 16.7869C28.0782 16.9496 28.1163 17.1101 28.19 17.2551C28.2637 17.4001 28.3711 17.5254 28.503 17.6205C28.7857 17.8429 29.1366 17.9607 29.4963 17.954C30.0357 17.9531 30.5527 17.7384 30.9341 17.357C31.3575 16.9584 31.5692 16.4908 31.5692 15.9541C31.1707 15.6365 30.6149 15.4777 29.902 15.4777C29.3827 15.4777 28.9498 15.6029 28.6031 15.8532C28.253 16.1073 28.0791 16.4161 28.0791 16.7869ZM39.8079 12.063L35.5397 21.8721H34.2202L35.8041 18.4399L32.9975 12.063H34.3869L36.4154 16.9536H36.4432L38.4161 12.063H39.8079Z" fill="#5F6368"/>
<path d="M16.398 13.9729C16.3984 13.5833 16.3655 13.1945 16.2995 12.8105H10.9087V15.0121H13.9963C13.9331 15.3638 13.7994 15.6989 13.6032 15.9975C13.407 16.296 13.1523 16.5518 12.8546 16.7493V18.1784H14.6973C15.7763 17.1835 16.398 15.7124 16.398 13.9729Z" fill="#4285F4"/>
<path d="M10.9089 19.5598C12.4515 19.5598 13.7504 19.0533 14.6976 18.1799L12.8549 16.7508C12.342 17.0986 11.6814 17.2971 10.9089 17.2971C9.4179 17.2971 8.15236 16.292 7.69982 14.9375H5.80151V16.4103C6.27729 17.357 7.00685 18.1529 7.90874 18.709C8.81062 19.2652 9.84933 19.5597 10.9089 19.5598Z" fill="#34A853"/>
<path d="M7.69864 14.9382C7.4594 14.2284 7.4594 13.4598 7.69864 12.7501V11.2773H5.80034C5.4001 12.0738 5.19165 12.9528 5.19165 13.8441C5.19165 14.7355 5.4001 15.6145 5.80034 16.4109L7.69864 14.9382Z" fill="#FBBC04"/>
<path d="M10.9089 10.3901C11.7241 10.3767 12.5118 10.6847 13.1018 11.2475L14.7333 9.61596C13.6987 8.64424 12.3282 8.11075 10.9089 8.12733C9.84933 8.12738 8.81062 8.42192 7.90873 8.97808C7.00685 9.53424 6.27729 10.3301 5.80151 11.2769L7.69982 12.7496C8.15236 11.3952 9.41789 10.3901 10.9089 10.3901Z" fill="#EA4335"/>
</svg>
