<svg width="45" height="30" viewBox="0 0 45 30" fill="none" xmlns="http://www.w3.org/2000/svg">
<path d="M39.6907 12.7763C39.3765 11.8779 38.5203 11.2328 37.5145 11.2328H37.4934C36.8396 11.2328 36.2504 11.5049 35.831 11.9417C35.4108 11.5049 34.8216 11.2328 34.1685 11.2328H34.1474C33.5727 11.2328 33.0473 11.4432 32.6439 11.7915V11.6145C32.6301 11.4381 32.4849 11.2996 32.3057 11.2996H30.7629C30.5743 11.2996 30.4219 11.4519 30.4219 11.6413V20.019C30.4219 20.2084 30.5743 20.3608 30.7629 20.3608H32.3057C32.4777 20.3608 32.6192 20.2324 32.6417 20.0662L32.641 14.052C32.6408 14.0319 32.6418 14.0117 32.6438 13.9917C32.6685 13.7232 32.8652 13.5026 33.1758 13.4751H33.4602C33.5901 13.4867 33.6997 13.5324 33.786 13.6013C33.9203 13.708 33.995 13.872 33.995 14.052L34.0008 20.0365C34.0008 20.2259 34.1539 20.379 34.3419 20.379H35.8846C36.0668 20.379 36.2148 20.2338 36.2235 20.0532L36.2228 14.044C36.2221 13.8466 36.3135 13.6681 36.4739 13.5621C36.553 13.5113 36.648 13.4772 36.7576 13.4671H37.0421C37.3759 13.4961 37.5776 13.7494 37.5769 14.044L37.5827 20.0205C37.5827 20.2099 37.7358 20.3623 37.9237 20.3623H39.4665C39.6544 20.3623 39.8075 20.2099 39.8075 20.0205V13.5926C39.8075 13.1543 39.7582 12.9678 39.6907 12.7763H39.6907ZM29.2466 11.3214H28.3642V9.88748C28.3642 9.71549 28.2249 9.57617 28.0529 9.57617C28.0325 9.57617 28.013 9.57905 27.9941 9.58269C27.0159 9.85119 27.2118 11.206 25.426 11.3214H25.2525C25.2264 11.3214 25.2017 11.325 25.1778 11.3301H25.1764L25.1778 11.3308C25.0254 11.3649 24.9108 11.4999 24.9108 11.6624V13.2052C24.9108 13.3931 25.0639 13.5462 25.2525 13.5462H26.1836L26.1821 20.0881C26.1821 20.2745 26.3331 20.4255 26.5195 20.4255H28.0449C28.2307 20.4255 28.3816 20.2745 28.3816 20.0881L28.3823 13.5462H29.2466C29.4345 13.5462 29.5876 13.3931 29.5876 13.2052V11.6624C29.5876 11.4745 29.4345 11.3214 29.2466 11.3214" fill="#00BAF2"/>
<path d="M23.6966 11.3207H22.1539C21.9659 11.3207 21.8135 11.4738 21.8135 11.6617V14.8517C21.8099 15.0491 21.6502 15.2073 21.4521 15.2073H20.8063C20.606 15.2073 20.4442 15.0462 20.4442 14.8459L20.4384 11.6618C20.4384 11.4738 20.2853 11.3207 20.0973 11.3207H18.5546C18.3659 11.3207 18.2135 11.4738 18.2135 11.6618V15.158C18.2135 16.4859 19.1605 17.4329 20.4892 17.4329C20.4892 17.4329 21.4862 17.4329 21.5167 17.4387C21.6967 17.459 21.8367 17.61 21.8367 17.7957C21.8367 17.9793 21.6996 18.1295 21.5218 18.152C21.5131 18.1535 21.5051 18.1557 21.4957 18.1571L19.2396 18.1651C19.0509 18.1651 18.8986 18.3182 18.8986 18.5062V20.0482C18.8986 20.2369 19.0509 20.3892 19.2396 20.3892H21.762C23.0914 20.3892 24.0377 19.443 24.0377 18.1143V11.6618C24.0377 11.4738 23.8853 11.3207 23.6966 11.3207V11.3207ZM8.76384 14.1475V15.0996C8.76384 15.2991 8.60202 15.4617 8.40247 15.4617L7.42355 15.4624V13.5546H8.40247C8.60202 13.5546 8.76384 13.7157 8.76384 13.916V14.1475ZM8.89954 11.3203H5.5274C5.34235 11.3203 5.19287 11.4705 5.19287 11.6548V13.1664C5.19287 13.1693 5.19359 13.1722 5.19359 13.1751C5.19359 13.1824 5.19287 13.1896 5.19287 13.1961V20.0377C5.19287 20.2234 5.33219 20.3751 5.50492 20.3795H7.07666C7.26461 20.3795 7.41771 20.2271 7.41771 20.0384L7.42353 17.6938H8.89952C10.1346 17.6938 10.9952 16.8368 10.9952 15.5966V13.4204C10.9952 12.1802 10.1346 11.3203 8.89952 11.3203L8.89954 11.3203ZM15.1649 17.7694V18.0103C15.1649 18.0299 15.1621 18.0488 15.1592 18.0669C15.1555 18.0839 15.1507 18.1007 15.1446 18.117C15.0967 18.252 14.9618 18.3499 14.8014 18.3499H14.1592C13.9589 18.3499 13.7956 18.1975 13.7956 18.0103V17.7193C13.7956 17.7157 13.7949 17.7121 13.7949 17.7085L13.7956 16.9342V16.6918L13.7964 16.6896C13.7971 16.5031 13.9589 16.3522 14.1592 16.3522H14.8014C15.0024 16.3522 15.165 16.5039 15.165 16.6918L15.1649 17.7694ZM14.9197 11.3292H12.779C12.5896 11.3292 12.4365 11.4729 12.4365 11.6492V12.2493C12.4365 12.2529 12.4372 12.2573 12.4372 12.2609C12.4372 12.2653 12.4365 12.2696 12.4365 12.274V13.0962C12.4365 13.2827 12.5991 13.435 12.7993 13.435H14.8377C14.9988 13.4604 15.1265 13.578 15.1447 13.7616V13.9604C15.1265 14.1353 15.0003 14.263 14.8464 14.2775H13.837C12.4946 14.2775 11.5381 15.1694 11.5381 16.4218V18.2157C11.5381 19.4609 12.3603 20.3469 13.6933 20.3469H16.4908C16.9929 20.3469 17.4 19.9667 17.4 19.4986V13.6448C17.4 12.2254 16.6685 11.3292 14.9197 11.3292H14.9197Z" fill="#1F336B"/>
</svg>
