<svg width="45" height="30" viewBox="0 0 45 30" fill="none" xmlns="http://www.w3.org/2000/svg">
<path d="M14.4678 16.0781C15.0643 13.5518 13.4999 11.0202 10.9736 10.4237C8.44726 9.82712 5.91568 11.3915 5.31914 13.9179C4.7226 16.4442 6.28701 18.9758 8.81334 19.5723C11.3397 20.1689 13.8713 18.6044 14.4678 16.0781Z" fill="#5F259F"/>
<path d="M28.9637 17.686V15.9792C28.9637 15.559 28.8061 15.349 28.4122 15.349C28.2547 15.349 28.0709 15.3752 27.9659 15.4015V17.896C27.9659 17.9748 27.8871 18.0536 27.8083 18.0536H27.2044C27.1256 18.0536 27.0468 17.9748 27.0468 17.896V14.9813C27.0468 14.8763 27.1256 14.7975 27.2044 14.7713C27.5982 14.64 27.9921 14.5612 28.4122 14.5612C29.3576 14.5612 29.8827 15.0601 29.8827 15.9792V17.9223C29.8827 18.0011 29.804 18.0799 29.7252 18.0799H29.3576C29.1212 18.0799 28.9637 17.896 28.9637 17.686ZM31.327 16.6619L31.3007 16.8982C31.3007 17.2133 31.5108 17.3971 31.8521 17.3971C32.1147 17.3971 32.351 17.3184 32.6136 17.1871C32.6399 17.1871 32.6661 17.1608 32.6924 17.1608C32.7449 17.1608 32.7712 17.1871 32.7974 17.2133C32.8237 17.2396 32.8762 17.3184 32.8762 17.3184C32.9287 17.3971 32.9813 17.5022 32.9813 17.5809C32.9813 17.7122 32.9025 17.8435 32.7974 17.896C32.5086 18.0536 32.1672 18.1324 31.7996 18.1324C31.3795 18.1324 31.0381 18.0273 30.7755 17.8173C30.5129 17.5809 30.3554 17.2658 30.3554 16.872V15.8479C30.3554 15.0339 30.8806 14.5349 31.7734 14.5349C32.6399 14.5349 33.1388 15.0076 33.1388 15.8479V16.4781C33.1388 16.5569 33.06 16.6356 32.9813 16.6356H31.327V16.6619ZM31.3007 16.0842H32.2985V15.8216C32.2985 15.5065 32.1147 15.2964 31.7996 15.2964C31.4845 15.2964 31.3007 15.4802 31.3007 15.8216V16.0842ZM37.9966 16.6619L37.9704 16.8982C37.9704 17.2133 38.1805 17.3971 38.5218 17.3971C38.7844 17.3971 39.0207 17.3184 39.2833 17.1871C39.3096 17.1871 39.3358 17.1608 39.3621 17.1608C39.4146 17.1608 39.4409 17.1871 39.4671 17.2133C39.4934 17.2396 39.5459 17.3184 39.5459 17.3184C39.5984 17.3971 39.6509 17.5022 39.6509 17.5809C39.6509 17.7122 39.5722 17.8435 39.4671 17.896C39.1783 18.0536 38.8369 18.1324 38.4693 18.1324C38.0492 18.1324 37.7078 18.0273 37.4452 17.8173C37.1826 17.5809 37.0251 17.2658 37.0251 16.872V15.8479C37.0251 15.0339 37.5502 14.5349 38.443 14.5349C39.3096 14.5349 39.8085 15.0076 39.8085 15.8479V16.4781C39.8085 16.5569 39.7297 16.6356 39.6509 16.6356H37.9966V16.6619ZM37.9704 16.0842H38.9682V15.8216C38.9682 15.5065 38.7844 15.2964 38.4693 15.2964C38.1542 15.2964 37.9704 15.4802 37.9704 15.8216V16.0842ZM22.5303 18.0799H22.8979C22.9767 18.0799 23.0555 18.0011 23.0555 17.9223V15.9792C23.0555 15.0864 22.5828 14.5612 21.7951 14.5612C21.5587 14.5612 21.2962 14.6137 21.1386 14.6662V13.6947C21.1386 13.4846 20.9548 13.3008 20.7447 13.3008H20.3771C20.2983 13.3008 20.2196 13.3796 20.2196 13.4583V17.9223C20.2196 18.0011 20.2983 18.0799 20.3771 18.0799H20.9811C21.0598 18.0799 21.1386 18.0011 21.1386 17.9223V15.454C21.2699 15.4015 21.4537 15.3752 21.585 15.3752C21.9789 15.3752 22.1364 15.559 22.1364 16.0054V17.7122C22.1627 17.896 22.3202 18.0799 22.5303 18.0799ZM26.4954 15.8741V16.8457C26.4954 17.6597 25.9439 18.1586 25.0249 18.1586C24.1321 18.1586 23.5544 17.6597 23.5544 16.8457V15.8741C23.5544 15.0601 24.1058 14.5612 25.0249 14.5612C25.9439 14.5612 26.4954 15.0601 26.4954 15.8741ZM25.5763 15.8741C25.5763 15.559 25.3925 15.349 25.0511 15.349C24.7098 15.349 24.526 15.5328 24.526 15.8741V16.8457C24.526 17.1608 24.7098 17.3446 25.0511 17.3446C25.3925 17.3446 25.5763 17.1608 25.5763 16.8457V15.8741ZM19.7206 15.4277C19.7206 16.268 19.0904 16.8457 18.2502 16.8457C18.0401 16.8457 17.8563 16.8194 17.6725 16.7407V17.9223C17.6725 18.0011 17.5937 18.0799 17.5149 18.0799H16.911C16.8322 18.0799 16.7534 18.0011 16.7534 17.9223V13.7472C16.7534 13.6421 16.8322 13.5634 16.911 13.5371C17.3048 13.4058 17.6987 13.327 18.1189 13.327C19.0642 13.327 19.7206 13.9047 19.7206 14.7975V15.4277ZM18.7753 14.745C18.7753 14.3249 18.4865 14.1148 18.0926 14.1148C17.8563 14.1148 17.6987 14.1936 17.6987 14.1936V15.9266C17.8563 16.0054 17.9351 16.0317 18.1189 16.0317C18.5127 16.0317 18.8016 15.7954 18.8016 15.4015V14.745H18.7753ZM36.6837 15.4277C36.6837 16.268 36.0535 16.8457 35.2132 16.8457C35.0032 16.8457 34.8194 16.8194 34.6355 16.7407V17.9223C34.6355 18.0011 34.5568 18.0799 34.478 18.0799H33.874C33.7953 18.0799 33.7165 18.0011 33.7165 17.9223V13.7472C33.7165 13.6421 33.7953 13.5634 33.874 13.5371C34.2679 13.4058 34.6618 13.327 35.0819 13.327C36.0273 13.327 36.6837 13.9047 36.6837 14.7975V15.4277ZM35.7384 14.745C35.7384 14.3249 35.4496 14.1148 35.0557 14.1148C34.8194 14.1148 34.6618 14.1936 34.6618 14.1936V15.9266C34.8194 16.0054 34.8981 16.0317 35.0819 16.0317C35.4758 16.0317 35.7647 15.7954 35.7647 15.4015V14.745H35.7384Z" fill="#5F259F"/>
<path d="M12.0261 13.7745C12.0261 13.5907 11.8685 13.4331 11.6847 13.4331H11.0545L9.61031 11.7788C9.47901 11.6213 9.26894 11.5687 9.05888 11.6213L8.55996 11.7788C8.48119 11.8051 8.45493 11.9101 8.50744 11.9626L10.083 13.4594H7.69343C7.61465 13.4594 7.56213 13.5119 7.56213 13.5907V13.8532C7.56213 14.0371 7.71969 14.1946 7.9035 14.1946H8.27112V15.455C8.27112 16.4003 8.77003 16.9518 9.61031 16.9518C9.87289 16.9518 10.083 16.9255 10.3455 16.8205V17.6607C10.3455 17.8971 10.5294 18.0809 10.7657 18.0809H11.1333C11.2121 18.0809 11.2909 18.0021 11.2909 17.9233V14.1683H11.8948C11.9736 14.1683 12.0261 14.1158 12.0261 14.0371V13.7745ZM10.3455 16.0327C10.188 16.1115 9.97793 16.1377 9.82038 16.1377C9.40024 16.1377 9.19017 15.9277 9.19017 15.455V14.1946H10.3455V16.0327Z" fill="white"/>
</svg>
